<?xml version="1.0" encoding="utf-8"?>
<!-- Generator: Adobe Illustrator 16.0.0, SVG Export Plug-In . SVG Version: 6.00 Build 0)  -->
<!DOCTYPE svg PUBLIC "-//W3C//DTD SVG 1.1//EN" "http://www.w3.org/Graphics/SVG/1.1/DTD/svg11.dtd">
<svg version="1.1" id="Calque_2" xmlns="http://www.w3.org/2000/svg" xmlns:xlink="http://www.w3.org/1999/xlink" x="0px" y="0px"
	 width="23.489px" height="23.296px" viewBox="4.256 4.352 23.489 23.296" enable-background="new 4.256 4.352 23.489 23.296"
	 xml:space="preserve">
<path fill="#FFFFFF" d="M26.752,8H13.28c-0.545,0-0.992-0.448-0.992-0.992c0-0.544,0.447-0.992,0.992-0.992h13.472
	c0.544,0,0.992,0.448,0.992,0.992C27.774,7.552,27.328,8,26.752,8z M8.576,9.664H5.248c-0.544,0-0.992-0.448-0.992-0.992V5.344
	c0-0.544,0.448-0.992,0.992-0.992h3.328c0.544,0,0.992,0.448,0.992,0.992v3.328C9.568,9.216,9.12,9.664,8.576,9.664z M6.24,7.68
	h1.344V6.336H6.24V7.68z M26.752,16.992H13.28c-0.545,0-0.992-0.447-0.992-0.992c0-0.543,0.447-0.992,0.992-0.992h13.472
	c0.544,0,0.992,0.449,0.992,0.992C27.774,16.544,27.328,16.992,26.752,16.992z M8.576,18.656H5.248
	c-0.544,0-0.992-0.447-0.992-0.992v-3.328c0-0.543,0.448-0.991,0.992-0.991h3.328c0.544,0,0.992,0.448,0.992,0.991v3.328
	C9.568,18.208,9.12,18.656,8.576,18.656z M6.24,16.671h1.344v-1.344H6.24V16.671z M26.752,25.984H13.28
	c-0.545,0-0.992-0.447-0.992-0.992S12.735,24,13.28,24h13.472c0.544,0,0.992,0.447,0.992,0.992
	C27.774,25.537,27.328,25.984,26.752,25.984z M8.576,27.648H5.248c-0.544,0-0.992-0.447-0.992-0.992v-3.328
	c0-0.543,0.448-0.992,0.992-0.992h3.328c0.544,0,0.992,0.449,0.992,0.992v3.328C9.568,27.201,9.12,27.648,8.576,27.648z
	 M6.24,25.664h1.344V24.32H6.24V25.664z"/>
</svg>
