<?xml version="1.0" encoding="utf-8"?>
<!-- Generator: Adobe Illustrator 15.1.0, SVG Export Plug-In . SVG Version: 6.00 Build 0)  -->
<!DOCTYPE svg PUBLIC "-//W3C//DTD SVG 1.1//EN" "http://www.w3.org/Graphics/SVG/1.1/DTD/svg11.dtd">
<svg version="1.1" id="Calque_2" xmlns="http://www.w3.org/2000/svg" xmlns:xlink="http://www.w3.org/1999/xlink" x="0px" y="0px"
	 width="32px" height="32px" viewBox="0 0 32 32" enable-background="new 0 0 32 32" xml:space="preserve">
<path fill="#BA9347" d="M15.968,28.48c-0.224,0-0.48-0.097-0.672-0.256c-1.024-0.832-9.888-8.576-9.888-14.145
	c0-5.824,4.736-10.56,10.56-10.56c5.824,0,10.56,4.736,10.56,10.56c0,5.568-8.863,13.279-9.887,14.145
	C16.448,28.416,16.192,28.48,15.968,28.48z M15.968,5.184c-4.864,0-8.832,3.968-8.832,8.832c0,3.776,5.856,9.824,8.832,12.511
	c3.009-2.688,8.832-8.735,8.832-12.511C24.8,9.152,20.832,5.184,15.968,5.184z"/>
<path fill="#BA9347" d="M15.968,19.232c-2.848,0-5.152-2.305-5.152-5.152c0-2.848,2.304-5.12,5.152-5.12
	c2.849,0,5.152,2.304,5.152,5.12C21.12,16.896,18.816,19.232,15.968,19.232z M15.968,10.464c-2.016,0-3.616,1.632-3.616,3.616
	c0,2.016,1.632,3.615,3.616,3.615c2.017,0,3.616-1.631,3.616-3.615S17.952,10.464,15.968,10.464z"/>
</svg>
