<?xml version="1.0" encoding="utf-8"?>
<!-- Generator: Adobe Illustrator 16.0.0, SVG Export Plug-In . SVG Version: 6.00 Build 0)  -->
<!DOCTYPE svg PUBLIC "-//W3C//DTD SVG 1.0//EN" "http://www.w3.org/TR/2001/REC-SVG-20010904/DTD/svg10.dtd">
<svg version="1.0" id="Calque_1" xmlns="http://www.w3.org/2000/svg" xmlns:xlink="http://www.w3.org/1999/xlink" x="0px" y="0px"
	 width="22.879px" height="25.518px" viewBox="0 0 22.879 25.518" enable-background="new 0 0 22.879 25.518" xml:space="preserve">
<path fill="#00492C" d="M20.52,25.518H2.358c-1.3,0-2.357-1.058-2.357-2.359V9.92c0-0.292,0.13-0.57,0.352-0.76l10.481-8.924
	c0.376-0.316,0.926-0.317,1.299,0.005L22.53,9.16c0.223,0.189,0.35,0.467,0.35,0.76v13.24C22.879,24.46,21.822,25.518,20.52,25.518z
	 M2,10.38v12.78c0,0.195,0.16,0.356,0.357,0.356H20.52c0.197,0,0.359-0.16,0.359-0.357V10.38L11.48,2.316L2,10.38z M20.52,25.018
	H2.358c-0.764,0-1.46-0.481-1.733-1.2c-0.073-0.193-0.02-0.413,0.135-0.55l10.348-9.229c0.19-0.17,0.477-0.17,0.666,0l10.348,9.229
	c0.154,0.137,0.209,0.355,0.135,0.55C21.982,24.535,21.288,25.018,20.52,25.018L20.52,25.018z M1.73,23.74
	c0.157,0.176,0.382,0.277,0.627,0.277H20.52c0.246,0,0.473-0.103,0.63-0.275l-9.71-8.66l-9.71,8.66V23.74z M14.625,17.684
	c-0.139,0-0.274-0.057-0.373-0.167c-0.185-0.206-0.166-0.521,0.039-0.706l7.164-6.386c0.207-0.186,0.521-0.166,0.705,0.04
	c0.185,0.206,0.168,0.521-0.039,0.706l-7.162,6.387C14.863,17.643,14.745,17.685,14.625,17.684L14.625,17.684z M8.31,17.733
	c-0.12,0-0.238-0.042-0.334-0.127L0.76,11.17c-0.207-0.185-0.225-0.5-0.04-0.706c0.182-0.206,0.497-0.226,0.705-0.04l7.217,6.437
	c0.206,0.186,0.224,0.5,0.04,0.707C8.582,17.678,8.446,17.734,8.31,17.733L8.31,17.733z M11.438,12.83
	c-0.256,0-0.512-0.098-0.707-0.292L7.98,9.79c-0.39-0.391-0.39-1.022,0-1.413c0.39-0.392,1.024-0.391,1.415,0l2.043,2.04l2.043-2.04
	c0.393-0.391,1.023-0.391,1.415,0c0.392,0.39,0.39,1.023,0,1.414l-2.75,2.748c-0.194,0.194-0.45,0.293-0.707,0.293L11.438,12.83z
	 M11.438,12.083c-0.553,0-1-0.447-1-1V6.156c0-0.553,0.447-1,1-1c0.553,0,1,0.447,1,1v4.927
	C12.438,11.636,11.991,12.083,11.438,12.083z"/>
</svg>
