<?xml version="1.0" encoding="utf-8"?>
<!-- Generator: Adobe Illustrator 15.1.0, SVG Export Plug-In . SVG Version: 6.00 Build 0)  -->
<!DOCTYPE svg PUBLIC "-//W3C//DTD SVG 1.1//EN" "http://www.w3.org/Graphics/SVG/1.1/DTD/svg11.dtd">
<svg version="1.1" id="Calque_1" xmlns="http://www.w3.org/2000/svg" xmlns:xlink="http://www.w3.org/1999/xlink" x="0px" y="0px"
	 width="32px" height="32px" viewBox="0 0 32 32" enable-background="new 0 0 32 32" xml:space="preserve">
<path fill="#6D2361" d="M18.496,28.128c-0.32,0-0.576-0.256-0.576-0.576v-6.815c0-0.32,0.256-0.576,0.576-0.576h6.848
	c0.32,0,0.576,0.256,0.576,0.576s-0.256,0.576-0.576,0.576h-6.271v6.271C19.072,27.872,18.816,28.128,18.496,28.128z"/>
<path fill="#6D2361" d="M18.496,28.704H6.72c-0.64,0-1.152-0.513-1.152-1.152V4.192c0-0.64,0.512-1.152,1.152-1.152h18.592
	c0.64,0,1.151,0.512,1.151,1.152v16.544c0,0.287-0.128,0.576-0.319,0.8l-6.849,6.848C19.104,28.576,18.816,28.704,18.496,28.704z
	 M7.872,26.432h10.176l6.177-6.176V5.312H7.904v21.12H7.872z"/>
<path fill="#6D2361" d="M16.032,18.4c-0.288,0-0.576-0.096-0.8-0.32l-3.36-3.36c-0.448-0.448-0.448-1.152,0-1.6
	c0.448-0.448,1.152-0.448,1.6,0l2.56,2.528l2.56-2.528c0.448-0.448,1.152-0.448,1.6,0c0.449,0.448,0.449,1.152,0,1.6l-3.359,3.36
	C16.607,18.305,16.32,18.4,16.032,18.4z"/>
<path fill="#6D2361" d="M16.032,17.504c-0.64,0-1.152-0.512-1.152-1.152V8.608c0-0.64,0.512-1.152,1.152-1.152
	c0.64,0,1.151,0.512,1.151,1.152v7.744C17.184,16.992,16.672,17.504,16.032,17.504z"/>
</svg>
