<?xml version="1.0" encoding="utf-8"?>
<!-- Generator: Adobe Illustrator 16.0.0, SVG Export Plug-In . SVG Version: 6.00 Build 0)  -->
<!DOCTYPE svg PUBLIC "-//W3C//DTD SVG 1.1//EN" "http://www.w3.org/Graphics/SVG/1.1/DTD/svg11.dtd">
<svg version="1.1" id="Calque_3" xmlns="http://www.w3.org/2000/svg" xmlns:xlink="http://www.w3.org/1999/xlink" x="0px" y="0px"
	 width="22.336px" height="24.908px" viewBox="4.864 3.548 22.336 24.908" enable-background="new 4.864 3.548 22.336 24.908"
	 xml:space="preserve">
<path fill="#6D2361" d="M5.792,28.447c-0.16,0-0.32-0.031-0.48-0.127c-0.288-0.16-0.448-0.48-0.448-0.801V8.544
	c0-0.352,0.192-0.64,0.48-0.832l6.784-4.032c0.16-0.096,0.352-0.128,0.544-0.128s0.384,0.032,0.544,0.128l6.272,3.744L25.76,3.68
	c0.288-0.16,0.672-0.192,0.961,0C27.008,3.84,27.2,4.16,27.2,4.512v18.976c0,0.352-0.192,0.64-0.479,0.832l-6.625,3.904
	c-0.031,0.03-0.096,0.063-0.128,0.096c-0.192,0.096-0.415,0.16-0.64,0.127c-0.128,0-0.225-0.063-0.352-0.127
	c-0.064-0.032-0.098-0.064-0.129-0.096l-6.208-3.682L6.304,28.32C6.144,28.416,5.984,28.447,5.792,28.447z M6.464,8.864v17.472
	l5.408-2.977V5.792l-5.088,2.88L6.464,8.864z M20.256,9.376v16.929l5.313-2.945V5.792l-5.313,3.072V9.376z M13.472,23.359
	l5.215,2.945V8.864L13.472,5.76V23.359z"/>
</svg>
