<svg baseProfile="tiny" xmlns="http://www.w3.org/2000/svg" width="126.034" height="99.974" viewBox="0 0 126.034 99.974"><g fill="#fff"><path d="M75.018 59.717V53.17l-6.538-1.637-1.696-6.322 4.846-4.686-3.273-5.67-6.48 1.853-4.63-4.63 1.853-6.48-5.67-3.273-4.688 4.845-6.323-1.695-1.637-6.54h-6.546l-1.637 6.54-6.323 1.693-4.687-4.845-5.67 3.273 1.853 6.48-4.63 4.63-6.48-1.853-3.272 5.67 4.845 4.687-1.694 6.322L0 53.17v6.547l6.54 1.637 1.693 6.324-4.843 4.685 3.272 5.67 6.48-1.853 4.63 4.63-1.852 6.48 5.67 3.272 4.686-4.844 6.323 1.694 1.635 6.537h6.546l1.637-6.538 6.323-1.694 4.688 4.844 5.67-3.272-1.853-6.48 4.63-4.63 6.48 1.852 3.273-5.67-4.846-4.685 1.696-6.324 6.54-1.636zm-37.51 8.223c-6.35 0-11.496-5.148-11.496-11.497S31.16 44.946 37.51 44.946s11.496 5.148 11.496 11.497S43.858 67.94 37.51 67.94M117.65 80.592v-3.706l-3.7-.927-.96-3.58 2.742-2.653-1.854-3.21-3.668 1.048-2.62-2.62 1.047-3.67-3.21-1.852-2.652 2.742-3.58-.96-.926-3.7h-3.707l-.927 3.7-3.58.96-2.653-2.742-3.21 1.853 1.05 3.67-2.62 2.62-3.67-1.05-1.854 3.21 2.742 2.654-.96 3.58-3.7.926v3.706l3.7.927.96 3.58L77.1 87.75l1.854 3.21 3.67-1.05 2.62 2.62-1.05 3.67 3.21 1.854 2.653-2.743 3.58.96.927 3.7h3.706l.926-3.7 3.58-.96 2.652 2.743 3.21-1.853-1.048-3.67 2.62-2.62 3.67 1.05 1.853-3.21-2.743-2.654.96-3.58 3.7-.928zm-21.234 4.656c-3.594 0-6.51-2.915-6.51-6.51 0-3.594 2.916-6.508 6.51-6.508 3.595 0 6.51 2.914 6.51 6.51 0 3.593-2.915 6.508-6.51 6.508M121.43 22.954l-1.193-4.452 3.412-3.3-2.307-3.993-4.563 1.304-3.26-3.26 1.305-4.563-3.993-2.305-3.3 3.412-4.453-1.192L101.925 0h-4.61l-1.15 4.604-4.453 1.192-3.3-3.412-3.994 2.306 1.303 4.563-3.26 3.26L77.9 11.21 75.594 15.2l3.412 3.3-1.193 4.452-4.604 1.153v4.61l4.603 1.152 1.193 4.45-3.412 3.3 2.306 3.994 4.563-1.306 3.26 3.26-1.305 4.564 3.992 2.306 3.3-3.412 4.453 1.192 1.152 4.605h4.61l1.15-4.605 4.454-1.192 3.3 3.412 3.992-2.306-1.305-4.563 3.26-3.262 4.563 1.306 2.306-3.993-3.412-3.3 1.193-4.45 4.604-1.153v-4.61l-4.6-1.153zm-13.713 3.458c0 4.47-3.624 8.096-8.096 8.096-4.47 0-8.095-3.625-8.095-8.096 0-4.47 3.625-8.096 8.096-8.096 4.473 0 8.097 3.626 8.097 8.096"/></g></svg>