<svg baseProfile="tiny" xmlns="http://www.w3.org/2000/svg" width="127.613" height="87.838" viewBox="0 0 127.613 87.838"><g fill="#fff"><path d="M124.736 76.344c-1.6-.837-3.297-.866-3.313-.866H6.18c-.006 0-1.702.03-3.303.866C.94 77.354 0 79.094 0 81.658c0 6.006 5.548 6.18 6.18 6.18h115.246c.074-.002 1.738-.044 3.31-.866 1.938-1.012 2.878-2.75 2.878-5.314s-.94-4.303-2.878-5.314zM63.807 17.85C33.85 17.85 9.352 41.676 8.27 71.374h111.074c-1.082-29.698-25.58-53.522-55.537-53.522zm49.797 49.356c-.135.027-.27.04-.404.04-.958 0-1.814-.674-2.01-1.65-3.268-16.332-12.178-27.936-26.484-34.488-10.798-4.946-20.8-5.024-20.9-5.024-1.133-.003-2.05-.923-2.05-2.055 0-1.134.92-2.052 2.052-2.052.438 0 10.87.06 22.46 5.33C97.032 32.2 110.79 42.675 115.215 64.79c.22 1.11-.5 2.192-1.612 2.416zM63.807 0C59.63 0 56.24 3.387 56.24 7.565c0 2.386 1.108 4.51 2.833 5.896 1.297 1.043 2.94 1.67 4.734 1.67s3.438-.627 4.735-1.67c1.725-1.385 2.83-3.51 2.83-5.895C71.373 3.387 67.986 0 63.808 0z"/></g></svg>