<?xml version="1.0" encoding="utf-8"?>
<!-- Generator: Adobe Illustrator 16.0.0, SVG Export Plug-In . SVG Version: 6.00 Build 0)  -->
<!DOCTYPE svg PUBLIC "-//W3C//DTD SVG 1.1//EN" "http://www.w3.org/Graphics/SVG/1.1/DTD/svg11.dtd">
<svg version="1.1" id="Calque_4" xmlns="http://www.w3.org/2000/svg" xmlns:xlink="http://www.w3.org/1999/xlink" x="0px" y="0px"
	 width="32px" height="32px" viewBox="0 0 32 32" enable-background="new 0 0 32 32" xml:space="preserve">
<path fill="#FFFFFF" d="M24.641,13.792l-1.023,0.8c-0.288,0.224-0.674,0.16-0.864-0.096c-0.19-0.256-0.16-0.64,0.128-0.864
	l1.023-0.8c0.447-0.352,0.544-0.992,0.225-1.44L19.2,5.12c-0.353-0.448-0.992-0.512-1.44-0.128L4.224,15.552
	C3.776,15.904,3.68,16.544,4,16.992l0.576,0.736c0.192,0.256,0.16,0.64-0.128,0.862c-0.288,0.226-0.672,0.16-0.864-0.096
	L3.008,17.76c-0.736-0.96-0.544-2.368,0.48-3.136l13.536-10.56c0.992-0.768,2.434-0.64,3.168,0.32l4.896,6.272
	C25.855,11.584,25.632,13.024,24.641,13.792z"/>
<path fill="#FFFFFF" d="M5.952,17.792c-0.032,0-0.032,0.032-0.064,0.032c-0.128,0.031-0.256,0-0.288-0.129L4.384,14.56
	c-0.032-0.128,0-0.256,0.128-0.288c0.128-0.032,0.256,0,0.288,0.128l1.216,3.136C6.08,17.632,6.048,17.729,5.952,17.792z
	 M6.912,17.088c-0.032,0-0.032,0.032-0.064,0.032c-0.128,0.032-0.256,0-0.288-0.128l-1.216-3.136c-0.032-0.128,0-0.256,0.128-0.288
	c0.128-0.032,0.256,0,0.288,0.128l1.216,3.136C7.008,16.896,6.976,17.023,6.912,17.088z M7.84,16.352
	c-0.032,0-0.032,0.032-0.064,0.032c-0.128,0.032-0.256,0-0.288-0.128L6.272,13.12c-0.032-0.128,0-0.256,0.128-0.288
	c0.128-0.032,0.256,0,0.288,0.128l1.216,3.136C7.936,16.192,7.904,16.288,7.84,16.352z M8.768,15.616
	c-0.032,0-0.032,0.032-0.064,0.032c-0.128,0.032-0.256,0-0.288-0.128L7.2,12.384c-0.032-0.128,0-0.256,0.128-0.288
	c0.128-0.032,0.256,0,0.288,0.128l1.216,3.136C8.864,15.456,8.832,15.552,8.768,15.616z M9.696,14.88
	c-0.032,0-0.032,0.032-0.064,0.032c-0.128,0.032-0.256,0-0.288-0.128l-1.216-3.136c-0.032-0.128,0-0.256,0.128-0.288
	c0.128-0.032,0.256,0,0.288,0.128l1.216,3.136C9.824,14.72,9.792,14.816,9.696,14.88L9.696,14.88z M10.656,14.144
	c-0.032,0-0.032,0.032-0.064,0.032c-0.128,0.032-0.256,0-0.288-0.128l-1.216-3.136c-0.032-0.128,0-0.256,0.128-0.288
	c0.128-0.032,0.256,0,0.288,0.128l1.216,3.136C10.752,13.984,10.72,14.112,10.656,14.144z M11.584,13.44
	c-0.032,0-0.032,0.032-0.064,0.032c-0.128,0.032-0.256,0-0.288-0.128l-1.216-3.136c-0.032-0.128,0-0.256,0.128-0.288
	c0.128-0.032,0.256,0,0.288,0.128l1.216,3.136C11.68,13.248,11.648,13.376,11.584,13.44L11.584,13.44z M12.512,12.704
	c-0.032,0-0.032,0.032-0.064,0.032c-0.128,0.032-0.256,0-0.288-0.128l-1.216-3.136c-0.032-0.128,0-0.256,0.128-0.288
	c0.128-0.032,0.256,0,0.288,0.128l1.216,3.136C12.608,12.544,12.576,12.64,12.512,12.704z M13.44,11.968
	c-0.032,0-0.032,0.032-0.064,0.032c-0.128,0.032-0.256,0-0.288-0.128l-1.216-3.136c-0.032-0.128,0-0.256,0.128-0.288
	c0.128-0.032,0.256,0,0.288,0.128l1.216,3.136C13.568,11.808,13.536,11.904,13.44,11.968z M14.368,11.232
	c-0.032,0-0.032,0.032-0.064,0.032c-0.128,0.032-0.256,0-0.288-0.128L12.8,8c-0.032-0.128,0-0.256,0.128-0.288
	c0.128-0.032,0.256,0,0.288,0.128l1.216,3.136C14.496,11.072,14.464,11.168,14.368,11.232z M15.328,10.496
	c-0.032,0-0.032,0.032-0.064,0.032c-0.128,0.032-0.256,0-0.288-0.128L13.76,7.264c-0.032-0.128,0-0.256,0.128-0.288
	c0.128-0.032,0.256,0,0.288,0.128l1.216,3.136C15.424,10.336,15.392,10.464,15.328,10.496z M16.256,9.792
	c-0.032,0-0.032,0.032-0.064,0.032c-0.128,0.032-0.256,0-0.288-0.128L14.688,6.56c-0.032-0.128,0-0.256,0.128-0.288
	s0.256,0,0.288,0.128l1.216,3.136C16.352,9.632,16.32,9.728,16.256,9.792z M17.184,9.056c-0.031,0-0.031,0.032-0.063,0.032
	c-0.128,0.032-0.258,0-0.288-0.128l-1.216-3.136c-0.032-0.128,0-0.256,0.128-0.288c0.128-0.032,0.256,0,0.288,0.128L17.248,8.8
	C17.279,8.896,17.248,8.992,17.184,9.056z M18.111,8.32c-0.031,0-0.031,0.032-0.063,0.032c-0.128,0.032-0.256,0-0.288-0.128
	l-1.216-3.136c-0.032-0.128,0-0.256,0.128-0.288c0.128-0.032,0.256,0,0.288,0.128l1.216,3.136C18.24,8.16,18.208,8.256,18.111,8.32z
	 M20.225,10.144c0,0-0.033,0.032-0.063,0.032c-0.128,0.032-0.257,0-0.288-0.128l-2.368-5.696c-0.03-0.128,0-0.256,0.128-0.288
	c0.129-0.032,0.258,0,0.288,0.128l2.368,5.696C20.32,9.984,20.288,10.08,20.225,10.144z M22.4,13.024
	c-0.032,0-0.032,0.032-0.064,0.032c-0.128,0.032-0.256,0-0.288-0.128l-3.296-8.416c-0.031-0.128,0-0.256,0.128-0.288
	c0.128-0.032,0.257,0,0.288,0.128l3.296,8.416C22.527,12.864,22.496,12.992,22.4,13.024z"/>
<path fill="#FFFFFF" d="M23.744,13.952c-0.032,0-0.032,0.032-0.064,0.032c-0.127,0.032-0.256-0.032-0.287-0.128L20.704,6.56
	c-0.032-0.128,0.032-0.256,0.128-0.288C20.96,6.24,21.088,6.304,21.12,6.4l2.688,7.296C23.84,13.792,23.809,13.888,23.744,13.952z
	 M24.704,13.28c-0.032,0-0.032,0.032-0.063,0.032c-0.129,0.032-0.257-0.032-0.289-0.128l-1.694-4.608
	c-0.032-0.128,0-0.256,0.128-0.288c0.128-0.032,0.256,0.032,0.288,0.128l1.694,4.608C24.8,13.12,24.768,13.216,24.704,13.28z"/>
<path fill="#FFFFFF" d="M22.496,5.152l5.984,8.384l-18.176,14.56l-6.72-7.936L22.496,5.152z"/>
<path fill="#FFFFFF" d="M28.832,11.808l-4.896-6.272c-0.734-0.96-2.336-0.96-3.552-0.032L4.128,18.176
	C2.912,19.104,2.56,20.672,3.296,21.6l4.896,6.305c0.736,0.959,2.336,0.959,3.552,0.031L28,15.264
	C29.216,14.336,29.568,12.768,28.832,11.808z M26.943,13.984L10.688,26.688c-0.544,0.416-1.28,0.416-1.632,0L4.8,21.023
	c-0.352-0.447-0.16-1.151,0.384-1.567L21.439,6.784c0.545-0.416,1.281-0.416,1.601,0l4.256,5.664
	C27.68,12.864,27.488,13.568,26.943,13.984z"/>
</svg>
