<svg baseProfile="tiny" xmlns="http://www.w3.org/2000/svg" width="144.42" height="55.017" viewBox="0 0 144.42 55.017"><path fill="#fff" d="M119.98 7.02c-.15.283-.3.567-.443.85-.417.84-.827 1.672-1.232 2.49-.407.818-.842 1.617-1.21 2.417l-1.08 2.35-1.045 2.238c-.327.727-.6 1.442-.884 2.125l-1.573 3.75c-.41 1.133-.777 2.126-1.094 2.945-.62 1.642-.997 2.59-.997 2.59l-.015.035c-.142.356-.547.53-.902.387-.265-.105-.43-.355-.438-.622 0 0-.032-1.015-.045-2.804-.014-.896-.015-1.985-.003-3.24.058-1.246.134-2.655.25-4.196.062-.768.104-1.578.194-2.406l.314-2.56c.106-.88.228-1.786.355-2.713.13-.926.323-1.854.486-2.812l.558-2.906c.046-.246.108-.49.164-.733-4.62-1.224-9.88-2.227-15.874-2.943-.286.55-.57 1.103-.86 1.648-.44.846-.9 1.682-1.32 2.518-.418.84-.83 1.672-1.233 2.49-.407.818-.843 1.617-1.21 2.417l-1.08 2.35-1.046 2.238c-.327.728-.6 1.443-.885 2.126-.577 1.373-1.104 2.632-1.572 3.75-.41 1.133-.777 2.126-1.095 2.945-.618 1.643-.996 2.59-.996 2.59l-.014.036c-.142.356-.547.53-.903.387-.264-.105-.428-.355-.437-.622 0 0-.032-1.014-.045-2.803-.015-.897-.016-1.986-.003-3.242.058-1.245.134-2.654.25-4.195.062-.768.103-1.578.193-2.406.103-.826.207-1.68.315-2.56.105-.88.227-1.786.354-2.713.13-.925.323-1.853.487-2.81l.558-2.907c.132-.71.31-1.41.488-2.115C81.306.133 76.916 0 72.21 0c-1.174 0-2.315.014-3.45.03l-.186.33c-.434.855-.882 1.704-1.33 2.548-.44.846-.9 1.682-1.32 2.518-.418.84-.83 1.672-1.234 2.49-.407.818-.842 1.617-1.21 2.417-.368.802-.728 1.587-1.08 2.35l-1.045 2.238c-.327.728-.598 1.443-.884 2.126l-1.572 3.75c-.41 1.133-.777 2.126-1.094 2.945-.618 1.643-.996 2.59-.996 2.59l-.014.036c-.142.356-.547.53-.903.387-.263-.105-.427-.355-.436-.622 0 0-.032-1.014-.045-2.803-.015-.897-.016-1.986-.004-3.242.058-1.245.134-2.654.25-4.195.062-.768.104-1.578.194-2.406l.315-2.56c.106-.88.227-1.786.355-2.713.13-.925.323-1.853.487-2.81l.558-2.907c.128-.687.3-1.367.473-2.05-5.642.365-10.756.942-15.358 1.712l-.527.94c-.433.857-.88 1.705-1.328 2.55-.44.846-.9 1.682-1.322 2.518l-1.233 2.49c-.407.818-.842 1.617-1.21 2.417l-1.08 2.35-1.045 2.238c-.327.727-.598 1.442-.884 2.125l-1.572 3.75c-.41 1.133-.777 2.126-1.094 2.945-.618 1.642-.996 2.59-.996 2.59l-.014.035c-.142.356-.547.53-.903.387-.263-.105-.427-.355-.436-.622 0 0-.032-1.015-.045-2.804-.015-.897-.016-1.986-.004-3.242.058-1.245.134-2.654.25-4.195.062-.768.104-1.578.194-2.406l.315-2.558c.106-.882.227-1.787.355-2.714.13-.926.323-1.854.487-2.812l.558-2.906c.033-.177.08-.35.118-.526C1.913 13.164 0 31.024 0 41.264c0 13.753 22.35 13.753 30.947 13.753h82.525c8.597 0 30.947 0 30.947-13.754 0-9.38-1.604-25.158-24.44-34.243z"/></svg>