<?xml version="1.0" encoding="utf-8"?>
<!-- Generator: Adobe Illustrator 16.0.0, SVG Export Plug-In . SVG Version: 6.00 Build 0)  -->
<!DOCTYPE svg PUBLIC "-//W3C//DTD SVG 1.1 Tiny//EN" "http://www.w3.org/Graphics/SVG/1.1/DTD/svg11-tiny.dtd">
<svg version="1.1" baseProfile="tiny" id="Calque_1"
	 xmlns="http://www.w3.org/2000/svg" xmlns:xlink="http://www.w3.org/1999/xlink" x="0px" y="0px" width="22.848px"
	 height="23.232px" viewBox="0 0 22.848 23.232" xml:space="preserve">
<path fill="#6D2361" d="M9.967,19.937c-5.492,0-9.965-4.471-9.967-9.964C0.002,4.473,4.474,0,9.97,0c5.493,0,9.967,4.474,9.97,9.971
	C19.938,15.465,15.465,19.937,9.967,19.937z M9.97,2C5.575,2,2,5.577,2,9.972c0.002,4.39,3.575,7.964,7.967,7.964
	c4.396,0,7.973-3.574,7.973-7.967C17.937,5.574,14.36,2,9.97,2z M4.362,9.967h-1c0-3.643,2.966-6.606,6.607-6.606v1
	C6.877,4.36,4.362,6.875,4.362,9.967L4.362,9.967z M21.847,23.232c-0.257,0-0.513-0.101-0.707-0.293l-5.568-5.568
	c-0.39-0.39-0.39-1.021,0-1.414c0.391-0.39,1.023-0.39,1.414,0l5.568,5.567c0.39,0.39,0.39,1.021,0,1.414
	c-0.196,0.194-0.45,0.292-0.707,0.292V23.232z"/>
</svg>
