<svg baseProfile="tiny" xmlns="http://www.w3.org/2000/svg" width="101.35" height="122.822" viewBox="0 0 101.35 122.822"><path fill="#fff" d="M12.893 34.197"/><path fill="#fff" d="M52.056 26.103c-.032-.015-.084-.035-.18-.035-.58 0-1.737.706-2.494 2.274-.426.886-.61 1.833-.503 2.6.062.448.224.796.414.888.03.015.083.034.18.034.58 0 1.737-.705 2.493-2.273.427-.884.61-1.832.503-2.6-.062-.448-.225-.797-.414-.887zM52.056 26.103c-.032-.015-.084-.035-.18-.035-.58 0-1.737.706-2.494 2.274-.426.886-.61 1.833-.503 2.6.062.448.224.796.414.888.03.015.083.034.18.034.58 0 1.737-.705 2.493-2.273.427-.884.61-1.832.503-2.6-.062-.448-.225-.797-.414-.887zM57.505 24.772c-.13 0-.193.034-.213.045-.432.236-.668 1.774.26 3.48.76 1.395 1.89 2.15 2.567 2.15.13 0 .192-.034.213-.047.433-.234.668-1.772-.26-3.478-.76-1.395-1.89-2.15-2.568-2.15zM57.505 24.772c-.13 0-.193.034-.213.045-.432.236-.668 1.774.26 3.48.76 1.395 1.89 2.15 2.567 2.15.13 0 .192-.034.213-.047.433-.234.668-1.772-.26-3.478-.76-1.395-1.89-2.15-2.568-2.15zM41.17 27.58c-.484-.13-.967-.197-1.435-.197-1.178 0-1.924.434-2.01.748-.128.476.82 1.71 2.692 2.22.484.133.967.2 1.435.2 1.178 0 1.923-.436 2.01-.75.128-.475-.82-1.71-2.692-2.22zM41.17 27.58c-.484-.13-.967-.197-1.435-.197-1.178 0-1.924.434-2.01.748-.128.476.82 1.71 2.692 2.22.484.133.967.2 1.435.2 1.178 0 1.923-.436 2.01-.75.128-.475-.82-1.71-2.692-2.22zM69.266 26.682c-.595 0-1.237.125-1.858.363-.918.35-1.702.914-2.15 1.545-.262.368-.383.732-.308.93.09.235.654.568 1.624.568.595 0 1.237-.125 1.858-.363 1.813-.69 2.633-2.015 2.457-2.474-.092-.236-.655-.568-1.624-.568zM69.266 26.682c-.595 0-1.237.125-1.858.363-.918.35-1.702.914-2.15 1.545-.262.368-.383.732-.308.93.09.235.654.568 1.624.568.595 0 1.237-.125 1.858-.363 1.813-.69 2.633-2.015 2.457-2.474-.092-.236-.655-.568-1.624-.568zM45.458 19.01c-.51.032-1.375 1.327-1.253 3.264.12 1.913 1.11 3.084 1.61 3.084h.02c.21-.014.492-.274.72-.665.388-.67.576-1.617.514-2.598-.12-1.913-1.112-3.084-1.612-3.084zM45.458 19.01c-.51.032-1.375 1.327-1.253 3.264.12 1.913 1.11 3.084 1.61 3.084h.02c.21-.014.492-.274.72-.665.388-.67.576-1.617.514-2.598-.12-1.913-1.112-3.084-1.612-3.084zM33.074 24.052c-.676 0-1.824.717-2.62 2.046-.994 1.666-.82 3.212-.398 3.465.022.014.09.055.245.055.677 0 1.825-.717 2.62-2.046.995-1.666.82-3.212.398-3.466-.022-.013-.09-.054-.244-.054zM33.074 24.052c-.676 0-1.824.717-2.62 2.046-.994 1.666-.82 3.212-.398 3.465.022.014.09.055.245.055.677 0 1.825-.717 2.62-2.046.995-1.666.82-3.212.398-3.466-.022-.013-.09-.054-.244-.054zM76.432 21.917c-.52 0-1.505 1.174-1.614 3.092-.056.98.137 1.926.53 2.595.228.39.512.647.722.66h.018c.5 0 1.486-1.175 1.595-3.093.11-1.937-.76-3.227-1.25-3.255zM76.432 21.917c-.52 0-1.505 1.174-1.614 3.092-.056.98.137 1.926.53 2.595.228.39.512.647.722.66h.018c.5 0 1.486-1.175 1.595-3.093.11-1.937-.76-3.227-1.25-3.255zM86.13 21.637c-.64 0-1.683.32-2.695 1.22-.734.65-1.268 1.456-1.465 2.205-.115.437-.1.82.04.977.317.357 1.848.278 3.33-1.038 1.452-1.29 1.752-2.814 1.425-3.184-.1-.113-.338-.18-.636-.18zM86.13 21.637c-.64 0-1.683.32-2.695 1.22-.734.65-1.268 1.456-1.465 2.205-.115.437-.1.82.04.977.317.357 1.848.278 3.33-1.038 1.452-1.29 1.752-2.814 1.425-3.184-.1-.113-.338-.18-.636-.18zM38.575 16.682c-.502.015-1.407 1.28-1.348 3.222.06 1.943 1.02 3.133 1.522 3.133h.008c.493-.015 1.398-1.28 1.338-3.22-.06-1.946-1.02-3.135-1.52-3.135zM38.575 16.682c-.502.015-1.407 1.28-1.348 3.222.06 1.943 1.02 3.133 1.522 3.133h.008c.493-.015 1.398-1.28 1.338-3.22-.06-1.946-1.02-3.135-1.52-3.135zM77.667 14.3c-.126 0-.355.015-.474.125-.362.334-.214 1.883 1.104 3.31 1.014 1.096 2.108 1.485 2.737 1.485.126 0 .356-.016.474-.126.362-.334.214-1.884-1.104-3.31-1.014-1.096-2.108-1.485-2.737-1.485zM77.667 14.3c-.126 0-.355.015-.474.125-.362.334-.214 1.883 1.104 3.31 1.014 1.096 2.108 1.485 2.737 1.485.126 0 .356-.016.474-.126.362-.334.214-1.884-1.104-3.31-1.014-1.096-2.108-1.485-2.737-1.485zM22.763 25.062c-.484-.13-.967-.198-1.435-.198-1.178 0-1.924.435-2.01.748-.054.203.102.555.398.895.51.585 1.345 1.068 2.293 1.326.484.132.967.197 1.435.197 1.178 0 1.923-.434 2.008-.748.13-.475-.817-1.71-2.69-2.22zM22.763 25.062c-.484-.13-.967-.198-1.435-.198-1.178 0-1.924.435-2.01.748-.054.203.102.555.398.895.51.585 1.345 1.068 2.293 1.326.484.132.967.197 1.435.197 1.178 0 1.923-.434 2.008-.748.13-.475-.817-1.71-2.69-2.22zM62.764 17.473c-.524.055-1.326 1.388-1.115 3.317.21 1.944 1.258 3.006 1.736 3.006l.034-.002c.49-.054 1.293-1.387 1.082-3.315-.213-1.947-1.26-3.007-1.738-3.007zM62.764 17.473c-.524.055-1.326 1.388-1.115 3.317.21 1.944 1.258 3.006 1.736 3.006l.034-.002c.49-.054 1.293-1.387 1.082-3.315-.213-1.947-1.26-3.007-1.738-3.007zM71.504 16.283c-.036-.014-.075-.02-.12-.02-.585 0-1.71.88-2.298 2.533-.33.925-.41 1.887-.222 2.64.11.437.31.766.507.836.508.183 1.785-.732 2.42-2.514.65-1.827.178-3.31-.286-3.475zM71.504 16.283c-.036-.014-.075-.02-.12-.02-.585 0-1.71.88-2.298 2.533-.33.925-.41 1.887-.222 2.64.11.437.31.766.507.836.508.183 1.785-.732 2.42-2.514.65-1.827.178-3.31-.286-3.475zM55.25 18.324c-.394 0-.798.045-1.203.134-1.895.418-2.9 1.604-2.795 2.086.076.348.908.85 2.21.85.395 0 .8-.044 1.203-.134 1.896-.417 2.902-1.604 2.796-2.085-.076-.348-.908-.85-2.21-.85zM55.25 18.324c-.394 0-.798.045-1.203.134-1.895.418-2.9 1.604-2.795 2.086.076.348.908.85 2.21.85.395 0 .8-.044 1.203-.134 1.896-.417 2.902-1.604 2.796-2.085-.076-.348-.908-.85-2.21-.85zM71.667 9.29c-.114-.16-.442-.258-.855-.258-.795 0-1.73.343-2.566.94-.98.7-1.526 1.54-1.732 2.17-.126.387-.126.696-.017.85.114.158.442.257.855.257.67 0 1.44-.258 2.167-.695.132-.08.267-.155.396-.248 1.58-1.13 2.037-2.616 1.75-3.017zM47.866 13.814c-.2-.75-.737-1.55-1.474-2.2-.14-.124-.28-.212-.42-.314-.87-.633-1.72-.894-2.27-.894-.303 0-.543.068-.644.183-.124.14-.143.464-.064.842.01.045.015.09.027.136.2.75.738 1.55 1.475 2.2 1.488 1.312 3.018 1.38 3.334 1.023.138-.156.152-.54.036-.976zM16.146 17.308h-.004c-.544 0-1.624.994-1.95 2.89-.167.968-.083 1.93.23 2.64.184.41.436.7.643.736l.054.006c.488 0 1.572-.995 1.9-2.895.167-.968.082-1.93-.232-2.64-.184-.412-.435-.7-.642-.737zM12.937 26.678c0-.002 0-.003.002-.004-.002 0-.002.002-.003.004zM16.146 17.308h-.004c-.544 0-1.624.994-1.95 2.89-.167.968-.083 1.93.23 2.64.184.41.436.7.643.736l.054.006c.488 0 1.572-.995 1.9-2.895.167-.968.082-1.93-.232-2.64-.184-.412-.435-.7-.642-.737zM60.903 8.008H60.9c-.545 0-1.625.994-1.952 2.888-.033.19-.048.38-.062.567-.055.77.04 1.502.293 2.07.182.414.434.703.64.74l.055.004c.463 0 1.455-.904 1.837-2.618.02-.094.047-.18.064-.276.33-1.912-.388-3.292-.873-3.376zM54.52 11.272c-.043-.19-.092-.387-.16-.588-.56-1.68-1.67-2.576-2.256-2.576-.04 0-.077.005-.112.018-.434.144-.886 1.437-.453 3.1.03.122.056.243.1.37.6 1.8 1.85 2.727 2.368 2.56.415-.14.853-1.325.51-2.884zM24.497 18.007c-1.01-.89-2.052-1.207-2.69-1.207-.302 0-.542.07-.643.183-.14.158-.154.542-.037.98.2.748.736 1.55 1.473 2.2 1.488 1.31 3.02 1.382 3.334 1.023.326-.37.02-1.896-1.437-3.18zM24.497 18.007c-1.01-.89-2.052-1.207-2.69-1.207-.302 0-.542.07-.643.183-.14.158-.154.542-.037.98.2.748.736 1.55 1.473 2.2 1.488 1.31 3.02 1.382 3.334 1.023.326-.37.02-1.896-1.437-3.18zM29.97 14.02c-.086 0-.134.02-.163.03-.192.087-.365.43-.44.876-.13.764.028 1.717.43 2.613.716 1.598 1.883 2.344 2.446 2.344.085 0 .133-.018.162-.03.45-.202.804-1.717.01-3.488-.716-1.6-1.883-2.345-2.446-2.345zM29.97 14.02c-.086 0-.134.02-.163.03-.192.087-.365.43-.44.876-.13.764.028 1.717.43 2.613.716 1.598 1.883 2.344 2.446 2.344.085 0 .133-.018.162-.03.45-.202.804-1.717.01-3.488-.716-1.6-1.883-2.345-2.446-2.345zM38.937 7.25c-.022-.014-.09-.055-.244-.055-.676 0-1.824.717-2.62 2.047-.672 1.124-.805 2.184-.694 2.838.053.315.158.544.295.626.022.013.09.054.244.054.448 0 1.103-.322 1.726-.923.316-.305.624-.676.892-1.123.996-1.666.822-3.212.4-3.465zM20.683 12.79c.77 0 1.678-.305 2.49-.837 1.624-1.064 2.143-2.53 1.873-2.943-.118-.18-.493-.295-.955-.295-.77 0-1.677.305-2.49.838-1.623 1.063-2.14 2.53-1.87 2.943.116.18.49.295.953.295zM45.888 2.116c-1.64 0-2.585.705-2.63 1.083-.027.208.178.532.52.827.59.504 1.486.86 2.46.98.235.028.47.043.7.043 1.64 0 2.584-.705 2.63-1.083.06-.488-1.056-1.574-2.982-1.81-.233-.026-.468-.04-.698-.04M54.356.15c-.31 0-.555.07-.657.187-.324.372-.007 1.895 1.46 3.167 1.498 1.302 3.028 1.36 3.34 1 .323-.372.006-1.895-1.46-3.167C56.03.462 54.993.15 54.356.15M64.038 0c-.048 0-.088.007-.126.02-.463.172-.918 1.66-.245 3.48.653 1.77 1.945 2.67 2.448 2.485.46-.172.917-1.66.244-3.48C65.754.872 64.622 0 64.037 0M32.26 2.643c-.57 0-1.663.956-2.15 2.685-.524 1.868.05 3.315.524 3.45.51.143 1.727-.846 2.24-2.675.266-.945.28-1.91.04-2.648-.138-.428-.36-.743-.56-.8-.03-.01-.06-.012-.093-.012"/><path fill="#fff" d="M89.47 27.525l-.006-.006.005.005zM89.47 27.525l-.006-.006.005.005zM96.014 108.037h-2.268l.226-2.258c1.99-19.917-.305-38.88-2.86-52.184-6.238 3.675-18.057 7.066-40.437 7.066-22.375 0-34.194-3.39-40.434-7.063-2.554 13.31-4.852 32.278-2.863 52.18l.226 2.257H5.336c-3.782 0-4.966 4.493-5.336 7.23h9.736l.517.344c.102.068 11.38 7.213 40.422 7.213s40.32-7.145 40.43-7.217l.512-.334.62-.006h9.113c-.37-2.735-1.554-7.23-5.336-7.23zM81.24 107.02l-1.73.272c-9.612 1.523-19.42 2.294-29.15 2.294-9.733 0-19.54-.77-29.153-2.294l-1.73-.273V67.6l2.373.375c9.4 1.488 18.99 2.243 28.51 2.243 9.516 0 19.107-.755 28.507-2.243l2.374-.376v39.42zM12.255 27.928l.043-.083-.043.083zM54.772 56.517l.753-.018c.405-.01.807-.022 1.203-.033l.762-.025c.39-.014.777-.028 1.16-.044l.702-.03 1.212-.06c.195-.012.394-.022.586-.032.537-.03 1.064-.064 1.584-.1l.144-.01c.567-.038 1.122-.08 1.668-.125l.493-.04 1.12-.1.566-.057c.337-.033.672-.066 1.002-.102l.554-.06c.325-.037.646-.074.963-.113.176-.02.352-.042.525-.064.333-.04.66-.085.984-.13.142-.02.287-.037.427-.057.432-.06.855-.123 1.27-.187l.084-.014c.45-.07.89-.142 1.323-.216l.292-.052c.326-.057.648-.114.964-.174l.372-.07c.283-.055.563-.11.838-.166l.378-.08c.27-.055.533-.112.793-.17l.348-.077c.276-.062.546-.126.813-.19.09-.02.18-.043.268-.064.718-.177 1.402-.36 2.053-.546.025-.007.05-.015.075-.02.295-.087.583-.173.864-.26.068-.02.134-.042.2-.063.237-.074.47-.148.697-.224l.223-.075c.22-.074.438-.15.65-.225l.194-.07c.227-.08.45-.164.666-.247.042-.016.085-.03.126-.048.793-.307 1.52-.618 2.183-.932l.067-.032c.195-.093.385-.187.57-.28.032-.016.063-.03.095-.047.175-.09.346-.18.512-.27l.086-.046c.177-.096.348-.19.515-.287l.034-.02c4.81-2.79 5.227-5.45 5.227-5.506 0-.114-.076-10.428-4.49-17.135-3.124 3.457-10.493 5.913-19.51 7.32-1.464.23-2.97.43-4.51.603l-.173.02c-1.486.165-3 .303-4.537.416l-.28.022c-.743.053-1.49.1-2.24.142l-.274.014c-.695.036-1.393.067-2.092.093-.094.005-.188.01-.282.013-.73.025-1.462.044-2.195.06l-.47.007c-.744.012-1.487.02-2.23.02-.748 0-1.496-.008-2.243-.02l-.44-.008c-.725-.014-1.448-.032-2.17-.058l-.384-.015c-.69-.026-1.378-.057-2.063-.093l-.22-.01c-.726-.04-1.447-.087-2.165-.137-.15-.01-.298-.02-.447-.032-.713-.053-1.423-.11-2.127-.174-.088-.01-.176-.018-.264-.025-.667-.064-1.33-.13-1.986-.203-.1-.01-.2-.02-.3-.032-.693-.078-1.38-.162-2.058-.25-.128-.02-.255-.035-.382-.053-.693-.094-1.38-.19-2.055-.297-8.665-1.353-15.805-3.673-19.12-6.92-1.957 3.7-4.848 10.238-4.866 16.675.028.212.4 2.292 3.733 4.66l.003.002c.145.104.295.206.45.31l.012.008c.63.417 1.352.84 2.183 1.263l.098.05c.17.084.342.17.52.254l.146.07c.172.08.348.16.528.24l.15.067c.202.088.408.176.62.264l.09.037c.49.202 1.012.402 1.562.6l.19.067c.207.073.417.146.633.218l.28.092c.196.064.395.128.597.19l.31.097c.205.062.415.123.626.185l.32.093c.238.067.483.134.73.2.083.022.163.045.246.066.335.09.677.176 1.028.26.062.017.127.03.19.046.287.07.58.138.877.205l.39.085c.242.053.485.105.733.157.15.03.3.062.453.092.24.047.48.095.726.142l.487.092c.252.046.51.092.77.137.158.03.315.057.477.084.31.052.625.103.943.152l.353.057c.436.066.88.13 1.335.193.135.02.274.036.41.055.33.045.658.09.996.13l.563.068c.3.035.6.07.907.104l.613.065c.31.033.62.064.937.095l.615.06c.34.03.69.062 1.04.09l.568.05c.446.034.9.068 1.36.1.104.008.203.016.307.022.56.038 1.133.074 1.715.106.176.01.358.02.537.028.416.02.834.043 1.26.063l.684.03 1.185.044.737.023c.404.012.813.022 1.226.032l.736.016c.45.01.91.016 1.37.02.216.004.43.008.647.01.684.007 1.375.01 2.08.01s1.396-.003 2.08-.01c.223-.002.44-.006.663-.01.46-.004.914-.01 1.36-.02zM12.298 27.845"/><path fill="#fff" d="M23.58 72.39v31.113c8.846 1.313 17.845 1.98 26.78 1.98 8.932 0 17.93-.666 26.776-1.98V72.39c-17.698 2.567-35.857 2.567-53.555 0z"/></svg>