<?xml version="1.0" encoding="utf-8"?>
<!-- Generator: Adobe Illustrator 16.0.0, SVG Export Plug-In . SVG Version: 6.00 Build 0)  -->
<!DOCTYPE svg PUBLIC "-//W3C//DTD SVG 1.1//EN" "http://www.w3.org/Graphics/SVG/1.1/DTD/svg11.dtd">
<svg version="1.1" id="Calque_3" xmlns="http://www.w3.org/2000/svg" xmlns:xlink="http://www.w3.org/1999/xlink" x="0px" y="0px"
	 width="22.336px" height="24.907px" viewBox="4.864 3.548 22.336 24.907" enable-background="new 4.864 3.548 22.336 24.907"
	 xml:space="preserve">
<path fill="#FFFFFF" d="M5.792,28.446c-0.16,0-0.32-0.03-0.48-0.127c-0.288-0.159-0.448-0.479-0.448-0.801V8.544
	c0-0.352,0.192-0.64,0.48-0.832l6.784-4.032c0.16-0.096,0.353-0.128,0.544-0.128s0.385,0.032,0.544,0.128l6.272,3.744L25.76,3.68
	c0.288-0.16,0.672-0.192,0.961,0C27.008,3.84,27.2,4.16,27.2,4.512v18.975c0,0.353-0.192,0.641-0.479,0.832l-6.625,3.904
	c-0.031,0.03-0.096,0.063-0.128,0.096c-0.192,0.097-0.415,0.16-0.64,0.127c-0.128,0-0.225-0.063-0.352-0.127
	c-0.064-0.031-0.099-0.063-0.129-0.096l-6.209-3.682l-6.334,3.777C6.144,28.416,5.984,28.446,5.792,28.446z M6.464,8.864v17.472
	l5.408-2.978V5.792l-5.088,2.88L6.464,8.864z M20.256,9.376v16.93l5.313-2.945V5.792l-5.313,3.072V9.376z M13.473,23.358
	l5.215,2.945V8.864L13.473,5.76V23.358z"/>
</svg>
