<svg baseProfile="tiny" xmlns="http://www.w3.org/2000/svg" width="51.687" height="134.893" viewBox="0 0 51.687 134.893"><path fill="#fff" d="M0 131.873c0 2.672 2.125 3.002 3.038 3.02h45.63c2.874 0 3.02-2.516 3.02-3.02v-3.02H0v3.02zM0 67.99v56.76h51.687V67.99H0zm46.155 43.257c0 4.115-3.348 7.463-7.463 7.463H12.994c-4.115 0-7.463-3.348-7.463-7.463V81.49c0-4.114 3.35-7.462 7.464-7.462h25.698c4.115 0 7.463 3.348 7.463 7.463v29.757zM0 57.845h51.687v6.04H0zM51.65 53.74C50.96 33.387 40.2 20.152 37.63 17.27H13.824C2.328 25.485.39 47.003.064 53.74h51.587zM51.65 53.74h-.002"/><path fill="#fff" d="M.065 53.74c0 .027-.002.05-.004.076.003-.024.004-.052.005-.076zM38.523 15.216zM38.523 5.072C38.523 0 33.45 0 33.45 0H18.236c-5.072 0-5.072 5.072-5.072 5.072v8.092h25.36V5.072zM38.692 78.133H12.994c-1.85 0-3.358 1.506-3.358 3.358v29.757c0 1.85 1.508 3.357 3.358 3.357h25.698c1.852 0 3.357-1.506 3.357-3.357V81.49c0-1.85-1.506-3.357-3.358-3.357z"/></svg>