<svg width="500" height="500" viewBox="0 0 500 500" fill="none" xmlns="http://www.w3.org/2000/svg">
<rect width="500" height="500" fill="#212E5A"/>
<path d="M29.8195 111.066H72.89C105.751 111.066 130.387 135.549 130.387 170.586C130.387 205.622 105.751 230.068 72.89 230.068H29.8195V111.066ZM72.0503 208.389C94.6828 208.389 106.4 192.97 106.4 170.509C106.4 148.049 94.6828 132.744 72.0503 132.744H52.7764V208.504L72.0503 208.389Z" fill="white"/>
<path d="M154.203 186.501C154.203 156.33 175.824 141.255 196.186 141.255C211.776 141.255 221.833 149.804 224.009 154.613H224.524V142.877H246.985V230.067H224.448V218.331H223.932C221.757 223.178 211.7 231.689 196.109 231.689C175.824 231.766 154.203 216.709 154.203 186.501ZM200.632 211.652C213.208 211.652 224.944 202.931 224.944 186.501C224.944 170.07 213.208 161.368 200.632 161.368C188.056 161.368 176.339 170.242 176.339 186.501C176.339 202.76 188.056 211.652 200.632 211.652V211.652Z" fill="white"/>
<path d="M292.002 162.533H250.248V142.915H327.973L281.354 210.317H339.843V230.068H245.401L292.002 162.533Z" fill="white"/>
<path d="M154.756 277.928C154.756 247.738 176.377 232.663 196.739 232.663C212.33 232.663 222.387 241.212 224.562 246.021H224.925V234.285H247.385V321.475H224.925V309.739H224.409C222.234 314.605 212.177 323.097 196.586 323.097C176.377 323.174 154.756 308.098 154.756 277.928ZM201.185 303.06C213.761 303.06 225.497 294.358 225.497 277.928C225.497 261.497 213.761 252.776 201.185 252.776C188.609 252.776 176.892 261.669 176.892 277.928C176.892 294.187 188.667 303.06 201.185 303.06Z" fill="#DEC388"/>
<path d="M385.471 277.928C385.471 248.406 408.618 232.663 431.403 232.663C454.189 232.663 477.336 248.406 477.336 277.928C477.336 307.449 454.036 323.174 431.403 323.174C408.771 323.174 385.471 307.43 385.471 277.928ZM431.403 302.888C443.979 302.888 455.047 293.519 455.047 277.928C455.047 262.337 443.979 252.967 431.403 252.967C418.828 252.967 407.607 262.356 407.607 277.947C407.607 293.538 418.847 302.888 431.403 302.888V302.888Z" fill="#DEC388"/>
<path d="M131.57 239.972C131.57 242.185 131.761 278.138 131.761 278.138C147.295 273.882 154.203 262.662 154.203 242.109V142.877H131.57V239.972Z" fill="white"/>
<path d="M154.203 111.065H131.57V130.855H154.203V111.065Z" fill="white"/>
<path d="M390.604 232.663C368.219 232.663 345.568 247.929 344.804 276.344V321.494H366.826V276.344C367.571 261.707 378.429 252.948 390.566 252.948V232.663H390.604Z" fill="#DEC388"/>
<path d="M340.358 324.242V234.323H317.859V246.059H316.867C314.691 241.212 304.959 232.701 289.54 232.701C269.426 232.701 247.557 247.777 247.557 277.966C247.557 308.155 269.35 323.212 289.54 323.212C304.959 323.212 314.691 314.682 316.867 309.854H317.859V316.552V324.319C317.815 327.443 317.154 330.528 315.914 333.396C314.675 336.264 312.882 338.859 310.637 341.033C308.393 343.206 305.741 344.915 302.835 346.062C299.928 347.209 296.824 347.77 293.7 347.715V347.715V368C316.485 368 339.499 352.734 340.358 324.319V324.242ZM294.063 303.06C281.487 303.06 269.751 294.187 269.751 277.928C269.751 261.669 281.487 252.776 294.063 252.776C306.638 252.776 318.432 261.497 318.432 277.928C318.432 294.358 306.81 303.06 294.063 303.06V303.06Z" fill="#DEC388"/>
</svg>
