<?xml version="1.0" standalone="no"?>
<!DOCTYPE svg PUBLIC "-//W3C//DTD SVG 20010904//EN"
 "http://www.w3.org/TR/2001/REC-SVG-20010904/DTD/svg10.dtd">
<svg version="1.0" xmlns="http://www.w3.org/2000/svg"
 width="688.000000pt" height="688.000000pt" viewBox="0 0 688.000000 688.000000"
 preserveAspectRatio="xMidYMid meet">
<metadata>
Created by potrace 1.11, written by Peter Selinger 2001-2013
</metadata>
<g transform="translate(0.000000,688.000000) scale(0.100000,-0.100000)"
fill="#000000" stroke="none">
<path d="M535 6801 c44 -43 676 -654 1405 -1356 729 -703 1396 -1348 1483
-1433 l158 -156 1505 1505 c827 827 1504 1507 1504 1511 0 5 -1380 8 -3067 8
l-3068 0 80 -79z"/>
<path d="M5257 5166 c-824 -827 -1497 -1508 -1497 -1513 0 -5 123 -130 273
-279 149 -149 828 -822 1507 -1497 679 -674 1236 -1224 1238 -1222 8 7 -10
6015 -18 6015 -4 0 -680 -677 -1503 -1504z"/>
<path d="M595 3225 c4 -1496 10 -2762 14 -2814 l6 -95 1400 1402 c770 771
1401 1405 1403 1410 2 7 -2140 2142 -2642 2632 l-189 185 8 -2720z"/>
<path d="M2864 2048 c-429 -431 -1060 -1068 -1404 -1416 l-623 -633 2804 6
c1542 4 2810 8 2817 10 10 4 -2785 2805 -2806 2813 -4 1 -358 -350 -788 -780z"/>
</g>
</svg>
