<svg width="131" height="131" viewBox="0 0 131 131" fill="none" xmlns="http://www.w3.org/2000/svg">
<g clip-path="url(#clip0_3_125)">
<g clip-path="url(#clip1_3_125)">
<path d="M65.25 130.5C101.287 130.5 130.5 101.287 130.5 65.25C130.5 29.2134 101.287 0 65.25 0C29.2134 0 0 29.2134 0 65.25C0 101.287 29.2134 130.5 65.25 130.5Z" fill="#212E5A"/>
<path d="M90.9164 28.4805C86.5167 28.4811 82.1773 29.5045 78.2409 31.4697C74.3044 33.435 70.8787 36.2884 68.2341 39.8046C64.6539 35.0469 59.6683 31.5354 53.9827 29.767C48.2971 27.9985 42.1993 28.0627 36.5521 29.9504C30.905 31.8381 25.9944 35.4538 22.5152 40.2858C19.0359 45.1179 17.1642 50.9216 17.1648 56.8759H28.591C28.8801 52.5734 30.7931 48.5415 33.9429 45.5963C37.0926 42.6511 41.2438 41.0126 45.556 41.0126C49.8682 41.0126 54.0193 42.6511 57.1691 45.5963C60.3188 48.5415 62.2319 52.5734 62.521 56.8759C62.521 63.0396 56.3063 68.7782 44.0469 73.8792L40.9524 75.1714C34.7972 77.7219 29.9002 79.7538 26.27 82.1597C24.4082 83.384 18.7376 87.1077 18.7376 94.4106V100.277H71.0141L75.775 88.8505H38.0448C40.2722 87.8388 42.7802 86.7931 45.3477 85.7219L48.4678 84.4212C56.6804 81.0205 62.7335 77.1863 66.9588 72.8505L67.2649 72.5274C69.9796 76.6158 73.7078 79.9305 78.0857 82.1482C82.4636 84.3659 87.3417 85.4107 92.2439 85.1806C97.146 84.9506 101.905 83.4536 106.056 80.8358C110.207 78.2179 113.608 74.5686 115.928 70.244C118.248 65.9194 119.407 61.0672 119.293 56.161C119.178 51.2548 117.793 46.4621 115.273 42.2507C112.754 38.0393 109.185 34.5531 104.917 32.1322C100.648 29.7113 95.824 28.4385 90.9164 28.438V28.4805ZM90.9164 73.8367C87.5637 73.8283 84.2887 72.8264 81.5051 70.9576C78.7216 69.0888 76.5543 66.437 75.2771 63.3371C73.9999 60.2372 73.6701 56.8283 74.3293 53.541C74.9885 50.2538 76.6072 47.2357 78.9809 44.8679C81.3546 42.5001 84.3768 40.889 87.6657 40.238C90.9546 39.587 94.3626 39.9254 97.4593 41.2103C100.556 42.4953 103.202 44.6692 105.064 47.4574C106.926 50.2457 107.92 53.5232 107.92 56.8759C107.908 61.3781 106.112 65.692 102.925 68.8716C99.737 72.0511 95.4186 73.8367 90.9164 73.8367Z" fill="#DEC388"/>
<path d="M25.0458 94.0365H68.2341V95.1757H23.8811V94.4616C23.8811 87.8898 31.0479 84.9058 42.9247 80.0088L46.0363 78.7081C54.6485 75.0949 60.7441 71.0056 64.2043 66.5337C64.3488 66.9588 64.5104 67.3839 64.6804 67.7835C61.0587 72.2213 55.0565 76.1661 46.4784 79.7623L43.3668 81.063C32.2127 85.6284 25.3689 88.5105 25.0458 94.0365ZM90.9249 33.6239C86.9691 33.6164 83.0772 34.6219 79.6201 36.5446C76.163 38.4674 73.2559 41.2434 71.1756 44.608C71.3712 45.0246 71.5667 45.4582 71.7452 45.8748C74.4123 41.2194 78.6816 37.6929 83.757 35.9531C88.8324 34.2132 94.3673 34.3788 99.3296 36.4188C104.292 38.4589 108.343 42.2341 110.727 47.0406C113.111 51.8471 113.666 57.3567 112.287 62.5418C110.909 67.727 107.691 72.2339 103.235 75.2219C98.7789 78.2099 93.388 79.4752 88.0677 78.7816C82.7475 78.0881 77.861 75.4832 74.3197 71.4527C70.7783 67.4222 68.8238 62.2412 68.8207 56.8759C68.8207 50.7091 66.3709 44.7949 62.0103 40.4343C57.6498 36.0737 51.7355 33.6239 45.5687 33.6239C39.4019 33.6239 33.4877 36.0737 29.1271 40.4343C24.7665 44.7949 22.3168 50.7091 22.3168 56.8759H23.456C23.456 51.0135 25.7848 45.3912 29.9302 41.2458C34.0755 37.1005 39.6978 34.7717 45.5602 34.7717C51.4226 34.7717 57.0449 37.1005 61.1903 41.2458C65.3356 45.3912 67.6645 51.0135 67.6645 56.8759C67.6645 61.4747 69.0282 65.9702 71.5831 69.794C74.1381 73.6178 77.7695 76.598 82.0183 78.3579C86.267 80.1178 90.9422 80.5783 95.4526 79.6811C99.9631 78.7839 104.106 76.5694 107.358 73.3175C110.61 70.0657 112.824 65.9226 113.722 61.4121C114.619 56.9017 114.158 52.2265 112.398 47.9778C110.639 43.729 107.658 40.0976 103.835 37.5426C100.011 34.9876 95.5152 33.6239 90.9164 33.6239H90.9249Z" fill="#DEC388"/>
<g style="mix-blend-mode:multiply">
<path d="M62.521 56.8504C62.521 63.0141 56.3063 68.7527 44.0469 73.8537L48.4678 84.3957C56.6804 80.995 62.7335 77.1608 66.9588 72.825L67.2649 72.5019C64.1679 67.8541 62.5172 62.393 62.521 56.8079V56.8504ZM68.2341 39.8471C71.9397 44.7418 73.9484 50.7112 73.9557 56.8504C73.9736 52.36 75.7671 48.059 78.9447 44.8862C82.1223 41.7134 86.426 39.9264 90.9164 39.9152V28.4805C86.5158 28.4815 82.1758 29.5058 78.2392 31.4727C74.3026 33.4395 70.8773 36.2948 68.2341 39.8131V39.8471Z" fill="url(#paint0_radial_3_125)"/>
</g>
<path d="M80.2129 88.944H82.0748L87.0907 100.438H84.9738L83.8176 97.6837H78.4191L77.2458 100.438H75.2054L80.2129 88.944ZM83.078 95.9069L81.1056 91.3415L79.1502 95.9069H83.078Z" fill="#DEC388"/>
<path d="M89.046 89.0291H90.9079L97.0206 96.9271V89.0291H99.0099V100.447H97.3096L91.0099 92.3277V100.447H89.0375L89.046 89.0291Z" fill="#DEC388"/>
<path d="M101.161 98.7719L102.368 97.3436C103.338 98.2768 104.627 98.8058 105.973 98.8229C107.214 98.8229 107.996 98.2363 107.996 97.3862C107.996 96.536 107.537 96.1279 105.446 95.6348C103.014 95.0482 101.645 94.3341 101.645 92.2342C101.645 90.2703 103.278 88.9185 105.539 88.9185C107.046 88.8895 108.514 89.399 109.68 90.3553L108.608 91.8686C107.73 91.1494 106.64 90.7374 105.505 90.6954C104.332 90.6954 103.652 91.299 103.652 92.0556C103.652 92.9058 104.17 93.3309 106.372 93.8495C108.787 94.4361 110.028 95.3033 110.028 97.1991C110.028 99.3415 108.328 100.6 105.947 100.6C104.179 100.614 102.47 99.9615 101.161 98.7719Z" fill="#DEC388"/>
</g>
</g>
<defs>
<radialGradient id="paint0_radial_3_125" cx="0" cy="0" r="1" gradientUnits="userSpaceOnUse" gradientTransform="translate(67.4774 56.8759) scale(26.032 26.032)">
<stop offset="0.21" stop-color="#B8A272"/>
<stop offset="0.86" stop-color="white"/>
</radialGradient>
<clipPath id="clip0_3_125">
<rect width="131" height="131" fill="white"/>
</clipPath>
<clipPath id="clip1_3_125">
<rect width="130.5" height="130.5" fill="white"/>
</clipPath>
</defs>
</svg>
