<svg width="199" height="30" viewBox="0 0 199 30" fill="none" xmlns="http://www.w3.org/2000/svg">
<path d="M21.2007 15.5632C20.2636 15.5723 19.3365 15.3698 18.4884 14.9708C17.679 14.5935 16.9643 14.04 16.3964 13.3508C15.8035 12.63 15.3513 11.8041 15.0634 10.9163C14.7497 9.93818 14.5935 8.91642 14.6006 7.88927V7.88927C14.5819 6.83562 14.7447 5.78665 15.0819 4.78825C15.3746 3.89302 15.833 3.06083 16.4334 2.33516C17.007 1.64717 17.7201 1.08876 18.5255 0.696735C19.3755 0.309125 20.2989 0.108521 21.2331 0.108521C22.1673 0.108521 23.0907 0.309125 23.9407 0.696735C24.7458 1.07675 25.457 1.62991 26.0235 2.31668C26.6268 3.0458 27.0827 3.88521 27.3658 4.78825C27.6947 5.76315 27.8574 6.78642 27.8471 7.81525V7.81525C27.8567 8.84102 27.694 9.86112 27.3658 10.833C27.0754 11.7292 26.6167 12.5617 26.0143 13.286C25.4454 13.9908 24.732 14.5653 23.9222 14.9708C23.0723 15.3739 22.1412 15.5766 21.2007 15.5632ZM21.2007 12.601C21.6715 12.6056 22.1349 12.4842 22.5429 12.2493C22.951 12.0019 23.2989 11.6667 23.5612 11.268C23.8634 10.8134 24.0828 10.3088 24.2092 9.7777C24.3671 9.17338 24.4449 8.55093 24.4406 7.92633V7.92633C24.442 7.30132 24.3611 6.67884 24.1999 6.07496C24.0609 5.54212 23.8358 5.03558 23.5334 4.57536C23.2617 4.16991 22.9047 3.8287 22.4874 3.5756C22.0868 3.32921 21.6247 3.20085 21.1544 3.20531C20.6835 3.19978 20.2198 3.3213 19.8122 3.55707C19.4069 3.80479 19.0621 4.14006 18.8032 4.53829C18.5091 4.99733 18.2903 5.50052 18.1552 6.02869C17.994 6.63257 17.9131 7.25505 17.9145 7.88006C17.9143 8.505 17.9952 9.12732 18.1552 9.73143C18.2894 10.2672 18.5115 10.7771 18.8124 11.2402C19.0811 11.6425 19.4351 11.9807 19.8492 12.2307C20.27 12.4857 20.7552 12.6143 21.247 12.601H21.2007Z" fill="#212E5A"/>
<path d="M33.3644 15.5633C32.2856 15.585 31.214 15.3832 30.217 14.9708C29.318 14.5715 28.4945 14.0203 27.7825 13.3416L29.8005 10.9811C30.3026 11.4539 30.8624 11.8614 31.4667 12.1938C32.043 12.4758 32.6765 12.6215 33.3181 12.6196C33.9786 12.6595 34.6327 12.4698 35.1694 12.0827C35.3965 11.897 35.5762 11.66 35.6936 11.3912C35.8111 11.1224 35.8631 10.8296 35.8452 10.5368C35.8576 10.2448 35.7963 9.95428 35.6669 9.69219C35.5374 9.4301 35.3441 9.20485 35.1046 9.03719C34.5442 8.65579 33.8748 8.4673 33.1977 8.50028C32.7518 8.4994 32.3073 8.55222 31.874 8.65763C31.4754 8.75947 31.0854 8.89255 30.7076 9.05567L28.81 7.79675L29.2358 0.446808H38.4186V3.32567H32.0221L31.8555 5.91758C32.1517 5.85278 32.4479 5.78804 32.7812 5.74176C33.8179 5.59638 34.8734 5.66567 35.8822 5.94538C36.4923 6.11362 37.0622 6.40326 37.5577 6.79699C38.0464 7.188 38.4312 7.69358 38.6778 8.26886C38.9465 8.9263 39.0758 9.63238 39.0573 10.3424V10.3887C39.0716 11.122 38.9329 11.8503 38.65 12.527C38.3927 13.1406 38.0041 13.6904 37.5114 14.1377C36.9869 14.6008 36.3723 14.9506 35.7063 15.1652C34.9533 15.4273 34.1617 15.5618 33.3644 15.5633Z" fill="#212E5A"/>
<path d="M47.7402 10.9811C47.3169 10.9843 46.8976 10.8991 46.509 10.7312C46.1442 10.5755 45.8138 10.349 45.5371 10.0647C45.2423 9.78221 45.0091 9.44183 44.8521 9.06494C44.6841 8.67311 44.599 8.25083 44.6021 7.82455C44.599 7.39827 44.6841 6.97593 44.8521 6.58411C45.0091 6.20721 45.2423 5.86683 45.5371 5.58435C45.8247 5.29598 46.168 5.06924 46.5461 4.91788C46.9346 4.74992 47.3539 4.66478 47.7772 4.66793C48.2035 4.66484 48.6258 4.74995 49.0177 4.91788C49.3917 5.07167 49.7316 5.29819 50.0174 5.58435C50.3033 5.87423 50.5353 6.21279 50.7024 6.58411C50.8703 6.97593 50.9554 7.39827 50.9523 7.82455V7.82455C50.9554 8.25083 50.8703 8.67311 50.7024 9.06494C50.5353 9.43625 50.3033 9.77481 50.0174 10.0647C49.7316 10.3508 49.3917 10.5774 49.0177 10.7312C48.6144 10.9042 48.1789 10.9894 47.7402 10.9811V10.9811Z" fill="#212E5A"/>
<path d="M62.9492 15.5632C62.0121 15.5723 61.085 15.3698 60.237 14.9708C59.429 14.5911 58.7147 14.038 58.1449 13.3508C57.5521 12.63 57.0999 11.8041 56.8119 10.9163C56.4982 9.93818 56.342 8.91642 56.3491 7.88927V7.88927C56.3304 6.83562 56.4933 5.78665 56.8305 4.78825C57.1231 3.89302 57.5816 3.06083 58.182 2.33516C58.7556 1.64717 59.4686 1.08876 60.274 0.696735C61.124 0.309125 62.0474 0.108521 62.9816 0.108521C63.9159 0.108521 64.8392 0.309125 65.6893 0.696735C66.4943 1.07675 67.2055 1.62991 67.772 2.31668C68.3712 3.03478 68.8269 3.86127 69.1143 4.75124C69.4432 5.72614 69.6059 6.74935 69.5956 7.77819C69.6052 8.80395 69.4425 9.82405 69.1143 10.7959C68.8239 11.6921 68.3652 12.5247 67.7628 13.249C67.1979 13.9672 66.4842 14.5545 65.6707 14.9708C64.8209 15.3739 63.8898 15.5766 62.9492 15.5632V15.5632ZM62.9492 12.601C63.42 12.6056 63.8835 12.4842 64.2915 12.2493C64.6996 12.0019 65.0474 11.6667 65.3097 11.268C65.6119 10.8134 65.8313 10.3088 65.9577 9.7777C66.1156 9.17338 66.1934 8.55093 66.1891 7.92633V7.92633C66.1905 7.30132 66.1096 6.67884 65.9485 6.07496C65.8095 5.54212 65.5843 5.03558 65.282 4.57536C65.0103 4.16991 64.6533 3.8287 64.2359 3.5756C63.8353 3.32921 63.3733 3.20085 62.9029 3.20531C62.4321 3.19978 61.9684 3.3213 61.5607 3.55707C61.1554 3.80479 60.8106 4.14006 60.5517 4.53829C60.2576 4.99733 60.0388 5.50052 59.9037 6.02869C59.7426 6.63257 59.6617 7.25505 59.6631 7.88006V7.88006C59.6628 8.505 59.7437 9.12732 59.9037 9.73143C60.0379 10.2672 60.26 10.7771 60.561 11.2402C60.8297 11.6425 61.1836 11.9807 61.5977 12.2307C62.0185 12.4857 62.5037 12.6143 62.9955 12.601H62.9492Z" fill="#212E5A"/>
<path d="M75.3257 15.517C74.5529 15.5238 73.7831 15.4209 73.0392 15.2115C72.3721 15.0153 71.7452 14.7018 71.1879 14.2858C70.6907 13.931 70.2795 13.4692 69.9845 12.9343C69.6915 12.3915 69.5418 11.783 69.5494 11.1663V11.1663C69.5109 10.3837 69.7215 9.6091 70.1511 8.95387C70.6255 8.34563 71.2466 7.86785 71.9562 7.56534C71.4057 7.23802 70.9321 6.79599 70.5677 6.26936C70.2075 5.68 70.0303 4.99703 70.0585 4.30691V4.30691C70.0545 3.75143 70.1813 3.20281 70.4288 2.70549C70.6895 2.20404 71.0521 1.76259 71.4933 1.40951C71.9898 1.02371 72.5509 0.729091 73.1503 0.539367C74.5463 0.10732 76.0403 0.10732 77.4362 0.539367C78.0373 0.727758 78.6011 1.01909 79.1025 1.4003C79.5504 1.74659 79.9143 2.18957 80.167 2.69623C80.4136 3.19716 80.5404 3.74857 80.5373 4.30691C80.5701 4.99751 80.3926 5.68181 80.0282 6.26936C79.6637 6.79599 79.1901 7.23802 78.6396 7.56534C79.3175 7.90282 79.9192 8.37534 80.4077 8.95387C80.858 9.56602 81.0836 10.3146 81.0464 11.0737V11.12C81.0617 11.7641 80.9119 12.4015 80.6113 12.9714C80.3222 13.5154 79.9101 13.9845 79.4079 14.3414C78.8484 14.7408 78.2212 15.0356 77.5566 15.2115C76.8295 15.4106 76.0795 15.5133 75.3257 15.517ZM75.3257 12.814C75.9853 12.8457 76.6367 12.6568 77.1771 12.2771C77.3889 12.1274 77.5616 11.929 77.6808 11.6987C77.8 11.4683 77.8622 11.2127 77.8621 10.9533V10.9533C77.8724 10.6832 77.81 10.4153 77.6814 10.1775C77.5527 9.93978 77.3625 9.74097 77.1308 9.60186C76.5647 9.28653 75.9274 9.12099 75.2794 9.12099C74.6314 9.12099 73.9941 9.28653 73.428 9.60186C73.1993 9.74357 73.0121 9.9432 72.8853 10.1805C72.7585 10.4179 72.6966 10.6844 72.706 10.9533V10.9533C72.7063 11.2103 72.7677 11.4636 72.8852 11.6922C73.0027 11.9207 73.1729 12.118 73.3817 12.2678C73.9468 12.6698 74.634 12.8628 75.3257 12.814V12.814ZM75.3257 6.48231C75.8898 6.5157 76.4456 6.33375 76.8808 5.97319C77.0669 5.81349 77.215 5.61426 77.3143 5.39006C77.4135 5.16586 77.4616 4.92232 77.4548 4.67721V4.67721C77.453 4.44734 77.4026 4.22042 77.3068 4.01142C77.2111 3.80242 77.0722 3.61607 76.8993 3.46456C76.4666 3.08428 75.9006 2.89117 75.3257 2.92765C74.7524 2.89166 74.1877 3.081 73.752 3.4553C73.5789 3.60462 73.4398 3.78927 73.344 3.99684C73.2482 4.20441 73.1979 4.43007 73.1966 4.65868V4.65868C73.1922 4.90615 73.2411 5.1517 73.3402 5.37853C73.4392 5.60537 73.586 5.80822 73.7705 5.97319C74.2053 6.33458 74.7614 6.51664 75.3257 6.48231V6.48231Z" fill="#212E5A"/>
<path d="M89.3405 15.517C88.3254 15.5502 87.3186 15.324 86.4154 14.8597C85.6737 14.4548 85.0119 13.9184 84.4622 13.2768L86.5264 10.9811C86.906 11.4032 87.3421 11.7708 87.8224 12.0734C88.2525 12.3411 88.7506 12.4793 89.2572 12.4714C89.53 12.4853 89.8026 12.4404 90.0565 12.3398C90.3104 12.2392 90.5398 12.0852 90.729 11.8882C91.12 11.3538 91.3072 10.6972 91.2567 10.0369V0.391235H94.5984V10.1479C94.6154 10.9376 94.4931 11.7241 94.2374 12.4714C94.0128 13.093 93.6559 13.6584 93.1914 14.1284C92.7195 14.5976 92.1463 14.9523 91.5159 15.1652C90.8156 15.4037 90.0802 15.5226 89.3405 15.517Z" fill="#212E5A"/>
<path d="M102.059 15.5354C101.173 15.631 100.276 15.5242 99.4372 15.2233C98.5979 14.9223 97.8379 14.435 97.2141 13.7979C96.5904 13.1608 96.1193 12.3906 95.8362 11.5451C95.5531 10.6997 95.4654 9.80105 95.5797 8.91682V0.391243H98.8566V8.82422C98.7777 9.82444 99.0822 10.8172 99.7082 11.6013C100.013 11.9173 100.383 12.1637 100.792 12.3234C101.201 12.4832 101.64 12.5526 102.078 12.527C102.514 12.5465 102.95 12.4742 103.357 12.3147C103.763 12.1553 104.132 11.9122 104.438 11.6013C105.057 10.8493 105.362 9.88787 105.29 8.91682V0.372711H108.567V8.78721C108.589 9.79346 108.436 10.7959 108.113 11.7494C107.839 12.5399 107.39 13.2582 106.799 13.8507C106.215 14.4187 105.509 14.8462 104.735 15.1004C103.873 15.3905 102.969 15.5374 102.059 15.5354V15.5354Z" fill="#212E5A"/>
<path d="M109.817 0.391235H112.834L119.823 9.57402V0.391235H123.063V15.304H120.286L113.066 5.825V15.304H109.835L109.817 0.391235Z" fill="#212E5A"/>
<path d="M124.507 0.391235H135.736V3.30717H127.747V6.33412H134.773V9.25005H127.747V12.3881H135.838V15.304H124.507V0.391235Z" fill="#212E5A"/>
<path d="M140.142 14.0451L145.557 9.26859C147.835 7.22283 148.668 6.07498 148.668 4.58463C148.668 4.19659 148.59 3.81252 148.437 3.45594C148.284 3.09935 148.059 2.77773 147.778 2.51082C147.496 2.2439 147.163 2.03728 146.799 1.90362C146.434 1.76996 146.047 1.71208 145.659 1.7335C143.956 1.7335 142.882 2.65919 141.66 4.2884L140.42 3.36271C141.762 1.36324 143.197 0.187622 145.789 0.187622C148.381 0.187622 150.417 1.97419 150.417 4.40874C150.417 6.5841 149.269 7.9263 146.65 10.2035L142.669 13.7396H150.565V15.2763H140.142V14.0451Z" fill="#212E5A"/>
<path d="M151.065 7.88926C151.065 3.71442 153.555 0.178345 157.388 0.178345C161.22 0.178345 163.655 3.66815 163.655 7.84299C163.655 12.0178 161.183 15.554 157.351 15.554C153.518 15.554 151.065 12.0641 151.065 7.88926ZM161.905 7.88926C161.905 4.63085 160.118 1.70569 157.351 1.70569C154.583 1.70569 152.805 4.56606 152.805 7.84299C152.805 11.1014 154.601 14.0173 157.434 14.0173C160.266 14.0173 161.914 11.1477 161.914 7.88926H161.905Z" fill="#212E5A"/>
<path d="M163.664 14.0451L169.07 9.26859C171.347 7.22283 172.18 6.07498 172.18 4.58463C172.182 4.19703 172.104 3.81311 171.952 3.45656C171.8 3.10001 171.577 2.77832 171.296 2.51127C171.015 2.24422 170.683 2.03749 170.319 1.90373C169.955 1.76998 169.568 1.71203 169.181 1.7335C167.477 1.7335 166.404 2.65919 165.172 4.2884L163.941 3.36271C165.284 1.36324 166.718 0.187622 169.301 0.187622C171.884 0.187622 173.929 1.97419 173.929 4.40874C173.929 6.5841 172.782 7.9263 170.162 10.2035L166.172 13.7396H174.078V15.2763H163.664V14.0451Z" fill="#212E5A"/>
<path d="M174.328 12.8972L175.55 11.8142C176.052 12.4991 176.708 13.0561 177.466 13.4404C178.223 13.8248 179.06 14.0255 179.91 14.0266C180.316 14.0634 180.727 14.0164 181.115 13.8886C181.503 13.7607 181.861 13.5547 182.166 13.2831C182.471 13.0116 182.718 12.6804 182.89 12.3099C183.062 11.9395 183.157 11.5376 183.168 11.1292V11.0829C183.168 9.23152 181.446 8.21328 178.993 8.21328H178.067L177.725 7.21353L182.437 1.90937H175.133V0.391235H184.649V1.63168L179.965 6.82476C182.566 7.03766 184.89 8.29657 184.89 11.0181C184.89 13.6841 182.668 15.517 179.9 15.517C178.831 15.5492 177.769 15.3288 176.801 14.8736C175.832 14.4184 174.985 13.7413 174.328 12.8972V12.8972Z" fill="#212E5A"/>
<path d="M0.956055 28.7635L1.66883 27.9118C2.24706 28.467 3.01486 28.7814 3.81642 28.7912C4.54771 28.7912 5.01981 28.4487 5.01981 27.9396C5.01981 27.4583 4.74211 27.1991 3.48317 26.9028C2.03911 26.5511 1.2245 26.1253 1.2245 24.8756C1.23779 24.5913 1.30948 24.3127 1.4351 24.0573C1.56073 23.8018 1.7376 23.575 1.95469 23.3909C2.17179 23.2068 2.42447 23.0694 2.69699 22.9872C2.96951 22.905 3.25603 22.8798 3.53871 22.9131C4.43556 22.8893 5.31054 23.192 6.00104 23.7648L5.36231 24.6904C4.83782 24.2626 4.18743 24.0187 3.51095 23.9962C2.81668 23.9962 2.40938 24.3572 2.40938 24.8015C2.40938 25.3199 2.71486 25.5606 4.02933 25.8661C5.3438 26.1716 6.19543 26.7269 6.19543 27.8563C6.19543 29.1245 5.19569 29.8743 3.77939 29.8743C2.7321 29.8721 1.72407 29.4755 0.956055 28.7635V28.7635Z" fill="#212E5A"/>
<path d="M8.89843 22.9225H10L12.99 29.7818H11.731L11.0368 28.1433H7.83389L7.13963 29.7818H5.91772L8.89843 22.9225ZM10.6017 27.0603L9.43533 24.348L8.26897 27.0603H10.6017Z" fill="#212E5A"/>
<path d="M13.1382 22.9688H18.2295V24.0611H14.3693V25.9124H17.7666V27.0047H14.3416V29.7818H13.1382V22.9688Z" fill="#212E5A"/>
<path d="M18.5625 22.9688H23.589V24.0333H19.7566V25.8013H23.1539V26.8658H19.7566V28.7172H23.6353V29.7818H18.5625V22.9688Z" fill="#212E5A"/>
<path d="M29.8004 22.9688L27.4399 26.2827L29.9115 29.7818H28.5137L26.7179 27.1991L24.9313 29.7818H23.5706L26.0236 26.329L23.6631 22.9965H25.0702L26.7549 25.4588L28.4489 22.9965L29.8004 22.9688Z" fill="#212E5A"/>
<path d="M32.1147 22.9688H37.1412V24.0333H33.2996V25.8013H36.7061V26.8658H33.2996V28.7172H37.206V29.7818H32.1147V22.9688Z" fill="#212E5A"/>
<path d="M43.3709 22.9688L41.0012 26.2827L43.4635 29.7818H42.0565L40.2699 27.1991L38.4833 29.7818H37.1226L39.5664 26.329L37.2059 22.9688H38.6129L40.2977 25.431L41.9917 22.9688H43.3709Z" fill="#212E5A"/>
<path d="M43.6855 22.9688H44.8797V25.7921H48.1103V22.9688H49.3045V29.7818H48.1473V26.9214H44.9167V29.7818H43.6855V22.9688Z" fill="#212E5A"/>
<path d="M50.1655 22.9688H51.3597V29.7818H50.1655V22.9688Z" fill="#212E5A"/>
<path d="M52.2205 22.9687H55.2567C55.9055 22.9258 56.5447 23.1422 57.034 23.5704C57.1821 23.7181 57.2987 23.8944 57.3766 24.0885C57.4546 24.2827 57.4923 24.4906 57.4876 24.6998C57.4987 25.0144 57.4168 25.3253 57.2522 25.5937C57.0875 25.8621 56.8475 26.076 56.5619 26.2086C56.9442 26.2821 57.2887 26.4872 57.5355 26.7881C57.7824 27.0891 57.9161 27.467 57.9134 27.8563C57.9134 29.069 56.9137 29.7077 55.4048 29.7077H52.2205V22.9687ZM56.2935 24.8941C56.2935 24.3572 55.8677 24.024 55.0993 24.024H53.3868V25.8754H55.016C55.7843 25.8754 56.2935 25.5792 56.2935 24.9497V24.8941ZM55.2752 26.8381H53.4238V28.6895H55.4048C56.2194 28.6895 56.71 28.3655 56.71 27.7638C56.6452 27.1806 56.2194 26.8381 55.2752 26.8381V26.8381Z" fill="#212E5A"/>
<path d="M58.3115 22.9688H59.4964V29.7818H58.3115V22.9688Z" fill="#212E5A"/>
<path d="M62.005 24.0796H59.8574V22.9688H65.4115V24.0796H63.2084V29.7818H62.005V24.0796Z" fill="#212E5A"/>
<path d="M65.717 22.9688H66.9112V29.7818H65.717V22.9688Z" fill="#212E5A"/>
<path d="M67.448 26.3845C67.448 25.4442 67.8215 24.5424 68.4864 23.8775C69.1513 23.2126 70.0531 22.8391 70.9934 22.8391C71.9337 22.8391 72.8354 23.2126 73.5003 23.8775C74.1652 24.5424 74.5387 25.4442 74.5387 26.3845V26.3845C74.5387 27.3248 74.1652 28.2265 73.5003 28.8914C72.8354 29.5563 71.9337 29.9298 70.9934 29.9298C70.0531 29.9298 69.1513 29.5563 68.4864 28.8914C67.8215 28.2265 67.448 27.3248 67.448 26.3845ZM73.2891 26.3845C73.3015 26.0732 73.2512 25.7626 73.1412 25.4712C73.0311 25.1798 72.8636 24.9134 72.6486 24.688C72.4336 24.4626 72.1754 24.2828 71.8894 24.1592C71.6035 24.0355 71.2956 23.9707 70.9841 23.9684C70.6747 23.9694 70.3686 24.0329 70.0843 24.1552C69.8 24.2774 69.5434 24.4558 69.3298 24.6797C69.1162 24.9037 68.9501 25.1685 68.8415 25.4583C68.7329 25.7481 68.6839 26.0568 68.6977 26.366V26.366C68.6865 26.676 68.7378 26.9852 68.8485 27.275C68.9592 27.5649 69.1271 27.8295 69.3421 28.0532C69.5571 28.2768 69.8149 28.455 70.1002 28.577C70.3855 28.699 70.6924 28.7625 71.0026 28.7635C71.3128 28.7676 71.6205 28.7083 71.9069 28.5892C72.1933 28.4701 72.4523 28.2938 72.6682 28.0711C72.884 27.8483 73.052 27.5838 73.162 27.2938C73.2719 27.0038 73.3215 26.6944 73.3076 26.3845H73.2891Z" fill="#212E5A"/>
<path d="M75.0107 22.9688H76.0845L79.7132 27.662V22.9688H80.8888V29.7818H79.8891L76.1864 24.9589V29.7818H75.0107V22.9688Z" fill="#212E5A"/>
<path d="M83.6291 22.9688H86.2673C87.8594 22.9688 88.8499 23.8944 88.8499 25.2367C88.8499 26.7641 87.628 27.5509 86.1377 27.5509H84.7862V29.7818H83.592L83.6291 22.9688ZM86.2117 26.4956C87.1374 26.4956 87.6743 25.9957 87.6743 25.2922C87.6743 24.5054 87.1004 24.0888 86.2117 24.0888H84.8232V26.5233L86.2117 26.4956Z" fill="#212E5A"/>
<path d="M90.8956 22.9225H91.9972L94.9871 29.754H93.6727L92.9784 28.1156H89.7755L89.0813 29.754H87.8594L90.8956 22.9225ZM92.5989 27.0603L91.4325 24.348L90.2662 27.0603H92.5989Z" fill="#212E5A"/>
<path d="M95.1353 22.9687H98.1622C98.8773 22.9368 99.577 23.1822 100.115 23.6537C100.302 23.8478 100.448 24.0771 100.545 24.3282C100.642 24.5793 100.688 24.8472 100.68 25.1163C100.693 25.5928 100.539 26.0589 100.245 26.4341C99.9512 26.8094 99.5353 27.0701 99.0694 27.1713L100.921 29.7355H99.5045L97.8383 27.375H96.3479V29.7817H95.1538L95.1353 22.9687ZM98.0697 26.3382C98.9306 26.3382 99.4675 25.8846 99.4675 25.1996C99.4675 24.4683 98.9491 24.0795 98.0604 24.0795H96.3294V26.3567L98.0697 26.3382Z" fill="#212E5A"/>
<path d="M101.171 22.9688H102.365V26.3845L105.586 22.9688H107.068L104.235 25.8846L107.188 29.7818H105.707L103.393 26.727L102.337 27.8193V29.7818H101.171V22.9688Z" fill="#212E5A"/>
<path d="M110.724 27.7915C110.53 27.7933 110.338 27.7555 110.159 27.6805C109.988 27.6074 109.831 27.5039 109.696 27.375C109.566 27.2419 109.462 27.0847 109.391 26.9122C109.316 26.7366 109.278 26.5475 109.28 26.3567V26.3567C109.278 26.1629 109.316 25.9708 109.391 25.7921C109.462 25.6222 109.566 25.4681 109.696 25.3385C109.831 25.2096 109.988 25.1061 110.159 25.033C110.338 24.958 110.53 24.9202 110.724 24.9219C110.915 24.9204 111.104 24.9582 111.279 25.033C111.452 25.104 111.609 25.2077 111.742 25.3385C111.87 25.4706 111.973 25.6241 112.048 25.7921C112.126 25.9702 112.167 26.1623 112.168 26.3567V26.3567C112.167 26.5482 112.126 26.7373 112.048 26.9122C111.973 27.083 111.87 27.2396 111.742 27.375C111.609 27.5058 111.452 27.6095 111.279 27.6805C111.104 27.7553 110.915 27.7931 110.724 27.7915Z" fill="#212E5A"/>
<path d="M117.25 22.9225H118.666L121.573 29.754H120.018L119.398 28.2359H116.528L115.889 29.7818H114.371L117.25 22.9225ZM118.814 26.9122L117.889 24.7183L116.963 26.9122H118.814Z" fill="#212E5A"/>
<path d="M121.61 22.978H123.1V28.4117H126.479V29.7817H121.61V22.978Z" fill="#212E5A"/>
<path d="M129.895 29.8743C129.401 29.879 128.91 29.7878 128.451 29.6059C128.03 29.4441 127.647 29.1957 127.328 28.8767C127.01 28.5578 126.761 28.1755 126.599 27.7545C126.426 27.3088 126.339 26.8347 126.34 26.3567V26.3567C126.339 25.8898 126.43 25.4274 126.609 24.996C126.779 24.5802 127.031 24.2026 127.349 23.8851C127.669 23.5611 128.05 23.3032 128.469 23.1261C128.921 22.9374 129.406 22.8429 129.895 22.8484C130.174 22.8448 130.453 22.8665 130.728 22.9132C130.961 22.951 131.19 23.0098 131.413 23.0891C131.623 23.1671 131.825 23.2664 132.015 23.3853C132.209 23.5003 132.392 23.6336 132.561 23.7833L131.635 24.9126C131.514 24.8104 131.387 24.7146 131.256 24.6257C131.127 24.5421 130.99 24.4708 130.848 24.4128C130.704 24.3459 130.551 24.2992 130.395 24.2739C130.219 24.2539 130.042 24.2539 129.867 24.2739C129.605 24.2718 129.345 24.3288 129.108 24.4405C128.874 24.5508 128.664 24.7047 128.488 24.8941C128.309 25.092 128.168 25.3211 128.071 25.5699C127.97 25.8293 127.919 26.1059 127.923 26.3845V26.3845C127.918 26.6782 127.968 26.9703 128.071 27.2454C128.164 27.4979 128.307 27.729 128.491 27.9247C128.676 28.1204 128.898 28.2766 129.145 28.3839C129.407 28.4894 129.687 28.5428 129.969 28.5413C130.469 28.5563 130.961 28.4138 131.376 28.134V27.162H129.876V25.8661H132.82V28.8098C132.448 29.127 132.029 29.386 131.579 29.5781C131.044 29.7906 130.471 29.8913 129.895 29.8743Z" fill="#212E5A"/>
<path d="M133.329 22.978H134.819V29.7817H133.329V22.978Z" fill="#212E5A"/>
<path d="M135.542 22.978H140.642V24.3017H137.013V25.681H140.207V27.0047H137.013V28.4302H140.716V29.7817H135.56L135.542 22.978Z" fill="#212E5A"/>
<path d="M141.068 22.978H144.16C144.519 22.9529 144.88 23.0007 145.22 23.1184C145.56 23.2361 145.874 23.4213 146.141 23.663C146.338 23.8676 146.491 24.1101 146.591 24.3759C146.692 24.6417 146.737 24.9251 146.724 25.2089C146.745 25.6896 146.601 26.1632 146.317 26.5511C146.046 26.8999 145.684 27.1661 145.27 27.3194L146.927 29.7355H145.178L143.725 27.5693H142.558V29.7817H141.068V22.978ZM144.067 26.2641C144.37 26.2865 144.671 26.1939 144.909 26.0049C145.008 25.9193 145.086 25.8123 145.138 25.692C145.189 25.5717 145.212 25.4413 145.206 25.3107V25.3107C145.212 25.1738 145.188 25.0372 145.135 24.9107C145.082 24.7842 145.002 24.6711 144.9 24.5794C144.647 24.4083 144.345 24.3239 144.039 24.3387H142.558V26.2826L144.067 26.2641Z" fill="#212E5A"/>
<path d="M149.519 29.8466C149.002 29.8487 148.488 29.7609 148.001 29.5874C147.497 29.4071 147.034 29.1269 146.64 28.7636L147.52 27.7083C147.803 27.945 148.114 28.147 148.445 28.3099C148.783 28.4597 149.15 28.5355 149.519 28.5321C149.771 28.5454 150.021 28.4877 150.241 28.3655C150.322 28.3159 150.388 28.2463 150.433 28.1636C150.479 28.0808 150.502 27.9878 150.5 27.8934V27.8934C150.502 27.8039 150.483 27.7153 150.445 27.6342C150.397 27.549 150.326 27.4786 150.241 27.4306C150.11 27.3516 149.97 27.2864 149.825 27.2361C149.64 27.1714 149.408 27.1066 149.13 27.0325C148.817 26.9571 148.508 26.8643 148.205 26.7548C147.949 26.6608 147.709 26.5298 147.492 26.366C147.298 26.2194 147.144 26.0249 147.048 25.8013C146.927 25.5375 146.87 25.2489 146.881 24.9589C146.879 24.6689 146.939 24.3817 147.057 24.1166C147.174 23.8716 147.341 23.654 147.548 23.4779C147.762 23.2876 148.014 23.1455 148.288 23.0613C148.586 22.9617 148.899 22.9117 149.214 22.9132C149.68 22.9087 150.143 22.9838 150.584 23.1354C150.999 23.2836 151.387 23.4994 151.732 23.7741L150.954 24.9034C150.664 24.7064 150.354 24.5419 150.028 24.4128C149.77 24.3018 149.494 24.239 149.214 24.2277C148.985 24.2121 148.758 24.2706 148.566 24.3943C148.497 24.44 148.441 24.502 148.402 24.5747C148.364 24.6474 148.343 24.7285 148.344 24.8109V24.8109C148.343 24.9102 148.365 25.0083 148.408 25.0978C148.464 25.1917 148.544 25.2686 148.64 25.32C148.785 25.3963 148.937 25.4584 149.093 25.5051L149.815 25.7087C150.133 25.782 150.443 25.8843 150.741 26.0142C150.986 26.1137 151.214 26.2511 151.417 26.4215C151.597 26.572 151.739 26.7621 151.833 26.9769C151.939 27.2156 151.99 27.4751 151.982 27.736V27.736C151.991 28.0546 151.928 28.3712 151.796 28.6617C151.68 28.9176 151.506 29.1427 151.287 29.3189C151.055 29.5068 150.788 29.6454 150.5 29.7262C150.181 29.8148 149.85 29.8553 149.519 29.8466V29.8466Z" fill="#212E5A"/>
<path d="M155.87 27.7915C155.676 27.7923 155.484 27.7545 155.305 27.6805C155.136 27.6071 154.983 27.5036 154.851 27.375C154.718 27.2424 154.611 27.0853 154.537 26.9122C154.462 26.7366 154.424 26.5475 154.425 26.3567V26.3567C154.423 26.1668 154.459 25.9784 154.532 25.8032C154.605 25.6279 154.714 25.4698 154.851 25.3385C154.983 25.2099 155.136 25.1064 155.305 25.033C155.484 24.959 155.676 24.9212 155.87 24.9219C156.063 24.9202 156.255 24.958 156.434 25.033C156.776 25.1775 157.049 25.4498 157.193 25.7921C157.276 25.9688 157.317 26.1618 157.314 26.3567V26.3567C157.317 26.5487 157.275 26.7387 157.193 26.9122C157.122 27.0847 157.019 27.2419 156.888 27.375C156.758 27.5057 156.604 27.6095 156.434 27.6805C156.255 27.7555 156.063 27.7933 155.87 27.7915V27.7915Z" fill="#212E5A"/>
<path d="M162.534 22.9225H163.636L166.626 29.754H165.367L164.673 28.1156H161.47L160.776 29.754H159.554L162.534 22.9225ZM164.238 27.0603L163.099 24.348L161.933 27.0603H164.238Z" fill="#212E5A"/>
<path d="M166.802 22.9688H167.996V28.6709H171.56V29.7818H166.802V22.9688Z" fill="#212E5A"/>
<path d="M171.152 26.3845C171.145 25.9225 171.23 25.4637 171.403 25.0353C171.576 24.6068 171.834 24.2175 172.16 23.8904C172.486 23.5632 172.875 23.3049 173.303 23.1307C173.731 22.9565 174.189 22.8699 174.651 22.8761C175.607 22.8299 176.541 23.1626 177.253 23.8018L176.503 24.7275C176.005 24.2505 175.341 23.9879 174.651 23.9962C174.349 24.0081 174.052 24.0797 173.777 24.2068C173.503 24.3339 173.256 24.514 173.051 24.7368C172.847 24.9596 172.688 25.2207 172.584 25.5051C172.481 25.7895 172.435 26.0915 172.448 26.3938C172.426 26.7073 172.47 27.0219 172.577 27.3176C172.683 27.6133 172.85 27.8835 173.067 28.1109C173.284 28.3383 173.546 28.5179 173.837 28.6382C174.127 28.7586 174.439 28.817 174.753 28.8098C175.339 28.8173 175.913 28.6391 176.392 28.3007V27.0047H174.661V25.9679H177.549V28.8561C176.763 29.5391 175.758 29.917 174.716 29.9206C174.243 29.9486 173.77 29.8765 173.327 29.7091C172.883 29.5416 172.48 29.2826 172.144 28.9489C171.808 28.6152 171.546 28.2144 171.375 27.7725C171.204 27.3306 171.128 26.8577 171.152 26.3845V26.3845Z" fill="#212E5A"/>
<path d="M178.077 22.9688H183.103V24.0333H179.271V25.8013H182.668V26.8658H179.271V28.7172H183.159V29.7818H178.077V22.9688Z" fill="#212E5A"/>
<path d="M183.603 22.9687H186.621C187.339 22.9344 188.042 23.18 188.583 23.6537C188.954 24.049 189.154 24.5747 189.139 25.1163V25.1163C189.152 25.5929 188.998 26.059 188.704 26.4342C188.41 26.8094 187.994 27.0701 187.528 27.1713L189.379 29.7355H187.963L186.297 27.375H184.806V29.7818H183.622L183.603 22.9687ZM186.537 26.3383C187.389 26.3383 187.926 25.8846 187.926 25.1996C187.926 24.4683 187.408 24.0796 186.528 24.0796H184.788V26.3567L186.537 26.3383Z" fill="#212E5A"/>
<path d="M189.703 22.9688H190.87V29.7818H189.685L189.703 22.9688Z" fill="#212E5A"/>
<path d="M194.137 22.9225H195.239L198.275 29.7818H197.016L196.322 28.1433H193.119L192.416 29.7818H191.203L194.137 22.9225ZM195.841 27.0603L194.665 24.348L193.508 27.0603H195.841Z" fill="#212E5A"/>
</svg>
