<svg width="208" height="28" viewBox="0 0 208 28" fill="none" xmlns="http://www.w3.org/2000/svg">
<path d="M197.097 12.2604L198.263 11.2187C198.747 11.8792 199.379 12.4161 200.109 12.7859C200.84 13.1556 201.647 13.3477 202.465 13.3466C202.856 13.3807 203.249 13.3349 203.621 13.212C203.993 13.089 204.337 12.8916 204.63 12.6316C204.923 12.3717 205.16 12.0547 205.327 11.7C205.494 11.3454 205.586 10.9604 205.6 10.5687V10.5687C205.6 8.78804 203.935 7.79976 201.584 7.79976H200.694L200.364 6.83817L204.896 1.73649H197.889V0.285217H207.006V1.4694L202.501 6.47315C205.003 6.67793 207.238 7.88878 207.238 10.5064V10.551C207.238 13.1063 205.101 14.8691 202.439 14.8691C201.405 14.892 200.38 14.6672 199.451 14.2134C198.522 13.7596 197.714 13.0899 197.097 12.2604V12.2604Z" fill="#212E5A"/>
<path d="M0 21.4933H2.48407C3.96205 21.4933 4.87911 22.3303 4.87911 23.6035C4.87911 25.0191 3.74837 25.7581 2.35942 25.7581H1.13074V27.7792H0V21.4933ZM2.39504 24.7698C3.23197 24.7698 3.75727 24.3068 3.75727 23.648C3.75727 22.909 3.22306 22.5173 2.39504 22.5173H1.13074V24.7876L2.39504 24.7698Z" fill="#212E5A"/>
<path d="M6.74908 21.4399H7.77298L10.5509 27.7881H9.37561L8.73456 26.2656H5.75189L5.10193 27.7881H3.97119L6.74908 21.4399ZM8.3339 25.2862L7.23877 22.7665L6.16145 25.2862H8.3339Z" fill="#212E5A"/>
<path d="M10.7288 21.4933H11.8329V26.8354H15.1361V27.8415H10.6843L10.7288 21.4933Z" fill="#212E5A"/>
<path d="M17.638 21.4399H18.6975L21.4754 27.7881H20.2645L19.6324 26.2656H16.6408L16.0265 27.797H14.8601L17.638 21.4399ZM19.2228 25.2862L18.1277 22.7665L17.0504 25.2862H19.2228Z" fill="#212E5A"/>
<path d="M21.6802 21.4933H22.7842V27.797H21.6802V21.4933Z" fill="#212E5A"/>
<path d="M23.1492 26.88L23.8169 26.0875C24.3487 26.606 25.0598 26.8994 25.8024 26.9067C26.488 26.9067 26.9243 26.5862 26.9243 26.1143C26.9243 25.6602 26.675 25.4198 25.4997 25.1527C24.1553 24.8233 23.3985 24.4315 23.3985 23.2651C23.4171 23.0045 23.4884 22.7504 23.6081 22.5181C23.7278 22.2858 23.8934 22.0803 24.0948 21.9138C24.2962 21.7474 24.5293 21.6235 24.7799 21.5497C25.0306 21.4759 25.2936 21.4537 25.5531 21.4845C26.386 21.467 27.1976 21.7481 27.8413 22.2769L27.2448 23.1138C26.7632 22.7128 26.1616 22.4841 25.5353 22.4639C24.8854 22.4639 24.5114 22.8022 24.5114 23.2117C24.5114 23.7014 24.7963 23.9151 26.0161 24.2C27.2359 24.4849 28.0283 25.0013 28.0283 26.0519C28.0283 27.2361 27.1379 27.9306 25.7757 27.9306C24.799 27.9241 23.8609 27.5488 23.1492 26.88V26.88Z" fill="#212E5A"/>
<path d="M30.2722 21.4933H32.5871C33.0167 21.464 33.4478 21.5234 33.8535 21.6676C34.2592 21.8118 34.631 22.0379 34.9457 22.3317C35.2605 22.6256 35.5115 22.981 35.6831 23.3759C35.8548 23.7708 35.9435 24.1968 35.9437 24.6274V24.6274C35.9447 25.0591 35.8569 25.4864 35.6858 25.8827C35.5148 26.2791 35.2641 26.6361 34.9494 26.9317C34.6347 27.2272 34.2626 27.4549 33.8563 27.6007C33.4499 27.7465 33.0179 27.8072 32.5871 27.7792H30.2722V21.4933ZM31.3852 22.4994V26.782H32.5871C32.8743 26.8009 33.1623 26.7593 33.4324 26.6598C33.7026 26.5604 33.9488 26.4055 34.1552 26.2049C34.3617 26.0043 34.5237 25.7626 34.6309 25.4955C34.7381 25.2284 34.788 24.9417 34.7774 24.6541C34.7891 24.3653 34.7402 24.0773 34.6337 23.8087C34.5271 23.5401 34.3654 23.2968 34.159 23.0945C33.9526 22.8923 33.706 22.7357 33.4353 22.6347C33.1645 22.5337 32.8756 22.4907 32.5871 22.5083L31.3852 22.4994Z" fill="#212E5A"/>
<path d="M36.3797 21.4933H41.0541V22.4816H37.4927V24.111H40.6534V25.1082H37.4927V26.782H41.0541V27.7703H36.3352L36.3797 21.4933Z" fill="#212E5A"/>
<path d="M41.0898 26.8799L41.7576 26.0875C42.2936 26.605 43.007 26.898 43.752 26.9067C44.4376 26.9067 44.8649 26.5861 44.8649 26.1143C44.8649 25.6602 44.6156 25.4198 43.4404 25.1527C42.0959 24.8232 41.348 24.4315 41.348 23.2651C41.3655 23.0049 41.4358 22.7509 41.5545 22.5187C41.6733 22.2864 41.838 22.0808 42.0387 21.9142C42.2394 21.7477 42.4719 21.6237 42.7221 21.5498C42.9722 21.4759 43.2348 21.4537 43.4938 21.4844C44.3297 21.4649 45.1448 21.7461 45.7909 22.2769L45.1944 23.1138C44.7087 22.7139 44.1047 22.4855 43.476 22.4639C42.8349 22.4639 42.4521 22.8022 42.4521 23.2117C42.4521 23.7014 42.737 23.9151 43.9568 24.2C45.1765 24.4849 45.9779 25.0013 45.9779 26.0519C45.9779 27.2361 45.0875 27.9306 43.7253 27.9306C42.7455 27.9263 41.8038 27.5509 41.0898 26.8799Z" fill="#212E5A"/>
<path d="M48.177 21.4933H52.8602V22.4816H49.2988V24.111H52.4596V25.1082H49.2899V26.782H52.9048V27.7703H48.177V21.4933Z" fill="#212E5A"/>
<path d="M58.6476 21.4933L56.4484 24.574L58.7634 27.797H57.4367L55.7629 25.3931L54.1068 27.797H52.8425L55.1218 24.5917L52.9316 21.4933H54.2315L55.8074 23.7816L57.3833 21.4933H58.6476Z" fill="#212E5A"/>
<path d="M58.9856 21.4933H61.4341C62.912 21.4933 63.8291 22.3303 63.8291 23.6035C63.8291 25.0191 62.6984 25.7581 61.3094 25.7581H60.0896V27.7792H58.9856V21.4933ZM61.3806 24.7698C62.2176 24.7698 62.7429 24.3068 62.7429 23.648C62.7429 22.909 62.2087 22.5173 61.3806 22.5173H60.0896V24.7876L61.3806 24.7698Z" fill="#212E5A"/>
<path d="M63.8203 24.663C63.8642 23.8177 64.2309 23.0216 64.8448 22.4388C65.4586 21.8561 66.2727 21.5312 67.1191 21.5312C67.9654 21.5312 68.7795 21.8561 69.3933 22.4388C70.0072 23.0216 70.3739 23.8177 70.4178 24.663C70.3739 25.5082 70.0072 26.3044 69.3933 26.8871C68.7795 27.4699 67.9654 27.7947 67.1191 27.7947C66.2727 27.7947 65.4586 27.4699 64.8448 26.8871C64.2309 26.3044 63.8642 25.5082 63.8203 24.663ZM69.2514 24.663C69.2634 24.3734 69.2168 24.0844 69.1145 23.8132C69.0122 23.542 68.8561 23.2942 68.6558 23.0848C68.4555 22.8753 68.2149 22.7083 67.9486 22.594C67.6822 22.4797 67.3956 22.4202 67.1057 22.4193C66.8182 22.4202 66.5338 22.4792 66.2696 22.5926C66.0054 22.7061 65.7669 22.8717 65.5682 23.0795C65.3695 23.2874 65.2148 23.5331 65.1133 23.8021C65.0119 24.0712 64.9658 24.3579 64.9778 24.6452V24.6452C64.967 24.934 65.0145 25.2222 65.1174 25.4923C65.2203 25.7624 65.3765 26.0091 65.5767 26.2176C65.7769 26.4261 66.017 26.5922 66.2828 26.706C66.5485 26.8198 66.8344 26.8789 67.1235 26.8799C67.411 26.8815 67.6957 26.8245 67.9605 26.7125C68.2252 26.6004 68.4644 26.4357 68.6634 26.2283C68.8625 26.0209 69.0173 25.7752 69.1184 25.5061C69.2195 25.237 69.2647 24.9501 69.2514 24.663V24.663Z" fill="#212E5A"/>
<path d="M70.3823 26.88L71.0501 26.0875C71.5861 26.605 72.2995 26.898 73.0445 26.9067C73.73 26.9067 74.1574 26.5862 74.1574 26.1143C74.1574 25.6602 73.9081 25.4198 72.7417 25.1527C71.3973 24.8233 70.6405 24.4315 70.6405 23.2651C70.6592 23.0045 70.7305 22.7504 70.8502 22.5181C70.9699 22.2858 71.1354 22.0803 71.3368 21.9138C71.5383 21.7474 71.7713 21.6235 72.022 21.5497C72.2727 21.4759 72.5357 21.4537 72.7952 21.4845C73.628 21.467 74.4396 21.7481 75.0834 22.2769L74.4868 23.1138C74.0036 22.7158 73.403 22.4874 72.7774 22.4639C72.1274 22.4639 71.7446 22.8022 71.7446 23.2117C71.7446 23.7014 72.0384 23.9151 73.2492 24.2C74.4601 24.4849 75.2703 25.0013 75.2703 26.0519C75.2703 27.2361 74.38 27.9306 73.0178 27.9306C72.0384 27.9245 71.0973 27.5494 70.3823 26.88V26.88Z" fill="#212E5A"/>
<path d="M75.7334 21.4933H76.8463V27.797H75.7334V21.4933Z" fill="#212E5A"/>
<path d="M79.1788 22.5173H77.1755V21.4933H82.295V22.5173H80.2918V27.797H79.1788V22.5173Z" fill="#212E5A"/>
<path d="M82.6243 21.4933H83.7372V27.797H82.6243V21.4933Z" fill="#212E5A"/>
<path d="M84.236 24.6629C84.2322 24.2294 84.3158 23.7997 84.4816 23.3991C84.6474 22.9986 84.8921 22.6354 85.2011 22.3314C85.5101 22.0273 85.8772 21.7886 86.2804 21.6293C86.6836 21.4701 87.1147 21.3935 87.5481 21.4043C87.979 21.3922 88.408 21.4675 88.8091 21.6255C89.2102 21.7836 89.5752 22.0211 89.8821 22.3238C90.189 22.6266 90.4315 22.9883 90.595 23.3873C90.7585 23.7862 90.8396 24.214 90.8334 24.6451C90.7895 25.4904 90.4228 26.2865 89.809 26.8693C89.1952 27.452 88.3811 27.7769 87.5347 27.7769C86.6883 27.7769 85.8742 27.452 85.2604 26.8693C84.6466 26.2865 84.2799 25.4904 84.236 24.6451V24.6629ZM89.676 24.6629C89.688 24.3733 89.6414 24.0843 89.539 23.8131C89.4367 23.542 89.2807 23.2942 89.0804 23.0847C88.88 22.8753 88.6395 22.7083 88.3731 22.594C88.1068 22.4796 87.8201 22.4202 87.5302 22.4193C87.2424 22.4189 86.9574 22.4771 86.6927 22.5901C86.4279 22.7031 86.1888 22.8687 85.9899 23.0767C85.7909 23.2848 85.6363 23.5311 85.5353 23.8007C85.4343 24.0703 85.3891 24.3575 85.4023 24.6451V24.6451C85.3916 24.934 85.439 25.2221 85.5419 25.4923C85.6448 25.7624 85.801 26.0091 86.0013 26.2176C86.2015 26.4261 86.4416 26.5922 86.7073 26.706C86.9731 26.8197 87.259 26.8789 87.5481 26.8799C87.8355 26.8814 88.1203 26.8244 88.385 26.7124C88.6498 26.6004 88.8889 26.4357 89.088 26.2283C89.2871 26.0209 89.4418 25.7752 89.5429 25.5061C89.644 25.237 89.6893 24.9501 89.676 24.6629V24.6629Z" fill="#212E5A"/>
<path d="M91.2788 21.4933H92.3027L95.686 25.8561V21.4933H96.7723V27.797H95.8819L92.4006 23.3453V27.797H91.3144L91.2788 21.4933Z" fill="#212E5A"/>
<path d="M97.0483 26.88L97.7161 26.0875C98.2521 26.605 98.9655 26.898 99.7105 26.9067C100.396 26.9067 100.823 26.5862 100.823 26.1143C100.823 25.6602 100.574 25.4198 99.3989 25.1527C98.0544 24.8233 97.2976 24.4315 97.2976 23.2651C97.3163 23.0045 97.3876 22.7504 97.5073 22.5181C97.627 22.2858 97.7925 22.0803 97.994 21.9138C98.1954 21.7474 98.4285 21.6235 98.6791 21.5497C98.9298 21.4759 99.1928 21.4537 99.4523 21.4845C100.286 21.4639 101.098 21.7453 101.74 22.2769L101.153 23.1138C100.667 22.7139 100.063 22.4855 99.4345 22.4639C98.7845 22.4639 98.4106 22.8022 98.4106 23.2117C98.4106 23.7014 98.6955 23.9151 99.9153 24.2C101.135 24.4849 101.936 25.0013 101.936 26.0519C101.936 27.2361 101.046 27.9306 99.6838 27.9306C98.704 27.9263 97.7623 27.5509 97.0483 26.88V26.88Z" fill="#212E5A"/>
<path d="M103.735 26.88L104.402 26.0875C104.934 26.606 105.645 26.8994 106.388 26.9067C107.073 26.9067 107.51 26.5862 107.51 26.1143C107.51 25.6602 107.26 25.4198 106.085 25.1527C104.741 24.8233 103.984 24.4315 103.984 23.2651C104.003 23.0045 104.074 22.7504 104.194 22.5181C104.313 22.2858 104.479 22.0803 104.68 21.9138C104.882 21.7474 105.115 21.6235 105.365 21.5497C105.616 21.4759 105.879 21.4537 106.139 21.4845C106.971 21.467 107.783 21.7481 108.427 22.2769L107.83 23.1138C107.349 22.7128 106.747 22.4841 106.121 22.4639C105.471 22.4639 105.097 22.8022 105.097 23.2117C105.097 23.7014 105.382 23.9151 106.602 24.2C107.821 24.4849 108.614 25.0013 108.614 26.0519C108.614 27.2361 107.723 27.9306 106.361 27.9306C105.384 27.9241 104.446 27.5488 103.735 26.88V26.88Z" fill="#212E5A"/>
<path d="M111.115 21.4399H112.184L114.962 27.7881H113.787L113.145 26.2656H110.163L109.513 27.7881H108.382L111.115 21.4399ZM112.709 25.2862L111.614 22.7665L110.537 25.2862H112.709Z" fill="#212E5A"/>
<path d="M115.104 21.4933H119.797V22.4994H116.235V24.2267H119.414V25.2328H116.235V27.797H115.131L115.104 21.4933Z" fill="#212E5A"/>
<path d="M120.108 21.4933H124.783V22.4816H121.221V24.111H124.382V25.1082H121.221V26.782H124.783V27.7703H120.064L120.108 21.4933Z" fill="#212E5A"/>
<path d="M130.579 21.4933L128.379 24.574L130.668 27.797H129.359L127.694 25.3931L126.038 27.797H124.765L127.044 24.5917L124.854 21.4933H126.162L127.73 23.7816L129.305 21.4933H130.579Z" fill="#212E5A"/>
<path d="M134.149 25.9718C133.971 25.9734 133.795 25.9369 133.633 25.8649C133.472 25.805 133.326 25.7108 133.205 25.5889C133.082 25.4659 132.982 25.321 132.911 25.1615C132.842 24.9953 132.809 24.8163 132.813 24.6363V24.6363C132.809 24.4591 132.842 24.2831 132.911 24.1199C132.978 23.958 133.078 23.8123 133.205 23.6925C133.325 23.5679 133.471 23.4707 133.633 23.4076C133.796 23.3386 133.972 23.3052 134.149 23.3096C134.329 23.305 134.508 23.3384 134.674 23.4076C134.833 23.475 134.978 23.5716 135.102 23.6925C135.224 23.815 135.32 23.9602 135.387 24.1199C135.459 24.2824 135.495 24.4585 135.493 24.6363C135.495 24.8169 135.458 24.9959 135.387 25.1615C135.316 25.3188 135.22 25.4632 135.102 25.5889C134.978 25.7071 134.833 25.8007 134.674 25.8649C134.509 25.9369 134.33 25.9733 134.149 25.9718V25.9718Z" fill="#212E5A"/>
<path d="M140.221 21.4399H141.503L144.174 27.7881H142.732L142.153 26.3814H139.482L138.912 27.7881H137.497L140.221 21.4399ZM141.681 25.1527L140.845 23.1049L140.008 25.1527H141.681Z" fill="#212E5A"/>
<path d="M144.281 21.4933H145.661V26.5505H148.804V27.797H144.281V21.4933Z" fill="#212E5A"/>
<path d="M151.992 27.9127C151.529 27.916 151.07 27.8313 150.638 27.6634C150.248 27.5116 149.894 27.2813 149.597 26.9867C149.301 26.6977 149.07 26.3486 148.92 25.9629C148.75 25.551 148.665 25.1087 148.671 24.6629V24.6629C148.666 24.2289 148.751 23.7986 148.92 23.3987C149.069 23.0033 149.292 22.6404 149.579 22.3302C149.878 22.0274 150.235 21.7882 150.629 21.6269C151.05 21.4527 151.501 21.3649 151.956 21.3686C152.213 21.3654 152.469 21.3863 152.722 21.431C152.94 21.4633 153.155 21.517 153.363 21.5912C153.56 21.6615 153.748 21.7541 153.924 21.8672C154.102 21.9757 154.272 22.0978 154.431 22.2323L153.541 23.2918C153.426 23.1914 153.304 23.0992 153.176 23.0158C153.059 22.9366 152.934 22.8709 152.802 22.8199C152.668 22.7625 152.527 22.7207 152.383 22.6952C152.218 22.676 152.051 22.676 151.885 22.6952C151.642 22.6955 151.403 22.7471 151.181 22.8466C150.964 22.9522 150.768 23.097 150.603 23.274C150.437 23.4555 150.307 23.667 150.22 23.8973C150.122 24.1406 150.074 24.4008 150.077 24.6629V24.6629C150.074 24.9366 150.122 25.2085 150.22 25.4643C150.306 25.6994 150.439 25.9145 150.612 26.0964C150.784 26.2741 150.99 26.4163 151.217 26.5149C151.462 26.6171 151.726 26.6686 151.992 26.6662C152.455 26.6843 152.912 26.5498 153.292 26.2834V25.393H151.903V24.1999H154.636V26.9333C154.287 27.2264 153.897 27.4664 153.479 27.6456C153.006 27.8334 152.5 27.9243 151.992 27.9127V27.9127Z" fill="#212E5A"/>
<path d="M155.117 21.4933H159.863V22.7309H156.479V24.0041H159.453V25.2417H156.479V26.5683H159.907V27.797H155.117V21.4933Z" fill="#212E5A"/>
<path d="M160.263 21.4933H163.148C163.482 21.4708 163.818 21.5159 164.135 21.626C164.451 21.7362 164.742 21.9091 164.991 22.1344C165.173 22.326 165.314 22.5527 165.406 22.8006C165.498 23.0486 165.538 23.3127 165.525 23.5768V23.5768C165.545 24.0226 165.413 24.4619 165.151 24.8232C164.901 25.1491 164.56 25.3938 164.172 25.5266L165.721 27.7792H164.091L162.747 25.767H161.652V27.7792H160.263V21.4933ZM163.059 24.5561C163.34 24.5751 163.619 24.4895 163.842 24.3157C163.934 24.2348 164.006 24.1345 164.054 24.0221C164.102 23.9096 164.124 23.7878 164.118 23.6658V23.6658C164.129 23.5384 164.108 23.4103 164.059 23.2924C164.009 23.1746 163.932 23.0705 163.833 22.9891C163.598 22.8279 163.316 22.7496 163.032 22.7665H161.652V24.5472L163.059 24.5561Z" fill="#212E5A"/>
<path d="M169.166 25.9718C168.986 25.9733 168.807 25.9369 168.641 25.8649C168.483 25.8007 168.338 25.7071 168.214 25.5889C168.09 25.4679 167.993 25.3224 167.929 25.1615C167.857 24.9959 167.821 24.8169 167.822 24.6363V24.6363C167.82 24.4585 167.857 24.2824 167.929 24.1199C167.989 23.9568 168.086 23.8104 168.214 23.6925C168.337 23.5716 168.482 23.475 168.641 23.4076C168.807 23.3384 168.986 23.305 169.166 23.3096C169.346 23.3058 169.525 23.3392 169.692 23.4076C169.849 23.4729 169.992 23.5699 170.11 23.6925C170.235 23.8128 170.332 23.9585 170.395 24.1199C170.474 24.2804 170.514 24.4574 170.511 24.6363V24.6363C170.514 24.818 170.474 24.9979 170.395 25.1615C170.328 25.3206 170.231 25.4655 170.11 25.5889C169.991 25.7087 169.849 25.8026 169.692 25.8649C169.526 25.9361 169.347 25.9726 169.166 25.9718V25.9718Z" fill="#212E5A"/>
<path d="M175.399 21.4399H176.432L179.201 27.7881H178.034L177.393 26.2656H174.41L173.76 27.7881H172.621L175.399 21.4399ZM176.984 25.2862L175.897 22.7665L174.811 25.2862H176.984Z" fill="#212E5A"/>
<path d="M179.334 21.4933H180.447V26.8354H183.759V27.8415H179.307L179.334 21.4933Z" fill="#212E5A"/>
<path d="M183.412 24.663C183.406 24.2334 183.486 23.8069 183.648 23.4089C183.809 23.0108 184.049 22.6492 184.353 22.3454C184.657 22.0416 185.018 21.8018 185.416 21.6402C185.814 21.4785 186.241 21.3983 186.671 21.4043C187.563 21.3715 188.433 21.6913 189.092 22.2947L188.389 23.1316C188.152 22.906 187.873 22.7299 187.567 22.6137C187.261 22.4975 186.935 22.4435 186.608 22.4549C186.327 22.4652 186.051 22.5311 185.795 22.6488C185.54 22.7665 185.31 22.9337 185.12 23.1407C184.93 23.3477 184.782 23.5904 184.686 23.8547C184.59 24.1191 184.547 24.3998 184.56 24.6808V24.6808C184.539 24.973 184.579 25.2664 184.678 25.5421C184.777 25.8179 184.933 26.0699 185.135 26.282C185.337 26.4941 185.581 26.6616 185.852 26.7738C186.122 26.886 186.413 26.9403 186.706 26.9334C187.251 26.9393 187.783 26.7743 188.229 26.4615V25.2773H186.617V24.3157H189.288V26.9868C188.55 27.6337 187.599 27.9856 186.617 27.9751C186.184 27.9857 185.754 27.9063 185.353 27.7422C184.952 27.5781 184.59 27.3326 184.289 27.0214C183.987 26.7102 183.754 26.34 183.603 25.934C183.452 25.5281 183.387 25.0953 183.412 24.663Z" fill="#212E5A"/>
<path d="M189.813 21.4934H194.488V22.4816H190.926V24.111H194.096V25.1082H190.926V26.782H194.541V27.7703H189.822L189.813 21.4934ZM192.734 19.6592L193.722 20.0955L192.574 20.9859H191.683L192.734 19.6592Z" fill="#212E5A"/>
<path d="M194.987 21.4933H197.791C198.444 21.4678 199.081 21.6942 199.572 22.1255C199.92 22.4923 200.109 22.982 200.097 23.4877V23.4877C200.111 23.9303 199.969 24.3636 199.695 24.7119C199.422 25.0602 199.035 25.3013 198.601 25.393L200.302 27.7791H198.993L197.444 25.58H196.055V27.7791H194.987V21.4933ZM197.711 24.6184C198.503 24.6184 199.011 24.2 199.011 23.5678C199.011 22.8911 198.521 22.5172 197.702 22.5172H196.055V24.6362L197.711 24.6184Z" fill="#212E5A"/>
<path d="M200.623 21.4933H201.727V27.797H200.623V21.4933Z" fill="#212E5A"/>
<path d="M202.51 21.4933H207.193V22.4816H203.632V24.111H206.793V25.1082H203.623V26.782H207.238V27.7703H202.51V21.4933Z" fill="#212E5A"/>
<path d="M0 0.240707H5.59139C6.64323 0.226954 7.68827 0.411182 8.672 0.783807C9.57112 1.11964 10.3944 1.63115 11.0937 2.2885C11.7717 2.91706 12.314 3.67755 12.6875 4.52328C13.0589 5.41755 13.2466 6.37737 13.2395 7.34567V7.34567C13.2466 8.31685 13.0589 9.27959 12.6875 10.177C12.3381 11.0656 11.804 11.8698 11.1205 12.5364C10.4192 13.1934 9.59659 13.7076 8.69871 14.05C7.71734 14.4329 6.67145 14.6234 5.6181 14.6109H0V0.240707ZM5.59139 11.7351C6.19917 11.7428 6.80306 11.6372 7.37209 11.4235C7.88589 11.23 8.35093 10.9261 8.73432 10.5331C9.11732 10.1451 9.4199 9.68513 9.62467 9.17979C9.85083 8.61401 9.95987 8.00823 9.9452 7.39909C9.95721 6.79017 9.84826 6.18491 9.62467 5.61839C9.42238 5.10387 9.11972 4.63476 8.73432 4.23836C8.34577 3.85171 7.88218 3.54871 7.37209 3.34802C6.80306 3.13433 6.19917 3.02867 5.59139 3.03642H3.17854V11.6817L5.59139 11.7351Z" fill="#212E5A"/>
<path d="M19.9796 14.8068C19.1528 14.8554 18.3246 14.7387 17.5434 14.4635C16.7622 14.1884 16.0437 13.7602 15.4299 13.2042C14.8411 12.565 14.3901 11.8114 14.1052 10.9904C13.8203 10.1693 13.7075 9.29846 13.7738 8.43193V0.240709H16.9168V8.35177C16.8427 9.31362 17.1353 10.2679 17.7359 11.0228C18.0299 11.3258 18.3855 11.5621 18.7788 11.7157C19.172 11.8694 19.5937 11.9367 20.0152 11.9132C20.435 11.9331 20.8543 11.8641 21.2455 11.7106C21.6368 11.5572 21.9912 11.3228 22.2856 11.0228C22.8797 10.2991 23.1729 9.37471 23.1047 8.44084V0.222885H26.2654V8.31618C26.2859 9.28397 26.1383 10.248 25.8292 11.1653C25.5661 11.9234 25.1337 12.6115 24.5649 13.1775C24.0059 13.7296 23.3262 14.1442 22.5794 14.3884C21.7418 14.6703 20.8633 14.8116 19.9796 14.8068V14.8068Z" fill="#212E5A"/>
<path d="M37.2701 14.8247C36.3904 14.8399 35.5185 14.6574 34.7187 14.2907C33.9189 13.9239 33.2117 13.3822 32.6492 12.7056C32.079 12.0123 31.6441 11.2179 31.3671 10.364C31.0667 9.42293 30.9165 8.44038 30.922 7.45254V7.45254C30.9134 6.46308 31.0699 5.47915 31.3849 4.54114C31.6664 3.6828 32.1075 2.88531 32.6849 2.1906C33.2397 1.50975 33.9352 0.956964 34.7238 0.570162C35.5406 0.194486 36.429 0 37.328 0C38.2271 0 39.1155 0.194486 39.9323 0.570162C40.7031 0.941477 41.386 1.47262 41.9356 2.12827C42.5068 2.82569 42.9445 3.62255 43.2266 4.47881C43.5198 5.41443 43.6552 6.39234 43.6272 7.37244V7.37244C43.6371 8.36201 43.4806 9.34615 43.1643 10.2838C42.8809 11.1441 42.4401 11.9441 41.8643 12.6433C41.3126 13.305 40.6268 13.8422 39.8522 14.2192C39.0481 14.6131 38.1655 14.8201 37.2701 14.8247V14.8247ZM37.2701 11.9755C37.7235 11.984 38.1703 11.8669 38.5612 11.6372C38.9488 11.4156 39.2831 11.1117 39.5405 10.7468C39.8307 10.306 40.0416 9.81789 40.1638 9.30448C40.3116 8.72246 40.3864 8.12429 40.3864 7.52378C40.3866 6.9227 40.3088 6.32413 40.1549 5.74309C40.0212 5.23059 39.8047 4.74338 39.5138 4.30073C39.2525 3.91076 38.9091 3.58257 38.5077 3.33913C38.12 3.10874 37.6767 2.98871 37.2256 2.99194C36.7727 2.98663 36.3267 3.10346 35.9346 3.33022C35.5429 3.56602 35.2108 3.88897 34.9641 4.27399C34.6813 4.7155 34.4708 5.19948 34.3409 5.70749C34.1859 6.28832 34.1081 6.88704 34.1094 7.48819V7.48819C34.1095 8.08925 34.1873 8.68778 34.3409 9.26889C34.4682 9.78208 34.682 10.2698 34.973 10.7112C35.2463 11.0966 35.6022 11.416 36.0148 11.6461C36.4093 11.8739 36.8593 11.9879 37.3147 11.9755H37.2701Z" fill="#212E5A"/>
<path d="M48.9693 14.8246C47.9286 14.8488 46.8943 14.6547 45.9332 14.2548C45.0783 13.8722 44.2977 13.3417 43.6272 12.6878L45.5325 10.4174C46.0268 10.8775 46.5845 11.2642 47.1886 11.5659C47.7415 11.8412 48.3517 11.9816 48.9693 11.9755C49.6055 12.0215 50.2371 11.8383 50.75 11.4591C50.9671 11.2814 51.1391 11.0549 51.2521 10.798C51.365 10.5412 51.4157 10.2613 51.3999 9.98113C51.4103 9.70048 51.3506 9.42166 51.2262 9.16985C51.1019 8.91804 50.9168 8.70117 50.6877 8.53877C50.1457 8.17914 49.5033 8.00138 48.8535 8.03126C48.4215 8.02674 47.9906 8.07759 47.5714 8.18261C47.1912 8.27761 46.819 8.40269 46.4585 8.55659L44.6778 7.35459L45.0874 0.285217H53.9196V3.04533H47.6783L47.518 5.54721C47.8029 5.47598 48.0878 5.42255 48.4084 5.36913C48.7477 5.32311 49.0899 5.30227 49.4323 5.3068C50.0939 5.30294 50.753 5.38979 51.391 5.56498C51.9764 5.73055 52.5238 6.00884 53.0026 6.38414C53.471 6.7655 53.8405 7.25413 54.0799 7.80868C54.3587 8.4638 54.4923 9.17153 54.4716 9.8832C54.4855 10.5857 54.352 11.2832 54.0799 11.931C53.8315 12.5233 53.4579 13.0548 52.9848 13.4891C52.4648 13.9365 51.8588 14.2728 51.2041 14.4774C50.4833 14.7152 49.7282 14.8326 48.9693 14.8246V14.8246Z" fill="#212E5A"/>
<path d="M64.3191 0.133865H67.2216L73.3739 14.5842H70.0707L68.7619 11.3612H62.6986L61.3809 14.5842H58.1667L64.3191 0.133865ZM67.6668 8.57435L65.7614 3.92676L63.8561 8.57435H67.6668Z" fill="#212E5A"/>
<path d="M79.5172 14.8068C78.6645 14.8955 77.8028 14.7903 76.9964 14.4991C76.1901 14.2079 75.46 13.7382 74.8607 13.1252C74.2614 12.5122 73.8083 11.7717 73.5354 10.959C73.2625 10.1463 73.1768 9.28241 73.2847 8.43193V0.240709H76.4366V8.35177C76.3625 9.31362 76.6552 10.2679 77.2557 11.0228C77.549 11.3268 77.9045 11.5637 78.2979 11.7174C78.6913 11.8711 79.1134 11.9379 79.535 11.9132C79.9547 11.932 80.3736 11.8624 80.7647 11.7091C81.1558 11.5557 81.5104 11.3219 81.8054 11.0228C82.3995 10.2991 82.6927 9.37471 82.6245 8.44084V0.222885H85.7763V8.31618C85.7968 9.28397 85.6492 10.248 85.3401 11.1653C85.077 11.9234 84.6446 12.6115 84.0758 13.1774C83.5168 13.7296 82.8371 14.1442 82.0903 14.3884C81.2612 14.6674 80.392 14.8087 79.5172 14.8068V14.8068Z" fill="#212E5A"/>
<path d="M96.8079 14.8247C95.9072 14.8362 95.0155 14.6444 94.1992 14.2637C93.4225 13.8978 92.7356 13.366 92.187 12.7056C91.6167 12.0123 91.1818 11.218 90.9049 10.364C90.6001 9.42397 90.4498 8.44072 90.4597 7.45256V7.45256C90.4528 6.46392 90.6062 5.48074 90.9138 4.54115C91.202 3.68392 91.6457 2.8871 92.2226 2.19062C92.7724 1.52692 93.4587 0.989404 94.2348 0.614684C95.0512 0.222967 95.9469 0.0249533 96.8524 0.0359904C97.728 0.0221709 98.5956 0.205443 99.3908 0.572243C100.186 0.939042 100.889 1.47998 101.447 2.15502C102.018 2.85244 102.456 3.64925 102.738 4.5055C103.054 5.44319 103.21 6.4274 103.201 7.41696C103.21 8.40653 103.054 9.39073 102.738 10.3284C102.454 11.1886 102.013 11.9887 101.438 12.6878C100.885 13.3517 100.195 13.8892 99.4166 14.2637C98.6016 14.6486 97.709 14.8405 96.8079 14.8247ZM96.8079 11.9755C97.2612 11.984 97.708 11.8669 98.0989 11.6372C98.4865 11.4156 98.8208 11.1117 99.0783 10.7469C99.3684 10.306 99.5793 9.81791 99.7015 9.3045C99.8463 8.72208 99.9181 8.12393 99.9152 7.5238C99.9182 6.92311 99.8434 6.32456 99.6926 5.7431C99.5589 5.2306 99.3424 4.7434 99.0516 4.30074C98.7902 3.91077 98.4468 3.58258 98.0455 3.33915C97.6577 3.10875 97.2144 2.98872 96.7634 2.99195C96.3104 2.98664 95.8645 3.10347 95.4724 3.33024C95.0806 3.56603 94.7485 3.88899 94.5019 4.274C94.2153 4.71354 94.0046 5.19815 93.8786 5.70751C93.7236 6.28834 93.6458 6.88705 93.6471 7.48821C93.6472 8.08927 93.725 8.6878 93.8786 9.2689C94.002 9.78344 94.216 10.2719 94.5108 10.7113C94.7684 11.0957 95.1054 11.4206 95.4991 11.6639C95.9123 11.8921 96.381 12 96.8524 11.9755H96.8079Z" fill="#212E5A"/>
<path d="M108.712 14.7891C107.968 14.7933 107.228 14.6913 106.513 14.4863C105.875 14.3141 105.272 14.0308 104.732 13.6494C104.256 13.3059 103.861 12.8622 103.574 12.3495C103.29 11.8286 103.145 11.2425 103.156 10.6489V10.6489C103.121 9.89924 103.323 9.15761 103.735 8.52989C104.2 7.93349 104.814 7.46986 105.515 7.18545C104.984 6.87642 104.528 6.45379 104.18 5.94785C103.828 5.37997 103.657 4.71858 103.69 4.05141V4.05141C103.685 3.51701 103.807 2.98911 104.046 2.51112C104.292 2.02528 104.641 1.59968 105.07 1.26466C105.544 0.874955 106.084 0.573395 106.664 0.374315C108.008 -0.0293736 109.442 -0.0293736 110.786 0.374315C111.364 0.555515 111.907 0.835675 112.389 1.20233C112.82 1.53861 113.17 1.96767 113.413 2.4577C113.652 2.93884 113.774 3.46965 113.769 4.0069V4.0069C113.802 4.67407 113.631 5.33547 113.279 5.90335C112.931 6.40928 112.475 6.83191 111.944 7.14094C112.599 7.46463 113.178 7.92274 113.644 8.48538C114.077 9.07416 114.294 9.79421 114.259 10.5243V10.5243C114.273 11.1437 114.129 11.7565 113.84 12.305C113.557 12.8246 113.162 13.2747 112.683 13.6227C112.147 14.0083 111.542 14.2893 110.902 14.4507C110.192 14.6664 109.454 14.7803 108.712 14.7891V14.7891ZM108.712 12.1803C109.36 12.218 110.002 12.0395 110.537 11.6728C110.74 11.5284 110.904 11.3373 111.018 11.1157C111.131 10.8941 111.189 10.6484 111.187 10.3996V10.3996C111.196 10.1398 111.136 9.8822 111.014 9.65255C110.893 9.4229 110.713 9.22921 110.492 9.09081C109.946 8.79313 109.334 8.63716 108.712 8.63716C108.09 8.63716 107.477 8.79313 106.931 9.09081C106.711 9.22921 106.531 9.4229 106.409 9.65255C106.287 9.8822 106.228 10.1398 106.237 10.3996C106.238 10.6467 106.297 10.89 106.41 11.1097C106.523 11.3294 106.686 11.5193 106.887 11.6639C107.418 12.0388 108.062 12.221 108.712 12.1803V12.1803ZM108.712 6.09925C109.254 6.12529 109.786 5.95094 110.208 5.60952C110.386 5.45335 110.528 5.26001 110.623 5.0431C110.718 4.8262 110.765 4.59103 110.76 4.35415V4.35415C110.758 4.13305 110.709 3.9148 110.617 3.71378C110.525 3.51275 110.392 3.33351 110.225 3.18779C110.02 3.00543 109.78 2.86585 109.521 2.77718C109.261 2.68851 108.986 2.65252 108.712 2.67138C108.162 2.63618 107.62 2.81482 107.198 3.16997C107.032 3.31396 106.899 3.49166 106.807 3.69122C106.714 3.89078 106.666 4.10768 106.664 4.32747V4.32747C106.659 4.56435 106.705 4.79952 106.801 5.01642C106.896 5.23332 107.038 5.42667 107.216 5.58283C107.629 5.94248 108.165 6.12766 108.712 6.09925V6.09925Z" fill="#212E5A"/>
<path d="M122.191 14.789C121.214 14.8227 120.244 14.6018 119.378 14.1479C118.662 13.7668 118.024 13.2532 117.499 12.6343L119.485 10.4174C119.844 10.828 120.261 11.1848 120.722 11.4769C121.142 11.7262 121.623 11.8555 122.111 11.8508C122.374 11.8642 122.636 11.821 122.88 11.7243C123.124 11.6275 123.345 11.4793 123.527 11.2899C123.903 10.7758 124.083 10.1443 124.034 9.5092V0.240692H127.32V9.62495C127.336 10.3816 127.219 11.1351 126.973 11.8508C126.756 12.451 126.413 12.9976 125.966 13.4535C125.51 13.9016 124.96 14.2423 124.355 14.4507C123.659 14.6874 122.927 14.8019 122.191 14.789V14.789Z" fill="#212E5A"/>
<path d="M134.443 14.8068C133.616 14.8554 132.788 14.7387 132.007 14.4635C131.225 14.1884 130.507 13.7602 129.893 13.2042C129.304 12.565 128.853 11.8114 128.568 10.9904C128.283 10.1693 128.171 9.29846 128.237 8.43193V0.240709H131.389V8.35177C131.315 9.31362 131.607 10.2679 132.208 11.0228C132.499 11.3266 132.853 11.5634 133.245 11.7172C133.637 11.8709 134.058 11.9378 134.478 11.9132C134.899 11.9321 135.32 11.8627 135.712 11.7093C136.105 11.556 136.461 11.3221 136.758 11.0228C137.352 10.2991 137.645 9.37471 137.577 8.44084V0.222885H140.675V8.31618C140.696 9.28397 140.548 10.248 140.239 11.1653C139.976 11.9234 139.543 12.6115 138.975 13.1775C138.414 13.7278 137.735 14.1421 136.989 14.3884C136.168 14.6645 135.309 14.8058 134.443 14.8068V14.8068Z" fill="#212E5A"/>
<path d="M142.02 0.240692H145.181V14.5842H142.02V0.240692Z" fill="#212E5A"/>
<path d="M146.712 0.240692H149.623L156.345 9.07294V0.240692H159.462V14.5842H156.791L149.846 5.46704V14.5842H146.73L146.712 0.240692Z" fill="#212E5A"/>
<path d="M164.207 13.3289L169.416 8.74354C171.606 6.77587 172.407 5.67184 172.407 4.23837C172.408 3.86478 172.332 3.495 172.185 3.15158C172.038 2.80815 171.823 2.49827 171.552 2.24085C171.281 1.98343 170.961 1.78385 170.61 1.65428C170.26 1.5247 169.887 1.46788 169.514 1.48723C167.876 1.48723 166.843 2.37753 165.667 3.94454L164.474 3.0542C165.765 1.12214 167.145 0.000305176 169.638 0.000305176C172.131 0.000305176 174.09 1.71867 174.09 4.05138C174.09 6.1437 172.977 7.43472 170.458 9.62497L166.629 13.0261H174.233V14.5041H164.207V13.3289Z" fill="#212E5A"/>
<path d="M174.722 7.45249C174.722 3.43701 177.117 0.0359192 180.803 0.0359192C184.489 0.0359192 186.831 3.40142 186.831 7.41689C186.831 11.4324 184.454 14.8335 180.768 14.8335C177.082 14.8335 174.722 11.468 174.722 7.45249ZM185.148 7.45249C185.148 4.31846 183.43 1.51387 180.768 1.51387C178.105 1.51387 176.405 4.25615 176.405 7.41689C176.405 10.5509 178.123 13.3555 180.803 13.3555C183.483 13.3555 185.193 10.5865 185.193 7.45249H185.148Z" fill="#212E5A"/>
<path d="M186.831 13.3289L192.03 8.74354C194.23 6.77587 195.022 5.67184 195.022 4.23837C195.024 3.8652 194.949 3.49562 194.803 3.15223C194.657 2.80883 194.442 2.49884 194.172 2.24128C193.902 1.98373 193.583 1.78405 193.233 1.65438C192.883 1.52472 192.51 1.46784 192.137 1.48723C190.499 1.48723 189.466 2.37753 188.282 3.94454L187.098 3.0542C188.389 1.12214 189.769 0.000305176 192.262 0.000305176C194.755 0.000305176 196.714 1.71867 196.714 4.05138C196.714 6.1437 195.61 7.43472 193.09 9.62497L189.253 13.0261H196.856V14.5041H186.831V13.3289Z" fill="#212E5A"/>
</svg>
