<svg width="250" height="249" viewBox="0 0 250 249" fill="none" xmlns="http://www.w3.org/2000/svg">
<g clip-path="url(#clip0_3_2)">
<path d="M249.5 -0.5H-0.314087V191.282H249.5V-0.5Z" fill="#212E5A"/>
<path d="M249.5 191.282H-0.5V248.227H249.5V191.282Z" fill="#DEC388"/>
<path d="M15.2627 29.6405H36.2393C52.2436 29.6405 64.2422 41.5648 64.2422 58.6286C64.2422 75.6925 52.2436 87.5981 36.2393 87.5981H15.2627V29.6405ZM35.8304 77.0401C46.8531 77.0401 52.5596 69.5305 52.5596 58.5914C52.5596 47.6523 46.8531 40.1985 35.8304 40.1985H26.4434V77.0958L35.8304 77.0401Z" fill="white"/>
<path d="M75.8411 66.3798C75.8411 51.6859 86.3713 44.3437 96.288 44.3437C103.881 44.3437 108.779 48.5074 109.839 50.8495H110.09V45.1337H121.029V87.5981H110.052V81.8822H109.801C108.742 84.2429 103.844 88.388 96.2508 88.388C86.3713 88.4252 75.8411 81.0922 75.8411 66.3798ZM98.4535 78.6293C104.578 78.6293 110.294 74.382 110.294 66.3798C110.294 58.3776 104.578 54.1396 98.4535 54.1396C92.3287 54.1396 86.6222 58.4613 86.6222 66.3798C86.6222 74.2983 92.3287 78.6293 98.4535 78.6293V78.6293Z" fill="white"/>
<path d="M142.953 54.7065H122.618V45.1523H160.473L137.767 77.9788H166.253V87.5981H120.257L142.953 54.7065Z" fill="white"/>
<path d="M76.1106 110.908C76.1106 96.2044 86.6407 88.862 96.5575 88.862C104.151 88.862 109.049 93.0258 110.108 95.3679H110.285V89.6521H121.224V132.116H110.285V126.401H110.034C108.974 128.771 104.076 132.906 96.4831 132.906C86.6407 132.944 76.1106 125.601 76.1106 110.908ZM98.723 123.148C104.848 123.148 110.564 118.91 110.564 110.908C110.564 102.905 104.848 98.658 98.723 98.658C92.5982 98.658 86.8917 102.989 86.8917 110.908C86.8917 118.826 92.6261 123.148 98.723 123.148Z" fill="#DEC388"/>
<path d="M188.475 110.908C188.475 96.5296 199.749 88.862 210.846 88.862C221.943 88.862 233.217 96.5296 233.217 110.908C233.217 125.285 221.869 132.944 210.846 132.944C199.823 132.944 188.475 125.276 188.475 110.908ZM210.846 123.064C216.971 123.064 222.361 118.501 222.361 110.908C222.361 103.314 216.971 98.7509 210.846 98.7509C204.721 98.7509 199.257 103.324 199.257 110.917C199.257 118.51 204.731 123.064 210.846 123.064V123.064Z" fill="#DEC388"/>
<path d="M64.8184 92.4217C64.8184 93.4998 64.9114 111.01 64.9114 111.01C72.4767 108.937 75.8411 103.472 75.8411 93.4626V45.1337H64.8184V92.4217Z" fill="white"/>
<path d="M75.8411 29.6405H64.8184V39.2784H75.8411V29.6405Z" fill="white"/>
<path d="M190.976 88.862C180.074 88.862 169.042 96.2973 168.67 110.136V132.126H179.395V110.136C179.758 103.008 185.046 98.7416 190.957 98.7416V88.862H190.976Z" fill="#DEC388"/>
<path d="M166.504 133.464V89.6706H155.547V95.3865H155.063C154.004 93.0258 149.264 88.8807 141.754 88.8807C131.958 88.8807 121.307 96.2229 121.307 110.926C121.307 125.629 131.921 132.962 141.754 132.962C149.264 132.962 154.004 128.808 155.063 126.456H155.547V129.719V133.501C155.525 135.023 155.203 136.525 154.599 137.922C153.996 139.319 153.122 140.583 152.029 141.641C150.936 142.7 149.645 143.532 148.229 144.091C146.814 144.649 145.302 144.923 143.78 144.896V144.896V154.775C154.878 154.775 166.086 147.34 166.504 133.501V133.464ZM143.957 123.148C137.832 123.148 132.116 118.826 132.116 110.908C132.116 102.989 137.832 98.658 143.957 98.658C150.082 98.658 155.826 102.905 155.826 110.908C155.826 118.91 150.165 123.148 143.957 123.148V123.148Z" fill="#DEC388"/>
<path d="M16.0341 145.054H16.8148V154.208H16.0341V145.054Z" fill="white"/>
<path d="M18.116 150.797C18.0918 150.348 18.16 149.899 18.3162 149.477C18.4725 149.056 18.7135 148.671 19.0244 148.346C19.3354 148.021 19.7096 147.763 20.124 147.589C20.5384 147.414 20.9843 147.326 21.4339 147.331C21.906 147.323 22.374 147.42 22.8041 147.615C23.2342 147.81 23.6158 148.098 23.9214 148.458C24.2271 148.818 24.4493 149.241 24.572 149.697C24.6947 150.153 24.7149 150.63 24.6311 151.095H18.8688C18.8831 151.44 18.9655 151.778 19.1113 152.091C19.2572 152.403 19.4635 152.684 19.7185 152.916C19.9734 153.149 20.2718 153.329 20.5966 153.445C20.9213 153.561 21.266 153.612 21.6105 153.595C22.0112 153.602 22.4088 153.523 22.776 153.362C23.1433 153.202 23.4717 152.964 23.7388 152.666L24.1478 153.093C23.6819 153.62 23.066 153.992 22.3825 154.159C21.6991 154.327 20.9809 154.28 20.3244 154.028C19.6678 153.775 19.1044 153.327 18.7096 152.745C18.3149 152.162 18.1077 151.473 18.116 150.77V150.797ZM23.9154 150.463C23.9207 150.138 23.8597 149.815 23.7363 149.514C23.6128 149.213 23.4294 148.94 23.1973 148.713C22.9652 148.485 22.6892 148.307 22.386 148.189C22.0829 148.071 21.7589 148.016 21.4339 148.028C20.7729 148.018 20.1341 148.267 19.6546 148.722C19.1751 149.177 18.893 149.802 18.8688 150.463H23.9154Z" fill="white"/>
<path d="M28.3579 152.554L29.0457 152.359C29.1162 152.73 29.3169 153.064 29.6116 153.301C29.9063 153.538 30.2757 153.662 30.6535 153.651C31.3785 153.651 32.1034 153.288 32.1034 152.452C32.1034 151.764 31.6387 151.457 30.7558 151.086L30.2446 150.881C29.1386 150.426 28.6832 149.784 28.6832 149.022C28.6933 148.781 28.7527 148.544 28.8579 148.327C28.9631 148.11 29.1117 147.916 29.2947 147.758C29.4776 147.601 29.6909 147.482 29.9214 147.41C30.152 147.338 30.3948 147.314 30.6349 147.34C31.0788 147.314 31.5184 147.44 31.8814 147.696C32.2445 147.953 32.5096 148.326 32.6332 148.753L32.0012 148.957C31.9111 148.675 31.7299 148.431 31.486 148.262C31.2421 148.094 30.9494 148.012 30.6535 148.028C30.0122 148.028 29.4546 148.362 29.4546 149.032C29.4546 149.533 29.7706 149.961 30.5513 150.24L31.0067 150.416C32.1685 150.9 32.8655 151.346 32.8655 152.433C32.8655 153.734 31.7502 154.292 30.6349 154.292C30.1093 154.327 29.5887 154.17 29.1699 153.851C28.7511 153.531 28.4625 153.07 28.3579 152.554V152.554Z" fill="white"/>
<path d="M33.86 150.853C33.8332 150.402 33.8996 149.95 34.0553 149.525C34.2109 149.101 34.4523 148.713 34.7646 148.386C35.0768 148.059 35.453 147.8 35.8699 147.625C36.2867 147.449 36.7352 147.362 37.1873 147.368C37.7376 147.35 38.2818 147.488 38.7571 147.765C39.2324 148.043 39.6193 148.45 39.8733 148.939V148.939V147.507H40.6633V154.218H39.8733V152.786C39.6159 153.271 39.2277 153.673 38.7528 153.947C38.2779 154.222 37.7355 154.357 37.1873 154.338C36.7348 154.346 36.2857 154.259 35.8682 154.085C35.4507 153.91 35.0739 153.651 34.7614 153.324C34.4489 152.996 34.2075 152.608 34.0524 152.183C33.8973 151.758 33.8318 151.305 33.86 150.853V150.853ZM37.2895 153.641C37.8464 153.671 38.3993 153.533 38.877 153.246C39.3546 152.958 39.735 152.533 39.969 152.027C40.2031 151.521 40.2799 150.956 40.1897 150.406C40.0995 149.856 39.8464 149.345 39.4631 148.94C39.0797 148.535 38.5837 148.255 38.0392 148.134C37.4947 148.014 36.9267 148.06 36.4085 148.266C35.8903 148.472 35.4457 148.829 35.1323 149.29C34.8188 149.751 34.6508 150.296 34.65 150.853C34.6322 151.209 34.6875 151.564 34.8126 151.898C34.9378 152.231 35.13 152.536 35.3774 152.792C35.6248 153.048 35.9222 153.25 36.2511 153.387C36.58 153.524 36.9334 153.591 37.2895 153.586V153.641Z" fill="white"/>
<path d="M42.3176 145.054H43.1076V154.208H42.3176V145.054Z" fill="white"/>
<path d="M44.4088 150.853C44.4124 150.17 44.6186 149.503 45.0011 148.937C45.3837 148.37 45.9254 147.93 46.5581 147.671C47.1907 147.413 47.8857 147.348 48.5554 147.484C49.2251 147.62 49.8394 147.952 50.3207 148.437C50.8019 148.922 51.1287 149.539 51.2595 150.21C51.3904 150.881 51.3195 151.575 51.0558 152.206C50.7922 152.836 50.3476 153.374 49.7782 153.752C49.2089 154.13 48.5403 154.331 47.8569 154.329C47.3992 154.338 46.9445 154.254 46.5203 154.082C46.096 153.91 45.7111 153.654 45.3887 153.329C45.0664 153.004 44.8133 152.617 44.6449 152.192C44.4764 151.766 44.3961 151.311 44.4088 150.853V150.853ZM47.8569 153.641C48.4128 153.665 48.9633 153.523 49.4374 153.231C49.9115 152.94 50.2876 152.513 50.5173 152.007C50.747 151.5 50.8197 150.936 50.7262 150.387C50.6327 149.839 50.3771 149.331 49.9924 148.928C49.6077 148.526 49.1115 148.248 48.5676 148.131C48.0237 148.013 47.457 148.061 46.9405 148.268C46.4239 148.475 45.9811 148.832 45.6691 149.292C45.357 149.753 45.19 150.297 45.1895 150.853C45.1755 151.21 45.2345 151.566 45.3628 151.9C45.4911 152.233 45.686 152.537 45.9356 152.793C46.1852 153.049 46.4843 153.251 46.8146 153.387C47.1449 153.523 47.4996 153.591 47.8569 153.586V153.641Z" fill="white"/>
<path d="M52.6618 147.498H53.4518V148.669C53.6747 148.255 54.0106 147.913 54.4203 147.683C54.83 147.453 55.2966 147.343 55.766 147.368C56.1394 147.353 56.5115 147.419 56.8566 147.563C57.2017 147.706 57.5114 147.923 57.7644 148.198C58.0173 148.473 58.2073 148.799 58.3212 149.155C58.4352 149.511 58.4703 149.888 58.4241 150.258V154.208H57.5876V150.351C57.626 150.062 57.6003 149.767 57.5125 149.488C57.4246 149.209 57.2766 148.953 57.079 148.738C56.8813 148.523 56.6389 148.353 56.3686 148.242C56.0984 148.13 55.8071 148.079 55.5151 148.093C55.2217 148.08 54.9292 148.131 54.6575 148.243C54.3858 148.354 54.1413 148.522 53.9409 148.737C53.7405 148.951 53.5888 149.207 53.4964 149.486C53.404 149.764 53.3729 150.06 53.4053 150.351V154.208H52.6618V147.498Z" fill="white"/>
<path d="M62.8109 147.498H63.5916V148.939C63.8444 148.452 64.23 148.047 64.7038 147.77C65.1776 147.494 65.7201 147.358 66.2682 147.377C67.1602 147.423 68.0005 147.81 68.6156 148.458C69.2306 149.106 69.5736 149.965 69.5736 150.858C69.5736 151.751 69.2306 152.61 68.6156 153.258C68.0005 153.906 67.1602 154.292 66.2682 154.338C65.7212 154.358 65.1799 154.222 64.7064 153.948C64.2329 153.673 63.8465 153.271 63.5916 152.786V152.786V156.662H62.8109V147.498ZM66.2125 153.586C66.7693 153.615 67.3223 153.478 67.7999 153.19C68.2776 152.902 68.658 152.478 68.892 151.972C69.126 151.465 69.2029 150.901 69.1127 150.35C69.0225 149.8 68.7693 149.29 68.386 148.885C68.0026 148.48 67.5067 148.199 66.9621 148.079C66.4176 147.959 65.8496 148.004 65.3314 148.21C64.8132 148.416 64.3687 148.773 64.0552 149.234C63.7417 149.695 63.5738 150.24 63.573 150.797C63.5442 151.158 63.5916 151.521 63.7121 151.862C63.8325 152.204 64.0233 152.516 64.2722 152.779C64.5211 153.042 64.8224 153.25 65.1566 153.388C65.4909 153.527 65.8506 153.595 66.2125 153.586V153.586Z" fill="white"/>
<path d="M70.9432 147.498H71.7239V149.059C71.8388 148.57 72.1185 148.135 72.5162 147.827C72.9138 147.519 73.4052 147.357 73.908 147.368C74.0243 147.366 74.1403 147.381 74.2519 147.414V148.149C74.1409 148.132 74.0282 148.132 73.9173 148.149C73.6012 148.158 73.2906 148.233 73.0052 148.369C72.7198 148.505 72.4658 148.699 72.2595 148.939C72.0532 149.178 71.899 149.458 71.8068 149.76C71.7145 150.063 71.6863 150.381 71.7239 150.695V154.255H70.9432V147.498Z" fill="white"/>
<path d="M75.0418 150.853C75.0455 150.17 75.2516 149.503 75.6342 148.937C76.0167 148.37 76.5585 147.93 77.1911 147.671C77.8237 147.413 78.5188 147.348 79.1884 147.484C79.8581 147.62 80.4724 147.952 80.9537 148.437C81.435 148.922 81.7617 149.539 81.8926 150.21C82.0234 150.881 81.9525 151.575 81.6889 152.206C81.4253 152.836 80.9807 153.374 80.4113 153.752C79.8419 154.13 79.1733 154.331 78.4899 154.329C78.0323 154.338 77.5776 154.254 77.1533 154.082C76.7291 153.91 76.3441 153.654 76.0218 153.329C75.6994 153.004 75.4464 152.617 75.2779 152.192C75.1095 151.766 75.0292 151.311 75.0418 150.853ZM78.4899 153.641C79.0459 153.665 79.5963 153.523 80.0705 153.231C80.5446 152.94 80.9207 152.513 81.1504 152.007C81.3801 151.5 81.4528 150.936 81.3593 150.387C81.2657 149.839 81.0101 149.331 80.6255 148.928C80.2408 148.526 79.7445 148.248 79.2007 148.131C78.6568 148.013 78.0901 148.061 77.5735 148.268C77.057 148.475 76.6142 148.832 76.3021 149.292C75.9901 149.753 75.823 150.297 75.8225 150.853C75.8086 151.21 75.8676 151.566 75.9958 151.9C76.1241 152.233 76.319 152.537 76.5686 152.793C76.8182 153.049 77.1173 153.251 77.4477 153.387C77.778 153.523 78.1326 153.591 78.4899 153.586V153.641Z" fill="white"/>
<path d="M85.2467 144.803C85.574 144.806 85.8946 144.896 86.1761 145.063V145.695C85.9155 145.558 85.6248 145.487 85.3303 145.491C84.7355 145.491 84.2708 145.769 84.2708 146.727V147.498H86.1296V148.158H84.2708V154.208H83.4808V148.158H82.7466V147.498H83.4808V146.624C83.4487 146.382 83.4718 146.136 83.5483 145.905C83.6249 145.673 83.7529 145.461 83.9228 145.286C84.0927 145.111 84.3 144.976 84.5293 144.893C84.7586 144.809 85.0038 144.778 85.2467 144.803V144.803Z" fill="white"/>
<path d="M86.9475 150.797C86.922 150.349 86.9889 149.9 87.1441 149.478C87.2993 149.056 87.5395 148.671 87.8497 148.346C88.1599 148.021 88.5335 147.763 88.9475 147.589C89.3615 147.414 89.8069 147.326 90.2562 147.331C90.7288 147.322 91.1975 147.418 91.6285 147.612C92.0594 147.806 92.4417 148.094 92.7478 148.454C93.0538 148.815 93.2759 149.238 93.3979 149.695C93.5199 150.152 93.5388 150.63 93.4533 151.095H87.691C87.7051 151.444 87.789 151.786 87.9377 152.102C88.0865 152.418 88.297 152.701 88.557 152.934C88.8169 153.167 89.121 153.346 89.4511 153.459C89.7813 153.573 90.1309 153.619 90.4792 153.595C90.8799 153.602 91.2775 153.523 91.6447 153.362C92.012 153.202 92.3404 152.964 92.6075 152.666L93.0165 153.093C92.6925 153.471 92.2883 153.772 91.8334 153.975C91.3784 154.178 90.8841 154.276 90.3863 154.264C89.9273 154.283 89.4695 154.206 89.042 154.037C88.6145 153.869 88.2267 153.614 87.9032 153.288C87.5798 152.962 87.3277 152.572 87.1632 152.143C86.9986 151.715 86.9252 151.256 86.9475 150.797V150.797ZM92.747 150.463C92.7523 150.137 92.691 149.813 92.567 149.512C92.443 149.21 92.2588 148.937 92.0256 148.709C91.7925 148.481 91.5154 148.303 91.2111 148.186C90.9069 148.069 90.5819 148.015 90.2562 148.028C89.5951 148.018 88.9563 148.267 88.4768 148.722C87.9973 149.177 87.7152 149.802 87.691 150.463H92.747Z" fill="white"/>
<path d="M94.1875 152.554L94.866 152.359C94.9385 152.731 95.141 153.065 95.4372 153.302C95.7335 153.538 96.1042 153.662 96.4831 153.651C97.1988 153.651 97.9237 153.288 97.9237 152.452C97.9237 151.764 97.459 151.457 96.5854 151.086L96.0649 150.881C94.9589 150.426 94.5128 149.784 94.5128 149.022C94.523 148.782 94.5822 148.546 94.6868 148.329C94.7914 148.113 94.9391 147.92 95.121 147.762C95.3029 147.605 95.5151 147.486 95.7446 147.413C95.974 147.341 96.2158 147.316 96.4552 147.34C96.8991 147.314 97.3387 147.44 97.7017 147.696C98.0648 147.953 98.3299 148.326 98.4535 148.753L97.8215 148.957C97.7332 148.676 97.5537 148.432 97.3114 148.263C97.0691 148.095 96.7777 148.012 96.4831 148.028C95.8325 148.028 95.2842 148.362 95.2842 149.032C95.2842 149.533 95.5909 149.961 96.3809 150.24L96.827 150.416C97.9888 150.9 98.6858 151.346 98.6858 152.433C98.6714 152.705 98.601 152.972 98.4789 153.215C98.3568 153.459 98.1857 153.675 97.9763 153.849C97.7669 154.024 97.5237 154.153 97.2619 154.229C97.0002 154.306 96.7256 154.327 96.4552 154.292C95.9303 154.329 95.4099 154.173 94.9922 153.852C94.5745 153.532 94.2883 153.071 94.1875 152.554Z" fill="white"/>
<path d="M99.6246 152.554L100.312 152.359C100.381 152.731 100.581 153.066 100.876 153.303C101.171 153.54 101.542 153.664 101.92 153.651C102.645 153.651 103.361 153.288 103.361 152.452C103.361 151.764 102.896 151.457 102.022 151.086L101.511 150.881C100.396 150.426 99.9499 149.784 99.9499 149.022C99.96 148.782 100.019 148.546 100.124 148.329C100.228 148.113 100.376 147.92 100.558 147.762C100.74 147.605 100.952 147.486 101.182 147.413C101.411 147.341 101.653 147.316 101.892 147.34C102.336 147.314 102.776 147.44 103.139 147.696C103.502 147.953 103.767 148.326 103.891 148.753L103.259 148.957C103.17 148.676 102.991 148.432 102.749 148.263C102.506 148.095 102.215 148.012 101.92 148.028C101.279 148.028 100.721 148.362 100.721 149.032C100.721 149.533 101.028 149.961 101.818 150.24L102.264 150.416C103.426 150.9 104.123 151.346 104.123 152.433C104.108 152.705 104.038 152.972 103.916 153.215C103.794 153.459 103.623 153.675 103.413 153.849C103.204 154.024 102.961 154.153 102.699 154.229C102.437 154.306 102.163 154.327 101.892 154.292C101.367 154.329 100.847 154.173 100.429 153.852C100.012 153.532 99.7254 153.071 99.6246 152.554V152.554Z" fill="white"/>
<path d="M105.452 145.054H106.233V145.816H105.452V145.054ZM105.452 147.498H106.233V154.208H105.452V147.498Z" fill="white"/>
<path d="M107.497 150.853C107.5 150.17 107.706 149.504 108.088 148.937C108.47 148.371 109.012 147.931 109.644 147.672C110.276 147.413 110.97 147.348 111.64 147.483C112.309 147.619 112.924 147.949 113.405 148.434C113.887 148.918 114.214 149.534 114.346 150.204C114.478 150.874 114.409 151.568 114.146 152.199C113.884 152.83 113.441 153.369 112.873 153.748C112.305 154.127 111.637 154.329 110.954 154.329C110.496 154.338 110.041 154.254 109.616 154.082C109.191 153.911 108.806 153.655 108.483 153.33C108.16 153.005 107.906 152.618 107.736 152.192C107.567 151.767 107.485 151.311 107.497 150.853V150.853ZM110.954 153.641C111.51 153.665 112.06 153.523 112.535 153.231C113.009 152.94 113.385 152.513 113.614 152.007C113.844 151.5 113.917 150.936 113.823 150.387C113.73 149.839 113.474 149.331 113.09 148.928C112.705 148.526 112.209 148.248 111.665 148.131C111.121 148.013 110.554 148.061 110.038 148.268C109.521 148.475 109.078 148.832 108.766 149.292C108.454 149.753 108.287 150.297 108.287 150.853C108.272 151.213 108.332 151.573 108.463 151.909C108.594 152.245 108.792 152.551 109.045 152.807C109.299 153.063 109.603 153.264 109.937 153.398C110.272 153.532 110.631 153.596 110.991 153.586L110.954 153.641Z" fill="white"/>
<path d="M115.75 147.498H116.53V148.669C116.756 148.255 117.093 147.914 117.504 147.683C117.916 147.453 118.383 147.344 118.854 147.368C119.227 147.353 119.599 147.419 119.944 147.563C120.29 147.706 120.599 147.923 120.852 148.198C121.105 148.473 121.295 148.799 121.409 149.155C121.523 149.511 121.558 149.888 121.512 150.258V154.208H120.722V150.351C120.76 150.062 120.735 149.767 120.647 149.488C120.559 149.209 120.411 148.953 120.213 148.738C120.016 148.523 119.773 148.353 119.503 148.242C119.233 148.13 118.941 148.079 118.649 148.093C118.355 148.079 118.062 148.129 117.789 148.24C117.516 148.35 117.27 148.519 117.069 148.733C116.868 148.948 116.715 149.204 116.622 149.483C116.529 149.763 116.498 150.059 116.53 150.351V154.208H115.75V147.498Z" fill="white"/>
<path d="M123.129 147.498H123.919V148.669C124.142 148.255 124.478 147.913 124.888 147.683C125.297 147.453 125.764 147.343 126.233 147.368C126.607 147.353 126.979 147.419 127.324 147.563C127.669 147.706 127.979 147.923 128.232 148.198C128.485 148.473 128.675 148.799 128.789 149.155C128.902 149.511 128.938 149.888 128.891 150.258V154.208H128.111V150.351C128.148 150.061 128.121 149.766 128.032 149.487C127.943 149.209 127.794 148.953 127.595 148.738C127.397 148.523 127.154 148.353 126.883 148.242C126.613 148.131 126.321 148.08 126.029 148.093C125.736 148.08 125.443 148.131 125.171 148.243C124.9 148.354 124.655 148.522 124.455 148.737C124.254 148.951 124.103 149.207 124.01 149.486C123.918 149.764 123.887 150.06 123.919 150.351V154.208H123.129V147.498Z" fill="white"/>
<path d="M130.193 150.797C130.168 150.348 130.237 149.899 130.393 149.477C130.549 149.056 130.79 148.671 131.101 148.346C131.412 148.021 131.786 147.763 132.201 147.589C132.615 147.414 133.061 147.326 133.511 147.331C133.983 147.321 134.451 147.417 134.882 147.612C135.313 147.806 135.695 148.094 136 148.454C136.305 148.815 136.526 149.239 136.647 149.696C136.768 150.153 136.786 150.631 136.698 151.095H130.936C130.951 151.443 131.036 151.785 131.185 152.1C131.335 152.416 131.545 152.698 131.805 152.931C132.064 153.164 132.368 153.342 132.698 153.456C133.027 153.57 133.376 153.618 133.724 153.595C134.125 153.602 134.523 153.523 134.89 153.362C135.257 153.202 135.586 152.964 135.853 152.666L136.262 153.093C135.796 153.62 135.18 153.992 134.496 154.159C133.813 154.327 133.095 154.281 132.438 154.028C131.782 153.775 131.218 153.327 130.823 152.745C130.429 152.162 130.222 151.473 130.23 150.77L130.193 150.797ZM135.992 150.463C135.997 150.138 135.936 149.815 135.813 149.514C135.689 149.213 135.506 148.94 135.274 148.713C135.042 148.485 134.766 148.307 134.463 148.189C134.16 148.071 133.836 148.016 133.511 148.028C132.849 148.018 132.209 148.266 131.728 148.721C131.247 149.176 130.963 149.801 130.936 150.463H135.992Z" fill="white"/>
<path d="M138.018 145.054H138.799V154.208H138.018V145.054Z" fill="white"/>
<path d="M20.9506 168.977V168.047C20.7132 168.388 20.3916 168.663 20.0172 168.844C19.6427 169.024 19.2279 169.105 18.813 169.079C17.9436 169.001 17.1349 168.601 16.5459 167.956C15.9569 167.312 15.6302 166.471 15.6302 165.598C15.6302 164.725 15.9569 163.884 16.5459 163.24C17.1349 162.596 17.9436 162.195 18.813 162.118C19.2282 162.089 19.6436 162.169 20.0184 162.35C20.3932 162.531 20.7144 162.806 20.9506 163.149V163.149V159.794H22.6793V168.949L20.9506 168.977ZM19.0918 167.555C19.477 167.569 19.8578 167.469 20.1853 167.266C20.5128 167.062 20.7721 166.766 20.9299 166.414C21.0877 166.062 21.1367 165.672 21.0708 165.292C21.0048 164.912 20.8268 164.561 20.5596 164.283C20.2925 164.005 19.9483 163.813 19.5715 163.733C19.1946 163.652 18.8022 163.685 18.4446 163.829C18.087 163.973 17.7806 164.221 17.5647 164.54C17.3488 164.859 17.2333 165.236 17.233 165.621C17.2267 165.872 17.2711 166.121 17.3634 166.354C17.4558 166.586 17.5942 166.798 17.7704 166.976C17.9466 167.154 18.157 167.294 18.3888 167.389C18.6207 167.484 18.8693 167.531 19.1197 167.527L19.0918 167.555Z" fill="white"/>
<path d="M24.2779 165.668C24.256 165.213 24.3282 164.758 24.4899 164.332C24.6515 163.906 24.8992 163.518 25.2175 163.192C25.5357 162.865 25.9178 162.608 26.3397 162.436C26.7617 162.264 27.2146 162.181 27.6702 162.192C29.371 162.192 31.3041 163.391 30.9324 166.337H25.9136C26.0395 166.773 26.3137 167.15 26.6888 167.405C27.064 167.66 27.5163 167.775 27.9676 167.731C28.5989 167.752 29.2153 167.537 29.6963 167.127L30.477 167.963C30.1442 168.352 29.7283 168.66 29.2602 168.866C28.792 169.072 28.2836 169.17 27.7724 169.153C27.3091 169.173 26.8467 169.096 26.4144 168.928C25.9822 168.76 25.5894 168.504 25.2611 168.177C24.9327 167.849 24.6758 167.457 24.5066 167.025C24.3373 166.593 24.2595 166.131 24.2779 165.668ZM29.3989 165.073C29.3498 164.66 29.1442 164.281 28.8243 164.015C28.5045 163.749 28.0948 163.615 27.6795 163.642C27.2599 163.631 26.8501 163.769 26.522 164.031C26.194 164.293 25.9687 164.662 25.8857 165.073H29.3989Z" fill="white"/>
<path d="M35.821 159.822H37.5497V168.977H35.821V159.822Z" fill="white"/>
<path d="M39.1483 165.668C39.1164 165.224 39.1761 164.779 39.3236 164.359C39.4711 163.94 39.7033 163.555 40.0058 163.229C40.3082 162.903 40.6744 162.643 41.0817 162.465C41.489 162.286 41.9286 162.193 42.3733 162.192C42.7885 162.164 43.2039 162.244 43.5787 162.425C43.9535 162.606 44.2748 162.881 44.5109 163.224V163.224V162.294H46.2396V168.995H44.5481V168.066C44.3107 168.407 43.9892 168.681 43.6147 168.862C43.2402 169.043 42.8255 169.124 42.4105 169.097C41.9673 169.099 41.5283 169.011 41.1206 168.837C40.7129 168.663 40.345 168.408 40.0395 168.086C39.734 167.765 39.4974 167.385 39.3441 166.969C39.1909 166.553 39.1242 166.11 39.1483 165.668V165.668ZM42.7172 167.527C43.1024 167.542 43.4832 167.441 43.8107 167.238C44.1382 167.034 44.3975 166.738 44.5553 166.386C44.7131 166.035 44.7622 165.644 44.6962 165.264C44.6302 164.884 44.4522 164.533 44.185 164.255C43.9179 163.977 43.5738 163.786 43.1969 163.705C42.82 163.624 42.4276 163.658 42.07 163.802C41.7124 163.945 41.406 164.193 41.1901 164.512C40.9742 164.832 40.8587 165.208 40.8584 165.594C40.8484 165.844 40.889 166.094 40.978 166.328C41.0669 166.562 41.2022 166.776 41.3758 166.956C41.5494 167.137 41.7578 167.28 41.9883 167.378C42.2188 167.476 42.4667 167.527 42.7172 167.527V167.527Z" fill="white"/>
<path d="M51.4536 162.276H53.1823V163.205C53.4185 162.862 53.7397 162.587 54.1145 162.406C54.4893 162.225 54.9047 162.145 55.3199 162.173C56.1893 162.251 56.998 162.652 57.587 163.296C58.176 163.94 58.5026 164.781 58.5026 165.654C58.5026 166.527 58.176 167.368 57.587 168.012C56.998 168.656 56.1893 169.057 55.3199 169.135C54.905 169.161 54.4902 169.08 54.1157 168.899C53.7412 168.719 53.4197 168.444 53.1823 168.103V168.103V171.449H51.4536V162.276ZM55.0132 167.527C55.3984 167.542 55.7792 167.441 56.1067 167.238C56.4343 167.034 56.6936 166.738 56.8513 166.386C57.0091 166.035 57.0582 165.644 56.9922 165.264C56.9262 164.884 56.7482 164.533 56.4811 164.255C56.2139 163.977 55.8698 163.786 55.4929 163.705C55.116 163.624 54.7236 163.658 54.366 163.802C54.0084 163.945 53.702 164.193 53.4861 164.512C53.2702 164.832 53.1547 165.208 53.1544 165.594C53.1444 165.844 53.1851 166.094 53.274 166.328C53.3629 166.562 53.4982 166.776 53.6719 166.956C53.8455 167.137 54.0538 167.28 54.2843 167.378C54.5148 167.476 54.7627 167.527 55.0132 167.527V167.527Z" fill="white"/>
<path d="M60.1807 162.275H61.9558V164.013C62.0193 163.501 62.2677 163.029 62.6545 162.687C63.0413 162.345 63.5398 162.155 64.0563 162.155C64.2044 162.137 64.3542 162.137 64.5024 162.155V163.809C64.3571 163.795 64.2108 163.795 64.0656 163.809C63.7744 163.798 63.4843 163.85 63.2148 163.961C62.9452 164.071 62.7024 164.238 62.5026 164.45C62.3029 164.663 62.1507 164.915 62.0564 165.191C61.9621 165.466 61.9278 165.759 61.9558 166.049V168.977H60.1807V162.275Z" fill="white"/>
<path d="M65.5247 165.668C65.5155 164.967 65.7148 164.28 66.0972 163.693C66.4796 163.106 67.0279 162.646 67.6724 162.372C68.3169 162.098 69.0284 162.021 69.7165 162.152C70.4047 162.283 71.0383 162.616 71.5369 163.108C72.0354 163.6 72.3765 164.229 72.5165 164.915C72.6566 165.601 72.5894 166.314 72.3236 166.962C72.0577 167.61 71.6051 168.164 71.0233 168.555C70.4416 168.945 69.7569 169.153 69.0565 169.153C68.5921 169.17 68.1293 169.091 67.6964 168.923C67.2635 168.754 66.8696 168.499 66.5389 168.172C66.2082 167.846 65.9477 167.455 65.7733 167.025C65.5989 166.594 65.5143 166.132 65.5247 165.668V165.668ZM69.0565 167.592C69.4395 167.605 69.8176 167.503 70.1424 167.3C70.4673 167.096 70.7239 166.801 70.8796 166.45C71.0352 166.1 71.0827 165.711 71.016 165.334C70.9493 164.957 70.7714 164.608 70.5051 164.332C70.2388 164.057 69.8963 163.867 69.5214 163.787C69.1466 163.707 68.7565 163.742 68.4011 163.885C68.0458 164.029 67.7414 164.275 67.527 164.593C67.3125 164.91 67.1979 165.285 67.1977 165.668C67.1977 166.161 67.3935 166.634 67.7421 166.982C68.0907 167.331 68.5635 167.527 69.0565 167.527V167.592Z" fill="white"/>
<path d="M79.2707 168.977V168.047C79.0332 168.388 78.7117 168.663 78.3372 168.844C77.9628 169.024 77.548 169.105 77.133 169.079C76.2637 169.001 75.455 168.601 74.8659 167.956C74.2769 167.312 73.9503 166.471 73.9503 165.598C73.9503 164.725 74.2769 163.884 74.8659 163.24C75.455 162.596 76.2637 162.195 77.133 162.118C77.5482 162.089 77.9636 162.169 78.3384 162.35C78.7132 162.531 79.0345 162.806 79.2707 163.149V163.149V159.794H80.9901V168.949L79.2707 168.977ZM77.4119 167.555C77.797 167.569 78.1778 167.469 78.5054 167.266C78.8329 167.062 79.0922 166.766 79.25 166.414C79.4078 166.062 79.4568 165.672 79.3908 165.292C79.3248 164.912 79.1469 164.561 78.8797 164.283C78.6125 164.005 78.2684 163.813 77.8915 163.733C77.5147 163.652 77.1222 163.685 76.7646 163.829C76.407 163.973 76.1006 164.221 75.8847 164.54C75.6688 164.859 75.5533 165.236 75.553 165.621C75.5468 165.872 75.5911 166.121 75.6835 166.354C75.7758 166.586 75.9143 166.798 76.0905 166.976C76.2667 167.154 76.477 167.294 76.7089 167.389C76.9407 167.484 77.1893 167.531 77.4397 167.527L77.4119 167.555Z" fill="white"/>
<path d="M89.2245 168.977H87.5051V168.047C87.2845 168.387 86.9787 168.662 86.6183 168.846C86.2579 169.031 85.8555 169.117 85.4511 169.097C84.0756 169.097 82.9139 168.242 82.9139 166.207V162.266H84.6426V165.919C84.6426 166.904 85.163 167.545 86.0738 167.545C86.2794 167.547 86.483 167.505 86.6707 167.421C86.8584 167.337 87.0259 167.214 87.1617 167.06C87.2975 166.905 87.3985 166.724 87.4577 166.527C87.517 166.33 87.5332 166.122 87.5051 165.919V162.266H89.2245V168.977Z" fill="white"/>
<path d="M90.8231 165.668C90.8126 165.204 90.8972 164.742 91.0717 164.312C91.2462 163.882 91.5069 163.492 91.8377 163.167C92.1686 162.841 92.5626 162.587 92.9954 162.419C93.4283 162.251 93.8909 162.174 94.3548 162.192C94.9421 162.172 95.5238 162.312 96.0378 162.597C96.5518 162.881 96.9788 163.3 97.2731 163.809L96.0091 164.627C95.8392 164.349 95.602 164.118 95.3194 163.955C95.0368 163.793 94.7179 163.704 94.392 163.698C93.8817 163.698 93.3924 163.9 93.0316 164.261C92.6708 164.622 92.4681 165.111 92.4681 165.621C92.4681 166.132 92.6708 166.621 93.0316 166.982C93.3924 167.343 93.8817 167.545 94.392 167.545C94.7181 167.539 95.0373 167.451 95.3201 167.289C95.6028 167.126 95.8399 166.895 96.0091 166.616L97.2731 167.424C96.9836 167.934 96.5626 168.356 96.0542 168.647C95.5457 168.938 94.9685 169.087 94.3827 169.079C93.9221 169.1 93.4619 169.028 93.0302 168.866C92.5985 168.704 92.2041 168.456 91.8712 168.137C91.5383 167.818 91.2737 167.435 91.0935 167.01C90.9133 166.586 90.8213 166.129 90.8231 165.668V165.668Z" fill="white"/>
<path d="M99.4759 167.118V163.651H98.5464V162.276H99.4759V160.556H101.214V162.276H102.589V163.651H101.214V166.839C101.214 167.183 101.409 167.517 101.976 167.517C102.19 167.512 102.403 167.478 102.608 167.415V168.744C102.26 168.976 101.844 169.084 101.428 169.051C101.165 169.084 100.899 169.056 100.648 168.971C100.398 168.886 100.17 168.745 99.9821 168.558C99.7942 168.372 99.651 168.146 99.5633 167.896C99.4756 167.647 99.4457 167.381 99.4759 167.118V167.118Z" fill="white"/>
<path d="M104.253 159.822H105.982V161.346H104.253V159.822ZM104.253 162.276H105.982V168.977H104.253V162.276Z" fill="white"/>
<path d="M107.58 165.668C107.571 164.967 107.77 164.28 108.153 163.693C108.535 163.106 109.083 162.646 109.728 162.372C110.372 162.098 111.084 162.021 111.772 162.152C112.46 162.283 113.094 162.616 113.592 163.108C114.091 163.6 114.432 164.229 114.572 164.915C114.712 165.601 114.645 166.314 114.379 166.962C114.113 167.61 113.661 168.164 113.079 168.555C112.497 168.945 111.812 169.153 111.112 169.153C110.647 169.171 110.184 169.094 109.75 168.925C109.317 168.757 108.922 168.502 108.591 168.175C108.26 167.849 108 167.458 107.826 167.026C107.652 166.595 107.568 166.133 107.58 165.668ZM111.112 167.592C111.495 167.605 111.873 167.503 112.198 167.3C112.523 167.096 112.779 166.801 112.935 166.45C113.091 166.1 113.138 165.711 113.072 165.334C113.005 164.957 112.827 164.608 112.561 164.332C112.294 164.057 111.952 163.867 111.577 163.787C111.202 163.707 110.812 163.742 110.457 163.885C110.101 164.029 109.797 164.275 109.582 164.593C109.368 164.91 109.253 165.285 109.253 165.668C109.247 165.914 109.291 166.158 109.382 166.387C109.473 166.615 109.609 166.823 109.783 166.996C109.957 167.17 110.165 167.307 110.393 167.398C110.622 167.489 110.866 167.533 111.112 167.527V167.592Z" fill="white"/>
<path d="M116.233 162.276H117.962V163.205C118.183 162.867 118.489 162.592 118.849 162.41C119.21 162.227 119.612 162.142 120.016 162.164C121.391 162.164 122.553 163.01 122.553 165.045V168.995H120.824V165.333C120.824 164.348 120.294 163.707 119.393 163.707C119.187 163.705 118.984 163.747 118.796 163.831C118.608 163.915 118.441 164.038 118.305 164.192C118.169 164.347 118.068 164.529 118.009 164.725C117.95 164.922 117.934 165.13 117.962 165.333V168.995H116.233V162.276Z" fill="white"/>
<path d="M127.404 165.668C127.373 165.224 127.432 164.779 127.58 164.359C127.727 163.94 127.959 163.555 128.262 163.229C128.564 162.903 128.931 162.643 129.338 162.465C129.745 162.286 130.185 162.193 130.629 162.192C131.046 162.166 131.462 162.247 131.838 162.427C132.214 162.608 132.537 162.882 132.776 163.224V163.224V162.294H134.496V168.995H132.776V168.066C132.536 168.406 132.212 168.679 131.836 168.86C131.461 169.04 131.045 169.122 130.629 169.097C130.189 169.094 129.754 169.002 129.351 168.826C128.948 168.65 128.584 168.394 128.283 168.073C127.981 167.752 127.748 167.374 127.597 166.96C127.446 166.547 127.38 166.107 127.404 165.668ZM130.983 167.601C131.368 167.616 131.749 167.515 132.076 167.312C132.404 167.109 132.663 166.812 132.821 166.461C132.978 166.109 133.028 165.718 132.962 165.338C132.896 164.959 132.718 164.607 132.45 164.329C132.183 164.052 131.839 163.86 131.462 163.779C131.085 163.698 130.693 163.732 130.335 163.876C129.978 164.02 129.671 164.267 129.455 164.587C129.24 164.906 129.124 165.282 129.124 165.668C129.124 165.912 129.172 166.154 129.265 166.379C129.359 166.605 129.496 166.81 129.668 166.982C129.841 167.155 130.046 167.292 130.271 167.385C130.497 167.479 130.738 167.527 130.983 167.527V167.601Z" fill="white"/>
<path d="M137.786 171.244V169.841C138.291 170.101 138.854 170.228 139.422 170.213C140.713 170.213 141.531 169.609 141.531 168.586V168.075H141.457C141.227 168.415 140.913 168.69 140.544 168.871C140.176 169.052 139.766 169.133 139.357 169.107C138.487 169.029 137.678 168.628 137.089 167.984C136.5 167.34 136.174 166.499 136.174 165.626C136.174 164.753 136.5 163.912 137.089 163.268C137.678 162.624 138.487 162.223 139.357 162.145C139.767 162.117 140.177 162.198 140.545 162.379C140.914 162.56 141.229 162.835 141.457 163.177H141.531V162.248H143.26V168.456C143.26 171.021 141.253 171.635 139.728 171.635C139.058 171.67 138.39 171.536 137.786 171.244V171.244ZM139.7 167.527C140.213 167.527 140.705 167.323 141.067 166.96C141.43 166.598 141.634 166.106 141.634 165.593C141.634 165.081 141.43 164.589 141.067 164.227C140.705 163.864 140.213 163.66 139.7 163.66C139.188 163.66 138.696 163.864 138.333 164.227C137.971 164.589 137.767 165.081 137.767 165.593C137.767 166.106 137.971 166.598 138.333 166.96C138.696 167.323 139.188 167.527 139.7 167.527V167.527Z" fill="white"/>
<path d="M145.184 162.276H146.903V164.013C146.967 163.501 147.215 163.029 147.602 162.687C147.989 162.345 148.487 162.155 149.004 162.155C149.155 162.136 149.308 162.136 149.459 162.155V163.809C149.314 163.795 149.168 163.795 149.022 163.809C148.73 163.797 148.439 163.848 148.169 163.958C147.898 164.068 147.654 164.235 147.453 164.447C147.252 164.659 147.099 164.912 147.004 165.188C146.91 165.465 146.875 165.758 146.903 166.049V168.977H145.184V162.276Z" fill="white"/>
<path d="M150.528 165.668C150.519 164.967 150.718 164.28 151.1 163.693C151.483 163.106 152.031 162.646 152.676 162.372C153.32 162.098 154.032 162.021 154.72 162.152C155.408 162.283 156.042 162.616 156.54 163.108C157.039 163.6 157.38 164.229 157.52 164.915C157.66 165.601 157.593 166.314 157.327 166.962C157.061 167.61 156.608 168.164 156.027 168.555C155.445 168.945 154.76 169.153 154.06 169.153C153.595 169.171 153.132 169.094 152.698 168.925C152.265 168.757 151.87 168.502 151.539 168.175C151.208 167.849 150.948 167.458 150.774 167.026C150.6 166.595 150.516 166.133 150.528 165.668ZM154.06 167.592C154.443 167.605 154.821 167.503 155.146 167.3C155.47 167.096 155.727 166.801 155.883 166.45C156.038 166.1 156.086 165.711 156.019 165.334C155.952 164.957 155.775 164.608 155.508 164.332C155.242 164.057 154.899 163.867 154.525 163.787C154.15 163.707 153.76 163.742 153.404 163.885C153.049 164.029 152.745 164.275 152.53 164.593C152.316 164.91 152.201 165.285 152.201 165.668C152.201 166.161 152.397 166.634 152.745 166.982C153.094 167.331 153.567 167.527 154.06 167.527V167.592Z" fill="white"/>
<path d="M158.865 165.668C158.833 165.224 158.893 164.779 159.04 164.359C159.188 163.94 159.42 163.555 159.722 163.229C160.025 162.903 160.391 162.643 160.798 162.465C161.205 162.286 161.645 162.193 162.09 162.192C162.505 162.164 162.92 162.244 163.295 162.425C163.67 162.606 163.991 162.881 164.227 163.224V163.224V162.294H165.956V168.995H164.227V168.066C163.99 168.407 163.668 168.681 163.294 168.862C162.919 169.043 162.505 169.124 162.09 169.097C161.65 169.094 161.215 169.002 160.811 168.826C160.408 168.65 160.045 168.394 159.743 168.073C159.442 167.752 159.208 167.374 159.057 166.961C158.906 166.547 158.841 166.107 158.865 165.668ZM162.434 167.601C162.819 167.616 163.2 167.515 163.527 167.312C163.855 167.109 164.114 166.812 164.272 166.461C164.43 166.109 164.479 165.718 164.413 165.338C164.347 164.959 164.169 164.607 163.901 164.329C163.634 164.052 163.29 163.86 162.913 163.779C162.536 163.698 162.144 163.732 161.786 163.876C161.429 164.02 161.122 164.267 160.906 164.587C160.691 164.906 160.575 165.282 160.575 165.668C160.575 166.161 160.771 166.634 161.119 166.982C161.468 167.331 161.941 167.527 162.434 167.527V167.601Z" fill="white"/>
<path d="M167.908 159.822H169.636V168.977H167.908V159.822Z" fill="white"/>
<path d="M171.56 159.822H173.289V161.346H171.56V159.822ZM171.56 162.276H173.289V168.977H171.56V162.276Z" fill="white"/>
<path d="M179.47 165.157C179.47 164.227 178.968 163.688 178.233 163.688C178.047 163.685 177.862 163.722 177.692 163.798C177.521 163.873 177.369 163.984 177.245 164.123C177.121 164.263 177.029 164.427 176.975 164.606C176.921 164.784 176.907 164.972 176.932 165.157V168.977H175.204V162.276H176.932V163.131C177.138 162.812 177.424 162.553 177.762 162.38C178.1 162.207 178.477 162.126 178.856 162.145C179.255 162.127 179.651 162.222 179.998 162.419C180.345 162.616 180.629 162.908 180.817 163.261C181.057 162.898 181.387 162.604 181.775 162.409C182.163 162.213 182.595 162.122 183.029 162.145C184.451 162.145 185.483 163.028 185.483 165.082V168.977H183.708V165.157C183.708 164.227 183.215 163.688 182.462 163.688C182.276 163.685 182.091 163.722 181.92 163.798C181.75 163.873 181.597 163.984 181.474 164.123C181.35 164.263 181.258 164.427 181.204 164.606C181.15 164.784 181.136 164.972 181.161 165.157V168.977H179.432L179.47 165.157Z" fill="white"/>
<path d="M187.063 165.668C187.041 165.213 187.113 164.758 187.275 164.332C187.436 163.906 187.684 163.518 188.002 163.192C188.321 162.865 188.703 162.608 189.125 162.436C189.547 162.264 190 162.181 190.455 162.192C192.156 162.192 194.089 163.391 193.717 166.337H188.699C188.824 166.773 189.099 167.15 189.474 167.405C189.849 167.66 190.301 167.775 190.752 167.731C191.381 167.753 191.995 167.538 192.472 167.127L193.262 167.963C192.929 168.351 192.513 168.66 192.045 168.865C191.577 169.071 191.068 169.17 190.557 169.153C190.094 169.173 189.632 169.096 189.199 168.928C188.767 168.76 188.374 168.504 188.046 168.177C187.718 167.849 187.461 167.457 187.291 167.025C187.122 166.593 187.044 166.131 187.063 165.668ZM192.184 165.073C192.133 164.661 191.926 164.283 191.607 164.018C191.288 163.752 190.879 163.617 190.464 163.642C190.045 163.631 189.635 163.769 189.307 164.031C188.979 164.293 188.754 164.662 188.671 165.073H192.184Z" fill="white"/>
<path d="M195.344 162.276H197.072V163.205C197.294 162.867 197.6 162.594 197.961 162.411C198.321 162.228 198.723 162.143 199.126 162.164C200.502 162.164 201.664 163.01 201.664 165.045V168.995H199.935V165.333C199.935 164.348 199.405 163.707 198.504 163.707C198.298 163.705 198.095 163.747 197.907 163.831C197.719 163.915 197.552 164.038 197.416 164.193C197.28 164.347 197.179 164.529 197.12 164.726C197.06 164.922 197.044 165.13 197.072 165.333V168.995H195.344V162.276Z" fill="white"/>
<path d="M204.024 167.118V163.651H203.095V162.276H204.024V160.556H205.762V162.276H207.138V163.651H205.762V166.839C205.762 167.183 205.958 167.517 206.524 167.517C206.739 167.512 206.951 167.478 207.156 167.415V168.744C206.809 168.976 206.393 169.084 205.976 169.051C205.714 169.084 205.447 169.056 205.197 168.971C204.946 168.886 204.719 168.745 204.531 168.558C204.343 168.372 204.2 168.146 204.112 167.896C204.024 167.647 203.994 167.381 204.024 167.118V167.118Z" fill="white"/>
<path d="M208.411 165.668C208.379 165.224 208.439 164.779 208.586 164.359C208.734 163.94 208.966 163.555 209.269 163.229C209.571 162.903 209.937 162.643 210.344 162.465C210.752 162.286 211.191 162.193 211.636 162.192C212.051 162.164 212.467 162.244 212.841 162.425C213.216 162.606 213.538 162.881 213.774 163.224H213.82V162.294H215.54V168.995H213.82V168.066H213.774C213.536 168.407 213.215 168.681 212.84 168.862C212.466 169.043 212.051 169.124 211.636 169.097C211.196 169.094 210.761 169.002 210.358 168.826C209.954 168.65 209.591 168.394 209.289 168.073C208.988 167.752 208.755 167.374 208.604 166.961C208.453 166.547 208.387 166.107 208.411 165.668V165.668ZM211.989 167.601C212.374 167.616 212.755 167.515 213.083 167.312C213.41 167.109 213.67 166.812 213.827 166.461C213.985 166.109 214.034 165.718 213.968 165.338C213.902 164.959 213.724 164.607 213.457 164.329C213.19 164.052 212.846 163.86 212.469 163.779C212.092 163.698 211.7 163.732 211.342 163.876C210.984 164.02 210.678 164.267 210.462 164.587C210.246 164.906 210.131 165.282 210.13 165.668C210.13 166.161 210.326 166.634 210.675 166.982C211.023 167.331 211.496 167.527 211.989 167.527V167.601Z" fill="white"/>
<path d="M217.464 159.822H219.192V161.346H217.464V159.822ZM217.464 162.276H219.192V168.977H217.464V162.276Z" fill="white"/>
<path d="M221.107 162.276H222.835V164.013C222.899 163.501 223.147 163.029 223.534 162.687C223.921 162.345 224.419 162.155 224.936 162.155C225.087 162.136 225.24 162.136 225.391 162.155V163.809C225.243 163.795 225.094 163.795 224.945 163.809C224.654 163.798 224.364 163.85 224.094 163.961C223.825 164.071 223.582 164.238 223.382 164.45C223.182 164.663 223.03 164.915 222.936 165.191C222.842 165.466 222.807 165.759 222.835 166.049V168.977H221.107V162.276Z" fill="white"/>
<path d="M226.46 165.668C226.438 165.213 226.51 164.759 226.671 164.334C226.832 163.909 227.079 163.521 227.397 163.195C227.714 162.869 228.095 162.612 228.516 162.439C228.936 162.267 229.388 162.182 229.843 162.192C231.544 162.192 233.477 163.391 233.105 166.337H228.096C228.22 166.772 228.492 167.149 228.866 167.404C229.239 167.659 229.69 167.774 230.141 167.731C230.772 167.754 231.389 167.538 231.869 167.127L232.659 167.963C232.325 168.352 231.907 168.661 231.437 168.867C230.968 169.072 230.458 169.17 229.945 169.153C229.482 169.173 229.02 169.096 228.589 168.928C228.157 168.76 227.765 168.504 227.437 168.176C227.109 167.848 226.853 167.456 226.685 167.025C226.517 166.593 226.44 166.131 226.46 165.668V165.668ZM231.572 165.073C231.523 164.661 231.319 164.284 231.001 164.018C230.683 163.752 230.275 163.618 229.862 163.642C229.442 163.629 229.031 163.766 228.702 164.029C228.374 164.291 228.149 164.661 228.068 165.073H231.572Z" fill="white"/>
<path d="M16.4152 204.879H22.2518C23.3498 204.865 24.4407 205.057 25.4675 205.446C26.4061 205.797 27.2655 206.331 27.9955 207.017C28.7032 207.673 29.2693 208.467 29.6591 209.35C30.0468 210.283 30.2428 211.285 30.2354 212.296V212.296C30.2428 213.31 30.0468 214.315 29.6591 215.251C29.2945 216.179 28.7369 217.019 28.0234 217.714C27.2913 218.4 26.4327 218.937 25.4954 219.294C24.471 219.694 23.3792 219.893 22.2797 219.88H16.4152V204.879ZM22.2518 216.878C22.8862 216.886 23.5166 216.776 24.1106 216.553C24.647 216.351 25.1324 216.033 25.5326 215.623C25.9324 215.218 26.2482 214.738 26.462 214.211C26.6981 213.62 26.8119 212.988 26.7966 212.352C26.8091 211.716 26.6954 211.084 26.462 210.493C26.2508 209.956 25.9349 209.466 25.5326 209.052C25.127 208.649 24.6431 208.332 24.1106 208.123C23.5166 207.9 22.8862 207.79 22.2518 207.798H19.7331V216.822L22.2518 216.878Z" fill="#212E5A"/>
<path d="M37.271 220.084C36.4079 220.135 35.5434 220.013 34.7279 219.726C33.9125 219.439 33.1625 218.992 32.5217 218.411C31.907 217.744 31.4363 216.958 31.1389 216.101C30.8415 215.244 30.7238 214.334 30.793 213.43V204.879H34.0738V213.346C33.9965 214.35 34.302 215.346 34.9289 216.134C35.2357 216.451 35.607 216.697 36.0175 216.858C36.428 217.018 36.8681 217.088 37.3081 217.064C37.7463 217.085 38.184 217.013 38.5924 216.852C39.0009 216.692 39.3708 216.448 39.6781 216.134C40.2982 215.379 40.6044 214.414 40.5332 213.439V204.861H43.8325V213.309C43.8539 214.319 43.6998 215.326 43.3771 216.283C43.1025 217.075 42.6512 217.793 42.0574 218.384C41.4739 218.96 40.7643 219.393 39.9848 219.648C39.1105 219.942 38.1935 220.089 37.271 220.084V220.084Z" fill="#212E5A"/>
<path d="M55.3199 220.103C54.4016 220.119 53.4914 219.928 52.6565 219.546C51.8217 219.163 51.0834 218.597 50.4963 217.891C49.9011 217.167 49.4471 216.338 49.158 215.447C48.8444 214.464 48.6876 213.439 48.6933 212.408V212.408C48.6844 211.375 48.8477 210.348 49.1766 209.368C49.4704 208.472 49.9308 207.64 50.5335 206.915C51.1127 206.204 51.8387 205.627 52.6618 205.223C53.5145 204.831 54.4418 204.628 55.3803 204.628C56.3188 204.628 57.2462 204.831 58.0988 205.223C58.9034 205.611 59.6163 206.165 60.19 206.85C60.7863 207.578 61.2432 208.41 61.5376 209.303C61.8437 210.28 61.9851 211.301 61.9559 212.324V212.324C61.9662 213.357 61.8028 214.384 61.4726 215.363C61.1767 216.261 60.7166 217.096 60.1156 217.826C59.5397 218.517 58.8238 219.077 58.0152 219.471C57.1759 219.882 56.2545 220.098 55.3199 220.103V220.103ZM55.3199 217.129C55.7931 217.138 56.2595 217.016 56.6676 216.776C57.0722 216.544 57.4212 216.227 57.6899 215.846C57.9928 215.386 58.2129 214.877 58.3405 214.341C58.4948 213.733 58.5729 213.109 58.5728 212.482C58.5731 211.854 58.4918 211.23 58.3312 210.623C58.1916 210.088 57.9656 209.58 57.662 209.117C57.3892 208.71 57.0308 208.368 56.6118 208.114C56.207 207.873 55.7443 207.748 55.2734 207.751C54.8007 207.746 54.3351 207.868 53.9258 208.104C53.5169 208.351 53.1702 208.688 52.9128 209.09C52.6175 209.55 52.3978 210.056 52.2622 210.586C52.1004 211.192 52.0191 211.817 52.0205 212.445V212.445C52.0206 213.072 52.1018 213.697 52.2622 214.304C52.3951 214.839 52.6182 215.348 52.9221 215.809C53.2073 216.211 53.5788 216.545 54.0095 216.785C54.4213 217.023 54.891 217.142 55.3664 217.129H55.3199Z" fill="#212E5A"/>
<path d="M67.5323 220.103C66.4459 220.128 65.3663 219.926 64.363 219.508C63.4706 219.109 62.6558 218.555 61.9559 217.872L63.9448 215.502C64.4607 215.983 65.0429 216.386 65.6735 216.701C66.2506 216.989 66.8876 217.135 67.5323 217.129C68.1964 217.177 68.8557 216.986 69.3911 216.59C69.6177 216.404 69.7973 216.168 69.9152 215.9C70.0331 215.632 70.086 215.339 70.0696 215.047C70.0803 214.754 70.018 214.463 69.8882 214.2C69.7584 213.937 69.5652 213.711 69.326 213.541C68.7603 213.166 68.0897 212.98 67.4115 213.012C66.9604 213.007 66.5107 213.06 66.0731 213.17C65.6762 213.269 65.2877 213.399 64.9114 213.56L63.0526 212.305L63.4801 204.926H72.6998V207.807H66.1847L66.0174 210.419C66.3148 210.344 66.6122 210.289 66.9468 210.233C67.3009 210.185 67.6582 210.163 68.0156 210.168C68.7063 210.164 69.3942 210.254 70.0603 210.437C70.6713 210.61 71.2427 210.901 71.7425 211.292C72.2314 211.69 72.6172 212.2 72.8671 212.779C73.1581 213.463 73.2976 214.202 73.276 214.945C73.2905 215.678 73.1512 216.406 72.8671 217.082C72.6078 217.701 72.2178 218.256 71.7239 218.709C71.1811 219.176 70.5485 219.527 69.8651 219.741C69.1127 219.989 68.3245 220.111 67.5323 220.103V220.103Z" fill="#212E5A"/>
<path d="M83.5552 204.768H86.5851L93.0073 219.852H89.5592L88.1929 216.488H81.8637L80.4882 219.852H77.1331L83.5552 204.768ZM87.0498 213.579L85.0609 208.727L83.0719 213.579H87.0498Z" fill="#212E5A"/>
<path d="M99.4201 220.084C98.5299 220.177 97.6304 220.067 96.7887 219.763C95.947 219.459 95.1849 218.969 94.5593 218.329C93.9337 217.689 93.4608 216.916 93.1759 216.068C92.8911 215.219 92.8016 214.318 92.9142 213.43V204.879H96.2043V213.346C96.127 214.35 96.4325 215.346 97.0594 216.134C97.3655 216.452 97.7366 216.699 98.1473 216.86C98.558 217.02 98.9985 217.09 99.4386 217.064C99.8767 217.083 100.314 217.011 100.722 216.851C101.131 216.691 101.501 216.447 101.809 216.134C102.429 215.379 102.735 214.414 102.664 213.439V204.861H105.954V213.309C105.975 214.319 105.821 215.326 105.498 216.283C105.224 217.075 104.772 217.793 104.179 218.384C103.595 218.96 102.886 219.393 102.106 219.648C101.241 219.939 100.333 220.086 99.4201 220.084V220.084Z" fill="#212E5A"/>
<path d="M117.469 220.103C116.529 220.115 115.598 219.915 114.746 219.518C113.935 219.136 113.218 218.58 112.646 217.891C112.05 217.167 111.596 216.338 111.307 215.447C110.989 214.465 110.832 213.439 110.842 212.408V212.408C110.835 211.376 110.995 210.349 111.316 209.368C111.617 208.474 112.08 207.642 112.683 206.915C113.257 206.222 113.973 205.661 114.783 205.27C115.635 204.861 116.57 204.654 117.516 204.666C118.43 204.651 119.335 204.843 120.165 205.225C120.995 205.608 121.729 206.173 122.311 206.878C122.908 207.606 123.364 208.437 123.659 209.331C123.989 210.31 124.153 211.337 124.142 212.37C124.153 213.403 123.989 214.431 123.659 215.41C123.363 216.308 122.903 217.143 122.302 217.872C121.725 218.565 121.005 219.126 120.192 219.518C119.342 219.919 118.41 220.12 117.469 220.103ZM117.469 217.129C117.942 217.138 118.409 217.016 118.817 216.776C119.221 216.544 119.57 216.227 119.839 215.846C120.142 215.386 120.362 214.877 120.49 214.341C120.641 213.733 120.716 213.108 120.713 212.482C120.716 211.855 120.638 211.23 120.48 210.623C120.341 210.088 120.115 209.58 119.811 209.117C119.538 208.71 119.18 208.368 118.761 208.114C118.356 207.873 117.893 207.748 117.423 207.751C116.95 207.746 116.484 207.868 116.075 208.104C115.666 208.351 115.319 208.688 115.062 209.09C114.763 209.548 114.543 210.054 114.411 210.586C114.25 211.192 114.168 211.817 114.17 212.445C114.17 213.072 114.251 213.697 114.411 214.304C114.54 214.841 114.764 215.351 115.071 215.809C115.34 216.211 115.692 216.55 116.103 216.804C116.534 217.042 117.024 217.154 117.516 217.129H117.469Z" fill="#212E5A"/>
<path d="M129.895 220.066C129.119 220.07 128.346 219.964 127.6 219.75C126.933 219.57 126.304 219.274 125.741 218.876C125.244 218.518 124.831 218.054 124.533 217.519C124.235 216.976 124.085 216.364 124.096 215.744V215.744C124.059 214.962 124.27 214.187 124.7 213.532C125.186 212.91 125.827 212.426 126.559 212.129C126.004 211.806 125.528 211.365 125.165 210.837C124.797 210.244 124.619 209.554 124.653 208.857V208.857C124.648 208.299 124.776 207.748 125.025 207.249C125.281 206.742 125.646 206.298 126.094 205.948C126.588 205.541 127.152 205.227 127.758 205.019C129.161 204.597 130.657 204.597 132.061 205.019C132.664 205.208 133.23 205.5 133.734 205.883C134.184 206.234 134.549 206.682 134.802 207.194C135.052 207.696 135.179 208.25 135.174 208.811V208.811C135.208 209.507 135.03 210.198 134.663 210.79C134.299 211.319 133.823 211.76 133.269 212.082C133.953 212.42 134.558 212.898 135.044 213.486C135.496 214.1 135.723 214.852 135.685 215.614V215.614C135.7 216.261 135.55 216.9 135.249 217.473C134.953 218.015 134.54 218.485 134.04 218.848C133.481 219.251 132.85 219.544 132.182 219.713C131.44 219.938 130.67 220.057 129.895 220.066V220.066ZM129.895 217.343C130.571 217.382 131.242 217.196 131.8 216.813C132.012 216.662 132.184 216.463 132.302 216.231C132.42 216 132.481 215.744 132.479 215.484V215.484C132.488 215.213 132.426 214.944 132.299 214.704C132.172 214.464 131.984 214.262 131.754 214.118C131.184 213.807 130.545 213.644 129.895 213.644C129.246 213.644 128.607 213.807 128.036 214.118C127.807 214.262 127.619 214.464 127.492 214.704C127.364 214.944 127.302 215.213 127.311 215.484C127.312 215.742 127.374 215.996 127.492 216.225C127.61 216.454 127.781 216.653 127.99 216.804C128.545 217.195 129.217 217.385 129.895 217.343V217.343ZM129.895 210.995C130.461 211.022 131.017 210.84 131.457 210.484C131.643 210.321 131.791 210.119 131.89 209.892C131.99 209.666 132.038 209.421 132.033 209.173V209.173C132.031 208.942 131.98 208.715 131.884 208.505C131.788 208.295 131.649 208.108 131.475 207.956C131.261 207.765 131.011 207.62 130.739 207.527C130.468 207.435 130.181 207.397 129.895 207.417C129.321 207.38 128.755 207.566 128.315 207.937C128.142 208.087 128.002 208.273 127.906 208.481C127.81 208.69 127.759 208.916 127.758 209.145V209.145C127.752 209.393 127.801 209.638 127.9 209.865C128 210.091 128.148 210.293 128.334 210.456C128.765 210.831 129.324 211.025 129.895 210.995V210.995Z" fill="#212E5A"/>
<path d="M143.966 220.066C142.946 220.101 141.934 219.87 141.029 219.397C140.282 218.999 139.616 218.463 139.068 217.817L141.141 215.502C141.516 215.931 141.951 216.304 142.433 216.608C142.871 216.869 143.373 217.004 143.883 216.999C144.157 217.013 144.43 216.968 144.685 216.867C144.94 216.766 145.17 216.611 145.36 216.413C145.753 215.877 145.941 215.217 145.89 214.554V204.879H149.32V214.675C149.337 215.465 149.214 216.252 148.957 216.999C148.731 217.625 148.373 218.196 147.907 218.672C147.431 219.139 146.856 219.495 146.225 219.713C145.498 219.96 144.734 220.079 143.966 220.066V220.066Z" fill="#212E5A"/>
<path d="M156.755 220.084C155.892 220.135 155.027 220.013 154.212 219.726C153.396 219.439 152.646 218.992 152.006 218.411C151.391 217.744 150.92 216.958 150.623 216.101C150.325 215.244 150.208 214.334 150.277 213.43V204.879H153.567V213.346C153.49 214.35 153.795 215.346 154.422 216.134C154.726 216.452 155.096 216.699 155.505 216.859C155.914 217.02 156.353 217.089 156.792 217.064C157.232 217.084 157.67 217.011 158.08 216.851C158.49 216.691 158.862 216.447 159.171 216.134C159.791 215.379 160.098 214.414 160.026 213.439V204.861H163.261V213.309C163.282 214.319 163.128 215.326 162.805 216.283C162.531 217.075 162.079 217.793 161.486 218.384C160.901 218.958 160.192 219.391 159.413 219.648C158.556 219.936 157.659 220.083 156.755 220.084V220.084Z" fill="#212E5A"/>
<path d="M164.664 204.879H167.964V219.852H164.664V204.879Z" fill="#212E5A"/>
<path d="M169.562 204.879H172.601L179.618 214.099V204.879H182.871V219.852H180.083L172.834 210.335V219.852H169.581L169.562 204.879Z" fill="#212E5A"/>
<path d="M187.825 218.542L193.262 213.755C195.548 211.701 196.385 210.549 196.385 209.052C196.385 208.662 196.306 208.276 196.153 207.918C195.999 207.559 195.774 207.236 195.492 206.967C195.209 206.699 194.875 206.49 194.509 206.355C194.143 206.22 193.754 206.16 193.364 206.181C191.654 206.181 190.576 207.11 189.349 208.746L188.104 207.816C189.451 205.799 190.892 204.628 193.494 204.628C196.097 204.628 198.141 206.422 198.141 208.857C198.141 211.041 196.979 212.389 194.349 214.675L190.353 218.226H198.29V219.768H187.825V218.542Z" fill="#212E5A"/>
<path d="M198.801 212.407C198.801 208.216 201.301 204.666 205.149 204.666C208.997 204.666 211.441 208.179 211.441 212.37C211.441 216.562 208.959 220.112 205.112 220.112C201.264 220.112 198.801 216.599 198.801 212.407ZM209.684 212.407C209.684 209.136 207.891 206.208 205.112 206.208C202.333 206.208 200.558 209.071 200.558 212.37C200.558 215.642 202.351 218.569 205.149 218.569C207.946 218.569 209.731 215.679 209.731 212.407H209.684Z" fill="#212E5A"/>
<path d="M211.441 218.542L216.869 213.755C219.164 211.701 219.991 210.549 219.991 209.052C219.993 208.663 219.916 208.277 219.763 207.919C219.611 207.56 219.386 207.237 219.105 206.968C218.823 206.699 218.489 206.49 218.124 206.355C217.758 206.22 217.369 206.16 216.98 206.181C215.27 206.181 214.192 207.11 212.956 208.746L211.72 207.816C213.067 205.799 214.508 204.628 217.11 204.628C219.713 204.628 221.757 206.422 221.757 208.857C221.757 211.041 220.605 212.389 217.975 214.675L213.969 218.226H221.906V219.768H211.441V218.542Z" fill="#212E5A"/>
<path d="M222.157 217.426L223.374 216.339C223.879 217.028 224.54 217.589 225.302 217.975C226.064 218.361 226.907 218.561 227.761 218.56C228.169 218.596 228.579 218.548 228.968 218.42C229.356 218.291 229.714 218.085 230.021 217.814C230.327 217.542 230.574 217.212 230.748 216.841C230.922 216.471 231.019 216.069 231.033 215.66V215.66C231.033 213.802 229.295 212.77 226.841 212.77H225.912L225.568 211.766L230.299 206.441H222.984V204.926H232.501V206.162L227.798 211.385C230.41 211.599 232.743 212.863 232.743 215.595V215.642C232.743 218.309 230.512 220.149 227.733 220.149C226.654 220.173 225.585 219.939 224.615 219.465C223.644 218.991 222.802 218.292 222.157 217.426V217.426Z" fill="#212E5A"/>
<path d="M16.4152 227.064H19.0082C20.551 227.064 21.5083 227.938 21.5083 229.267C21.5083 230.745 20.3279 231.516 18.8781 231.516H17.5955V233.626H16.4152V227.064ZM18.9153 230.484C19.7889 230.484 20.3372 230.001 20.3372 229.313C20.3372 228.542 19.7796 228.133 18.9153 228.133H17.5955V230.503L18.9153 230.484Z" fill="#212E5A"/>
<path d="M23.46 227.008H24.5288L27.4285 233.635H26.2017L25.5325 232.046H22.419L21.7406 233.635H20.5602L23.46 227.008ZM25.1143 231.023L23.9711 228.393L22.8466 231.023H25.1143Z" fill="#212E5A"/>
<path d="M27.6145 227.064H28.7669V232.641H32.215V233.691H27.568L27.6145 227.064Z" fill="#212E5A"/>
<path d="M34.8266 227.008H35.9326L38.8323 233.635H37.5684L36.9085 232.046H33.7857L33.1444 233.644H31.9269L34.8266 227.008ZM36.481 231.023L35.3378 228.393L34.2132 231.023H36.481Z" fill="#212E5A"/>
<path d="M39.0461 227.064H40.1985V233.644H39.0461V227.064Z" fill="#212E5A"/>
<path d="M40.5796 232.687L41.2766 231.86C41.8317 232.401 42.574 232.707 43.3492 232.715C44.0648 232.715 44.5203 232.38 44.5203 231.888C44.5203 231.414 44.26 231.163 43.0332 230.884C41.6298 230.54 40.8398 230.131 40.8398 228.914C40.8593 228.642 40.9337 228.376 41.0587 228.134C41.1836 227.891 41.3564 227.677 41.5667 227.503C41.7769 227.329 42.0202 227.2 42.2819 227.123C42.5436 227.046 42.8181 227.023 43.089 227.055C43.9584 227.037 44.8056 227.33 45.4775 227.882L44.8548 228.756C44.3522 228.337 43.7242 228.098 43.0704 228.077C42.3919 228.077 42.0016 228.43 42.0016 228.858C42.0016 229.369 42.299 229.592 43.5723 229.89C44.8455 230.187 45.6727 230.726 45.6727 231.823C45.6727 233.059 44.7433 233.784 43.3213 233.784C42.3018 233.777 41.3225 233.385 40.5796 232.687V232.687Z" fill="#212E5A"/>
<path d="M48.0148 227.064H50.4313C50.8797 227.034 51.3297 227.096 51.7532 227.246C52.1767 227.397 52.5648 227.633 52.8933 227.939C53.2219 228.246 53.4839 228.617 53.6631 229.029C53.8423 229.442 53.9349 229.886 53.9351 230.336V230.336C53.9361 230.786 53.8444 231.232 53.6659 231.646C53.4873 232.06 53.2257 232.433 52.8972 232.741C52.5687 233.05 52.1803 233.287 51.7561 233.439C51.3319 233.592 50.881 233.655 50.4313 233.626H48.0148V227.064ZM49.1766 228.114V232.585H50.4313C50.7311 232.605 51.0317 232.561 51.3137 232.457C51.5956 232.354 51.8527 232.192 52.0682 231.982C52.2837 231.773 52.4528 231.521 52.5647 231.242C52.6766 230.963 52.7287 230.664 52.7176 230.364C52.7299 230.062 52.6788 229.762 52.5676 229.481C52.4564 229.201 52.2876 228.947 52.0721 228.736C51.8566 228.525 51.5993 228.361 51.3166 228.256C51.034 228.15 50.7324 228.105 50.4313 228.124L49.1766 228.114Z" fill="#212E5A"/>
<path d="M54.3905 227.064H59.2699V228.096H55.5523V229.797H58.8517V230.838H55.5523V232.585H59.2699V233.616H54.3441L54.3905 227.064Z" fill="#212E5A"/>
<path d="M59.307 232.687L60.0041 231.86C60.5635 232.4 61.3083 232.706 62.0859 232.715C62.8016 232.715 63.2477 232.38 63.2477 231.888C63.2477 231.414 62.9874 231.163 61.7606 230.884C60.3572 230.54 59.5765 230.131 59.5765 228.914C59.5948 228.642 59.6681 228.377 59.7921 228.135C59.916 227.892 60.088 227.677 60.2975 227.504C60.507 227.33 60.7497 227.2 61.0108 227.123C61.2719 227.046 61.546 227.023 61.8164 227.055C62.689 227.035 63.5398 227.328 64.2143 227.882L63.5916 228.756C63.0846 228.338 62.4541 228.1 61.7978 228.077C61.1286 228.077 60.729 228.43 60.729 228.858C60.729 229.369 61.0264 229.592 62.2997 229.89C63.573 230.187 64.4094 230.726 64.4094 231.823C64.4094 233.059 63.48 233.784 62.058 233.784C61.0353 233.779 60.0523 233.387 59.307 232.687Z" fill="#212E5A"/>
<path d="M66.7051 227.064H71.5937V228.096H67.8761V229.797H71.1755V230.838H67.8668V232.585H71.6402V233.616H66.7051V227.064Z" fill="#212E5A"/>
<path d="M77.6348 227.064L75.3392 230.28L77.7557 233.644H76.3709L74.6236 231.135L72.8949 233.644H71.5751L73.9544 230.299L71.6681 227.064H73.025L74.67 229.453L76.3151 227.064H77.6348Z" fill="#212E5A"/>
<path d="M77.988 227.064H80.5439C82.0867 227.064 83.044 227.938 83.044 229.267C83.044 230.745 81.8636 231.516 80.4138 231.516H79.1405V233.626H77.988V227.064ZM80.4881 230.484C81.3618 230.484 81.9101 230.001 81.9101 229.313C81.9101 228.542 81.3525 228.133 80.4881 228.133H79.1405V230.503L80.4881 230.484Z" fill="#212E5A"/>
<path d="M83.0347 230.373C83.0805 229.491 83.4633 228.66 84.1041 228.051C84.7448 227.443 85.5946 227.104 86.4781 227.104C87.3616 227.104 88.2114 227.443 88.8522 228.051C89.4929 228.66 89.8757 229.491 89.9215 230.373C89.8757 231.255 89.4929 232.086 88.8522 232.695C88.2114 233.303 87.3616 233.642 86.4781 233.642C85.5946 233.642 84.7448 233.303 84.1041 232.695C83.4633 232.086 83.0805 231.255 83.0347 230.373ZM88.704 230.373C88.7165 230.071 88.6679 229.769 88.5611 229.486C88.4542 229.203 88.2914 228.944 88.0823 228.725C87.8731 228.507 87.6221 228.333 87.344 228.213C87.066 228.094 86.7667 228.032 86.4642 228.031C86.164 228.032 85.8672 228.093 85.5914 228.212C85.3156 228.33 85.0666 228.503 84.8592 228.72C84.6518 228.937 84.4903 229.193 84.3844 229.474C84.2785 229.755 84.2304 230.054 84.2429 230.354V230.354C84.2317 230.656 84.2812 230.957 84.3886 231.239C84.4961 231.521 84.6591 231.778 84.8681 231.996C85.0771 232.213 85.3278 232.387 85.6051 232.506C85.8825 232.624 86.181 232.686 86.4828 232.687C86.7828 232.689 87.0801 232.629 87.3564 232.512C87.6328 232.395 87.8824 232.223 88.0902 232.007C88.298 231.79 88.4596 231.534 88.5651 231.253C88.6706 230.972 88.7179 230.673 88.704 230.373V230.373Z" fill="#212E5A"/>
<path d="M89.8844 232.687L90.5815 231.86C91.1409 232.4 91.8857 232.706 92.6633 232.715C93.379 232.715 93.8251 232.38 93.8251 231.888C93.8251 231.414 93.5648 231.163 92.3473 230.884C90.9439 230.54 90.1539 230.131 90.1539 228.914C90.1734 228.642 90.2478 228.376 90.3728 228.134C90.4977 227.891 90.6705 227.677 90.8808 227.503C91.091 227.329 91.3343 227.2 91.596 227.123C91.8577 227.046 92.1322 227.023 92.4031 227.055C93.2725 227.037 94.1197 227.33 94.7916 227.882L94.1689 228.756C93.6645 228.34 93.0376 228.102 92.3845 228.077C91.706 228.077 91.3064 228.43 91.3064 228.858C91.3064 229.369 91.6131 229.592 92.8771 229.89C94.1411 230.187 94.9868 230.726 94.9868 231.823C94.9868 233.059 94.0574 233.784 92.6354 233.784C91.6131 233.778 90.6307 233.386 89.8844 232.687V232.687Z" fill="#212E5A"/>
<path d="M95.4702 227.064H96.6319V233.644H95.4702V227.064Z" fill="#212E5A"/>
<path d="M99.0669 228.133H96.9758V227.064H102.32V228.133H100.229V233.644H99.0669V228.133Z" fill="#212E5A"/>
<path d="M102.664 227.064H103.825V233.644H102.664V227.064Z" fill="#212E5A"/>
<path d="M104.346 230.373C104.342 229.92 104.429 229.472 104.602 229.054C104.775 228.635 105.031 228.256 105.353 227.939C105.676 227.622 106.059 227.372 106.48 227.206C106.901 227.04 107.351 226.96 107.803 226.971C108.253 226.959 108.701 227.037 109.12 227.202C109.538 227.367 109.919 227.615 110.24 227.931C110.56 228.247 110.813 228.625 110.984 229.041C111.155 229.458 111.239 229.904 111.233 230.354C111.187 231.237 110.804 232.068 110.163 232.676C109.523 233.284 108.673 233.623 107.789 233.623C106.906 233.623 106.056 233.284 105.415 232.676C104.775 232.068 104.392 231.237 104.346 230.354V230.373ZM110.025 230.373C110.037 230.071 109.988 229.769 109.882 229.486C109.775 229.203 109.612 228.944 109.403 228.725C109.194 228.507 108.943 228.332 108.665 228.213C108.387 228.094 108.087 228.032 107.785 228.031C107.484 228.03 107.187 228.091 106.91 228.209C106.634 228.327 106.384 228.5 106.177 228.717C105.969 228.934 105.808 229.191 105.702 229.473C105.597 229.754 105.55 230.054 105.563 230.354V230.354C105.552 230.656 105.602 230.957 105.709 231.239C105.817 231.521 105.98 231.778 106.189 231.996C106.398 232.213 106.648 232.387 106.926 232.505C107.203 232.624 107.502 232.686 107.803 232.687C108.103 232.689 108.401 232.629 108.677 232.512C108.953 232.395 109.203 232.223 109.411 232.007C109.619 231.79 109.78 231.534 109.886 231.253C109.991 230.972 110.038 230.673 110.025 230.373V230.373Z" fill="#212E5A"/>
<path d="M111.697 227.064H112.766L116.298 231.618V227.064H117.432V233.644H116.502L112.868 228.997V233.644H111.735L111.697 227.064Z" fill="#212E5A"/>
<path d="M117.72 232.687L118.417 231.86C118.977 232.4 119.721 232.706 120.499 232.715C121.215 232.715 121.661 232.38 121.661 231.888C121.661 231.414 121.4 231.163 120.174 230.884C118.77 230.54 117.98 230.131 117.98 228.914C118 228.642 118.074 228.376 118.199 228.134C118.324 227.891 118.497 227.677 118.707 227.503C118.917 227.329 119.161 227.2 119.422 227.123C119.684 227.046 119.959 227.023 120.229 227.055C121.099 227.033 121.948 227.327 122.618 227.882L122.005 228.756C121.498 228.338 120.867 228.1 120.211 228.077C119.532 228.077 119.142 228.43 119.142 228.858C119.142 229.369 119.439 229.592 120.713 229.89C121.986 230.187 122.822 230.726 122.822 231.823C122.822 233.059 121.893 233.784 120.471 233.784C119.448 233.779 118.465 233.387 117.72 232.687V232.687Z" fill="#212E5A"/>
<path d="M124.7 232.687L125.397 231.86C125.952 232.401 126.694 232.707 127.469 232.715C128.185 232.715 128.64 232.38 128.64 231.888C128.64 231.414 128.38 231.163 127.153 230.884C125.75 230.54 124.96 230.131 124.96 228.914C124.979 228.642 125.054 228.376 125.179 228.134C125.304 227.891 125.477 227.677 125.687 227.503C125.897 227.329 126.14 227.2 126.402 227.123C126.664 227.046 126.938 227.023 127.209 227.055C128.079 227.037 128.926 227.33 129.598 227.882L128.975 228.756C128.472 228.337 127.844 228.098 127.191 228.077C126.512 228.077 126.122 228.43 126.122 228.858C126.122 229.369 126.419 229.592 127.692 229.89C128.966 230.187 129.793 230.726 129.793 231.823C129.793 233.059 128.864 233.784 127.442 233.784C126.422 233.777 125.443 233.385 124.7 232.687V232.687Z" fill="#212E5A"/>
<path d="M132.405 227.008H133.52L136.42 233.635H135.193L134.524 232.046H131.41L130.732 233.635H129.551L132.405 227.008ZM134.068 231.023L132.925 228.393L131.8 231.023H134.068Z" fill="#212E5A"/>
<path d="M136.568 227.064H141.466V228.114H137.749V229.917H141.067V230.968H137.749V233.644H136.596L136.568 227.064Z" fill="#212E5A"/>
<path d="M141.792 227.064H146.671V228.096H142.953V229.797H146.253V230.838H142.953V232.585H146.671V233.616H141.745L141.792 227.064Z" fill="#212E5A"/>
<path d="M152.721 227.064L150.426 230.28L152.814 233.644H151.448L149.71 231.135L147.981 233.644H146.652L149.032 230.299L146.745 227.064H148.111L149.747 229.453L151.392 227.064H152.721Z" fill="#212E5A"/>
<path d="M156.448 231.739C156.263 231.741 156.079 231.703 155.909 231.628C155.741 231.565 155.589 231.467 155.463 231.339C155.334 231.211 155.23 231.06 155.156 230.893C155.084 230.72 155.049 230.533 155.054 230.345V230.345C155.05 230.16 155.084 229.976 155.156 229.806C155.225 229.637 155.33 229.485 155.463 229.36C155.589 229.23 155.741 229.128 155.909 229.062C156.08 228.99 156.263 228.956 156.448 228.96C156.636 228.955 156.823 228.99 156.997 229.062C157.163 229.133 157.314 229.234 157.443 229.36C157.57 229.488 157.671 229.639 157.74 229.806C157.815 229.976 157.853 230.159 157.852 230.345C157.853 230.534 157.815 230.72 157.74 230.893C157.666 231.057 157.566 231.208 157.443 231.339C157.314 231.463 157.162 231.561 156.997 231.628C156.824 231.703 156.637 231.741 156.448 231.739V231.739Z" fill="#212E5A"/>
<path d="M162.787 227.008H164.125L166.913 233.635H165.408L164.804 232.167H162.015L161.421 233.635H159.943L162.787 227.008ZM164.311 230.884L163.437 228.746L162.564 230.884H164.311Z" fill="#212E5A"/>
<path d="M167.025 227.064H168.465V232.343H171.746V233.644H167.025V227.064Z" fill="#212E5A"/>
<path d="M175.073 233.765C174.59 233.769 174.111 233.68 173.661 233.505C173.254 233.346 172.884 233.106 172.573 232.799C172.264 232.497 172.023 232.132 171.867 231.73C171.689 231.3 171.601 230.838 171.607 230.373V230.373C171.602 229.92 171.691 229.471 171.867 229.053C172.022 228.64 172.256 228.262 172.555 227.938C172.867 227.622 173.24 227.372 173.651 227.204C174.09 227.022 174.561 226.93 175.036 226.934C175.304 226.931 175.572 226.952 175.836 226.999C176.064 227.033 176.288 227.089 176.505 227.166C176.71 227.24 176.907 227.336 177.09 227.455C177.276 227.568 177.453 227.695 177.62 227.836L176.691 228.942C176.57 228.837 176.443 228.741 176.31 228.653C176.188 228.571 176.057 228.502 175.919 228.449C175.779 228.389 175.633 228.345 175.482 228.319C175.31 228.299 175.135 228.299 174.962 228.319C174.709 228.319 174.459 228.373 174.228 228.477C174.001 228.587 173.796 228.738 173.624 228.923C173.45 229.112 173.315 229.333 173.224 229.574C173.122 229.828 173.072 230.099 173.075 230.373V230.373C173.072 230.659 173.122 230.942 173.224 231.209C173.314 231.455 173.453 231.679 173.633 231.869C173.813 232.055 174.028 232.203 174.265 232.306C174.521 232.413 174.796 232.466 175.073 232.464C175.557 232.483 176.034 232.343 176.43 232.064V231.135H174.981V229.89H177.834V232.743C177.47 233.049 177.063 233.299 176.626 233.486C176.132 233.682 175.604 233.777 175.073 233.765V233.765Z" fill="#212E5A"/>
<path d="M178.336 227.064H183.289V228.356H179.758V229.685H182.862V230.977H179.758V232.362H183.336V233.644H178.336V227.064Z" fill="#212E5A"/>
<path d="M183.708 227.064H186.719C187.068 227.041 187.418 227.088 187.749 227.203C188.08 227.318 188.384 227.498 188.643 227.733C188.833 227.933 188.98 228.17 189.076 228.429C189.172 228.688 189.214 228.963 189.2 229.239V229.239C189.221 229.704 189.083 230.163 188.81 230.54C188.549 230.88 188.193 231.136 187.788 231.274L189.405 233.626H187.704L186.301 231.525H185.157V233.626H183.708V227.064ZM186.626 230.261C186.92 230.281 187.211 230.192 187.444 230.01C187.539 229.926 187.615 229.821 187.665 229.704C187.715 229.586 187.738 229.459 187.732 229.332V229.332C187.743 229.199 187.722 229.065 187.67 228.942C187.618 228.819 187.537 228.711 187.434 228.626C187.189 228.457 186.895 228.376 186.598 228.393H185.157V230.252L186.626 230.261Z" fill="#212E5A"/>
<path d="M193.002 231.739C192.813 231.741 192.626 231.703 192.453 231.628C192.288 231.561 192.136 231.463 192.007 231.339C191.878 231.213 191.777 231.061 191.71 230.893C191.635 230.72 191.597 230.534 191.598 230.345V230.345C191.597 230.159 191.635 229.976 191.71 229.806C191.772 229.636 191.874 229.483 192.007 229.36C192.136 229.234 192.287 229.133 192.453 229.062C192.627 228.99 192.814 228.955 193.002 228.96C193.189 228.956 193.376 228.991 193.55 229.062C193.714 229.131 193.863 229.232 193.987 229.36C194.117 229.485 194.218 229.638 194.284 229.806C194.367 229.974 194.408 230.158 194.405 230.345V230.345C194.408 230.535 194.367 230.722 194.284 230.893C194.214 231.059 194.113 231.211 193.987 231.339C193.862 231.464 193.714 231.563 193.55 231.628C193.377 231.702 193.19 231.74 193.002 231.739V231.739Z" fill="#212E5A"/>
<path d="M199.507 227.008H200.586L203.476 233.635H202.258L201.589 232.046H198.476L197.797 233.635H196.608L199.507 227.008ZM201.162 231.023L200.028 228.393L198.894 231.023H201.162Z" fill="#212E5A"/>
<path d="M203.615 227.064H204.777V232.641H208.235V233.691H203.588L203.615 227.064Z" fill="#212E5A"/>
<path d="M207.872 230.373C207.866 229.924 207.949 229.479 208.118 229.064C208.287 228.648 208.537 228.271 208.854 227.954C209.172 227.637 209.549 227.386 209.965 227.217C210.38 227.049 210.825 226.965 211.274 226.971C212.206 226.937 213.114 227.271 213.802 227.901L213.067 228.774C212.82 228.539 212.528 228.355 212.209 228.234C211.89 228.112 211.55 228.056 211.209 228.068C210.915 228.079 210.627 228.148 210.36 228.27C210.094 228.393 209.854 228.568 209.655 228.784C209.456 229 209.302 229.253 209.202 229.529C209.102 229.805 209.057 230.098 209.071 230.391V230.391C209.049 230.696 209.091 231.003 209.194 231.291C209.297 231.578 209.46 231.842 209.67 232.063C209.881 232.284 210.136 232.459 210.419 232.576C210.701 232.693 211.005 232.75 211.311 232.743C211.879 232.749 212.435 232.577 212.9 232.25V231.014H211.218V230.01H214.006V232.799C213.235 233.474 212.243 233.841 211.218 233.83C210.766 233.841 210.317 233.759 209.898 233.587C209.48 233.416 209.102 233.16 208.787 232.835C208.473 232.51 208.229 232.123 208.072 231.7C207.914 231.276 207.846 230.824 207.872 230.373Z" fill="#212E5A"/>
<path d="M214.554 227.064H219.434V228.096H215.716V229.797H219.025V230.838H215.716V232.585H219.49V233.617H214.564L214.554 227.064ZM217.603 225.15L218.635 225.605L217.436 226.534H216.506L217.603 225.15Z" fill="#212E5A"/>
<path d="M219.954 227.064H222.882C223.563 227.038 224.229 227.274 224.741 227.724C225.104 228.107 225.301 228.618 225.289 229.146V229.146C225.303 229.608 225.155 230.06 224.869 230.424C224.584 230.788 224.18 231.039 223.728 231.135L225.503 233.626H224.137L222.519 231.33H221.07V233.626H219.954V227.064ZM222.798 230.326C223.625 230.326 224.155 229.89 224.155 229.23C224.155 228.523 223.644 228.133 222.789 228.133H221.07V230.345L222.798 230.326Z" fill="#212E5A"/>
<path d="M225.837 227.064H226.99V233.644H225.837V227.064Z" fill="#212E5A"/>
<path d="M227.808 227.064H232.696V228.096H228.979V229.797H232.278V230.838H228.97V232.585H232.743V233.616H227.808V227.064Z" fill="#212E5A"/>
</g>
<defs>
<clipPath id="clip0_3_2">
<rect width="250" height="248.717" fill="white" transform="translate(-0.5 -0.5)"/>
</clipPath>
</defs>
</svg>
