<svg width="17" height="17" viewBox="0 0 17 17" fill="none" xmlns="http://www.w3.org/2000/svg">
<path d="M8.75002 0C10.9227 0 11.1951 0.00978483 12.0484 0.0511511C12.8999 0.0924161 13.4814 0.236118 13.9903 0.446256C14.5164 0.663445 14.9625 0.954089 15.4073 1.42663C15.852 1.8992 16.1256 2.37323 16.33 2.93218C16.5278 3.47284 16.663 4.09073 16.7019 4.99546C16.7408 5.90208 16.75 6.19154 16.75 8.50002C16.75 10.8085 16.7408 11.0979 16.7019 12.0045C16.663 12.9093 16.5278 13.5272 16.33 14.0678C16.1256 14.6268 15.852 15.1008 15.4073 15.5734C14.9625 16.0459 14.5164 16.3366 13.9903 16.5538C13.4814 16.7639 12.8999 16.9076 12.0484 16.9488C11.1951 16.9902 10.9227 17 8.75002 17C6.57733 17 6.30489 16.9902 5.45161 16.9488C4.6001 16.9076 4.01855 16.7639 3.5097 16.5538C2.98363 16.3366 2.53748 16.0459 2.09271 15.5734C1.64797 15.1008 1.37442 14.6268 1.17001 14.0678C0.972229 13.5272 0.83698 12.9093 0.798142 12.0045C0.759209 11.0979 0.75 10.8085 0.75 8.50002C0.75 6.19154 0.759209 5.90208 0.798142 4.99546C0.83698 4.09073 0.972229 3.47284 1.17001 2.93218C1.37442 2.37323 1.64797 1.8992 2.09271 1.42663C2.53748 0.954089 2.98363 0.663445 3.5097 0.446256C4.01855 0.236118 4.6001 0.0924161 5.45161 0.0511511C6.30489 0.00978483 6.57733 0 8.75002 0ZM8.75002 1.53153C6.61391 1.53153 6.36088 1.5402 5.51731 1.58109C4.73732 1.61888 4.31373 1.75736 4.03183 1.87376C3.65841 2.02796 3.39191 2.21215 3.11198 2.50961C2.83202 2.80703 2.65867 3.09019 2.51354 3.48694C2.40398 3.78646 2.27366 4.23653 2.23809 5.06527C2.1996 5.96156 2.19144 6.23041 2.19144 8.50002C2.19144 10.7696 2.1996 11.0384 2.23809 11.9347C2.27366 12.7635 2.40398 13.2135 2.51354 13.5131C2.65867 13.9098 2.83205 14.193 3.11198 14.4904C3.39191 14.7879 3.65841 14.972 4.03183 15.1262C4.31373 15.2426 4.73732 15.3811 5.51731 15.4189C6.36079 15.4598 6.61375 15.4685 8.75002 15.4685C10.8862 15.4685 11.1392 15.4598 11.9827 15.4189C12.7627 15.3811 13.1863 15.2426 13.4682 15.1262C13.8416 14.972 14.1081 14.7879 14.388 14.4904C14.668 14.193 14.8413 13.9098 14.9865 13.5131C15.096 13.2135 15.2263 12.7635 15.2619 11.9347C15.3004 11.0384 15.3086 10.7696 15.3086 8.50002C15.3086 6.23041 15.3004 5.96156 15.2619 5.06527C15.2263 4.23653 15.096 3.78646 14.9865 3.48694C14.8413 3.09019 14.668 2.80703 14.388 2.50961C14.1081 2.21215 13.8416 2.02796 13.4682 1.87376C13.1863 1.75736 12.7627 1.61888 11.9827 1.58109C11.1391 1.5402 10.8861 1.53153 8.75002 1.53153ZM8.75002 4.13514C11.0189 4.13514 12.8581 6.08934 12.8581 8.50002C12.8581 10.9107 11.0189 12.8649 8.75002 12.8649C6.48114 12.8649 4.64189 10.9107 4.64189 8.50002C4.64189 6.08934 6.48114 4.13514 8.75002 4.13514ZM8.75002 11.3333C10.2228 11.3333 11.4167 10.0648 11.4167 8.50002C11.4167 6.93519 10.2228 5.66667 8.75002 5.66667C7.27723 5.66667 6.08333 6.93519 6.08333 8.50002C6.08333 10.0648 7.27723 11.3333 8.75002 11.3333ZM13.9804 3.96269C13.9804 4.52603 13.5506 4.98267 13.0204 4.98267C12.4902 4.98267 12.0604 4.52603 12.0604 3.96269C12.0604 3.39935 12.4902 2.94267 13.0204 2.94267C13.5506 2.94267 13.9804 3.39935 13.9804 3.96269Z" fill="#212E5A"/>
</svg>
