<svg width="18" height="11" viewBox="0 0 18 11" fill="none" xmlns="http://www.w3.org/2000/svg">
<g clip-path="url(#clip0_9_12)">
<path fill-rule="evenodd" clip-rule="evenodd" d="M16.8619 5.4072L11.9327 1.13196C11.7067 0.935777 11.3652 0.961494 11.1706 1.18809C10.9752 1.41504 10.9997 1.75783 11.2257 1.95402L15.0041 5.23057H1.5408C1.24264 5.23057 1 5.47346 1 5.77354C1 6.07361 1.24264 6.31647 1.5408 6.31647H15.14L12.9866 8.24613L11.3043 9.58182C11.0703 9.76788 11.03 10.1092 11.2156 10.3445C11.3224 10.4799 11.4803 10.5501 11.6403 10.5501C11.7579 10.5501 11.8761 10.5124 11.9753 10.4332L13.682 9.07651L16.8684 6.22272C16.9845 6.11884 17.0501 5.9697 17.0494 5.81333C17.0479 5.65732 16.9798 5.50928 16.8619 5.4072Z" fill="#212E5A" stroke="#212E5A" stroke-width="0.5"/>
</g>
<defs>
<clipPath id="clip0_9_12">
<rect width="18" height="11" fill="white"/>
</clipPath>
</defs>
</svg>
