<svg width="15" height="15" viewBox="0 0 15 15" fill="none" xmlns="http://www.w3.org/2000/svg">
<path d="M14.75 15H11.6558V9.7269C11.6558 8.34667 11.1718 7.40443 10.1075 7.40443C9.29339 7.40443 8.84066 8.04028 8.62994 8.65307C8.55092 8.87302 8.56326 9.17942 8.56326 9.48582V15H5.49788C5.49788 15 5.53739 5.65922 5.49788 4.81014H8.56326V6.40936C8.74436 5.71012 9.72389 4.71217 11.287 4.71217C13.2264 4.71217 14.75 6.17788 14.75 9.33406V15ZM2.39793 3.53557H2.37818C1.3904 3.53557 0.75 2.75661 0.75 1.76923C0.75 0.76263 1.40934 0 2.41686 0C3.42357 0 4.04257 0.760709 4.06232 1.76634C4.06232 2.75373 3.42357 3.53557 2.39793 3.53557ZM1.10313 4.81014H3.83184V15H1.10313V4.81014Z" fill="#212E5A"/>
</svg>
