<svg width="20" height="15" viewBox="0 0 20 15" fill="none" xmlns="http://www.w3.org/2000/svg">
<path d="M8.28825 10.2661L8.28766 4.274L13.4212 7.2804L8.28825 10.2661ZM19.56 3.23566C19.56 3.23566 19.3742 1.76612 18.8048 1.11899C18.0822 0.26925 17.2723 0.265251 16.9012 0.215933C14.2424 3.61932e-08 10.2542 0 10.2542 0H10.2458C10.2458 0 6.25763 3.61932e-08 3.59881 0.215933C3.22713 0.265251 2.41784 0.26925 1.69466 1.11899C1.12525 1.76612 0.94 3.23566 0.94 3.23566C0.94 3.23566 0.75 4.96179 0.75 6.68725V8.30542C0.75 10.0315 0.94 11.757 0.94 11.757C0.94 11.757 1.12525 13.2266 1.69466 13.8737C2.41784 14.7234 3.36725 14.6968 3.79 14.7854C5.31 14.9493 10.25 15 10.25 15C10.25 15 14.2424 14.9933 16.9012 14.7774C17.2723 14.7274 18.0822 14.7234 18.8048 13.8737C19.3742 13.2266 19.56 11.757 19.56 11.757C19.56 11.757 19.75 10.0315 19.75 8.30542V6.68725C19.75 4.96179 19.56 3.23566 19.56 3.23566Z" fill="#212E5A"/>
</svg>
