<svg xmlns="http://www.w3.org/2000/svg" xmlns:xlink="http://www.w3.org/1999/xlink" width="53" height="59" viewBox="0 0 53 59">
  <defs>
    <polygon id="icon-check-a" points=".812 .554 23.812 .554 23.812 16.434 .812 16.434"/>
    <path id="icon-check-c" d="M-10.6931581,13.6693254 C-10.5024255,13.8794978 -10.2343237,13.9993149 -9.95324373,14 L-9.95324373,14 C-9.68113083,13.9990732 -9.42088277,13.8864813 -9.23137604,13.6876962 C-9.02112255,13.4963116 -8.90263822,13.2215835 -8.90653559,12.9344929 C-8.94474202,0.158398472 0.9657556,-10.3524767 13.507456,-10.8373373 C14.1566348,-10.8005673 14.8073199,-10.8005673 15.4564987,-10.8373373 C27.9841841,-10.3529736 37.889234,0.135887224 37.8704903,12.8977513 C37.8677973,13.186258 37.9782139,13.4639515 38.1772841,13.6693254 C38.3704966,13.8759285 38.6370213,13.9950408 38.9171985,14 C39.1998707,13.9988217 39.4712655,13.8869985 39.6751595,13.6876962 C39.8718314,13.4865873 39.9876729,13.2179872 40,12.9344929 C39.9739576,1.33705353 32.4296248,-8.85032253 21.4840939,-12.0681817 L20.9246465,-12.233519 L21.4480005,-12.4907104 C28.0457683,-15.7815383 31.5421837,-23.2697676 29.8829346,-30.5557037 C28.2236854,-37.8416397 21.8472224,-43 14.5000241,-43 C7.15282569,-43 0.776362688,-37.8416397 -0.88288643,-30.5557037 C-2.54213555,-23.2697676 0.954279827,-15.7815383 7.55204761,-12.4907104 L8.07540168,-12.233519 L7.51595422,-12.0681817 C-3.42036682,-8.85945123 -10.9639014,1.31187806 -11,12.8977513 C-11.0026449,13.186258 -10.8922283,13.4639515 -10.6931581,13.6693254 Z M0.883495146,-26.6244297 C0.882772598,-34.1704266 6.78327714,-40.3378994 14.1753922,-40.5177184 C21.5675072,-40.6975374 27.7492547,-34.823975 28.1008371,-27.286513 C28.4524195,-19.749051 22.8453259,-13.302795 15.4698984,-12.7652174 C14.7872834,-12.7652174 14.1765227,-12.7652174 13.565762,-12.7652174 C6.43463668,-13.2835862 0.903055281,-19.3285119 0.883495146,-26.6244297 L0.883495146,-26.6244297 Z"/>
  </defs>
  <g fill="none" fill-rule="evenodd" transform="translate(12 44)">
    <mask id="icon-check-b" fill="#fff">
      <use xlink:href="#icon-check-a"/>
    </mask>
    <path fill="#F07A70" d="M10.1601562,14.6518229 L4.34140625,8.83307292 C3.88619792,8.37786458 3.88619792,7.66536458 4.34140625,7.21015625 C4.79661458,6.75494792 5.50911458,6.75494792 5.96432292,7.21015625 L10.9716146,12.2174479 L20.8474583,2.34140625 C21.3028646,1.88619792 22.0153646,1.88619792 22.4705729,2.34140625 C22.9255833,2.79661458 22.9255833,3.50911458 22.4705729,3.96432292 L11.7830729,14.6518229 C11.5653646,14.8695312 11.2684896,14.9882812 10.9716146,14.9882812 C10.6747396,14.9882812 10.3778646,14.8695312 10.1601562,14.6518229 Z" mask="url(#icon-check-b)"/>
    <use fill="#F07A70" fill-rule="nonzero" stroke="#F07A70" xlink:href="#icon-check-c"/>
  </g>
</svg>
