<svg xmlns="http://www.w3.org/2000/svg" xmlns:xlink="http://www.w3.org/1999/xlink" width="53" height="62" viewBox="0 0 53 62">
  <defs>
    <polygon id="icon-pro-a" points="0 .956 17 .956 17 27.519 0 27.519"/>
  </defs>
  <g fill="none" fill-rule="evenodd" transform="translate(1 1)">
    <path fill="#F07A70" fill-rule="nonzero" stroke="#F07A70" d="M0.306841897,56.6693254 C0.497574491,56.8794978 0.765676279,56.9993149 1.04675627,57 L1.04675627,57 C1.31886917,56.9990732 1.57911723,56.8864813 1.76862396,56.6876962 C1.97887745,56.4963116 2.09736178,56.2215835 2.09346441,55.9344929 C2.05525798,43.1583985 11.9657556,32.6475233 24.507456,32.1626627 C25.1566348,32.1994327 25.8073199,32.1994327 26.4564987,32.1626627 C38.9841841,32.6470264 48.889234,43.1358872 48.8704903,55.8977513 C48.8677973,56.186258 48.9782139,56.4639515 49.1772841,56.6693254 C49.3704966,56.8759285 49.6370213,56.9950408 49.9171985,57 C50.1998707,56.9988217 50.4712655,56.8869985 50.6751595,56.6876962 C50.8718314,56.4865873 50.9876729,56.2179872 51,55.9344929 C50.9739576,44.3370535 43.4296248,34.1496775 32.4840939,30.9318183 L31.9246465,30.766481 L32.4480005,30.5092896 C39.0457683,27.2184617 42.5421837,19.7302324 40.8829346,12.4442963 C39.2236854,5.15836032 32.8472224,0 25.5000241,0 C18.1528257,0 11.7763627,5.15836032 10.1171136,12.4442963 C8.45786445,19.7302324 11.9542798,27.2184617 18.5520476,30.5092896 L19.0754017,30.766481 L18.5159542,30.9318183 C7.57963318,34.1405488 0.0360986381,44.3118781 0,55.8977513 C-0.0026449363,56.186258 0.107771726,56.4639515 0.306841897,56.6693254 Z M11.8834951,16.3755703 C11.8827726,8.82957341 17.7832771,2.66210062 25.1753922,2.48228159 C32.5675072,2.30246255 38.7492547,8.17602503 39.1008371,15.713487 C39.4524195,23.250949 33.8453259,29.697205 26.4698984,30.2347826 C25.7872834,30.2347826 25.1765227,30.2347826 24.565762,30.2347826 C17.4346367,29.7164138 11.9030553,23.6714881 11.8834951,16.3755703 L11.8834951,16.3755703 Z"/>
    <g transform="translate(15 35)">
      <mask id="icon-pro-b" fill="#fff">
        <use xlink:href="#icon-pro-a"/>
      </mask>
      <path fill="#F07A70" stroke="#F07A70" stroke-width=".5" d="M10.0839423,23.481299 L6.94548077,19.4601452 L9.20125,7.61735673 L10.9666346,7.61735673 L13.2224038,19.4601452 L10.0839423,23.481299 Z M8.46567308,3.71879904 C8.49019231,3.69427981 8.51471154,3.69427981 8.53923077,3.69427981 L11.6531731,3.69427981 C11.6531731,3.69427981 11.6776923,3.69427981 11.7022115,3.71879904 C11.7267308,3.74331827 11.7267308,3.7678375 11.7022115,3.7678375 L11.0401923,5.97456827 L9.12769231,5.97456827 L8.46567308,3.7678375 L8.46567308,3.71879904 Z M14.8406731,19.3865875 L12.4623077,6.85726058 L13.2469231,4.25822212 C13.3940385,3.74331827 13.2959615,3.20389519 12.9772115,2.78706827 C12.6584615,2.37024135 12.1680769,2.12504904 11.6286538,2.12504904 L8.53923077,2.12504904 C7.99980769,2.12504904 7.50942308,2.37024135 7.19067308,2.78706827 C6.87192308,3.20389519 6.77384615,3.74331827 6.92096154,4.25822212 L7.70557692,6.85726058 L5.32721154,19.3865875 C5.27817308,19.7053375 5.35173077,20.0238423 5.54788462,20.2690346 L9.22576923,24.9769721 C9.44644231,25.2466837 9.76519231,25.393799 10.0839423,25.393799 C10.4272115,25.393799 10.7459615,25.2466837 10.9421154,24.9769721 L14.62,20.2690346 C14.8161538,20.0238423 14.9142308,19.6808183 14.8406731,19.3865875 L14.8406731,19.3865875 Z" mask="url(#icon-pro-b)"/>
    </g>
  </g>
</svg>
