<svg xmlns="http://www.w3.org/2000/svg" xmlns:xlink="http://www.w3.org/1999/xlink" width="54" height="59" viewBox="0 0 54 59">
  <defs>
    <polygon id="icon-stand-a" points="0 0 53.877 0 53.877 58.22 0 58.22"/>
  </defs>
  <g fill="none" fill-rule="evenodd">
    <mask id="icon-stand-b" fill="#fff">
      <use xlink:href="#icon-stand-a"/>
    </mask>
    <path fill="#F07A70" stroke="#F07A70" d="M52.1162217,18.3224348 C52.1162217,20.439 50.1739826,22.1617174 47.7862435,22.1617174 C45.3979174,22.1617174 43.4539174,20.439 43.4539174,18.3224348 C43.4539174,18.2954348 43.4480478,18.2707826 43.446287,18.2449565 L43.4503957,18.2443696 L43.2478957,15.9593478 L52.1156348,15.9593478 L52.1156348,18.3224348 L52.1162217,18.3224348 Z M45.7272,34.6967609 L8.13556957,34.6967609 L6.67111304,23.8873696 C8.6333087,23.7153913 10.330787,22.6946739 11.3045478,21.2196522 C12.3739826,22.8384783 14.3091783,23.922 16.5161348,23.922 C18.7225043,23.922 20.6588739,22.8378913 21.7283087,21.2196522 C22.7965696,22.8384783 24.7335261,23.922 26.9393087,23.922 C29.1462652,23.922 31.0826348,22.8378913 32.1508957,21.2196522 C33.2209174,22.8384783 35.1567,23.922 37.3624826,23.922 C39.5694391,23.922 41.5063957,22.8378913 42.5740696,21.2196522 C43.5460696,22.6905652 45.2370913,23.7106957 47.1928304,23.8861957 L45.7272,34.6967609 Z M8.47306957,52.5807391 L45.390287,52.5807391 L45.390287,36.4576304 L8.47306957,36.4576304 L8.47306957,52.5807391 Z M1.76122174,18.3224348 L1.76122174,15.9599348 L10.6301348,15.9599348 L10.4276348,18.2449565 L10.4317435,18.2455435 C10.4299826,18.2713696 10.4235261,18.2960217 10.4235261,18.3230217 C10.4235261,20.439587 8.4807,22.1623043 6.09296087,22.1623043 C3.70463478,22.1617174 1.76122174,20.439 1.76122174,18.3224348 L1.76122174,18.3224348 Z M7.01213478,1.76086957 L11.8897435,1.76086957 L10.7862652,14.1984783 L2.16856957,14.1984783 L7.01213478,1.76086957 Z M12.3986348,15.9593478 L20.9165478,15.9593478 L20.8484609,18.2960217 L20.8502217,18.2960217 C20.8496348,18.305413 20.8478739,18.3130435 20.8478739,18.3218478 C20.8478739,20.438413 18.9044609,22.1611304 16.5161348,22.1611304 C14.136613,22.1611304 12.2014174,20.4513261 12.1867435,18.3453261 L12.3986348,15.9593478 Z M13.6576565,1.76086957 L21.3362217,1.76086957 L20.968787,14.1984783 L12.5541783,14.1984783 L13.6576565,1.76086957 Z M22.6774174,15.9593478 L31.2000261,15.9593478 L31.2698739,18.3241957 C31.2687,20.439587 29.3258739,22.1611304 26.9387217,22.1611304 C24.5515696,22.1611304 22.6093304,20.439587 22.6081565,18.3241957 L22.6774174,15.9593478 Z M23.0976783,1.76086957 L30.7791783,1.76086957 L31.1472,14.1984783 L22.7302435,14.1984783 L23.0976783,1.76086957 Z M40.2192,1.76086957 L41.3244391,14.1984783 L32.9092435,14.1984783 L32.5400478,1.76086957 L40.2192,1.76086957 Z M41.6918739,18.345913 C41.677787,20.451913 39.7408304,22.1617174 37.3618957,22.1617174 C34.9747435,22.1617174 33.0307435,20.439 33.0307435,18.3224348 C33.0307435,18.3130435 33.0283957,18.305413 33.0283957,18.2960217 L33.0307435,18.2960217 L32.9608957,15.9599348 L41.4805696,15.9599348 L41.6918739,18.345913 Z M46.8518087,1.76086957 L51.708287,14.1984783 L43.0911783,14.1984783 L41.9859391,1.76086957 L46.8518087,1.76086957 Z M53.8172217,14.7584348 L48.2734174,0.559956522 C48.1419391,0.222456522 47.8167652,-4.97379915e-14 47.4534391,-4.97379915e-14 L6.40991739,-4.97379915e-14 C6.04717826,-4.97379915e-14 5.72141739,0.223043478 5.58993913,0.561130435 L0.0602217391,14.7596087 C0.0214826087,14.8611522 -0.000234782609,14.9691522 -0.000234782609,15.078913 L-0.000234782609,18.3218478 C-0.000234782609,21.0288913 2.10165652,23.2933696 4.88324348,23.8104783 L6.71161304,37.2993261 L6.71161304,53.460587 C6.71161304,53.5087174 6.71806957,53.5556739 6.72511304,53.6020435 L6.71161304,53.6020435 L6.71161304,58.2202174 L8.47248261,58.2202174 L8.47248261,54.3410217 L45.3897,54.3410217 L45.3897,58.2202174 L47.1505696,58.2202174 L47.1505696,53.6020435 L47.1376565,53.6020435 C47.144113,53.5556739 47.1505696,53.5087174 47.1505696,53.460587 L47.1505696,37.299913 L48.9777652,23.8128261 C51.7681565,23.301587 53.8765169,21.0347609 53.8765169,18.3224348 L53.8765169,15.0795 C53.8770913,14.9697391 53.8571348,14.8605652 53.8172217,14.7584348 L53.8172217,14.7584348 Z" mask="url(#icon-stand-b)"/>
  </g>
</svg>
