<svg xmlns="http://www.w3.org/2000/svg" xmlns:xlink="http://www.w3.org/1999/xlink" width="58" height="62" viewBox="0 0 58 62">
  <defs>
    <polygon id="icon-sector-a" points="0 0 57.958 0 57.958 61.036 0 61.036"/>
  </defs>
  <g fill="none" fill-rule="evenodd">
    <mask id="icon-sector-b" fill="#fff">
      <use xlink:href="#icon-sector-a"/>
    </mask>
    <path fill="#F07A70" d="M28.2357401,57.7801235 C14.4476534,57.7801235 3.26642599,46.598896 3.26642599,32.8108094 C3.26642599,19.1064773 14.3115523,7.97759639 27.9740072,7.84149531 L27.9740072,33.5331921 L32.6956679,31.1671271 L50.7971119,22.1007011 C52.3465704,25.3461884 53.2050615,28.9790404 53.2050615,32.8108094 C53.2155235,46.598896 42.034296,57.7801235 28.2357401,57.7801235 M53.7180505,20.6349971 L55.0371841,19.9754303 L57.9581227,18.5097264 L56.4924188,15.5887877 C54.1787004,10.9822895 50.6505415,7.08770469 46.2743682,4.33427509 C41.7830325,1.50756029 36.5797834,-2.09386282e-05 31.2404332,-2.09386282e-05 L27.9740072,-2.09386282e-05 L27.9740072,4.5646 C24.2574007,4.59600794 20.6454874,5.33932924 17.2429603,6.78409458 C13.8823105,8.2079213 10.8566787,10.2389682 8.27075812,12.8353581 C5.67436823,15.431748 3.6433213,18.4469105 2.21949458,21.8075603 C0.7433213,25.2938419 0,28.9895097 0,32.8003401 C0,36.6111704 0.7433213,40.3068383 2.21949458,43.7931199 C3.6433213,47.1537697 5.67436823,50.1794014 8.27075812,52.7654267 C10.867148,55.3617119 13.8823105,57.3927588 17.2429603,58.8165856 C20.7292419,60.2927588 24.4249097,61.0361848 28.2357401,61.0361848 C32.0465704,61.0361848 35.7422383,60.2927588 39.2285199,58.8165856 C42.5891697,57.3927588 45.6148014,55.3617119 48.200722,52.7654267 C50.7866426,50.1689321 52.8281588,47.1537697 54.2519856,43.7931199 C55.7281588,40.3068383 56.4714801,36.6111704 56.4714801,32.8003401 C56.4714801,30.5703762 56.2097473,28.3508816 55.6967509,26.2046722 C55.2361011,24.2887877 54.5765343,22.4147805 53.7180505,20.6349971" mask="url(#icon-sector-b)"/>
  </g>
</svg>
