<svg width="250" height="120" viewBox="0 0 250 120" fill="none" xmlns="http://www.w3.org/2000/svg">
<rect width="250" height="120" fill="#212E5A"/>
<path d="M63 24H74.9842C84.1277 24 90.9827 30.8125 90.9827 40.5613C90.9827 50.3101 84.1277 57.112 74.9842 57.112H63V24ZM74.7506 51.0801C81.048 51.0801 84.3083 46.7897 84.3083 40.5401C84.3083 34.2904 81.048 30.032 74.7506 30.032H69.3877V51.1119L74.7506 51.0801Z" fill="white"/>
<path d="M97.6093 44.9897C97.6093 36.5949 103.625 32.4001 109.291 32.4001C113.629 32.4001 116.427 34.7789 117.033 36.117H117.176V32.8515H123.426V57.112H117.155V53.8464H117.011C116.406 55.1951 113.608 57.5633 109.27 57.5633C103.625 57.5845 97.6093 53.3951 97.6093 44.9897ZM110.528 51.988C114.027 51.988 117.293 49.5614 117.293 44.9897C117.293 40.4179 114.027 37.9967 110.528 37.9967C107.029 37.9967 103.769 40.4657 103.769 44.9897C103.769 49.5136 107.029 51.988 110.528 51.988V51.988Z" fill="white"/>
<path d="M135.951 38.3206H124.334V32.8621H145.96L132.989 51.6163H149.263V57.112H122.985L135.951 38.3206Z" fill="white"/>
<path d="M97.7633 70.429C97.7633 62.0289 103.779 57.8341 109.445 57.8341C113.783 57.8341 116.581 60.2129 117.187 61.551H117.287V58.2855H123.537V82.546H117.287V79.2804H117.144C116.539 80.6344 113.741 82.9973 109.402 82.9973C103.779 83.0186 97.7633 78.8238 97.7633 70.429ZM110.682 77.422C114.181 77.422 117.447 75.0007 117.447 70.429C117.447 65.8572 114.181 63.4307 110.682 63.4307C107.183 63.4307 103.923 65.905 103.923 70.429C103.923 74.953 107.199 77.422 110.682 77.422Z" fill="#DEC388"/>
<path d="M161.959 70.429C161.959 62.2147 168.4 57.8341 174.74 57.8341C181.08 57.8341 187.52 62.2147 187.52 70.429C187.52 78.6433 181.037 83.0185 174.74 83.0185C168.442 83.0185 161.959 78.638 161.959 70.429ZM174.74 77.3742C178.239 77.3742 181.318 74.7671 181.318 70.429C181.318 66.0909 178.239 63.4838 174.74 63.4838C171.24 63.4838 168.118 66.0962 168.118 70.4343C168.118 74.7724 171.246 77.3742 174.74 77.3742V77.3742Z" fill="#DEC388"/>
<path d="M91.3119 59.8678C91.3119 60.4837 91.365 70.4874 91.365 70.4874C95.6872 69.3033 97.6093 66.1812 97.6093 60.4625V32.8515H91.3119V59.8678Z" fill="white"/>
<path d="M97.6093 24H91.3119V29.5063H97.6093V24Z" fill="white"/>
<path d="M163.387 57.8341C157.159 57.8341 150.856 62.082 150.644 69.9883V82.5513H156.771V69.9883C156.978 65.9156 160 63.4784 163.377 63.4784V57.8341H163.387Z" fill="#DEC388"/>
<path d="M149.407 83.3159V58.2961H143.146V61.5616H142.87C142.265 60.2129 139.557 57.8447 135.266 57.8447C129.67 57.8447 123.585 62.0395 123.585 70.4396C123.585 78.8397 129.649 83.0292 135.266 83.0292C139.557 83.0292 142.265 80.6557 142.87 79.3123H143.146V81.1761V83.3372C143.134 84.2064 142.95 85.0647 142.605 85.8627C142.26 86.6608 141.761 87.3829 141.137 87.9877C140.512 88.5925 139.774 89.0681 138.966 89.3871C138.157 89.7062 137.293 89.8624 136.424 89.847V89.847V95.4913C142.764 95.4913 149.168 91.2435 149.407 83.3372V83.3159ZM136.525 77.422C133.026 77.422 129.76 74.953 129.76 70.429C129.76 65.905 133.026 63.4307 136.525 63.4307C140.024 63.4307 143.306 65.8573 143.306 70.429C143.306 75.0007 140.072 77.422 136.525 77.422V77.422Z" fill="#DEC388"/>
</svg>
