<svg width="209" height="72" viewBox="0 0 209 72" fill="none" xmlns="http://www.w3.org/2000/svg">
<g clip-path="url(#clip0_13_571)">
<path d="M45.7866 50.6308H46.3924V57.731H45.7866V50.6308Z" fill="white"/>
<path d="M47.4086 55.1189C47.389 54.7709 47.441 54.4226 47.5614 54.0955C47.6819 53.7684 47.8681 53.4696 48.1087 53.2174C48.3493 52.9652 48.6391 52.7651 48.9601 52.6294C49.2811 52.4937 49.6266 52.4254 49.9751 52.4286C50.3416 52.4217 50.705 52.4963 51.0392 52.647C51.3733 52.7977 51.6698 53.0206 51.9073 53.2999C52.1448 53.5791 52.3172 53.9076 52.4123 54.2616C52.5074 54.6156 52.5226 54.9862 52.4569 55.3469H47.9884C47.9975 55.6158 48.0602 55.8803 48.1727 56.1247C48.2852 56.3692 48.4452 56.5888 48.6435 56.7707C48.8418 56.9527 49.0744 57.0933 49.3276 57.1843C49.5809 57.2754 49.8497 57.315 50.1184 57.301C50.4271 57.3105 50.7342 57.2531 51.0187 57.1328C51.3031 57.0125 51.5582 56.8321 51.7665 56.604L52.0856 56.9297C51.8347 57.2234 51.5215 57.4575 51.1689 57.6153C50.8163 57.773 50.433 57.8503 50.0468 57.8417C49.6902 57.8523 49.3353 57.7885 49.0048 57.6543C48.6742 57.5201 48.3753 57.3184 48.1271 57.0622C47.8788 56.806 47.6867 56.5009 47.563 56.1663C47.4393 55.8317 47.3868 55.4749 47.4086 55.1189V55.1189ZM51.9033 54.8583C51.9081 54.6033 51.8603 54.3501 51.763 54.1144C51.6656 53.8787 51.5208 53.6656 51.3374 53.4884C51.1541 53.3111 50.9362 53.1736 50.6973 53.0843C50.4584 52.9949 50.2037 52.9558 49.9491 52.9693C49.4419 52.969 48.9545 53.1659 48.5898 53.5184C48.2251 53.8709 48.0118 54.3514 47.9949 54.8583H51.9033Z" fill="white"/>
<path d="M55.356 56.4477L55.8836 56.2979C55.9391 56.5863 56.0954 56.8456 56.3245 57.0294C56.5537 57.2131 56.8407 57.3094 57.1343 57.301C57.6945 57.301 58.2547 57.0209 58.2547 56.3695C58.2547 55.8419 57.8964 55.6009 57.2124 55.3078L56.8151 55.1514C55.9552 54.7997 55.6035 54.2981 55.6035 53.7314C55.6123 53.5449 55.659 53.3621 55.7407 53.1943C55.8225 53.0264 55.9376 52.877 56.079 52.7551C56.2204 52.6331 56.3852 52.5413 56.5632 52.4852C56.7413 52.4291 56.929 52.4098 57.1147 52.4286C57.459 52.4077 57.8002 52.5047 58.082 52.7036C58.3638 52.9025 58.5694 53.1915 58.665 53.523L58.1765 53.6793C58.1077 53.4597 57.9681 53.269 57.7796 53.1371C57.5911 53.0051 57.3642 52.9392 57.1343 52.9497C56.6327 52.9497 56.2028 53.2103 56.2028 53.7314C56.2028 54.1222 56.4438 54.4219 57.0561 54.6694L57.4078 54.8127C58.3068 55.1775 58.867 55.5293 58.867 56.3695C58.867 57.3792 57.9941 57.8287 57.1343 57.8287C56.7192 57.8608 56.3071 57.7371 55.9783 57.4818C55.6495 57.2265 55.4276 56.8578 55.356 56.4477V56.4477Z" fill="white"/>
<path d="M59.6225 55.1319C59.6007 54.7795 59.6525 54.4265 59.7744 54.0951C59.8963 53.7638 60.0858 53.4615 60.3308 53.2073C60.5758 52.9531 60.871 52.7526 61.1976 52.6185C61.5242 52.4845 61.8752 52.4198 62.2281 52.4286C62.6545 52.4133 63.0765 52.5189 63.4453 52.7333C63.8142 52.9477 64.1149 53.2621 64.3125 53.6402V53.6402V52.5328H64.9249V57.744H64.3451V56.6301C64.1474 57.0082 63.8468 57.3226 63.4779 57.537C63.1091 57.7514 62.687 57.8571 62.2607 57.8417C61.9044 57.8552 61.5494 57.7938 61.2184 57.6614C60.8874 57.529 60.5879 57.3287 60.3392 57.0732C60.0905 56.8178 59.8983 56.5131 59.7748 56.1786C59.6513 55.8442 59.5995 55.4876 59.6225 55.1319V55.1319ZM62.2867 57.2685C62.7143 57.2867 63.1375 57.1765 63.5019 56.952C63.8662 56.7276 64.1551 56.3992 64.3311 56.0092C64.5072 55.6191 64.5625 55.1853 64.4899 54.7636C64.4173 54.3419 64.22 53.9515 63.9236 53.6429C63.6272 53.3342 63.2452 53.1214 62.8267 53.0317C62.4082 52.9421 61.9725 52.9798 61.5757 53.14C61.1789 53.3002 60.8391 53.5755 60.6001 53.9305C60.3611 54.2855 60.2339 54.704 60.2348 55.1319C60.2176 55.4098 60.2583 55.6882 60.3542 55.9495C60.4501 56.2109 60.5992 56.4495 60.7921 56.6503C60.9849 56.8511 61.2173 57.0097 61.4746 57.1161C61.7318 57.2225 62.0084 57.2744 62.2867 57.2685Z" fill="white"/>
<path d="M66.1885 50.6308H66.7943V57.731H66.1885V50.6308Z" fill="white"/>
<path d="M67.8041 55.1319C67.8067 54.6017 67.9663 54.0841 68.2627 53.6445C68.5592 53.2048 68.9792 52.8629 69.4698 52.6617C69.9605 52.4606 70.4996 52.4093 71.0194 52.5143C71.5391 52.6194 72.0161 52.876 72.3901 53.2518C72.7642 53.6277 73.0185 54.1059 73.121 54.6261C73.2235 55.1464 73.1696 55.6853 72.9661 56.1749C72.7626 56.6646 72.4186 57.0829 71.9775 57.3773C71.5365 57.6716 71.0181 57.8286 70.4879 57.8287C70.1314 57.8396 69.7764 57.7772 69.445 57.6454C69.1136 57.5135 68.8128 57.3151 68.5612 57.0623C68.3096 56.8094 68.1126 56.5077 67.9824 56.1756C67.8521 55.8436 67.7915 55.4883 67.8041 55.1319ZM70.4879 57.2685C70.9148 57.2827 71.3362 57.1691 71.6981 56.9422C72.06 56.7153 72.3458 56.3854 72.5188 55.9949C72.6919 55.6044 72.7443 55.171 72.6694 54.7505C72.5944 54.33 72.3955 53.9415 72.0982 53.6348C71.8009 53.3281 71.4187 53.1173 71.0007 53.0294C70.5827 52.9415 70.148 52.9804 69.7523 53.1413C69.3566 53.3022 69.018 53.5777 68.78 53.9324C68.542 54.287 68.4154 54.7048 68.4164 55.1319C68.4021 55.4107 68.4453 55.6896 68.5435 55.951C68.6416 56.2124 68.7926 56.4507 68.9869 56.6512C69.1813 56.8517 69.4149 57.01 69.6731 57.1162C69.9314 57.2223 70.2087 57.2742 70.4879 57.2685V57.2685Z" fill="white"/>
<path d="M74.1746 52.5328H74.7674V53.4383C74.9432 53.1191 75.2046 52.8555 75.5223 52.677C75.84 52.4986 76.2013 52.4126 76.5653 52.4286C77.6726 52.4286 78.6237 53.1191 78.6237 54.6694V57.731H78.0244V54.7411C78.0531 54.5158 78.0322 54.287 77.9632 54.0707C77.8941 53.8543 77.7786 53.6557 77.6247 53.4888C77.4708 53.3218 77.2822 53.1905 77.0722 53.1042C76.8621 53.0178 76.6358 52.9784 76.4089 52.9888C76.1814 52.9789 75.9544 53.0184 75.7436 53.1046C75.5327 53.1909 75.3431 53.3217 75.1877 53.4883C75.0323 53.6548 74.9149 53.853 74.8434 54.0693C74.772 54.2856 74.7483 54.5148 74.7739 54.7411V57.731H74.1616L74.1746 52.5328Z" fill="white"/>
<path d="M82.0825 52.5328H82.6948V53.6402H82.7274C82.924 53.2626 83.2235 52.9484 83.5912 52.734C83.959 52.5196 84.3799 52.4137 84.8053 52.4286C85.4985 52.4627 86.152 52.762 86.6305 53.2646C87.1091 53.7672 87.376 54.4347 87.376 55.1286C87.376 55.8226 87.1091 56.49 86.6305 56.9927C86.152 57.4953 85.4985 57.7946 84.8053 57.8287C84.3799 57.8436 83.959 57.7377 83.5912 57.5232C83.2235 57.3088 82.924 56.9947 82.7274 56.6171H82.6948V59.633H82.0825V52.5328ZM84.7272 57.2685C85.1547 57.2867 85.5779 57.1765 85.9423 56.952C86.3067 56.7276 86.5955 56.3992 86.7716 56.0092C86.9477 55.6192 87.003 55.1853 86.9304 54.7636C86.8577 54.3419 86.6605 53.9515 86.3641 53.6429C86.0677 53.3342 85.6856 53.1214 85.2672 53.0318C84.8487 52.9421 84.413 52.9798 84.0162 53.14C83.6194 53.3002 83.2796 53.5755 83.0406 53.9305C82.8016 54.2855 82.6744 54.704 82.6753 55.1319C82.6561 55.4102 82.6954 55.6895 82.7905 55.9518C82.8857 56.214 83.0347 56.4535 83.228 56.6547C83.4212 56.8559 83.6545 57.0145 83.9126 57.1202C84.1708 57.2259 84.4483 57.2764 84.7272 57.2685V57.2685Z" fill="white"/>
<path d="M88.3948 52.5328H89.0071V53.7379C89.0965 53.3604 89.3129 53.025 89.62 52.7878C89.9271 52.5507 90.3063 52.4262 90.6942 52.4351C90.7865 52.433 90.8786 52.444 90.9678 52.4677V53.0344C90.8813 53.0234 90.7937 53.0234 90.7072 53.0344C89.7562 53.0344 89.0071 53.7835 89.0071 54.9886V57.7505H88.3948V52.5328Z" fill="white"/>
<path d="M91.5732 55.1319C91.5757 54.6017 91.7353 54.0841 92.0318 53.6445C92.3282 53.2048 92.7483 52.8629 93.2389 52.6617C93.7295 52.4606 94.2687 52.4093 94.7884 52.5143C95.3082 52.6194 95.7851 52.876 96.1592 53.2518C96.5332 53.6277 96.7875 54.1059 96.89 54.6261C96.9925 55.1464 96.9386 55.6853 96.7351 56.1749C96.5316 56.6646 96.1876 57.0829 95.7466 57.3773C95.3055 57.6716 94.7871 57.8286 94.2569 57.8287C93.9004 57.8396 93.5455 57.7772 93.2141 57.6454C92.8826 57.5135 92.5818 57.3151 92.3302 57.0623C92.0786 56.8094 91.8816 56.5077 91.7514 56.1756C91.6212 55.8436 91.5605 55.4883 91.5732 55.1319ZM94.2569 57.2685C94.6838 57.2827 95.1052 57.1691 95.4671 56.9422C95.829 56.7153 96.1148 56.3854 96.2879 55.9949C96.4609 55.6044 96.5133 55.171 96.4384 54.7505C96.3634 54.33 96.1645 53.9415 95.8672 53.6348C95.5699 53.3281 95.1877 53.1173 94.7697 53.0294C94.3517 52.9415 93.917 52.9804 93.5213 53.1413C93.1256 53.3022 92.7871 53.5777 92.549 53.9324C92.311 54.287 92.1844 54.7048 92.1855 55.1319C92.1711 55.4107 92.2143 55.6896 92.3125 55.951C92.4106 56.2124 92.5616 56.4507 92.756 56.6512C92.9503 56.8517 93.1839 57.01 93.4422 57.1162C93.7004 57.2223 93.9777 57.2742 94.2569 57.2685Z" fill="white"/>
<path d="M99.5203 50.4419C99.7873 50.4379 100.05 50.5054 100.282 50.6373V51.1323C100.082 51.0248 99.8584 50.9688 99.6311 50.9695C99.1686 50.9695 98.8103 51.191 98.8103 51.927V52.5328H100.289V53.0409H98.8103V57.731H98.198V53.0409H97.5662V52.5328H98.1394V51.8489C98.1131 51.6602 98.1305 51.4681 98.1902 51.2872C98.2498 51.1063 98.3503 50.9415 98.4837 50.8056C98.6171 50.6697 98.78 50.5662 98.9597 50.5031C99.1394 50.4401 99.3312 50.4191 99.5203 50.4419V50.4419Z" fill="white"/>
<path d="M100.823 55.1189C100.803 54.7709 100.855 54.4226 100.976 54.0955C101.096 53.7684 101.282 53.4696 101.523 53.2174C101.764 52.9652 102.053 52.7651 102.374 52.6294C102.695 52.4937 103.041 52.4254 103.389 52.4286C103.756 52.4217 104.119 52.4963 104.453 52.647C104.788 52.7977 105.084 53.0206 105.322 53.2999C105.559 53.5791 105.732 53.9076 105.827 54.2616C105.922 54.6156 105.937 54.9862 105.871 55.3469H101.403C101.412 55.6158 101.474 55.8803 101.587 56.1247C101.699 56.3692 101.86 56.5888 102.058 56.7707C102.256 56.9527 102.489 57.0933 102.742 57.1843C102.995 57.2754 103.264 57.315 103.533 57.301C103.842 57.3109 104.149 57.2537 104.433 57.1334C104.718 57.0131 104.973 56.8325 105.181 56.604L105.5 56.9297C105.249 57.2234 104.936 57.4575 104.583 57.6153C104.231 57.773 103.847 57.8503 103.461 57.8417C103.105 57.8523 102.75 57.7885 102.419 57.6543C102.089 57.5201 101.79 57.3184 101.541 57.0622C101.293 56.806 101.101 56.5009 100.977 56.1663C100.854 55.8317 100.801 55.4749 100.823 55.1189V55.1189ZM105.324 54.8583C105.327 54.6039 105.278 54.3515 105.18 54.1167C105.082 53.8819 104.937 53.6696 104.754 53.4927C104.571 53.3159 104.354 53.1782 104.116 53.0882C103.878 52.9982 103.624 52.9577 103.37 52.9693C102.857 52.9604 102.361 53.1536 101.99 53.507C101.618 53.8604 101.4 54.3457 101.383 54.8583H105.324Z" fill="white"/>
<path d="M106.438 56.4477L106.966 56.2979C107.02 56.5869 107.176 56.847 107.406 57.031C107.635 57.215 107.923 57.3108 108.217 57.301C108.777 57.301 109.337 57.0209 109.337 56.3695C109.337 55.8419 108.972 55.6009 108.295 55.3078L107.897 55.1514C107.038 54.7997 106.686 54.2981 106.686 53.7314C106.695 53.5449 106.741 53.3621 106.823 53.1943C106.905 53.0264 107.02 52.877 107.161 52.7551C107.303 52.6331 107.467 52.5413 107.646 52.4852C107.824 52.4291 108.011 52.4098 108.197 52.4286C108.541 52.4089 108.882 52.5064 109.163 52.7051C109.445 52.9038 109.651 53.1922 109.747 53.523L109.252 53.6793C109.185 53.4602 109.046 53.2697 108.859 53.1377C108.672 53.0057 108.446 52.9396 108.217 52.9497C107.715 52.9497 107.285 53.2103 107.285 53.7314C107.285 54.1222 107.526 54.4219 108.132 54.6694L108.484 54.8127C109.383 55.1775 109.943 55.5293 109.943 56.3695C109.943 57.3792 109.076 57.8287 108.217 57.8287C107.801 57.8608 107.389 57.7371 107.061 57.4818C106.732 57.2265 106.51 56.8578 106.438 56.4477V56.4477Z" fill="white"/>
<path d="M110.653 56.4477L111.187 56.2979C111.241 56.5869 111.397 56.847 111.627 57.031C111.856 57.215 112.144 57.3108 112.438 57.301C112.998 57.301 113.552 57.0209 113.552 56.3696C113.552 55.8419 113.193 55.6009 112.516 55.3078L112.112 55.1515C111.252 54.7997 110.907 54.2981 110.907 53.7314C110.915 53.5452 110.961 53.3626 111.042 53.1947C111.123 53.0269 111.237 52.8774 111.378 52.7554C111.519 52.6334 111.683 52.5415 111.861 52.4853C112.039 52.4291 112.226 52.4098 112.412 52.4286C112.756 52.4065 113.098 52.503 113.38 52.7021C113.662 52.9012 113.867 53.1909 113.962 53.523L113.473 53.6793C113.406 53.4602 113.267 53.2697 113.08 53.1377C112.893 53.0057 112.667 52.9396 112.438 52.9497C111.936 52.9497 111.506 53.2103 111.506 53.7314C111.506 54.1223 111.747 54.4219 112.353 54.6694L112.705 54.8127C113.604 55.1775 114.164 55.5293 114.164 56.3696C114.164 57.3792 113.297 57.8287 112.438 57.8287C112.022 57.861 111.609 57.7375 111.279 57.4823C110.949 57.2271 110.726 56.8583 110.653 56.4477V56.4477Z" fill="white"/>
<path d="M115.154 50.6308H115.805V51.217H115.154V50.6308ZM115.154 52.5328H115.805V57.744H115.154V52.5328Z" fill="white"/>
<path d="M116.795 55.1319C116.798 54.6014 116.958 54.0835 117.254 53.6438C117.551 53.204 117.972 52.8621 118.463 52.6611C118.954 52.4602 119.493 52.4093 120.013 52.5148C120.533 52.6204 121.01 52.8777 121.384 53.2542C121.757 53.6306 122.011 54.1095 122.113 54.6301C122.215 55.1508 122.16 55.6899 121.955 56.1795C121.751 56.669 121.406 57.0869 120.964 57.3804C120.522 57.674 120.003 57.8299 119.473 57.8287C119.117 57.8387 118.762 57.7756 118.432 57.6434C118.101 57.5112 117.801 57.3125 117.55 57.0598C117.299 56.8071 117.103 56.5057 116.973 56.1741C116.843 55.8425 116.783 55.4878 116.795 55.1319ZM119.473 57.2685C119.9 57.2841 120.322 57.1716 120.684 56.9455C121.047 56.7194 121.334 56.39 121.508 55.9996C121.682 55.6093 121.735 55.1758 121.661 54.7549C121.587 54.3339 121.389 53.9448 121.092 53.6375C120.795 53.3301 120.413 53.1187 119.994 53.0302C119.576 52.9417 119.141 52.9802 118.745 53.1409C118.349 53.3015 118.01 53.577 117.772 53.9318C117.533 54.2865 117.407 54.7045 117.408 55.1319C117.393 55.4102 117.436 55.6885 117.534 55.9494C117.632 56.2104 117.782 56.4484 117.976 56.6488C118.17 56.8492 118.402 57.0076 118.66 57.1142C118.917 57.2208 119.194 57.2733 119.473 57.2685V57.2685Z" fill="white"/>
<path d="M123.166 52.5328H123.778V53.4383C123.95 53.116 124.211 52.8497 124.53 52.6708C124.848 52.4919 125.211 52.4079 125.576 52.4286C126.683 52.4286 127.634 53.1191 127.634 54.6694V57.731H127.022V54.7411C127.051 54.5164 127.03 54.2881 126.961 54.0723C126.893 53.8565 126.778 53.6582 126.624 53.4914C126.471 53.3245 126.283 53.1931 126.074 53.1063C125.865 53.0195 125.639 52.9794 125.413 52.9888C125.186 52.9789 124.959 53.0184 124.748 53.1046C124.537 53.1909 124.347 53.3217 124.192 53.4883C124.036 53.6548 123.919 53.853 123.848 54.0693C123.776 54.2856 123.752 54.5148 123.778 54.7411V57.731H123.166V52.5328Z" fill="white"/>
<path d="M128.891 52.5328H129.484V53.4383C129.66 53.1191 129.921 52.8555 130.239 52.677C130.557 52.4986 130.918 52.4126 131.282 52.4286C132.396 52.4286 133.347 53.1191 133.347 54.6694V57.731H132.741V54.7411C132.77 54.5164 132.749 54.2882 132.68 54.0723C132.612 53.8565 132.497 53.6582 132.344 53.4914C132.19 53.3245 132.003 53.1931 131.793 53.1063C131.584 53.0195 131.359 52.9794 131.132 52.9888C130.904 52.9791 130.677 53.0186 130.466 53.1048C130.255 53.1909 130.065 53.3217 129.909 53.4881C129.753 53.6545 129.635 53.8526 129.563 54.0688C129.491 54.2851 129.466 54.5144 129.491 54.7411V57.731H128.878L128.891 52.5328Z" fill="white"/>
<path d="M134.376 55.1189C134.357 54.7709 134.409 54.4226 134.529 54.0955C134.65 53.7684 134.836 53.4696 135.076 53.2174C135.317 52.9652 135.607 52.7651 135.928 52.6294C136.249 52.4937 136.594 52.4254 136.943 52.4286C137.309 52.4217 137.673 52.4963 138.007 52.647C138.341 52.7977 138.638 53.0206 138.875 53.2999C139.113 53.5791 139.285 53.9076 139.38 54.2616C139.475 54.6156 139.49 54.9862 139.425 55.3469H134.956C134.965 55.6158 135.028 55.8803 135.14 56.1247C135.253 56.3692 135.413 56.5888 135.611 56.7707C135.81 56.9527 136.042 57.0933 136.295 57.1843C136.549 57.2754 136.817 57.315 137.086 57.301C137.395 57.3109 137.702 57.2537 137.987 57.1334C138.271 57.0131 138.526 56.8325 138.734 56.604L139.053 56.9297C138.802 57.2234 138.489 57.4575 138.137 57.6153C137.784 57.773 137.401 57.8503 137.015 57.8417C136.658 57.8523 136.303 57.7885 135.973 57.6543C135.642 57.5201 135.343 57.3184 135.095 57.0622C134.847 56.806 134.655 56.5009 134.531 56.1663C134.407 55.8317 134.355 55.4749 134.376 55.1189ZM138.878 54.8583C138.88 54.6039 138.831 54.3515 138.733 54.1167C138.635 53.8819 138.49 53.6696 138.308 53.4927C138.125 53.3159 137.907 53.1782 137.669 53.0882C137.431 52.9982 137.178 52.9577 136.923 52.9693C136.416 52.969 135.929 53.1659 135.564 53.5184C135.199 53.8709 134.986 54.3514 134.969 54.8583H138.878Z" fill="white"/>
<path d="M140.448 50.6308H141.053V57.731H140.448V50.6308Z" fill="white"/>
<path d="M49.6041 69.189V68.492C49.4187 68.7563 49.1688 68.9688 48.878 69.1091C48.5872 69.2493 48.2653 69.3127 47.943 69.2932C47.2666 69.2356 46.6364 68.9262 46.1772 68.4262C45.718 67.9262 45.4631 67.2721 45.4631 66.5932C45.4631 65.9143 45.718 65.2601 46.1772 64.7601C46.6364 64.2601 47.2666 63.9507 47.943 63.8931C48.2655 63.8717 48.5881 63.9342 48.8792 64.0747C49.1703 64.2151 49.4201 64.4286 49.6041 64.6944V64.6944V62.0888H50.9459V69.1824L49.6041 69.189ZM48.184 68.0946C48.4845 68.1103 48.7827 68.0355 49.0402 67.8799C49.2977 67.7244 49.5027 67.4952 49.6287 67.222C49.7546 66.9488 49.7958 66.6441 49.7469 66.3472C49.698 66.0504 49.5612 65.775 49.3542 65.5567C49.1472 65.3384 48.8795 65.1871 48.5857 65.1224C48.2919 65.0577 47.9854 65.0826 47.7059 65.1938C47.4264 65.3051 47.1866 65.4975 47.0175 65.7464C46.8485 65.9952 46.7579 66.2891 46.7575 66.5899C46.7459 66.7839 46.7743 66.9783 46.8408 67.1609C46.9074 67.3435 47.0107 67.5105 47.1445 67.6516C47.2782 67.7927 47.4395 67.9048 47.6183 67.981C47.7971 68.0572 47.9897 68.0959 48.184 68.0946V68.0946Z" fill="white"/>
<path d="M52.0141 66.5899C52.0018 66.2401 52.0602 65.8915 52.1856 65.5648C52.311 65.2381 52.501 64.9399 52.7442 64.6883C52.9874 64.4366 53.2788 64.2364 53.601 64.0998C53.9232 63.9632 54.2697 63.8929 54.6196 63.8931C55.9224 63.8931 57.4402 64.8246 57.147 67.111H53.2387C53.337 67.4477 53.5493 67.7397 53.8393 67.937C54.1293 68.1343 54.4788 68.2245 54.8281 68.1923C55.3184 68.21 55.7974 68.0426 56.17 67.7233L56.7823 68.3747C56.5216 68.6743 56.1976 68.9121 55.8337 69.0709C55.4698 69.2298 55.0751 69.3057 54.6783 69.2932C54.3228 69.3014 53.9694 69.2369 53.6399 69.1034C53.3103 68.97 53.0116 68.7705 52.762 68.5173C52.5124 68.264 52.3173 67.9624 52.1887 67.631C52.0601 67.2995 52.0006 66.9452 52.0141 66.5899ZM55.9876 66.1339C55.9501 65.8185 55.7953 65.5288 55.5539 65.3224C55.3125 65.1159 55.0022 65.008 54.6848 65.0201C54.3582 65.0108 54.039 65.1177 53.7837 65.3216C53.5285 65.5256 53.3538 65.8134 53.2908 66.1339H55.9876Z" fill="white"/>
<path d="M60.6387 62.1083H61.9415V69.202H60.6387V62.1083Z" fill="white"/>
<path d="M63.0423 66.5899C63.0182 66.246 63.0649 65.9008 63.1796 65.5757C63.2942 65.2506 63.4743 64.9524 63.7088 64.6997C63.9432 64.4469 64.227 64.2449 64.5426 64.1062C64.8582 63.9675 65.1989 63.895 65.5436 63.8931C65.8661 63.8717 66.1887 63.9342 66.4798 64.0747C66.7709 64.2151 67.0207 64.4286 67.2047 64.6944H67.2372V63.9909H68.5726V69.202H67.2372V68.492H67.2047C67.0193 68.7563 66.7693 68.9688 66.4785 69.1091C66.1878 69.2493 65.8659 69.3127 65.5436 69.2932C65.1983 69.2914 64.857 69.2187 64.5409 69.0796C64.2249 68.9405 63.9408 68.7379 63.7062 68.4844C63.4717 68.231 63.2917 67.932 63.1775 67.6061C63.0633 67.2802 63.0173 66.9343 63.0423 66.5899V66.5899ZM65.8172 68.0946C66.1168 68.105 66.4127 68.0257 66.6669 67.8668C66.9211 67.7079 67.122 67.4766 67.244 67.2028C67.3659 66.9289 67.4032 66.6248 67.3512 66.3296C67.2991 66.0344 67.1601 65.7614 66.9519 65.5457C66.7437 65.3301 66.4758 65.1815 66.1826 65.1191C65.8893 65.0567 65.5842 65.0833 65.3062 65.1954C65.0282 65.3076 64.79 65.5003 64.6222 65.7488C64.4545 65.9972 64.3648 66.2901 64.3646 66.5899C64.3518 66.7864 64.3802 66.9834 64.448 67.1683C64.5157 67.3531 64.6214 67.5218 64.7582 67.6635C64.8949 67.8051 65.0598 67.9167 65.2421 67.9909C65.4245 68.0652 65.6204 68.1005 65.8172 68.0946V68.0946Z" fill="white"/>
<path d="M72.2532 63.9909H73.595V64.7139H73.6276C73.811 64.4491 74.0597 64.2363 74.3496 64.0959C74.6395 63.9555 74.9607 63.8924 75.2821 63.9127C75.9586 63.9703 76.5888 64.2797 77.048 64.7797C77.5072 65.2797 77.762 65.9338 77.762 66.6127C77.762 67.2916 77.5072 67.9457 77.048 68.4457C76.5888 68.9457 75.9586 69.2551 75.2821 69.3127C74.9609 69.3318 74.6401 69.2681 74.3504 69.1278C74.0608 68.9876 73.8119 68.7754 73.6276 68.5115H73.595V71.1171H72.2532V63.9909ZM75.0151 68.0946C75.3962 68.0695 75.7535 67.9004 76.0146 67.6216C76.2756 67.3428 76.4209 66.9751 76.4209 66.5932C76.4209 66.2112 76.2756 65.8436 76.0146 65.5648C75.7535 65.2859 75.3962 65.1168 75.0151 65.0917C74.634 65.1168 74.2767 65.2859 74.0156 65.5648C73.7546 65.8436 73.6093 66.2112 73.6093 66.5932C73.6093 66.9751 73.7546 67.3428 74.0156 67.6216C74.2767 67.9004 74.634 68.0695 75.0151 68.0946V68.0946Z" fill="white"/>
<path d="M78.8582 63.9909H80.1935V65.3653C80.2426 64.9674 80.4351 64.6011 80.7348 64.3349C81.0346 64.0687 81.4211 63.9209 81.822 63.9192C81.9405 63.9162 82.0588 63.9293 82.1737 63.9583V65.2611C82.061 65.2513 81.9477 65.2513 81.835 65.2611C81.6087 65.2526 81.3833 65.2926 81.1737 65.3784C80.9641 65.4642 80.7753 65.5937 80.6199 65.7584C80.4644 65.9231 80.346 66.1191 80.2725 66.3333C80.1989 66.5475 80.172 66.7749 80.1935 67.0003V69.2671H78.8582V63.9909Z" fill="white"/>
<path d="M82.8379 66.5899C82.8301 66.0457 82.9845 65.5114 83.2814 65.0552C83.5783 64.5989 84.0042 64.2414 84.5049 64.028C85.0057 63.8146 85.5586 63.7551 86.0933 63.8569C86.628 63.9588 87.1203 64.2175 87.5075 64.6001C87.8947 64.9827 88.1593 65.4718 88.2675 66.0053C88.3758 66.5387 88.3229 67.0923 88.1156 67.5956C87.9082 68.0989 87.5557 68.529 87.1031 68.8314C86.6504 69.1337 86.1181 69.2944 85.5737 69.2932C85.2124 69.3116 84.8512 69.2545 84.5131 69.1255C84.175 68.9966 83.8675 68.7987 83.6102 68.5444C83.3528 68.2901 83.1512 67.985 83.0182 67.6485C82.8853 67.312 82.8239 66.9515 82.8379 66.5899ZM85.5737 68.0816C85.8714 68.0959 86.1665 68.0208 86.4211 67.8658C86.6756 67.7108 86.8779 67.4832 87.0019 67.2122C87.1259 66.9412 87.1658 66.6392 87.1166 66.3453C87.0674 66.0514 86.9313 65.779 86.7258 65.5631C86.5203 65.3473 86.2549 65.1979 85.9638 65.1343C85.6726 65.0707 85.3691 65.0958 85.0924 65.2063C84.8156 65.3168 84.5782 65.5076 84.4109 65.7542C84.2437 66.0008 84.1541 66.2919 84.1537 66.5899C84.1421 66.7828 84.1703 66.976 84.2366 67.1575C84.3029 67.339 84.4059 67.5049 84.5391 67.6448C84.6723 67.7848 84.8329 67.8958 85.0109 67.9709C85.189 68.0461 85.3805 68.0838 85.5737 68.0816V68.0816Z" fill="white"/>
<path d="M93.3254 69.189V68.492H93.2928C93.1075 68.7563 92.8575 68.9688 92.5667 69.1091C92.2759 69.2493 91.954 69.3127 91.6317 69.2932C90.9553 69.2356 90.3251 68.9262 89.8659 68.4262C89.4067 67.9262 89.1519 67.2721 89.1519 66.5932C89.1519 65.9143 89.4067 65.2601 89.8659 64.7601C90.3251 64.2601 90.9553 63.9507 91.6317 63.8931C91.9543 63.8717 92.2768 63.9342 92.5679 64.0747C92.8591 64.2151 93.1088 64.4286 93.2928 64.6944H93.3254V62.0888H94.6672V69.1824L93.3254 69.189ZM91.9053 68.0946C92.2049 68.105 92.5008 68.0257 92.755 67.8668C93.0092 67.7079 93.2102 67.4766 93.3321 67.2028C93.454 66.9289 93.4914 66.6248 93.4393 66.3296C93.3873 66.0344 93.2482 65.7614 93.04 65.5457C92.8318 65.33 92.5639 65.1815 92.2707 65.1191C91.9775 65.0567 91.6723 65.0833 91.3943 65.1954C91.1163 65.3076 90.8781 65.5003 90.7104 65.7488C90.5426 65.9972 90.4529 66.2901 90.4527 66.5899C90.4409 66.7862 90.47 66.9827 90.5382 67.1672C90.6063 67.3516 90.712 67.5198 90.8486 67.6613C90.9851 67.8027 91.1495 67.9143 91.3315 67.9889C91.5134 68.0635 91.7088 68.0995 91.9053 68.0946V68.0946Z" fill="white"/>
<path d="M100.882 69.189H99.5202V68.479C99.3496 68.7343 99.1162 68.9415 98.8424 69.0807C98.5687 69.2199 98.2637 69.2863 97.9569 69.2737C96.8821 69.2737 96.0027 68.6223 96.0027 67.0329V63.9713H97.3446V66.8114C97.3446 67.5735 97.7549 68.0751 98.4519 68.0751C98.6117 68.0765 98.7699 68.0436 98.9159 67.9785C99.0618 67.9134 99.192 67.8177 99.2977 67.6978C99.4033 67.5779 99.482 67.4367 99.5282 67.2838C99.5745 67.1308 99.5873 66.9697 99.5658 66.8114V63.9713H100.901L100.882 69.189Z" fill="white"/>
<path d="M101.957 66.5899C101.943 66.2289 102.006 65.8691 102.139 65.5334C102.272 65.1977 102.474 64.8933 102.731 64.6398C102.989 64.3862 103.296 64.1888 103.633 64.0603C103.971 63.9318 104.332 63.8748 104.692 63.8931C105.149 63.8863 105.599 64.004 105.994 64.2335C106.388 64.4631 106.713 64.7958 106.933 65.1959L105.956 65.8473C105.831 65.6307 105.653 65.4492 105.439 65.3195C105.225 65.1897 104.982 65.1158 104.731 65.1047C104.354 65.1297 104 65.2974 103.741 65.5738C103.482 65.8502 103.338 66.2146 103.338 66.5932C103.338 66.9717 103.482 67.3361 103.741 67.6125C104 67.8889 104.354 68.0566 104.731 68.0816C104.981 68.0785 105.227 68.0131 105.445 67.8914C105.663 67.7697 105.848 67.5955 105.982 67.3846L106.959 68.036C106.738 68.4348 106.412 68.7663 106.018 68.9956C105.624 69.2249 105.175 69.3435 104.718 69.3388C104.352 69.3563 103.986 69.2973 103.644 69.1656C103.302 69.0338 102.991 68.8322 102.731 68.5735C102.471 68.3149 102.268 68.0049 102.135 67.6634C102.001 67.3218 101.941 66.9562 101.957 66.5899V66.5899Z" fill="white"/>
<path d="M108.496 67.7494V65.0591H107.754V63.9909H108.496V62.6881H109.845V63.9909H110.913V65.0591H109.845V67.5344C109.841 67.6099 109.854 67.6853 109.883 67.755C109.912 67.8248 109.956 67.8872 110.012 67.9378C110.069 67.9883 110.135 68.0257 110.208 68.0472C110.28 68.0687 110.356 68.0738 110.431 68.0621C110.599 68.0601 110.766 68.0337 110.926 67.9839V69.0131C110.656 69.19 110.336 69.2745 110.014 69.2541C109.81 69.279 109.603 69.2574 109.408 69.1908C109.214 69.1242 109.037 69.0143 108.891 68.8695C108.745 68.7247 108.633 68.5487 108.565 68.3547C108.497 68.1607 108.473 67.9538 108.496 67.7494Z" fill="white"/>
<path d="M112.034 62.1083H113.376V63.2873H112.034V62.1083ZM112.034 64.0039H113.376V69.215H112.034V64.0039Z" fill="white"/>
<path d="M114.444 66.5899C114.436 66.0459 114.59 65.5119 114.887 65.0558C115.183 64.5998 115.609 64.2422 116.109 64.0286C116.609 63.815 117.162 63.7551 117.697 63.8565C118.231 63.9578 118.723 64.2159 119.111 64.5978C119.498 64.9797 119.763 65.4683 119.872 66.0013C119.981 66.5343 119.929 67.0877 119.723 67.5911C119.517 68.0944 119.165 68.5251 118.713 68.8282C118.262 69.1313 117.73 69.2931 117.186 69.2932C116.825 69.3066 116.466 69.2462 116.13 69.1156C115.794 68.985 115.488 68.787 115.231 68.5338C114.974 68.2806 114.772 67.9775 114.636 67.6432C114.501 67.309 114.435 66.9505 114.444 66.5899ZM117.186 68.0816C117.484 68.0959 117.779 68.0208 118.033 67.8658C118.288 67.7108 118.49 67.4832 118.614 67.2122C118.738 66.9412 118.778 66.6392 118.729 66.3453C118.68 66.0514 118.543 65.779 118.338 65.5631C118.133 65.3473 117.867 65.1979 117.576 65.1343C117.285 65.0707 116.981 65.0958 116.705 65.2063C116.428 65.3168 116.19 65.5076 116.023 65.7542C115.856 66.0008 115.766 66.2919 115.766 66.5899C115.753 66.783 115.781 66.9766 115.847 67.1586C115.913 67.3405 116.016 67.5068 116.149 67.6469C116.282 67.7871 116.443 67.8981 116.622 67.9729C116.8 68.0477 116.992 68.0847 117.186 68.0816V68.0816Z" fill="white"/>
<path d="M121.016 63.9909H122.319V64.7139C122.491 64.4527 122.728 64.2408 123.007 64.0991C123.285 63.9575 123.596 63.891 123.909 63.9062C124.983 63.9062 125.863 64.5576 125.863 66.147V69.202H124.521V66.3619C124.542 66.2037 124.529 66.0428 124.483 65.8901C124.437 65.7373 124.358 65.5961 124.253 65.4761C124.148 65.356 124.018 65.2598 123.873 65.1939C123.728 65.128 123.57 65.0939 123.41 65.0939C123.251 65.0939 123.093 65.128 122.948 65.1939C122.802 65.2598 122.673 65.356 122.567 65.4761C122.462 65.5961 122.384 65.7373 122.338 65.8901C122.292 66.0428 122.279 66.2037 122.3 66.3619V69.202H121.016V63.9909Z" fill="white"/>
<path d="M129.322 66.5899C129.297 66.2458 129.343 65.9002 129.457 65.5747C129.571 65.2491 129.751 64.9506 129.986 64.6976C130.22 64.4447 130.505 64.2427 130.821 64.1043C131.137 63.9659 131.478 63.894 131.823 63.8931C132.145 63.8717 132.468 63.9342 132.759 64.0747C133.05 64.2151 133.3 64.4286 133.484 64.6944H133.517V63.9909H134.852V69.202H133.517V68.492H133.484C133.299 68.7563 133.049 68.9688 132.758 69.1091C132.467 69.2493 132.145 69.3127 131.823 69.2932C131.478 69.2914 131.136 69.2187 130.82 69.0796C130.504 68.9405 130.22 68.7379 129.986 68.4844C129.751 68.231 129.571 67.932 129.457 67.6061C129.343 67.2802 129.297 66.9343 129.322 66.5899V66.5899ZM132.096 68.0946C132.396 68.105 132.692 68.0257 132.946 67.8668C133.2 67.7079 133.401 67.4766 133.523 67.2028C133.645 66.9289 133.683 66.6248 133.63 66.3296C133.578 66.0344 133.439 65.7614 133.231 65.5457C133.023 65.3301 132.755 65.1815 132.462 65.1191C132.169 65.0567 131.863 65.0833 131.585 65.1954C131.307 65.3076 131.069 65.5003 130.902 65.7488C130.734 65.9972 130.644 66.2901 130.644 66.5899C130.631 66.7858 130.659 66.9823 130.727 67.1667C130.794 67.3511 130.899 67.5195 131.035 67.661C131.171 67.8026 131.335 67.9142 131.517 67.9889C131.699 68.0636 131.894 68.0996 132.09 68.0946H132.096Z" fill="white"/>
<path d="M137.203 70.9542V69.8599C137.605 70.0691 138.054 70.1701 138.506 70.153C139.509 70.153 140.148 69.684 140.148 68.8893V68.492H140.089C139.909 68.7556 139.664 68.9681 139.377 69.1085C139.091 69.249 138.773 69.3126 138.454 69.2932C137.778 69.2356 137.147 68.9262 136.688 68.4262C136.229 67.9262 135.974 67.272 135.974 66.5932C135.974 65.9143 136.229 65.2601 136.688 64.7601C137.147 64.2601 137.778 63.9507 138.454 63.8931C138.773 63.8717 139.092 63.9345 139.379 64.0751C139.666 64.2157 139.911 64.4293 140.089 64.6943H140.148V63.9909H141.489V68.8046C141.489 70.7914 139.926 71.2734 138.747 71.2734C138.214 71.2983 137.683 71.1886 137.203 70.9542ZM138.695 68.0946C138.995 68.105 139.291 68.0257 139.545 67.8667C139.799 67.7078 140 67.4766 140.122 67.2028C140.244 66.9289 140.281 66.6248 140.229 66.3296C140.177 66.0344 140.038 65.7614 139.83 65.5457C139.622 65.33 139.354 65.1815 139.06 65.1191C138.767 65.0567 138.462 65.0832 138.184 65.1954C137.906 65.3076 137.668 65.5003 137.5 65.7488C137.332 65.9972 137.243 66.2901 137.242 66.5899C137.232 66.7859 137.261 66.9821 137.33 67.1661C137.398 67.35 137.504 67.5179 137.64 67.6591C137.777 67.8004 137.941 67.912 138.122 67.9869C138.304 68.0618 138.499 68.0985 138.695 68.0946V68.0946Z" fill="white"/>
<path d="M142.773 63.9909H144.115V65.3653C144.164 64.9674 144.356 64.6011 144.656 64.3349C144.956 64.0687 145.342 63.9209 145.743 63.9192C145.862 63.9162 145.98 63.9293 146.095 63.9583V65.2611C145.982 65.2516 145.869 65.2516 145.756 65.2611C145.53 65.2526 145.305 65.2926 145.095 65.3784C144.885 65.4642 144.697 65.5937 144.541 65.7584C144.386 65.9231 144.267 66.1191 144.194 66.3333C144.12 66.5475 144.093 66.7749 144.115 67.0003V69.2671H142.773V63.9909Z" fill="white"/>
<path d="M146.753 66.5899C146.745 66.0459 146.899 65.5119 147.196 65.0558C147.493 64.5998 147.918 64.2422 148.418 64.0286C148.919 63.815 149.471 63.7551 150.006 63.8565C150.54 63.9578 151.033 64.2159 151.42 64.5978C151.808 64.9797 152.073 65.4683 152.182 66.0013C152.291 66.5343 152.239 67.0877 152.032 67.5911C151.826 68.0944 151.475 68.5251 151.023 68.8282C150.571 69.1313 150.039 69.2931 149.495 69.2932C149.135 69.3066 148.775 69.2462 148.439 69.1156C148.103 68.985 147.797 68.787 147.54 68.5338C147.283 68.2806 147.081 67.9775 146.946 67.6432C146.81 67.309 146.745 66.9505 146.753 66.5899V66.5899ZM149.495 68.0816C149.793 68.0959 150.088 68.0208 150.343 67.8658C150.597 67.7108 150.799 67.4832 150.923 67.2122C151.047 66.9412 151.087 66.6392 151.038 66.3453C150.989 66.0514 150.853 65.779 150.647 65.5631C150.442 65.3473 150.176 65.1979 149.885 65.1343C149.594 65.0707 149.291 65.0958 149.014 65.2063C148.737 65.3168 148.5 65.5076 148.332 65.7542C148.165 66.0008 148.076 66.2919 148.075 66.5899C148.063 66.783 148.09 66.9766 148.156 67.1586C148.222 67.3405 148.325 67.5068 148.458 67.6469C148.592 67.7871 148.753 67.8981 148.931 67.9729C149.11 68.0477 149.302 68.0847 149.495 68.0816V68.0816Z" fill="white"/>
<path d="M153.052 66.5899C153.027 66.2458 153.073 65.9002 153.187 65.5747C153.301 65.2491 153.481 64.9506 153.716 64.6976C153.951 64.4447 154.235 64.2427 154.551 64.1043C154.867 63.9659 155.208 63.894 155.553 63.8931C155.876 63.8717 156.198 63.9342 156.489 64.0747C156.78 64.2151 157.03 64.4286 157.214 64.6944H157.247V63.9909H158.582V69.202H157.247V68.492H157.214C157.025 68.7547 156.772 68.9646 156.479 69.1014C156.186 69.2383 155.863 69.2976 155.54 69.2737C155.198 69.2699 154.86 69.1965 154.546 69.0578C154.233 68.9191 153.952 68.718 153.719 68.4669C153.486 68.2157 153.307 67.9198 153.192 67.5971C153.077 67.2744 153.03 66.9317 153.052 66.5899V66.5899ZM155.827 68.0946C156.126 68.105 156.422 68.0257 156.676 67.8668C156.931 67.7079 157.132 67.4766 157.254 67.2028C157.375 66.9289 157.413 66.6248 157.361 66.3296C157.309 66.0344 157.17 65.7614 156.961 65.5457C156.753 65.3301 156.485 65.1815 156.192 65.1191C155.899 65.0567 155.594 65.0833 155.316 65.1954C155.038 65.3076 154.8 65.5003 154.632 65.7488C154.464 65.9972 154.374 66.2901 154.374 66.5899C154.361 66.7864 154.39 66.9834 154.458 67.1683C154.525 67.3531 154.631 67.5218 154.768 67.6635C154.904 67.8051 155.069 67.9167 155.252 67.9909C155.434 68.0652 155.63 68.1005 155.827 68.0946V68.0946Z" fill="white"/>
<path d="M159.905 62.1083H161.246V69.202H159.905V62.1083Z" fill="white"/>
<path d="M162.562 62.1083H163.904V63.2873H162.562V62.1083ZM162.562 64.0039H163.904V69.215H162.562V64.0039Z" fill="white"/>
<path d="M168.568 66.2316C168.568 65.489 168.177 65.0917 167.604 65.0917C167.459 65.0894 167.316 65.1184 167.184 65.1767C167.051 65.2351 166.933 65.3213 166.837 65.4296C166.741 65.5379 166.67 65.6656 166.628 65.8041C166.586 65.9425 166.575 66.0883 166.594 66.2316V69.189H165.259V63.9778H166.594V64.6292C166.753 64.3807 166.974 64.1786 167.236 64.0436C167.499 63.9086 167.792 63.8454 168.086 63.8606C168.395 63.8458 168.702 63.9195 168.971 64.0729C169.24 64.2264 169.459 64.4532 169.604 64.7269C169.791 64.4463 170.048 64.2191 170.35 64.0672C170.651 63.9154 170.986 63.8442 171.324 63.8606C172.424 63.8606 173.226 64.5511 173.226 66.1405V69.1564H171.825V66.1991C171.825 65.4565 171.441 65.0591 170.861 65.0591C170.716 65.0568 170.573 65.0859 170.441 65.1442C170.308 65.2025 170.19 65.2888 170.094 65.397C169.998 65.5053 169.927 65.633 169.885 65.7715C169.843 65.9099 169.832 66.0558 169.851 66.1991V69.1564H168.568V66.2316Z" fill="white"/>
<path d="M174.255 66.5899C174.243 66.2401 174.301 65.8915 174.426 65.5648C174.552 65.2381 174.742 64.9399 174.985 64.6883C175.228 64.4366 175.52 64.2364 175.842 64.0998C176.164 63.9632 176.51 63.8929 176.86 63.8931C178.163 63.8931 179.674 64.8246 179.388 67.111H175.479C175.578 67.4477 175.79 67.7397 176.08 67.937C176.37 68.1343 176.72 68.2245 177.069 68.1923C177.558 68.2056 178.036 68.0387 178.411 67.7233L179.016 68.3747C178.757 68.6741 178.434 68.9119 178.071 69.0708C177.709 69.2297 177.315 69.3057 176.919 69.2932C176.564 69.3014 176.21 69.2369 175.881 69.1034C175.551 68.97 175.252 68.7705 175.003 68.5173C174.753 68.264 174.558 67.9624 174.429 67.631C174.301 67.2995 174.241 66.9452 174.255 66.5899V66.5899ZM178.222 66.1339C178.186 65.8179 178.031 65.5273 177.79 65.3206C177.548 65.1139 177.237 65.0065 176.919 65.0201C176.594 65.0124 176.276 65.12 176.022 65.3238C175.768 65.5276 175.594 65.8145 175.532 66.1339H178.222Z" fill="white"/>
<path d="M180.515 63.9909H181.857V64.7139C182.027 64.4518 182.264 64.2391 182.543 64.0974C182.822 63.9556 183.133 63.8897 183.446 63.9062C184.514 63.9062 185.4 64.5576 185.4 66.147V69.202H184.071V66.3619C184.088 66.2064 184.072 66.0491 184.024 65.9002C183.976 65.7513 183.897 65.6142 183.793 65.4977C183.688 65.3813 183.561 65.2882 183.418 65.2245C183.275 65.1607 183.12 65.1278 182.964 65.1278C182.807 65.1278 182.653 65.1607 182.51 65.2245C182.367 65.2882 182.239 65.3813 182.135 65.4977C182.03 65.6142 181.952 65.7513 181.904 65.9002C181.856 66.0491 181.84 66.2064 181.857 66.3619V69.202H180.515V63.9909Z" fill="white"/>
<path d="M187.074 67.7494V65.0591H186.332V63.9909H187.074V62.6881H188.423V63.9909H189.497V65.0591H188.423V67.5344C188.423 67.8015 188.572 68.0621 189.015 68.0621C189.181 68.0595 189.346 68.0332 189.504 67.9839V69.0131C189.234 69.19 188.914 69.2745 188.592 69.2541C188.388 69.279 188.181 69.2574 187.986 69.1908C187.791 69.1242 187.614 69.0143 187.468 68.8695C187.322 68.7247 187.211 68.5487 187.143 68.3547C187.074 68.1607 187.051 67.9538 187.074 67.7494Z" fill="white"/>
<path d="M190.312 66.5899C190.287 66.2458 190.333 65.9002 190.447 65.5747C190.561 65.2491 190.741 64.9506 190.976 64.6976C191.21 64.4447 191.495 64.2427 191.811 64.1043C192.127 63.9659 192.468 63.894 192.813 63.8931C193.135 63.8717 193.458 63.9342 193.749 64.0747C194.04 64.2151 194.29 64.4286 194.474 64.6944H194.507V63.9909H195.842V69.202H194.507V68.492H194.474C194.289 68.7563 194.039 68.9688 193.748 69.1091C193.457 69.2493 193.135 69.3127 192.813 69.2932C192.468 69.2914 192.126 69.2187 191.81 69.0796C191.494 68.9405 191.21 68.7379 190.976 68.4844C190.741 68.231 190.561 67.932 190.447 67.6061C190.333 67.2802 190.287 66.9343 190.312 66.5899V66.5899ZM193.086 68.0946C193.386 68.105 193.682 68.0257 193.936 67.8668C194.19 67.7079 194.391 67.4766 194.513 67.2028C194.635 66.9289 194.673 66.6248 194.62 66.3296C194.568 66.0344 194.429 65.7614 194.221 65.5457C194.013 65.3301 193.745 65.1815 193.452 65.1191C193.159 65.0567 192.853 65.0833 192.575 65.1954C192.297 65.3076 192.059 65.5003 191.892 65.7488C191.724 65.9972 191.634 66.2901 191.634 66.5899C191.621 66.7864 191.65 66.9834 191.717 67.1683C191.785 67.3531 191.891 67.5218 192.027 67.6635C192.164 67.8051 192.329 67.9167 192.511 67.9909C192.694 68.0652 192.89 68.1005 193.086 68.0946V68.0946Z" fill="white"/>
<path d="M197.164 62.1083H198.532V63.2873H197.164V62.1083ZM197.164 64.0039H198.532V69.215H197.164V64.0039Z" fill="white"/>
<path d="M199.835 63.9909H201.138V65.3653C201.187 64.9674 201.379 64.6011 201.679 64.3349C201.979 64.0687 202.365 63.9209 202.766 63.9192C202.884 63.9162 203.003 63.9293 203.118 63.9583V65.2611C203.005 65.2513 202.892 65.2513 202.779 65.2611C202.553 65.2526 202.327 65.2926 202.118 65.3784C201.908 65.4642 201.719 65.5937 201.564 65.7584C201.408 65.9231 201.29 66.1191 201.216 66.3333C201.143 66.5475 201.116 66.7749 201.138 67.0003V69.2671H199.835V63.9909Z" fill="white"/>
<path d="M203.802 66.5899C203.79 66.2401 203.848 65.8915 203.973 65.5648C204.099 65.2381 204.289 64.9399 204.532 64.6883C204.775 64.4366 205.067 64.2364 205.389 64.0998C205.711 63.9632 206.058 63.8929 206.407 63.8931C207.71 63.8931 209.228 64.8246 208.935 67.111H205.027C205.125 67.4477 205.337 67.7397 205.627 67.937C205.917 68.1343 206.267 68.2245 206.616 68.1923C207.106 68.21 207.585 68.0426 207.958 67.7233L208.57 68.3747C208.31 68.6746 207.986 68.9127 207.622 69.0716C207.258 69.2304 206.863 69.3062 206.466 69.2932C206.111 69.3014 205.757 69.2369 205.428 69.1034C205.098 68.97 204.799 68.7705 204.55 68.5173C204.3 68.264 204.105 67.9624 203.977 67.631C203.848 67.2995 203.788 66.9452 203.802 66.5899ZM207.775 66.1339C207.738 65.8126 207.578 65.518 207.33 65.3108C207.081 65.1036 206.763 64.9995 206.44 65.0201C206.115 65.0124 205.797 65.12 205.543 65.3238C205.289 65.5276 205.115 65.8145 205.053 66.1339H207.775Z" fill="white"/>
<path d="M0.72998 0.0565758H15.4384C26.6554 0.0565758 35.0649 8.40743 35.0649 20.367C35.0649 32.3266 26.6554 40.684 15.4384 40.684H0.72998V0.0565758ZM15.1518 33.2776C22.8774 33.2776 26.8769 28.0079 26.8769 20.341C26.8769 12.6741 22.8708 7.4108 15.1518 7.4108H8.56624V33.2776H15.1518Z" fill="white"/>
<path d="M43.1877 25.8062C43.1877 15.5076 50.5745 10.3551 57.5184 10.3551C62.8468 10.3551 66.2796 13.2734 67.0222 14.9149H67.1916V10.9088H74.8324V40.6644H67.1655V36.704H66.9962C66.2536 38.365 62.8207 41.2637 57.4924 41.2637C50.5746 41.2637 43.1877 36.1047 43.1877 25.8062ZM59.0427 34.3915C63.3353 34.3915 67.3414 31.4147 67.3414 25.8062C67.3414 20.1977 63.3353 17.2208 59.0427 17.2208C54.75 17.2208 50.7439 20.2563 50.7439 25.8062C50.7439 31.356 54.75 34.3915 59.0427 34.3915Z" fill="white"/>
<path d="M90.2249 17.6247H75.9789V10.9283H102.53L86.6227 33.929H106.588V40.684H74.3179L90.2249 17.6247Z" fill="white"/>
<path d="M97.9766 26.3403C97.9766 16.0418 105.363 10.8892 112.307 10.8892C117.629 10.8892 121.062 13.8075 121.805 15.449H121.974V11.4429H129.641V41.1986H121.954V37.1925H121.785C121.042 38.8536 117.61 41.7523 112.288 41.7523C105.383 41.7914 97.9766 36.6453 97.9766 26.3403ZM113.851 34.9257C118.144 34.9257 122.15 31.9488 122.15 26.3403C122.15 20.7318 118.144 17.7614 113.851 17.7614C109.558 17.7614 105.552 20.7904 105.552 26.3403C105.552 31.8902 109.539 34.9257 113.851 34.9257Z" fill="#DEC388"/>
<path d="M176.737 26.3403C176.737 16.2698 184.631 10.8892 192.416 10.8892C200.2 10.8892 208.095 16.2698 208.095 26.3403C208.095 36.4108 200.141 41.7914 192.416 41.7914C184.69 41.7914 176.737 36.4108 176.737 26.3403ZM192.416 34.867C196.708 34.867 200.48 31.6622 200.48 26.3403C200.48 21.0184 196.708 17.8136 192.416 17.8136C188.123 17.8136 184.286 21.0184 184.286 26.3403C184.286 31.6622 188.11 34.867 192.416 34.867Z" fill="#DEC388"/>
<path d="M35.4622 44.0517C35.4622 44.8138 35.5273 57.0796 35.5273 57.0796C40.8296 55.627 43.1877 51.7968 43.1877 44.7878V10.9153H35.4622V44.0517Z" fill="white"/>
<path d="M43.1877 0.0565758H35.4622V6.81153H43.1877V0.0565758Z" fill="white"/>
<path d="M178.482 10.8892C170.848 10.8892 163.116 16.1004 162.849 25.7996V41.2181H170.372V25.7996C170.62 20.81 174.326 17.8136 178.469 17.8136V10.8892H178.482Z" fill="#DEC388"/>
<path d="M161.331 42.1561V26.7377V11.4625H153.657V15.4685H153.312C152.57 13.8075 149.247 10.9088 143.984 10.9088C137.119 10.9088 129.654 16.0613 129.654 26.3598C129.654 36.6584 137.092 41.8109 143.984 41.8109C149.247 41.8109 152.57 38.8927 153.312 37.2511H153.657V39.544V42.1952C153.643 43.2613 153.418 44.3141 152.996 45.2931C152.573 46.2721 151.962 47.158 151.196 47.9C150.431 48.642 149.526 49.2255 148.534 49.617C147.543 50.0085 146.483 50.2003 145.417 50.1813V50.1813V57.1056C153.188 57.1056 161.051 51.8945 161.344 42.1952L161.331 42.1561ZM145.528 34.9257C141.242 34.9257 137.236 31.8902 137.236 26.3403C137.236 20.7904 141.242 17.7615 145.528 17.7615C149.814 17.7615 153.827 20.7318 153.827 26.3403C153.827 31.9488 149.879 34.9257 145.528 34.9257Z" fill="#DEC388"/>
</g>
<defs>
<clipPath id="clip0_13_571">
<rect width="208.27" height="71.2169" fill="white" transform="translate(0.72998 0.056572)"/>
</clipPath>
</defs>
</svg>
