<svg width="209" height="72" viewBox="0 0 209 72" fill="none" xmlns="http://www.w3.org/2000/svg">
<g clip-path="url(#clip0_13_571)">
<path d="M0.72998 0.0565758H15.4384C26.6554 0.0565758 35.0649 8.40743 35.0649 20.367C35.0649 32.3266 26.6554 40.684 15.4384 40.684H0.72998V0.0565758ZM15.1518 33.2776C22.8774 33.2776 26.8769 28.0079 26.8769 20.341C26.8769 12.6741 22.8708 7.4108 15.1518 7.4108H8.56624V33.2776H15.1518Z" fill="white"/>
<path d="M43.1877 25.8062C43.1877 15.5076 50.5745 10.3551 57.5184 10.3551C62.8468 10.3551 66.2796 13.2734 67.0222 14.9149H67.1916V10.9088H74.8324V40.6644H67.1655V36.704H66.9962C66.2536 38.365 62.8207 41.2637 57.4924 41.2637C50.5746 41.2637 43.1877 36.1047 43.1877 25.8062ZM59.0427 34.3915C63.3353 34.3915 67.3414 31.4147 67.3414 25.8062C67.3414 20.1977 63.3353 17.2208 59.0427 17.2208C54.75 17.2208 50.7439 20.2563 50.7439 25.8062C50.7439 31.356 54.75 34.3915 59.0427 34.3915Z" fill="white"/>
<path d="M90.2249 17.6247H75.9789V10.9283H102.53L86.6227 33.929H106.588V40.684H74.3179L90.2249 17.6247Z" fill="white"/>
<path d="M97.9766 26.3403C97.9766 16.0418 105.363 10.8892 112.307 10.8892C117.629 10.8892 121.062 13.8075 121.805 15.449H121.974V11.4429H129.641V41.1986H121.954V37.1925H121.785C121.042 38.8536 117.61 41.7523 112.288 41.7523C105.383 41.7914 97.9766 36.6453 97.9766 26.3403ZM113.851 34.9257C118.144 34.9257 122.15 31.9488 122.15 26.3403C122.15 20.7318 118.144 17.7614 113.851 17.7614C109.558 17.7614 105.552 20.7904 105.552 26.3403C105.552 31.8902 109.539 34.9257 113.851 34.9257Z" fill="#DEC388"/>
<path d="M176.737 26.3403C176.737 16.2698 184.631 10.8892 192.416 10.8892C200.2 10.8892 208.095 16.2698 208.095 26.3403C208.095 36.4108 200.141 41.7914 192.416 41.7914C184.69 41.7914 176.737 36.4108 176.737 26.3403ZM192.416 34.867C196.708 34.867 200.48 31.6622 200.48 26.3403C200.48 21.0184 196.708 17.8136 192.416 17.8136C188.123 17.8136 184.286 21.0184 184.286 26.3403C184.286 31.6622 188.11 34.867 192.416 34.867Z" fill="#DEC388"/>
<path d="M35.4622 44.0517C35.4622 44.8138 35.5273 57.0796 35.5273 57.0796C40.8296 55.6269 43.1877 51.7968 43.1877 44.7878V10.9153H35.4622V44.0517Z" fill="white"/>
<path d="M43.1877 0.0565758H35.4622V6.81153H43.1877V0.0565758Z" fill="white"/>
<path d="M178.482 10.8892C170.848 10.8892 163.116 16.1004 162.849 25.7996V41.2181H170.372V25.7996C170.62 20.81 174.326 17.8136 178.469 17.8136V10.8892H178.482Z" fill="#DEC388"/>
<path d="M161.331 42.1561V26.7377V11.4625H153.657V15.4685H153.312C152.57 13.8075 149.247 10.9088 143.984 10.9088C137.119 10.9088 129.654 16.0613 129.654 26.3598C129.654 36.6584 137.092 41.8109 143.984 41.8109C149.247 41.8109 152.57 38.8927 153.312 37.2511H153.657V39.544V42.1952C153.643 43.2613 153.418 44.3141 152.996 45.2931C152.573 46.2721 151.962 47.158 151.196 47.9C150.431 48.642 149.526 49.2255 148.534 49.617C147.543 50.0085 146.483 50.2003 145.417 50.1813V57.1056C153.188 57.1056 161.051 51.8945 161.344 42.1952L161.331 42.1561ZM145.528 34.9257C141.242 34.9257 137.236 31.8902 137.236 26.3403C137.236 20.7904 141.242 17.7615 145.528 17.7615C149.814 17.7615 153.827 20.7318 153.827 26.3403C153.827 31.9488 149.879 34.9257 145.528 34.9257Z" fill="#DEC388"/>
<path d="M45.7939 56.4773V52.4882H45.0913V51.9517H45.7939V50.5616H46.421V51.9517H47.4788V52.4882H46.421V56.3413C46.4111 56.4161 46.4185 56.4922 46.4427 56.5636C46.4669 56.6351 46.5072 56.7 46.5606 56.7533C46.6139 56.8066 46.6788 56.847 46.7503 56.8712C46.8217 56.8954 46.8978 56.9028 46.9726 56.8929C47.1416 56.8897 47.3083 56.8538 47.4636 56.7871V57.3084C47.2726 57.4234 47.0516 57.4786 46.829 57.467C46.6926 57.4858 46.5537 57.4736 46.4227 57.4312C46.2917 57.3888 46.172 57.3173 46.0725 57.2222C45.9729 57.127 45.8962 57.0106 45.848 56.8816C45.7997 56.7526 45.7813 56.6144 45.7939 56.4773V56.4773Z" fill="white"/>
<path d="M48.5969 49.9647H49.2391V52.9415C49.4198 52.6025 49.6936 52.3222 50.0282 52.1335C50.3628 51.9447 50.7443 51.8555 51.1279 51.8762C51.4312 51.8638 51.7334 51.9178 52.0137 52.0343C52.2939 52.1508 52.5453 52.3271 52.7503 52.5509C52.9554 52.7746 53.1091 53.0404 53.2008 53.3297C53.2925 53.619 53.3199 53.9249 53.2812 54.2259V57.4368H52.6465V54.3014C52.6814 54.0631 52.663 53.8201 52.5928 53.5898C52.5227 53.3594 52.4024 53.1475 52.2406 52.9691C52.0788 52.7907 51.8796 52.6503 51.6572 52.558C51.4348 52.4658 51.1947 52.4238 50.9542 52.4353C50.7157 52.4251 50.4779 52.4666 50.257 52.557C50.0361 52.6474 49.8374 52.7845 49.6745 52.9589C49.5116 53.1333 49.3883 53.3409 49.3131 53.5674C49.238 53.7939 49.2127 54.034 49.2391 54.2712V57.4066H48.5969V49.9647Z" fill="white"/>
<path d="M54.339 54.6716C54.3183 54.306 54.3729 53.94 54.4994 53.5963C54.626 53.2526 54.8217 52.9386 55.0746 52.6737C55.3275 52.4088 55.6321 52.1986 55.9695 52.0562C56.3069 51.9138 56.67 51.8423 57.0362 51.846C57.42 51.8399 57.8004 51.9189 58.15 52.0773C58.4996 52.2357 58.8098 52.4696 59.0583 52.7621C59.3068 53.0547 59.4874 53.3986 59.5872 53.7693C59.6869 54.1399 59.7033 54.5281 59.6352 54.9058H54.951C54.9614 55.1901 55.0289 55.4693 55.1494 55.727C55.2699 55.9846 55.4409 56.2154 55.6523 56.4057C55.8637 56.596 56.1112 56.7418 56.3801 56.8346C56.649 56.9274 56.9338 56.9652 57.2175 56.9457C57.5433 56.9516 57.8664 56.8871 58.165 56.7567C58.4636 56.6263 58.7305 56.4331 58.9477 56.1902L59.2801 56.5378C58.9018 56.9659 58.4018 57.2682 57.847 57.4042C57.2921 57.5402 56.709 57.5034 56.1756 57.2987C55.6422 57.0941 55.1841 56.7314 54.8626 56.2592C54.5412 55.7869 54.3716 55.2278 54.3768 54.6565L54.339 54.6716ZM59.0535 54.3921C59.0577 54.1278 59.0082 53.8653 58.9078 53.6207C58.8075 53.3762 58.6584 53.1545 58.4697 52.9694C58.281 52.7842 58.0566 52.6394 57.8102 52.5437C57.5637 52.448 57.3004 52.4034 57.0362 52.4126C56.4988 52.4043 55.9796 52.6069 55.5898 52.977C55.2 53.347 54.9707 53.855 54.951 54.3921H59.0535Z" fill="white"/>
<path d="M63.4202 56.4773V52.4882H62.7175V51.9517H63.4202V50.5616H64.0624V51.9517H65.1201V52.4882H64.0624V56.3413C64.0511 56.4157 64.0573 56.4916 64.0805 56.5632C64.1038 56.6347 64.1434 56.6998 64.1962 56.7534C64.249 56.8069 64.3136 56.8474 64.3848 56.8716C64.456 56.8958 64.5318 56.9031 64.6063 56.8929C64.7755 56.8913 64.9426 56.8553 65.0974 56.7871V57.3084C64.9091 57.4232 64.6906 57.4785 64.4703 57.467C64.333 57.4869 64.1931 57.4755 64.0608 57.4336C63.9285 57.3918 63.8074 57.3207 63.7065 57.2256C63.6055 57.1304 63.5273 57.0137 63.4778 56.8842C63.4282 56.7546 63.4085 56.6155 63.4202 56.4773V56.4773Z" fill="white"/>
<path d="M66.2307 51.9518H66.8654V53.221C66.9588 52.823 67.1862 52.4692 67.5094 52.2189C67.8327 51.9685 68.2321 51.8369 68.6408 51.846C68.7355 51.843 68.8299 51.8558 68.9204 51.8838V52.4806C68.8322 52.4543 68.7404 52.4415 68.6484 52.4428C68.3919 52.4516 68.1399 52.5134 67.9085 52.6243C67.677 52.7353 67.471 52.8929 67.3035 53.0874C67.136 53.2819 67.0106 53.509 66.9352 53.7543C66.8598 53.9997 66.836 54.258 66.8654 54.513V57.4066H66.2307V51.9518Z" fill="white"/>
<path d="M69.5626 54.6792C69.5396 54.312 69.5928 53.9441 69.7189 53.5985C69.845 53.2529 70.0413 52.9371 70.2953 52.671C70.5493 52.4049 70.8557 52.1942 71.195 52.0523C71.5344 51.9103 71.8995 51.84 72.2673 51.846C72.713 51.8301 73.1539 51.9409 73.5391 52.1656C73.9242 52.3902 74.2377 52.7196 74.4433 53.1153V53.1153V51.9517H75.1308V57.4066H74.4886V56.2431C74.2753 56.6396 73.9525 56.9665 73.5587 57.1848C73.1649 57.4032 72.7167 57.5037 72.2673 57.4746C71.9029 57.4802 71.5411 57.411 71.2044 57.2713C70.8677 57.1316 70.5633 56.9244 70.3098 56.6624C70.0563 56.4005 69.8592 56.0893 69.7307 55.7482C69.6022 55.4071 69.545 55.0433 69.5626 54.6792V54.6792ZM72.3505 56.9457C72.8029 56.9684 73.2517 56.855 73.6391 56.6201C74.0264 56.3852 74.3345 56.0396 74.5235 55.628C74.7126 55.2163 74.7739 54.7575 74.6997 54.3106C74.6255 53.8637 74.419 53.4494 74.107 53.1209C73.795 52.7925 73.3918 52.5651 72.9493 52.4681C72.5068 52.371 72.0454 52.4088 71.6246 52.5765C71.2038 52.7442 70.8429 53.0342 70.5885 53.409C70.3341 53.7838 70.1978 54.2262 70.1972 54.6792C70.1783 54.9711 70.2203 55.2637 70.3206 55.5385C70.4209 55.8133 70.5772 56.0642 70.7798 56.2752C70.9823 56.4863 71.2265 56.6529 71.4969 56.7644C71.7674 56.876 72.058 56.93 72.3505 56.9231V56.9457Z" fill="white"/>
<path d="M81.0843 57.4066V56.2431C80.8736 56.6318 80.5578 56.9534 80.1731 57.1711C79.7883 57.3889 79.3501 57.494 78.9084 57.4746C78.1833 57.4371 77.5002 57.1227 77.0002 56.5962C76.5002 56.0697 76.2214 55.3713 76.2214 54.6452C76.2214 53.9191 76.5002 53.2207 77.0002 52.6942C77.5002 52.1677 78.1833 51.8532 78.9084 51.8158C79.3538 51.8008 79.7944 51.912 80.1794 52.1365C80.5644 52.3611 80.8781 52.6899 81.0843 53.085V53.085V49.9345H81.7265V57.3764L81.0843 57.4066ZM78.9613 56.9231C79.4137 56.9457 79.8625 56.8323 80.2499 56.5974C80.6372 56.3625 80.9453 56.0169 81.1343 55.6053C81.3234 55.1936 81.3848 54.7348 81.3105 54.2879C81.2363 53.8411 81.0299 53.4267 80.7179 53.0982C80.4059 52.7698 80.0026 52.5424 79.5601 52.4454C79.1177 52.3484 78.6563 52.3861 78.2355 52.5539C77.8146 52.7216 77.4537 53.0115 77.1993 53.3863C76.9449 53.7611 76.8086 54.2035 76.808 54.6565C76.7858 54.9502 76.8253 55.2454 76.9241 55.5229C77.0229 55.8004 77.1788 56.0541 77.3817 56.2676C77.5846 56.4812 77.8299 56.6498 78.102 56.7627C78.3741 56.8756 78.6668 56.9303 78.9613 56.9231V56.9231Z" fill="white"/>
<path d="M82.7841 54.6716C82.7634 54.3066 82.8178 53.9413 82.9439 53.5981C83.0699 53.2549 83.265 52.9412 83.5171 52.6764C83.7692 52.4116 84.0728 52.2013 84.4094 52.0585C84.7459 51.9157 85.1081 51.8433 85.4737 51.846C85.8579 51.8385 86.239 51.9166 86.5893 52.0745C86.9396 52.2325 87.2504 52.4664 87.4992 52.7593C87.7479 53.0522 87.9285 53.3967 88.0277 53.768C88.1269 54.1392 88.1423 54.5279 88.0727 54.9058H83.3885C83.4 55.1897 83.4681 55.4685 83.589 55.7256C83.7098 55.9828 83.8808 56.2132 84.092 56.4033C84.3032 56.5934 84.5503 56.7393 84.8187 56.8324C85.0872 56.9256 85.3715 56.9641 85.655 56.9457C85.98 56.9535 86.3026 56.8899 86.6003 56.7593C86.8979 56.6288 87.1633 56.4345 87.3776 56.1902L87.7176 56.5378C87.4495 56.8465 87.1155 57.0909 86.7401 57.2531C86.3648 57.4153 85.9578 57.491 85.5493 57.4746C85.18 57.4853 84.8125 57.4198 84.4697 57.2823C84.1268 57.1447 83.816 56.938 83.5566 56.675C83.2971 56.412 83.0946 56.0984 82.9617 55.7538C82.8288 55.4091 82.7683 55.0407 82.7841 54.6716V54.6716ZM87.4985 54.3921C87.5018 54.1274 87.4512 53.8648 87.35 53.6202C87.2488 53.3756 87.0991 53.154 86.9098 52.969C86.7205 52.7839 86.4956 52.6392 86.2488 52.5436C86.002 52.448 85.7383 52.4034 85.4737 52.4126C84.9363 52.4043 84.4171 52.6069 84.0273 52.977C83.6375 53.347 83.4082 53.855 83.3885 54.3921H87.4985Z" fill="white"/>
<path d="M88.6699 56.0618L89.2215 55.9031C89.2804 56.2056 89.445 56.4773 89.6858 56.6697C89.9267 56.8621 90.228 56.9626 90.5361 56.9533C91.1178 56.9533 91.7071 56.6586 91.7071 55.9787C91.7071 55.4196 91.3294 55.1703 90.6192 54.868L90.1961 54.7018C89.297 54.3316 88.9344 53.8103 88.9344 53.1908C88.9426 52.9953 88.9907 52.8037 89.0758 52.6275C89.1608 52.4513 89.2809 52.2944 89.4288 52.1663C89.5767 52.0383 89.7492 51.9418 89.9357 51.8828C90.1222 51.8238 90.3188 51.8036 90.5134 51.8233C90.8742 51.8022 91.2315 51.9044 91.5267 52.113C91.8218 52.3217 92.0373 52.6245 92.1378 52.9717L91.624 53.1379C91.5511 52.9098 91.405 52.7121 91.2083 52.5755C91.0116 52.4389 90.7753 52.371 90.5361 52.3824C90.0072 52.3824 89.5614 52.6544 89.5614 53.1984C89.5614 53.6063 89.8108 53.9161 90.453 54.1805L90.8156 54.3316C91.76 54.717 92.3267 55.0872 92.3267 55.9636C92.315 56.1848 92.2577 56.4013 92.1584 56.5994C92.0592 56.7975 91.9201 56.973 91.7499 57.1149C91.5796 57.2567 91.3819 57.3619 91.1692 57.4238C90.9564 57.4857 90.7332 57.503 90.5134 57.4746C90.0866 57.5047 89.6636 57.3776 89.3241 57.1173C88.9845 56.8571 88.7518 56.4817 88.6699 56.0618Z" fill="white"/>
<path d="M93.4069 49.9647H94.0189V52.9415C94.2004 52.6031 94.4743 52.3233 94.8087 52.1347C95.1431 51.9461 95.5243 51.8564 95.9077 51.8762C96.2112 51.864 96.5137 51.918 96.7943 52.0345C97.0748 52.151 97.3266 52.3271 97.5322 52.5507C97.7378 52.7743 97.8923 53.0399 97.9849 53.3292C98.0775 53.6185 98.106 53.9245 98.0685 54.2259V57.4368H97.4263V54.3014C97.4575 54.0659 97.4367 53.8263 97.3652 53.5997C97.2938 53.3731 97.1735 53.1649 97.0128 52.9899C96.8521 52.8148 96.655 52.6771 96.4354 52.5865C96.2157 52.4959 95.9789 52.4546 95.7415 52.4655C95.5053 52.4548 95.2694 52.4948 95.05 52.5829C94.8305 52.671 94.6325 52.8052 94.4692 52.9763C94.306 53.1474 94.1813 53.3515 94.1036 53.5749C94.026 53.7983 93.9971 54.0357 94.0189 54.2712V57.4066H93.3843L93.4069 49.9647Z" fill="white"/>
<path d="M99.1414 54.6792C99.1384 54.1227 99.3007 53.5778 99.6077 53.1136C99.9147 52.6495 100.353 52.2869 100.866 52.0718C101.379 51.8568 101.945 51.799 102.491 51.9057C103.037 52.0124 103.539 52.2789 103.934 52.6714C104.328 53.0638 104.598 53.5646 104.707 54.1102C104.817 54.6558 104.762 55.2217 104.55 55.7361C104.338 56.2505 103.977 56.6904 103.515 56.9999C103.052 57.3094 102.508 57.4746 101.952 57.4746C101.582 57.4818 101.215 57.4144 100.872 57.2767C100.528 57.1389 100.216 56.9335 99.9541 56.6727C99.6919 56.4119 99.4848 56.101 99.3452 55.7585C99.2055 55.416 99.1362 55.049 99.1414 54.6792V54.6792ZM101.952 56.9458C102.404 56.9654 102.851 56.8493 103.237 56.6124C103.622 56.3756 103.928 56.0288 104.115 55.6168C104.301 55.2047 104.36 54.7462 104.284 54.3003C104.208 53.8544 104.001 53.4414 103.688 53.1145C103.375 52.7876 102.972 52.5618 102.53 52.4661C102.088 52.3703 101.627 52.4091 101.207 52.5774C100.787 52.7457 100.427 53.0358 100.173 53.4103C99.9198 53.7849 99.784 54.2268 99.7836 54.6792C99.7691 54.9713 99.8147 55.2633 99.9175 55.5371C100.02 55.8109 100.178 56.0607 100.382 56.271C100.585 56.4813 100.829 56.6477 101.099 56.7599C101.369 56.872 101.659 56.9276 101.952 56.9231V56.9458Z" fill="white"/>
<path d="M109.688 52.7375L107.807 57.4066H107.21L105.14 51.9517H105.79L107.512 56.5755L109.371 51.9517H109.998L111.857 56.5755L113.587 51.9517H114.229L112.151 57.4066H111.555L109.688 52.7375Z" fill="white"/>
<path d="M47.3879 61.7433C47.7247 61.7298 48.0595 61.7999 48.3626 61.9473V63.0504C48.1708 62.9636 47.9607 62.9247 47.7506 62.9371C47.6422 62.9312 47.5339 62.9487 47.433 62.9884C47.332 63.0282 47.2408 63.0892 47.1655 63.1673C47.0902 63.2454 47.0327 63.3389 46.9968 63.4412C46.9608 63.5436 46.9474 63.6525 46.9573 63.7606V63.9646H48.3626V65.0827H46.9573V69.4119H45.552V65.0827H44.8569V63.9646H45.552V63.6019C45.5207 63.3523 45.5464 63.0989 45.6273 62.8607C45.7081 62.6226 45.842 62.4058 46.0187 62.2269C46.1955 62.0479 46.4106 61.9114 46.6477 61.8277C46.8849 61.7439 47.138 61.7151 47.3879 61.7433V61.7433Z" fill="white"/>
<path d="M49.1863 66.6844C49.1777 66.3072 49.2465 65.9321 49.3884 65.5825C49.5302 65.2328 49.7421 64.9158 50.0111 64.6511C50.28 64.3864 50.6003 64.1796 50.9522 64.0433C51.3041 63.907 51.6802 63.8443 52.0572 63.8588C52.6162 63.8662 53.1606 64.0389 53.6216 64.3551C54.0827 64.6712 54.44 65.1167 54.6484 65.6354C54.8568 66.1542 54.9071 66.723 54.793 67.2703C54.6788 67.8176 54.4053 68.3188 54.0068 68.711C53.6084 69.1032 53.1028 69.3686 52.5538 69.4741C52.0048 69.5795 51.4368 69.5202 50.9215 69.3035C50.4061 69.0869 49.9663 68.7226 49.6576 68.2565C49.3488 67.7905 49.1848 67.2435 49.1863 66.6844V66.6844ZM52.0572 68.2484C52.3686 68.2589 52.676 68.1762 52.94 68.0109C53.2041 67.8456 53.4128 67.6052 53.5393 67.3205C53.6658 67.0358 53.7044 66.7198 53.6502 66.413C53.5959 66.1063 53.4513 65.8227 53.2348 65.5986C53.0184 65.3746 52.7399 65.2203 52.4352 65.1556C52.1305 65.0908 51.8134 65.1185 51.5245 65.2352C51.2356 65.3518 50.9882 65.5521 50.8139 65.8103C50.6396 66.0685 50.5464 66.3729 50.5462 66.6844C50.5391 66.8873 50.5729 67.0895 50.6457 67.2789C50.7184 67.4684 50.8286 67.6413 50.9696 67.7873C51.1107 67.9332 51.2796 68.0493 51.4665 68.1285C51.6534 68.2077 51.8543 68.2485 52.0572 68.2484V68.2484Z" fill="white"/>
<path d="M56.2427 63.9645H57.6479V65.3774C57.6995 64.9607 57.9015 64.5772 58.2159 64.2989C58.5303 64.0207 58.9356 63.8668 59.3554 63.8663C59.4774 63.8642 59.5992 63.8769 59.7181 63.9041V65.2489C59.6 65.2374 59.4811 65.2374 59.363 65.2489C59.1263 65.2403 58.8905 65.2823 58.6714 65.3723C58.4522 65.4622 58.2549 65.5979 58.0925 65.7703C57.9301 65.9427 57.8064 66.1479 57.7297 66.372C57.6531 66.5961 57.6252 66.834 57.6479 67.0697V69.4496H56.2427V63.9645Z" fill="white"/>
<path d="M63.1708 66.6844C63.1449 66.3239 63.1935 65.9618 63.3134 65.6208C63.4333 65.2798 63.622 64.9671 63.8679 64.7021C64.1138 64.4371 64.4115 64.2255 64.7426 64.0804C65.0736 63.9353 65.431 63.8599 65.7925 63.8588C66.13 63.8357 66.4677 63.9009 66.7724 64.048C67.0771 64.195 67.3382 64.4188 67.5302 64.6974V64.6974V63.9419H68.9355V69.3892H67.5755V68.6336C67.3825 68.9111 67.1212 69.1341 66.8167 69.281C66.5123 69.4279 66.1752 69.4938 65.8378 69.4723C65.4763 69.4759 65.1178 69.4054 64.7845 69.265C64.4513 69.1246 64.1504 68.9173 63.9005 68.656C63.6505 68.3947 63.4568 68.085 63.3313 67.7458C63.2058 67.4067 63.1512 67.0455 63.1708 66.6844V66.6844ZM66.0645 68.2559C66.3776 68.2679 66.6872 68.1861 66.9534 68.0209C67.2197 67.8557 67.4305 67.6147 67.5587 67.3288C67.687 67.043 67.7269 66.7253 67.6732 66.4166C67.6196 66.1078 67.4749 65.8222 67.2577 65.5964C67.0405 65.3705 66.7608 65.2147 66.4544 65.149C66.1481 65.0833 65.829 65.1107 65.5383 65.2277C65.2477 65.3446 64.9986 65.5458 64.8231 65.8054C64.6476 66.0649 64.5537 66.3711 64.5534 66.6844C64.5453 66.8879 64.5784 67.0909 64.6506 67.2812C64.7229 67.4716 64.8329 67.6454 64.9741 67.7922C65.1152 67.9389 65.2845 68.0557 65.4719 68.1354C65.6593 68.2151 65.8609 68.256 66.0645 68.2559V68.2559Z" fill="white"/>
<path d="M71.6024 71.2553V70.1145C72.0138 70.3237 72.4707 70.4276 72.9321 70.4167C73.9823 70.4167 74.6547 69.9256 74.6547 69.0945V68.679H74.5943C74.404 68.9575 74.1443 69.1814 73.8408 69.3285C73.5373 69.4756 73.2006 69.5408 72.8641 69.5176C72.1574 69.4543 71.5 69.1288 71.0212 68.6052C70.5424 68.0816 70.2769 67.3977 70.2769 66.6882C70.2769 65.9787 70.5424 65.2948 71.0212 64.7712C71.5 64.2476 72.1574 63.9221 72.8641 63.8588C73.1984 63.836 73.5328 63.9015 73.8338 64.0486C74.1348 64.1958 74.3919 64.4195 74.5792 64.6974H74.6396V63.9419H76.0449V68.9812C76.0449 71.0665 74.4054 71.5651 73.1739 71.5651C72.6324 71.5949 72.0921 71.4884 71.6024 71.2553V71.2553ZM73.1663 68.2332C73.4794 68.2453 73.789 68.1635 74.0553 67.9983C74.3215 67.8331 74.5323 67.5921 74.6606 67.3062C74.7888 67.0203 74.8287 66.7026 74.7751 66.3939C74.7214 66.0852 74.5767 65.7996 74.3596 65.5737C74.1424 65.3478 73.8626 65.1921 73.5563 65.1264C73.2499 65.0607 72.9309 65.088 72.6402 65.205C72.3495 65.322 72.1004 65.5231 71.9249 65.7827C71.7494 66.0423 71.6555 66.3484 71.6553 66.6617C71.644 66.8671 71.6747 67.0725 71.7456 67.2656C71.8164 67.4586 71.9259 67.6351 72.0674 67.7844C72.2088 67.9336 72.3793 68.0524 72.5682 68.1335C72.7572 68.2145 72.9607 68.2562 73.1663 68.2559V68.2332Z" fill="white"/>
<path d="M77.6165 63.9645H79.0217V65.3774C79.0733 64.9607 79.2753 64.5772 79.5897 64.2989C79.9041 64.0206 80.3093 63.8668 80.7292 63.8663C80.8537 63.8636 80.978 63.8763 81.0994 63.9041V65.2489C80.9788 65.2377 80.8574 65.2377 80.7368 65.2489C80.5001 65.2403 80.2643 65.2823 80.0451 65.3723C79.826 65.4622 79.6286 65.5979 79.4662 65.7703C79.3038 65.9427 79.1802 66.1479 79.1035 66.372C79.0268 66.5961 78.999 66.834 79.0217 67.0697V69.4496H77.6165V63.9645Z" fill="white"/>
<path d="M81.9684 66.6844C81.9609 66.1151 82.1229 65.5563 82.4338 65.0792C82.7447 64.6022 83.1904 64.2283 83.7143 64.0052C84.2382 63.7821 84.8166 63.7198 85.376 63.8263C85.9354 63.9328 86.4505 64.2032 86.8558 64.6032C87.2611 65.0031 87.5383 65.5146 87.6521 66.0725C87.766 66.6304 87.7114 67.2096 87.4953 67.7364C87.2791 68.2632 86.9112 68.7139 86.4383 69.031C85.9654 69.3482 85.4088 69.5176 84.8394 69.5176C84.4617 69.5322 84.085 69.4692 83.7325 69.3325C83.3801 69.1957 83.0595 68.9882 82.7904 68.7227C82.5214 68.4572 82.3096 68.1393 82.1682 67.7887C82.0268 67.4382 81.9588 67.0623 81.9684 66.6844V66.6844ZM84.8394 68.2484C85.1508 68.2589 85.4582 68.1762 85.7222 68.0109C85.9863 67.8456 86.1949 67.6052 86.3214 67.3205C86.448 67.0358 86.4866 66.7198 86.4323 66.413C86.3781 66.1063 86.2335 65.8227 86.017 65.5986C85.8005 65.3746 85.5221 65.2203 85.2174 65.1556C84.9126 65.0908 84.5955 65.1185 84.3067 65.2352C84.0178 65.3518 83.7703 65.5521 83.596 65.8103C83.4217 66.0685 83.3285 66.3729 83.3284 66.6844C83.3157 66.8886 83.3457 67.0932 83.4164 67.2851C83.4872 67.4771 83.5971 67.6522 83.7393 67.7993C83.8814 67.9465 84.0527 68.0624 84.2421 68.1397C84.4315 68.217 84.6349 68.254 84.8394 68.2484V68.2484Z" fill="white"/>
<path d="M88.9417 65.944H92.1904V67.1151H88.9417V65.944Z" fill="white"/>
<path d="M95.8472 61.7433C96.184 61.7291 96.519 61.7993 96.8218 61.9473V63.0504C96.63 62.9636 96.42 62.9247 96.2098 62.9371C96.1015 62.9312 95.9932 62.9487 95.8922 62.9884C95.7913 63.0282 95.7 63.0892 95.6248 63.1673C95.5495 63.2454 95.4919 63.3389 95.456 63.4412C95.4201 63.5436 95.4066 63.6525 95.4165 63.7606V63.9646H96.8218V65.0827H95.4165V69.4119H94.0188V65.0827H93.3313V63.9646H94.0188V63.6019C93.9877 63.353 94.0134 63.1003 94.0938 62.8628C94.1742 62.6252 94.3073 62.409 94.4832 62.2302C94.6591 62.0514 94.8732 61.9147 95.1094 61.8304C95.3456 61.7461 95.5978 61.7163 95.8472 61.7433V61.7433Z" fill="white"/>
<path d="M97.6452 66.6844C97.6377 66.1151 97.7997 65.5563 98.1106 65.0792C98.4215 64.6022 98.8672 64.2283 99.3911 64.0052C99.915 63.7821 100.493 63.7198 101.053 63.8263C101.612 63.9328 102.127 64.2032 102.533 64.6032C102.938 65.0031 103.215 65.5146 103.329 66.0725C103.443 66.6304 103.388 67.2096 103.172 67.7364C102.956 68.2632 102.588 68.7139 102.115 69.031C101.642 69.3482 101.086 69.5176 100.516 69.5176C100.139 69.5311 99.7625 69.4673 99.4106 69.3302C99.0587 69.1931 98.7385 68.9855 98.4697 68.7202C98.2009 68.4549 97.9891 68.1375 97.8473 67.7874C97.7055 67.4374 97.6368 67.062 97.6452 66.6844V66.6844ZM100.516 68.2484C100.828 68.2589 101.135 68.1762 101.399 68.0109C101.663 67.8456 101.872 67.6052 101.998 67.3205C102.125 67.0358 102.163 66.7198 102.109 66.413C102.055 66.1063 101.91 65.8227 101.694 65.5986C101.477 65.3746 101.199 65.2203 100.894 65.1556C100.589 65.0908 100.272 65.1185 99.9835 65.2352C99.6946 65.3518 99.4472 65.5521 99.2729 65.8103C99.0986 66.0685 99.0053 66.3729 99.0052 66.6844C98.9981 66.8873 99.0319 67.0894 99.1046 67.2789C99.1774 67.4684 99.2876 67.6413 99.4286 67.7873C99.5696 67.9332 99.7386 68.0493 99.9255 68.1285C100.112 68.2077 100.313 68.2485 100.516 68.2484V68.2484Z" fill="white"/>
<path d="M104.422 66.6844C104.415 66.1151 104.577 65.5563 104.888 65.0792C105.199 64.6022 105.644 64.2283 106.168 64.0052C106.692 63.7821 107.271 63.7198 107.83 63.8263C108.389 63.9328 108.904 64.2032 109.31 64.6032C109.715 65.0031 109.992 65.5146 110.106 66.0725C110.22 66.6304 110.165 67.2096 109.949 67.7364C109.733 68.2632 109.365 68.7139 108.892 69.031C108.419 69.3482 107.863 69.5176 107.293 69.5176C106.916 69.5311 106.54 69.4673 106.188 69.3302C105.836 69.1931 105.516 68.9855 105.247 68.7202C104.978 68.4549 104.766 68.1375 104.624 67.7874C104.483 67.4374 104.414 67.062 104.422 66.6844V66.6844ZM107.293 68.2484C107.605 68.2589 107.912 68.1762 108.176 68.0109C108.44 67.8456 108.649 67.6052 108.775 67.3205C108.902 67.0358 108.94 66.7198 108.886 66.413C108.832 66.1063 108.687 65.8227 108.471 65.5986C108.254 65.3746 107.976 65.2203 107.671 65.1556C107.367 65.0908 107.049 65.1185 106.761 65.2352C106.472 65.3518 106.224 65.5521 106.05 65.8103C105.876 66.0685 105.782 66.3729 105.782 66.6844C105.775 66.8873 105.809 67.0894 105.882 67.2789C105.954 67.4684 106.065 67.6413 106.206 67.7873C106.347 67.9332 106.516 68.0493 106.703 68.1285C106.889 68.2077 107.09 68.2485 107.293 68.2484V68.2484Z" fill="white"/>
<path d="M115.596 69.4118V68.6563C115.403 68.9338 115.142 69.1568 114.838 69.3037C114.533 69.4506 114.196 69.5165 113.859 69.495C113.152 69.4316 112.495 69.1062 112.016 68.5825C111.537 68.0589 111.271 67.3751 111.271 66.6655C111.271 65.956 111.537 65.2721 112.016 64.7485C112.495 64.2249 113.152 63.8994 113.859 63.8361C114.196 63.8131 114.534 63.8783 114.839 64.0253C115.143 64.1724 115.404 64.3962 115.596 64.6747V64.6747V62.0077H116.994V69.4496L115.596 69.4118ZM114.085 68.2559C114.399 68.2679 114.708 68.1861 114.974 68.0209C115.241 67.8558 115.451 67.6147 115.58 67.3288C115.708 67.043 115.748 66.7253 115.694 66.4166C115.641 66.1079 115.496 65.8222 115.279 65.5964C115.061 65.3705 114.782 65.2147 114.475 65.149C114.169 65.0833 113.85 65.1107 113.559 65.2277C113.269 65.3446 113.019 65.5458 112.844 65.8054C112.668 66.065 112.575 66.3711 112.574 66.6844C112.566 66.8898 112.6 67.0947 112.674 67.2866C112.747 67.4785 112.859 67.6533 113.003 67.8004C113.146 67.9475 113.318 68.0638 113.508 68.1421C113.699 68.2204 113.903 68.2591 114.108 68.2559H114.085Z" fill="white"/>
<path d="M121.218 63.9645H122.615V64.7201C122.81 64.4425 123.073 64.2196 123.379 64.0728C123.684 63.9259 124.022 63.8601 124.361 63.8814C125.067 63.9448 125.725 64.2702 126.204 64.7939C126.682 65.3175 126.948 66.0013 126.948 66.7109C126.948 67.4204 126.682 68.1043 126.204 68.6279C125.725 69.1515 125.067 69.477 124.361 69.5403C124.023 69.5602 123.685 69.4937 123.38 69.347C123.074 69.2002 122.811 68.9782 122.615 68.7017V68.7017V71.4215H121.218V63.9645ZM124.104 68.2559C124.417 68.268 124.727 68.1861 124.993 68.021C125.259 67.8558 125.47 67.6147 125.598 67.3289C125.726 67.043 125.766 66.7253 125.713 66.4166C125.659 66.1079 125.514 65.8222 125.297 65.5964C125.08 65.3705 124.8 65.2147 124.494 65.149C124.187 65.0833 123.868 65.1107 123.578 65.2277C123.287 65.3446 123.038 65.5458 122.862 65.8054C122.687 66.065 122.593 66.3711 122.593 66.6844C122.585 66.8873 122.618 67.0896 122.689 67.2795C122.761 67.4694 122.871 67.6428 123.011 67.7895C123.151 67.9361 123.32 68.053 123.506 68.1332C123.693 68.2133 123.893 68.255 124.096 68.2559H124.104Z" fill="white"/>
<path d="M128.297 63.9645H129.702V65.3774C129.754 64.9607 129.956 64.5772 130.27 64.2989C130.585 64.0206 130.99 63.8668 131.41 63.8663C131.534 63.8636 131.658 63.8763 131.78 63.9041V65.2489C131.662 65.238 131.543 65.238 131.425 65.2489C131.187 65.2392 130.951 65.2804 130.731 65.3698C130.511 65.4593 130.312 65.5948 130.149 65.7674C129.986 65.9399 129.862 66.1454 129.784 66.3701C129.707 66.5947 129.679 66.8333 129.702 67.0697V69.4496H128.297V63.9645Z" fill="white"/>
<path d="M132.649 66.6844C132.641 66.1151 132.803 65.5563 133.114 65.0792C133.425 64.6022 133.871 64.2283 134.394 64.0052C134.918 63.7821 135.497 63.7198 136.056 63.8263C136.616 63.9328 137.131 64.2032 137.536 64.6032C137.941 65.0031 138.218 65.5146 138.332 66.0725C138.446 66.6304 138.392 67.2096 138.175 67.7364C137.959 68.2632 137.591 68.7139 137.118 69.031C136.646 69.3482 136.089 69.5176 135.52 69.5176C135.142 69.5322 134.765 69.4692 134.413 69.3325C134.06 69.1957 133.74 68.9882 133.471 68.7227C133.202 68.4572 132.99 68.1393 132.848 67.7887C132.707 67.4382 132.639 67.0623 132.649 66.6844V66.6844ZM135.52 68.2484C135.831 68.2589 136.138 68.1762 136.402 68.0109C136.666 67.8456 136.875 67.6052 137.002 67.3205C137.128 67.0358 137.167 66.7198 137.113 66.413C137.058 66.1063 136.914 65.8227 136.697 65.5986C136.481 65.3746 136.202 65.2203 135.898 65.1556C135.593 65.0908 135.276 65.1185 134.987 65.2352C134.698 65.3518 134.451 65.5521 134.276 65.8103C134.102 66.0685 134.009 66.3729 134.009 66.6844C133.996 66.8886 134.026 67.0932 134.097 67.2851C134.167 67.4771 134.277 67.6522 134.419 67.7993C134.562 67.9465 134.733 68.0624 134.922 68.1397C135.112 68.217 135.315 68.254 135.52 68.2484V68.2484Z" fill="white"/>
<path d="M143.815 69.4118V68.6563C143.62 68.9333 143.357 69.1558 143.052 69.3026C142.746 69.4494 142.408 69.5156 142.07 69.495C141.363 69.4316 140.706 69.1062 140.227 68.5825C139.748 68.0589 139.483 67.3751 139.483 66.6655C139.483 65.956 139.748 65.2721 140.227 64.7485C140.706 64.2249 141.363 63.8994 142.07 63.8361C142.409 63.8132 142.747 63.8785 143.053 64.0254C143.359 64.1724 143.622 64.3961 143.815 64.6747V64.6747V62.0077H145.221V69.4496L143.815 69.4118ZM142.304 68.2559C142.617 68.2679 142.927 68.1861 143.193 68.0209C143.46 67.8558 143.67 67.6147 143.799 67.3288C143.927 67.043 143.967 66.7253 143.913 66.4166C143.859 66.1079 143.715 65.8222 143.498 65.5964C143.28 65.3705 143.001 65.2147 142.694 65.149C142.388 65.0833 142.069 65.1107 141.778 65.2277C141.488 65.3446 141.238 65.5458 141.063 65.8054C140.887 66.065 140.794 66.3711 140.793 66.6844C140.785 66.8898 140.819 67.0947 140.893 67.2866C140.966 67.4785 141.078 67.6533 141.222 67.8004C141.365 67.9475 141.537 68.0638 141.727 68.1421C141.918 68.2204 142.122 68.2591 142.327 68.2559H142.304Z" fill="white"/>
<path d="M151.914 69.4119H150.509V68.6563C150.33 68.9328 150.082 69.1573 149.789 69.3071C149.496 69.457 149.168 69.527 148.839 69.5101C147.721 69.5101 146.777 68.815 146.777 67.1604V63.957H148.182V66.9262C148.182 67.7271 148.613 68.2484 149.346 68.2484C149.513 68.2499 149.678 68.2155 149.831 68.1473C149.983 68.0792 150.12 67.979 150.23 67.8535C150.34 67.7281 150.422 67.5803 150.471 67.4203C150.519 67.2603 150.532 67.0918 150.509 66.9262V63.957H151.914V69.4119Z" fill="white"/>
<path d="M153.207 66.6844C153.198 66.3072 153.267 65.9321 153.409 65.5825C153.55 65.2328 153.762 64.9158 154.031 64.6511C154.3 64.3864 154.621 64.1796 154.972 64.0433C155.324 63.907 155.7 63.8443 156.078 63.8588C156.553 63.8489 157.023 63.9679 157.437 64.2033C157.85 64.4388 158.193 64.7818 158.427 65.1961L157.4 65.8609C157.267 65.6314 157.077 65.4408 156.847 65.3082C156.618 65.1756 156.358 65.1057 156.093 65.1054C155.698 65.1329 155.328 65.3092 155.058 65.5988C154.788 65.8883 154.637 66.2696 154.637 66.6655C154.637 67.0615 154.788 67.4428 155.058 67.7323C155.328 68.0219 155.698 68.1982 156.093 68.2257C156.358 68.2254 156.618 68.1555 156.847 68.0229C157.077 67.8903 157.267 67.6997 157.4 67.4702L158.427 68.1275C158.192 68.5415 157.85 68.8847 157.436 69.1213C157.023 69.3578 156.554 69.4791 156.078 69.4723C155.704 69.4866 155.331 69.4249 154.981 69.291C154.632 69.157 154.314 68.9536 154.045 68.6929C153.777 68.4323 153.564 68.1199 153.42 67.7747C153.276 67.4294 153.203 67.0585 153.207 66.6844V66.6844Z" fill="white"/>
<path d="M160.24 67.9008V65.0827H159.485V63.9645H160.24V62.5668H161.653V63.9645H162.771V65.0827H161.653V67.6741C161.653 67.9537 161.812 68.2257 162.272 68.2257C162.447 68.2214 162.62 68.1935 162.786 68.1426V69.223C162.506 69.41 162.171 69.4977 161.834 69.4723C161.621 69.4986 161.404 69.4763 161.2 69.407C160.996 69.3376 160.811 69.2231 160.657 69.072C160.504 68.9208 160.387 68.737 160.315 68.5342C160.242 68.3314 160.217 68.1148 160.24 67.9008V67.9008Z" fill="white"/>
<path d="M164.124 62.0077H165.529V63.2468H164.124V62.0077ZM164.124 64.0023H165.529V69.4496H164.124V64.0023Z" fill="white"/>
<path d="M166.828 66.6844C166.821 66.1151 166.983 65.5563 167.294 65.0792C167.605 64.6022 168.05 64.2283 168.574 64.0052C169.098 63.7821 169.676 63.7198 170.236 63.8263C170.795 63.9328 171.31 64.2032 171.716 64.6032C172.121 65.0031 172.398 65.5146 172.512 66.0725C172.626 66.6304 172.571 67.2096 172.355 67.7364C172.139 68.2632 171.771 68.7139 171.298 69.031C170.825 69.3482 170.269 69.5176 169.699 69.5176C169.322 69.5322 168.945 69.4692 168.592 69.3325C168.24 69.1957 167.919 68.9882 167.65 68.7227C167.381 68.4572 167.169 68.1393 167.028 67.7887C166.887 67.4382 166.819 67.0623 166.828 66.6844V66.6844ZM169.699 68.2484C170.011 68.2589 170.318 68.1762 170.582 68.0109C170.846 67.8456 171.055 67.6052 171.181 67.3205C171.308 67.0358 171.346 66.7198 171.292 66.413C171.238 66.1063 171.093 65.8227 170.877 65.5986C170.66 65.3746 170.382 65.2203 170.077 65.1556C169.773 65.0908 169.455 65.1185 169.167 65.2352C168.878 65.3518 168.63 65.5521 168.456 65.8103C168.282 66.0685 168.188 66.3729 168.188 66.6844C168.181 66.8873 168.215 67.0894 168.288 67.2789C168.36 67.4684 168.471 67.6413 168.612 67.7873C168.753 67.9332 168.922 68.0493 169.109 68.1285C169.295 68.2077 169.496 68.2485 169.699 68.2484V68.2484Z" fill="white"/>
<path d="M173.87 63.9645H175.275V64.72C175.453 64.445 175.701 64.2219 175.993 64.0734C176.285 63.9248 176.61 63.8559 176.938 63.8739C178.063 63.8739 179 64.5614 179 66.216V69.427H177.602V66.4502C177.602 65.6493 177.172 65.128 176.439 65.128C176.272 65.1265 176.106 65.1609 175.954 65.229C175.801 65.2972 175.665 65.3974 175.555 65.5228C175.444 65.6483 175.362 65.7961 175.314 65.9561C175.266 66.1161 175.253 66.2846 175.275 66.4502V69.427H173.87V63.9645Z" fill="white"/>
</g>
<defs>
<clipPath id="clip0_13_571">
<rect width="208.27" height="71.2169" fill="white" transform="translate(0.72998 0.056572)"/>
</clipPath>
</defs>
</svg>
