<svg xmlns="http://www.w3.org/2000/svg" width="18" height="11" viewBox="0 0 18 11">
  <path fill="#FFF" fill-rule="evenodd" stroke="#FFF" stroke-width=".5" d="M256.861901,334.407203 L251.932728,330.131972 C251.706675,329.935784 251.365253,329.961484 251.170566,330.188077 C250.975159,330.415033 250.999675,330.757818 251.225727,330.954006 L255.004087,334.230561 L241.540796,334.230561 C241.242637,334.230561 241,334.473443 241,334.773517 C241,335.07359 241.242637,335.316472 241.540796,335.316472 L255.140007,335.316472 L252.986558,337.246136 L251.304323,338.581806 C251.070339,338.767859 251.029959,339.109197 251.215632,339.344478 C251.322349,339.479855 251.480262,339.550077 251.640337,339.550077 C251.75787,339.550077 251.876124,339.512432 251.97527,339.43316 L253.682022,338.076496 L256.868391,335.222722 C256.984481,335.118837 257.050098,334.969705 257.049383,334.813334 C257.047935,334.657324 256.979794,334.509279 256.861901,334.407203" transform="translate(-240 -329)"/>
</svg>
