<svg xmlns="http://www.w3.org/2000/svg" width="18" height="11" viewBox="0 0 18 11">
  <path fill="#BA9347" fill-rule="evenodd" stroke="#BA9347" stroke-width=".5" d="M446.861901,334.407203 L441.932728,330.131972 C441.706675,329.935784 441.365253,329.961484 441.170566,330.188077 C440.975159,330.415033 440.999675,330.757818 441.225727,330.954006 L445.004087,334.230561 L431.540796,334.230561 C431.242637,334.230561 431,334.473443 431,334.773517 C431,335.07359 431.242637,335.316472 431.540796,335.316472 L445.140007,335.316472 L442.986558,337.246136 L441.304323,338.581806 C441.070339,338.767859 441.029959,339.109197 441.215632,339.344478 C441.322349,339.479855 441.480262,339.550077 441.640337,339.550077 C441.75787,339.550077 441.876124,339.512432 441.97527,339.43316 L443.682022,338.076496 L446.868391,335.222722 C446.984481,335.118837 447.050098,334.969705 447.049383,334.813334 C447.047935,334.657324 446.979794,334.509279 446.861901,334.407203" transform="translate(-430 -329)"/>
</svg>
