<svg xmlns="http://www.w3.org/2000/svg" xmlns:xlink="http://www.w3.org/1999/xlink" width="18" height="11" viewBox="0 0 18 11">
  <defs>
    <polygon id="arrow-green-a" points=".733 .662 34.733 .662 34.733 18.79 .733 18.79"/>
  </defs>
  <g fill="none" fill-rule="evenodd" transform="translate(-13.302 -5.887)">
    <mask id="arrow-green-b" fill="#fff">
      <use xlink:href="#arrow-green-a"/>
    </mask>
    <path fill="#54B948" stroke="#54B948" stroke-width=".5" d="M29.8927652,11.4568483 L24.9635918,7.18161726 C24.7375392,6.98542936 24.3961168,7.01112925 24.2014303,7.23772265 C24.0060228,7.46467802 24.0305388,7.80746388 24.2565915,8.00365178 L28.0349514,11.2802068 L14.57166,11.2802068 C14.2735012,11.2802068 14.0308642,11.5230889 14.0308642,11.8231622 C14.0308642,12.1232356 14.2735012,12.3661177 14.57166,12.3661177 L28.1708714,12.3661177 L26.0174226,14.2957813 L24.3351871,15.6314516 C24.1012028,15.8175044 24.0608234,16.1588423 24.2464966,16.394123 C24.3532136,16.5294999 24.511126,16.5997221 24.6712016,16.5997221 C24.7887345,16.5997221 24.9069885,16.5620772 25.0061344,16.4828057 L26.7128859,15.1261411 L29.8992547,12.2723674 C30.0153455,12.1684819 30.0809621,12.0193501 30.0802469,11.862979 C30.0787989,11.7069698 30.0106586,11.5589239 29.8927652,11.4568483" mask="url(#arrow-green-b)"/>
  </g>
</svg>
