<svg xmlns="http://www.w3.org/2000/svg" xmlns:xlink="http://www.w3.org/1999/xlink" width="18" height="11" viewBox="0 0 18 11">
  <defs>
    <polygon id="arrow-purple-a" points=".733 .662 27.816 .662 27.816 18.79 .733 18.79"/>
  </defs>
  <g fill="none" fill-rule="evenodd" transform="translate(-2.302 -4.887)">
    <mask id="arrow-purple-b" fill="#fff">
      <use xlink:href="#arrow-purple-a"/>
    </mask>
    <path fill="#6D2361" stroke="#6D2361" stroke-width=".5" d="M18.8927652,10.4568483 L13.9635918,6.18161726 C13.7375392,5.98542936 13.3961168,6.01112925 13.2014303,6.23772265 C13.0060228,6.46467802 13.0305388,6.80746388 13.2565915,7.00365178 L17.0349514,10.2802068 L3.57165998,10.2802068 C3.27350124,10.2802068 3.0308642,10.5230889 3.0308642,10.8231622 C3.0308642,11.1232356 3.27350124,11.3661177 3.57165998,11.3661177 L17.1708714,11.3661177 L15.0174226,13.2957813 L13.3351871,14.6314516 C13.1012028,14.8175044 13.0608234,15.1588423 13.2464966,15.394123 C13.3532136,15.5294999 13.511126,15.5997221 13.6712016,15.5997221 C13.7887345,15.5997221 13.9069885,15.5620772 14.0061344,15.4828057 L15.7128859,14.1261411 L18.8992547,11.2723674 C19.0153455,11.1684819 19.0809621,11.0193501 19.0802469,10.862979 C19.0787989,10.7069698 19.0106586,10.5589239 18.8927652,10.4568483" mask="url(#arrow-purple-b)"/>
  </g>
</svg>
