<?xml version="1.0" encoding="utf-8"?>
<!-- Generator: Adobe Illustrator 21.0.2, SVG Export Plug-In . SVG Version: 6.00 Build 0)  -->
<svg version="1.1" id="Layer_1" xmlns="http://www.w3.org/2000/svg" xmlns:xlink="http://www.w3.org/1999/xlink" x="0px" y="0px"
	 viewBox="0 0 60 60" style="enable-background:new 0 0 60 60;" xml:space="preserve">
<style type="text/css">
	.st0{fill:#FFFFFF;}
</style>
<g>
	<path d="M27.6,53.7l-1-0.6C25.8,52.7,7.8,41.8,2,28.4c-1.7-4.3-2.4-14,7.3-19.8c3.7-2.2,7.4-2.9,10.8-1.9c3.1,0.9,5.3,2.9,6.7,4.6
		c3.5-3.9,10.1-7.5,18.3-2.6c9.7,5.8,9,15.5,7.3,19.7C45.7,44,29.2,52.8,28.5,53.2L27.6,53.7z M17,10.3c-1.8,0-3.6,0.6-5.6,1.8
		c-9.2,5.5-5.8,14.4-5.7,14.8c4.6,10.5,18.2,19.8,22,22.2c3.6-2.1,15.8-10,21-22.2c0.1-0.3,3.5-9.3-5.7-14.8
		c-9-5.4-14.3,3.3-14.5,3.6l-1.8,3.1L25,15.6c-0.1-0.1-2.2-4-6-5C18.3,10.4,17.7,10.3,17,10.3z"/>
</g>
<g>
	<path d="M7.7,25.5c-1.1-5.5,1.7-8.1,3.5-9.2c1.6-1,3.9-1.5,4.8-0.8l-1.3,1.6c0.1,0.1,0.2,0.1,0.2,0.1c-0.4-0.1-2.3,0.2-3.8,1.6
		c-1.5,1.5-2.1,3.6-1.5,6.3L7.7,25.5z"/>
</g>
<g>
	<circle class="st0" cx="44" cy="38.4" r="13"/>
	<path d="M44,53.4c-8.2,0-15-6.7-15-15c0-8.2,6.7-15,15-15s15,6.7,15,15C59,46.7,52.3,53.4,44,53.4z M44,27.5c-6,0-11,4.9-11,11
		c0,6,4.9,11,11,11s11-4.9,11-11C55,32.4,50.1,27.5,44,27.5z"/>
</g>
<g>
	<rect x="35.4" y="36.4" width="17.3" height="4"/>
</g>
</svg>
