<?xml version="1.0" encoding="utf-8"?>
<!-- Generator: Adobe Illustrator 21.0.2, SVG Export Plug-In . SVG Version: 6.00 Build 0)  -->
<svg version="1.1" id="Layer_1" xmlns="http://www.w3.org/2000/svg" xmlns:xlink="http://www.w3.org/1999/xlink" x="0px" y="0px"
	 viewBox="0 0 60 60" style="enable-background:new 0 0 60 60;" xml:space="preserve">
<style type="text/css">
	.st0{fill:#FFFFFF;}
</style>
<g>
	<path d="M27.5,54.3l-1-0.6C25.8,53.3,7.8,42.5,2,29.1c-1.7-4.3-2.4-14,7.3-19.8c3.7-2.2,7.4-2.9,10.8-1.9c3.1,0.9,5.3,2.9,6.7,4.5
		c3.5-3.9,10-7.5,18.2-2.6c9.7,5.8,9,15.4,7.3,19.7c-6.7,15.6-23.1,24.4-23.8,24.7L27.5,54.3z M17,11c-1.8,0-3.6,0.6-5.6,1.8
		c-9.1,5.5-5.8,14.4-5.6,14.8C10.3,38,23.9,47.3,27.6,49.7c3.5-2.1,15.8-10,21-22.2c0.1-0.3,3.5-9.3-5.7-14.7
		c-9-5.4-14.3,3.3-14.5,3.6l-1.8,3.1l-1.6-3.2c-0.1-0.1-2.2-4-6-5C18.3,11.1,17.6,11,17,11z"/>
</g>
<g>
	<path d="M8.5,26.3c-1-5.3,1.7-7.8,3.4-8.9c1.5-0.9,3.8-1.5,4.7-0.7l-1.3,1.6c0.1,0.1,0.2,0.1,0.2,0.1c-0.4-0.1-2.2,0.2-3.6,1.6
		c-1.5,1.4-1.9,3.4-1.4,6L8.5,26.3z"/>
</g>
<g>
	<circle class="st0" cx="44" cy="39.1" r="12.9"/>
	<path d="M44,54C35.7,54,29,47.3,29,39.1S35.7,24.1,44,24.1s14.9,6.7,14.9,14.9S52.2,54,44,54z M44,28.1c-6,0-10.9,4.9-10.9,10.9
		C33,45.1,37.9,50,44,50s10.9-4.9,10.9-10.9C54.9,33,50,28.1,44,28.1z"/>
</g>
<g>
	<rect x="36.4" y="37.1" width="15.1" height="4"/>
</g>
<g>
	<line class="st0" x1="44" y1="46.6" x2="44" y2="31.5"/>
	<rect x="42" y="31.5" width="4" height="15.1"/>
</g>
</svg>
