<svg xmlns="http://www.w3.org/2000/svg" width="164" height="164" viewBox="0 0 164 164">
  <g fill="#BA9347" fill-rule="evenodd" opacity=".851">
    <path d="M82,0 C36.7155,0 0,36.7155 0,82 C0,127.2845 36.7155,164 82,164 C127.2845,164 164,127.2845 164,82 C164,36.7155 127.2845,0 82,0 M82,14.35 C119.3715,14.35 149.65,44.63875 149.65,82 C149.65,119.3715 119.3715,149.65 82,149.65 C44.63875,149.65 14.35,119.3715 14.35,82 C14.40125,44.65925 44.65925,14.40125 82,14.35"/>
    <path d="M108.596079,84.8393511 L68.8049423,107.688275 C67.5608267,108.364521 65.9979707,107.903444 65.3193621,106.66366 C65.1137232,106.284552 65.0006218,105.86446 65.0006218,105.434121 L65.0006218,59.6338115 C64.9697759,58.2198422 66.0905082,57.0415345 67.499135,57.0005498 C68.0029504,56.9903037 68.4862019,57.1235037 68.9077618,57.3796575 L108.698898,80.3310432 C109.932732,81.0277817 110.364574,82.5954433 109.665401,83.8249818 C109.418634,84.2553203 109.048484,84.6139357 108.596079,84.8393511"/>
  </g>
</svg>
