<svg baseProfile="tiny" xmlns="http://www.w3.org/2000/svg" width="537.027" height="85.563" viewBox="0 0 537.027 85.563"><path d="M139.18 13.744c-1.473-1.045-3.35-1.57-5.634-1.57h-12.412V49.2h12.412c2.425 0 4.423-.81 5.992-2.427 2.996-2.996 4.495-8.298 4.495-15.91 0-9.032-1.62-14.74-4.852-17.12z" fill="none"/><path fill="#6D2463" d="M148.098 49.128c2.807-4.755 4.21-10.82 4.21-18.195 0-17.548-6.088-26.32-18.263-26.32H112.86V56.83h21.185c3.14 0 5.91-.68 8.312-2.032 2.4-1.356 4.314-3.244 5.74-5.67zm-14.553.07h-12.412V12.175h12.412c2.283 0 4.16.525 5.635 1.57 3.233 2.378 4.852 8.087 4.852 17.12 0 7.61-1.5 12.913-4.495 15.91-1.57 1.617-3.566 2.425-5.992 2.425zM179.913 42.28c0 2.137-.31 3.685-.927 4.637-.333.476-.654.903-.963 1.282-.31.382-.773.64-1.392.785-.617.144-1.14.26-1.566.357-.43.095-1.06.117-1.892.07-.832-.048-1.487-.108-1.962-.18-.476-.07-1.01-.142-1.604-.214-.596-.07-.94-.105-1.036-.105l-.142 6.346c1.998 1.282 4.72 1.926 8.17 1.926 3.446 0 6.05-.546 7.81-1.64 1.094-.715 1.937-1.75 2.532-3.102.594-1.356.952-2.557 1.07-3.604.12-1.042.178-2.305.178-3.78V4.614h-8.275V42.28zM207.807 56.83l18.19-52.218h9.132l17.476 52.218h-9.06l-3.996-12.625h-18.473l-4.07 12.625h-9.2zm15.623-20.188h13.982l-6.85-20.76-7.132 20.76zM269.37 56.83v-7.773l25.468-36.668h-25.47V4.61h35.67v7.777l-24.753 36.667h24.753v7.773z"/><path fill="#56AF31" d="M323.157 56.83l18.19-52.218h9.133l17.477 52.218h-9.06l-3.995-12.625h-18.477L332.36 56.83h-9.203zm15.622-20.188h13.982l-6.848-20.76-7.135 20.76z"/><path d="M462.766 12.175h-13.698v16.62h13.698c.998 0 1.782-.08 2.352-.25.57-.163 1.14-.486 1.713-.962 1.095-1 1.644-3.22 1.644-6.668 0-3.45-.5-5.766-1.5-6.956-.998-1.19-2.403-1.785-4.208-1.785zM528.037 20.485c-.285-1.307-.583-2.435-.892-3.388-.31-.952-.763-1.737-1.355-2.355-.595-.616-1.165-1.105-1.712-1.462-.546-.357-1.272-.63-2.175-.82-1.38-.285-2.914-.43-4.602-.43s-2.865.014-3.53.037c-.668.024-1.43.108-2.282.25-.856.142-1.534.334-2.034.57s-1.06.582-1.677 1.033c-.617.455-1.095 1.012-1.426 1.68-.333.665-.677 1.46-1.032 2.39-.36.926-.62 2.02-.787 3.282-.167 1.257-.31 2.697-.427 4.315-.118 1.617-.178 3.507-.178 5.67 0 2.164.06 4.09.178 5.78.117 1.688.31 3.197.57 4.53.26 1.332.63 2.437 1.106 3.316.473.88 1.01 1.618 1.603 2.21.596.597 1.344 1.06 2.248 1.392 1.712.572 3.887.86 6.527.86s4.697-.23 6.17-.68c1.476-.45 2.724-1.344 3.746-2.678 1.02-1.33 1.723-3.174 2.105-5.53.38-2.35.57-5.074.57-8.167 0-3.092-.048-5.505-.144-7.24-.09-1.737-.282-3.257-.567-4.565z" fill="none"/><path fill="#56AF31" d="M387.146 51.553c2.52 3.755 6.588 5.635 12.198 5.635 5.184 0 9.44-1.283 12.77-3.854l2.14 3.497h5.993V28.085c-1.71-.145-3.33-.216-4.85-.216-5.092 0-9.23.596-12.415 1.783v5.28h8.99v11.13l-1.57.857c-1 .568-2.38 1.116-4.138 1.64-1.76.523-3.377.785-4.852.785-3.993 0-6.683-1.332-8.062-3.998-1.332-2.566-1.997-7.43-1.997-14.586 0-7.158.665-12.14 1.997-14.946 1.33-2.805 4.042-4.21 8.134-4.21 2.853 0 6.038.12 9.56.357 1.427.094 2.758.204 3.994.32 1.235.12 2.247.215 3.032.286.784.07 1.198.107 1.25.107v-6.42c-6.28-1.474-12.725-2.21-19.334-2.21-5.375 0-9.415 1.663-12.128 4.99-1.236 1.476-2.225 3.39-2.96 5.745-.737 2.355-1.226 4.755-1.463 7.205-.237 2.45-.355 5.053-.355 7.81 0 2.76.045 5.042.143 6.848.38 6.52 1.688 11.49 3.923 14.913zM472.322 34.002c2.996-2.14 4.495-6.587 4.495-13.34 0-10.7-4.472-16.05-13.41-16.05H440.72v52.216h8.275V35.5l10.772 1 9.487 20.33h9.274l-10.27-20.9c.808-.237 1.437-.44 1.89-.608.45-.163 1.176-.604 2.174-1.32zm-5.492-6.42c-.572.477-1.142.8-1.713.964-.57.168-1.354.25-2.352.25h-13.698v-16.62h13.698c1.806 0 3.21.593 4.208 1.783 1 1.19 1.5 3.504 1.5 6.955 0 3.447-.55 5.668-1.643 6.668zM537.027 31c-.005-6.527-.648-11.852-1.928-15.97-.57-1.858-1.345-3.45-2.32-4.78-.975-1.333-1.984-2.38-3.032-3.14-1.045-.763-2.34-1.355-3.885-1.784-1.547-.428-3.02-.714-4.425-.856-1.402-.144-3.53-.214-6.384-.214-2.854 0-5.518.356-7.99 1.07-1.524.43-2.817 1.02-3.888 1.785-1.07.76-2.104 1.807-3.104 3.14-.997 1.33-1.807 2.935-2.426 4.812-.615 1.88-1.104 4.164-1.462 6.85-.355 2.686-.533 5.627-.533 8.81 0 3.187.117 5.956.357 8.312.236 2.355.605 4.4 1.105 6.135.498 1.732 1.07 3.258 1.713 4.563.642 1.31 1.45 2.402 2.424 3.28.974.88 2.14 1.7 3.494 2.46s3.7 1.262 7.027 1.498c5.85.43 10.63.097 14.34-.998 2.712-.806 4.994-2.472 6.848-4.99 2.702-3.693 4.058-10.294 4.068-19.795V31zm-8.846 9.458c-.382 2.355-1.083 4.2-2.104 5.53-1.022 1.333-2.27 2.226-3.745 2.676-1.473.452-3.53.68-6.17.68s-4.815-.287-6.526-.86c-.904-.33-1.652-.794-2.248-1.39-.594-.593-1.13-1.332-1.604-2.21-.477-.88-.846-1.985-1.105-3.317-.263-1.333-.454-2.842-.57-4.53-.12-1.69-.18-3.616-.18-5.78 0-2.163.06-4.053.18-5.67.116-1.618.26-3.058.427-4.315.167-1.262.428-2.356.787-3.283.356-.93.7-1.725 1.034-2.39.33-.668.81-1.225 1.426-1.68.616-.45 1.177-.795 1.677-1.032s1.178-.43 2.034-.57c.855-.143 1.615-.227 2.282-.25.666-.024 1.845-.038 3.532-.038s3.22.145 4.602.43c.902.19 1.63.463 2.175.82.548.357 1.118.846 1.713 1.462.593.618 1.047 1.403 1.355 2.355.31.953.606 2.08.892 3.388.285 1.31.477 2.83.57 4.566.096 1.736.144 4.15.144 7.24-.003 3.094-.193 5.816-.573 8.168z"/><path fill="#B7D698" d="M.2 72.758l72.103-.195L0 .653z"/><path fill="#56AF31" d="M6.274 81.762L41.23 46.616 6.084 11.664z"/><path fill="#776DB0" d="M9.127 85.563l70.098-.192-35.147-34.955z"/><path fill="#6D2463" d="M82.817 2.525L45.434 40.118 83.02 77.5z"/><path fill="#004A2C" d="M4.437 0l38.85 37.54L80.746 0z"/></svg>