<svg xmlns="http://www.w3.org/2000/svg" width="32" height="23" viewBox="0 0 32 23">
  <path fill="#BA9347" stroke="#BA9347" stroke-width=".5" d="M27.91,5 L2.68,5 C1.19987687,5 7.28306304e-14,6.19987687 7.28306304e-14,7.68 L7.28306304e-14,23.5 C7.28306304e-14,24.9801231 1.19987687,26.18 2.68,26.18 L27.91,26.18 C29.3901231,26.18 30.59,24.9801231 30.59,23.5 L30.59,7.64 C30.5681397,6.1755213 29.3746418,5 27.91,5 Z M2.05,6.13 C2.24919876,6.04498954 2.46342135,6.00078488 2.68,5.99999821 L27.91,5.99999821 C28.1266927,5.99967341 28.3411364,6.0439237 28.54,6.13 L28.84,6.25 L16.53,16.69 C15.8393207,17.3315284 14.7706793,17.3315284 14.08,16.69 L1.75,6.25 L2.05,6.13 Z M29.53,23.5 C29.5354242,23.9365953 29.3643813,24.3568947 29.055638,24.665638 C28.7468947,24.9743813 28.3265953,25.1454242 27.89,25.1401252 L2.68,25.1401252 C2.24340471,25.1454242 1.82310532,24.9743813 1.514362,24.665638 C1.20561869,24.3568947 1.03457583,23.9365953 1.04,23.5 L1.04,7.64 C1.03511826,7.59011916 1.03511826,7.53988084 1.04,7.49 L1.09,7.07 L13.39,17.49 C14.4817225,18.4212395 16.0882775,18.4212395 17.18,17.49 L29.53,7.06 L29.59,7.47 C29.59,7.53 29.59,7.58 29.59,7.64 L29.53,23.5 Z" transform="translate(1 -4)"/>
</svg>
