<svg xmlns="http://www.w3.org/2000/svg" xmlns:xlink="http://www.w3.org/1999/xlink" width="34" height="26" viewBox="0 0 34 26">
  <defs>
    <path id="picto-yt-a" d="M13.1160529,17.6333274 L13.1150468,7.76518744 L21.8144903,12.7162696 L13.1160529,17.6333274 Z M32.2173989,6.05519276 C32.2173989,6.05519276 31.9024641,3.63507835 30.9375362,2.56934996 C29.7130136,1.16996408 28.3405823,1.16337873 27.711719,1.08215947 C23.2060391,0.726550822 16.4475193,0.726550822 16.4475193,0.726550822 L16.4334327,0.726550822 C16.4334327,0.726550822 9.67491288,0.726550822 5.16923298,1.08215947 C4.53936349,1.16337873 3.16793837,1.16996408 1.94240953,2.56934996 C0.977481661,3.63507835 0.663553094,6.05519276 0.663553094,6.05519276 C0.663553094,6.05519276 0.341575075,8.89786684 0.341575075,11.7394434 L0.341575075,14.4043131 C0.341575075,17.2469872 0.663553094,20.0885637 0.663553094,20.0885637 C0.663553094,20.0885637 0.977481661,22.5086781 1.94240953,23.5744065 C3.16793837,24.9737924 4.77682227,24.9298901 5.49322337,25.0758652 C8.06904751,25.3458644 16.440476,25.4292788 16.440476,25.4292788 C16.440476,25.4292788 23.2060391,25.4183032 27.711719,25.0626946 C28.3405823,24.9803777 29.7130136,24.9737924 30.9375362,23.5744065 C31.9024641,22.5086781 32.2173989,20.0885637 32.2173989,20.0885637 C32.2173989,20.0885637 32.5393769,17.2469872 32.5393769,14.4043131 L32.5393769,11.7394434 C32.5393769,8.89786684 32.2173989,6.05519276 32.2173989,6.05519276 L32.2173989,6.05519276 Z"/>
  </defs>
  <use fill="#BA9347" fill-rule="evenodd" transform="translate(.472 -.132)" xlink:href="#picto-yt-a"/>
</svg>
