<svg xmlns="http://www.w3.org/2000/svg" xmlns:xlink="http://www.w3.org/1999/xlink" width="28" height="30" viewBox="0 0 28 30">
  <defs>
    <path id="picto-ig-a" d="M13.6840929,0 C17.4004349,0 17.8664375,0.0172054065 19.3259886,0.0899427459 C20.7824978,0.162502098 21.7772414,0.415184259 22.6476488,0.784685196 C23.5474971,1.16658589 24.3106245,1.6776458 25.0714162,2.50854827 C25.8321536,3.33951008 26.3000573,4.17302303 26.649763,5.15586705 C26.9880073,6.10655476 27.2193518,7.19304651 27.285784,8.783894 C27.352379,10.3780639 27.3681315,10.8870473 27.3681315,14.946218 C27.3681315,19.0053294 27.352379,19.5143128 27.285784,21.1084827 C27.2193518,22.6993302 26.9880073,23.7858219 26.649763,24.7365096 C26.3000573,25.7193536 25.8321536,26.5528666 25.0714162,27.3838284 C24.3106245,28.2147309 23.5474971,28.7257908 22.6476488,29.1077508 C21.7772414,29.4771924 20.7824978,29.7298746 19.3259886,29.8024339 C17.8664375,29.8751713 17.4004349,29.8923767 13.6840929,29.8923767 C9.96769664,29.8923767 9.50169407,29.8751713 8.04214295,29.8024339 C6.5856337,29.7298746 5.59089013,29.4771924 4.72048272,29.1077508 C3.82063442,28.7257908 3.05750701,28.2147309 2.29671531,27.3838284 C1.53597793,26.5528666 1.06807419,25.7193536 0.718422891,24.7365096 C0.380124255,23.7858219 0.148779699,22.6993302 0.0823475807,21.1084827 C0.0157525055,19.5143128 0,19.0053294 0,14.946218 C0,10.8870473 0.0157525055,10.3780639 0.0823475807,8.783894 C0.148779699,7.19304651 0.380124255,6.10655476 0.718422891,5.15586705 C1.06807419,4.17302303 1.53597793,3.33951008 2.29671531,2.50854827 C3.05750701,1.6776458 3.82063442,1.16658589 4.72048272,0.784685196 C5.59089013,0.415184259 6.5856337,0.162502098 8.04214295,0.0899427459 C9.50169407,0.0172054065 9.96769664,0 13.6840929,0 Z M13.6840929,2.6930021 C10.0302721,2.6930021 9.59745844,2.70824965 8.15452893,2.78015638 C6.82034603,2.84660485 6.09578509,3.09009101 5.61359547,3.29477602 C4.97485853,3.5659095 4.51901361,3.88978645 4.04019176,4.4128308 C3.56131559,4.93581583 3.26478825,5.4337047 3.01655049,6.13135427 C2.82915,6.6580177 2.60622488,7.44940707 2.54538762,8.90664568 C2.47955301,10.4826609 2.46559303,10.9553943 2.46559303,14.946218 C2.46559303,18.9369824 2.47955301,19.4097158 2.54538762,20.985731 C2.60622488,22.4429696 2.82915,23.234359 3.01655049,23.7610224 C3.26478825,24.458672 3.56136991,24.9565608 4.04019176,25.4795459 C4.51901361,26.0025902 4.97485853,26.3264672 5.61359547,26.5976007 C6.09578509,26.8022857 6.82034603,27.0457718 8.15452893,27.1122203 C9.59729548,27.184127 10.0300005,27.1993746 13.6840929,27.1993746 C17.338131,27.1993746 17.7708904,27.184127 19.2136026,27.1122203 C20.5477855,27.0457718 21.2723464,26.8022857 21.7545361,26.5976007 C22.393273,26.3264672 22.8491179,26.0025902 23.3279398,25.4795459 C23.8068159,24.9565608 24.1033433,24.458672 24.351581,23.7610224 C24.5389815,23.234359 24.7619067,22.4429696 24.8227439,20.985731 C24.8885785,19.4097158 24.9025385,18.9369824 24.9025385,14.946218 C24.9025385,10.9553943 24.8885785,10.4826609 24.8227439,8.90664568 C24.7619067,7.44940707 24.5389815,6.6580177 24.351581,6.13135427 C24.1033433,5.4337047 23.8068159,4.93581583 23.3279398,4.4128308 C22.8491179,3.88978645 22.393273,3.5659095 21.7545361,3.29477602 C21.2723464,3.09009101 20.5477855,2.84660485 19.2136026,2.78015638 C17.7706731,2.70824965 17.3378594,2.6930021 13.6840929,2.6930021 Z M13.6840929,7.27112346 C17.5649671,7.27112346 20.7110141,10.7073398 20.7110141,14.946218 C20.7110141,19.1850369 17.5649671,22.6212532 13.6840929,22.6212532 C9.80316443,22.6212532 6.65711748,19.1850369 6.65711748,14.946218 C6.65711748,10.7073398 9.80316443,7.27112346 13.6840929,7.27112346 Z M13.6840929,19.9282511 C16.2032445,19.9282511 18.245421,17.6977185 18.245421,14.946218 C18.245421,12.1946582 16.2032445,9.96412556 13.6840929,9.96412556 C11.1648871,9.96412556 9.12271051,12.1946582 9.12271051,14.946218 C9.12271051,17.6977185 11.1648871,19.9282511 13.6840929,19.9282511 Z M22.6307556,6.967893 C22.6307556,7.95844979 21.8955482,8.76140831 20.9886384,8.76140831 C20.0817829,8.76140831 19.3465755,7.95844979 19.3465755,6.967893 C19.3465755,5.97733622 20.0817829,5.17431837 20.9886384,5.17431837 C21.8955482,5.17431837 22.6307556,5.97733622 22.6307556,6.967893 Z"/>
  </defs>
  <use fill="#BA9347" fill-rule="evenodd" transform="translate(.578)" xlink:href="#picto-ig-a"/>
</svg>
