<svg xmlns="http://www.w3.org/2000/svg" xmlns:xlink="http://www.w3.org/1999/xlink" width="25" height="26" viewBox="0 0 25 26">
  <defs>
    <path id="picto-in-a" d="M23.9471151,24.2875561 L18.654476,24.2875561 L18.654476,15.7495089 C18.654476,13.5146867 17.8265772,11.9890356 16.0060445,11.9890356 C14.6135411,11.9890356 13.8391459,13.0185779 13.4787002,14.0107954 C13.343533,14.3669362 13.3646529,14.863045 13.3646529,15.3591537 L13.3646529,24.2875561 L8.1212935,24.2875561 C8.1212935,24.2875561 8.18887708,9.16323751 8.1212935,7.78844085 L13.3646529,7.78844085 L13.3646529,10.3778486 C13.674411,9.24566311 15.3499206,7.62981046 18.0236959,7.62981046 C21.3409233,7.62981046 23.9471151,10.0030454 23.9471151,15.1134321 L23.9471151,24.2875561 L23.9471151,24.2875561 Z M2.81879847,5.72469065 L2.78500668,5.72469065 C1.09541719,5.72469065 0,4.46342357 0,2.86467812 C0,1.23482868 1.12780099,0 2.85118227,0 C4.57315556,0 5.63196498,1.23171828 5.66575677,2.86001252 C5.66575677,4.45875797 4.57315556,5.72469065 2.81879847,5.72469065 L2.81879847,5.72469065 L2.81879847,5.72469065 Z M0.604028244,7.78844085 L5.27151922,7.78844085 L5.27151922,24.2875561 L0.604028244,24.2875561 L0.604028244,7.78844085 L0.604028244,7.78844085 Z"/>
  </defs>
  <use fill="#BA9347" fill-rule="evenodd" transform="translate(.104 .868)" xlink:href="#picto-in-a"/>
</svg>
